<svg xmlns="http://www.w3.org/2000/svg" viewBox="0 0 43.75 40.19"><defs><style>.a,.b{fill:gray;stroke:gray;stroke-miterlimit:10;}.a{stroke-width:1.66px;}.b{stroke-width:1.89px;}</style></defs><title>favicon</title><path class="a" d="M16.8,7.78l.48,2.69c.45,2.44.9,4.59,1.34,6.42S20.18,23,22,29.63c.18-.84.52-2.71,1-5.6q1-5.66,1.34-7.09a35.57,35.57,0,0,1,1.87-6.25,7.47,7.47,0,0,1,2-2.86A3.94,3.94,0,0,1,30.76,7a2.4,2.4,0,0,1,1.72.58,1.83,1.83,0,0,1,.6,1.37,1.67,1.67,0,0,1-.32,1,.92.92,0,0,1-.76.44,1.57,1.57,0,0,1-.72-.23l-1-.53a2.48,2.48,0,0,0-.68-.09,1.79,1.79,0,0,0-1.45.76c-.72.89-1.51,3.11-2.37,6.68S23.79,26.2,22.46,34l-.59,3.42c-1.32-3.84-2.2-6.56-2.66-8.17-.63-2.15-1.34-4.88-2.13-8.17l-1.91-7.94c-.23,1.84-.77,4.93-1.62,9.29S12.2,29.31,12,30a21.24,21.24,0,0,1-1.71,4.75,7,7,0,0,1-2,2.41A4,4,0,0,1,6,37.89a3.77,3.77,0,0,1-2.67-1,2.34,2.34,0,0,1-.8-1.82,1.34,1.34,0,0,1,.3-.86.87.87,0,0,1,.71-.38,1.69,1.69,0,0,1,1.16.76c.74.9,1.41,1.36,2,1.36a2.61,2.61,0,0,0,1.93-1.18Q10,33,11.36,27.31,13,20.41,14.43,9.78a10.84,10.84,0,0,0-2.32.46,8.45,8.45,0,0,0-2.87,1.29,5.48,5.48,0,0,0-1.77,2.18,6.68,6.68,0,0,0-.61,2.81A7.78,7.78,0,0,0,7,18a5.74,5.74,0,0,0,.45,1.23,3.38,3.38,0,0,1,.4,1.29,1.49,1.49,0,0,1-.3.94.91.91,0,0,1-.75.39c-.44,0-.82-.3-1.13-.91a6.25,6.25,0,0,1-.47-2.76A10.84,10.84,0,0,1,6.38,13,8,8,0,0,1,9.51,9.71a17.94,17.94,0,0,1,4.81-1.33A19.16,19.16,0,0,0,16.8,7.78Z" transform="translate(-1.67 -6.13)"/><path class="b" d="M26.82,20.85A12.32,12.32,0,0,0,30.11,19c4.45-3.8,8.74-6.19,9.85-7.88.73-1.08.18-1.13.11-1.17,0-.2-1.71-.29-1.71-.29l.2-1.35a19.66,19.66,0,0,0,2.95.26c1.14,0,2.83-.24,2.83-.24L44.26,9a6.2,6.2,0,0,0-2.56,1.9c-1,1.29-7.62,5.77-8.9,6.86l-3.44,2.91a12.25,12.25,0,0,1,2.3,3.7c.41,1.58,2.43,12,2.43,12s1.51,6.78,3.84,6.78c1.6,0,1.76-1.76,1.76-1.76l.41-1.94s.78-.7,1.3.09a2.77,2.77,0,0,1,0,2.12s-1,3.78-3.28,3.72c-3.54-.27-5.32-6.28-5.32-6.28s-2.44-10.9-2.92-12.49A18.39,18.39,0,0,0,26.82,20.85Z" transform="translate(-1.67 -6.13)"/></svg>