<svg xmlns="http://www.w3.org/2000/svg" viewBox="0 0 46.62 46.48"><defs><style>.a,.b{fill:gray;stroke:gray;stroke-miterlimit:10;}.a{stroke-width:1.66px;}.b{stroke-width:1.89px;}</style></defs><title>favicon</title><path class="a" d="M22.13,2.45l.67,3.72q.93,5.1,1.85,8.92t4.69,17.67Q29.7,31,30.78,25c.93-5.22,1.54-8.5,1.85-9.84a50.44,50.44,0,0,1,2.59-8.66,10.66,10.66,0,0,1,2.79-4A5.55,5.55,0,0,1,41.5,1.3a3.33,3.33,0,0,1,2.39.8A2.57,2.57,0,0,1,44.72,4a2.28,2.28,0,0,1-.45,1.4,1.28,1.28,0,0,1-1,.6,2.14,2.14,0,0,1-1-.31c-.8-.43-1.29-.67-1.45-.74a3.43,3.43,0,0,0-.93-.12,2.51,2.51,0,0,0-2,1q-1.5,1.85-3.28,9.26T30,38.88l-.81,4.74q-2.75-8-3.7-11.33-1.3-4.5-3-11.34l-2.64-11q-.48,3.83-2.25,12.88t-2.1,10.43a29.45,29.45,0,0,1-2.37,6.59,9.68,9.68,0,0,1-2.76,3.35,5.64,5.64,0,0,1-3.31,1,5.26,5.26,0,0,1-3.7-1.34,3.25,3.25,0,0,1-1.1-2.52,1.85,1.85,0,0,1,.41-1.19,1.21,1.21,0,0,1,1-.53,2.28,2.28,0,0,1,1.61,1.06c1,1.25,2,1.87,2.81,1.87A3.64,3.64,0,0,0,10.79,40q2-2.49,3.79-10.41Q16.8,20,18.83,5.22a15.12,15.12,0,0,0-3.21.64,11.89,11.89,0,0,0-4,1.79,7.59,7.59,0,0,0-2.45,3,9.24,9.24,0,0,0-.86,3.9,10.56,10.56,0,0,0,.22,2.07,7.71,7.71,0,0,0,.63,1.72,4.91,4.91,0,0,1,.55,1.78,2.08,2.08,0,0,1-.42,1.31A1.28,1.28,0,0,1,8.26,22q-.91,0-1.56-1.26a8.71,8.71,0,0,1-.65-3.83A15,15,0,0,1,7.67,9.65,11.11,11.11,0,0,1,12,5.12a25.07,25.07,0,0,1,6.68-1.84A27.94,27.94,0,0,0,22.13,2.45Z" transform="translate(-1.45 -0.47)"/><path class="b" d="M33.32,20.85A7.91,7.91,0,0,0,35.61,19a47.13,47.13,0,0,0,5.85-7.88c.73-1.08.18-1.13.11-1.17,0-.2-1.71-.29-1.71-.29l.2-1.35A19.66,19.66,0,0,0,43,8.61c1.14,0,2.83-.24,2.83-.24L45.76,9a6.2,6.2,0,0,0-2.56,1.9c-1,1.29-4.23,6.07-4.9,6.86s-2.44,2.91-2.44,2.91a35.37,35.37,0,0,1,1.3,3.7c.41,1.58,2.43,12,2.43,12s1.51,6.78,3.84,6.78c1.6,0,1.76-1.76,1.76-1.76l.41-1.94s.78-.7,1.3.09a2.77,2.77,0,0,1,0,2.12s-1,3.78-3.28,3.72c-3.54-.27-5.32-6.28-5.32-6.28s-2.44-10.9-2.92-12.49A53.74,53.74,0,0,0,33.32,20.85Z" transform="translate(-1.45 -0.47)"/></svg>