<svg xmlns="http://www.w3.org/2000/svg" viewBox="0 0 408.28 489.55"><title>Asset 7</title><path d="M178.85,489.35a141.81,141.81,0,0,1-16.6-1.24c-5.51-.7-11-1.65-16.41-2.79s-10.8-2.58-16.13-4.16c-2.64-.86-5.3-1.65-7.91-2.62-1.3-.47-2.62-.9-3.92-1.4L114,475.61c-1.3-.49-2.57-1.05-3.84-1.61l-3.82-1.67-3.75-1.83c-1.25-.61-2.51-1.21-3.72-1.9-2.45-1.32-4.91-2.62-7.26-4.11-1.19-.73-2.39-1.43-3.57-2.18L84.58,460c-2.35-1.51-4.5-3.28-6.75-4.94-1.13-.81-2.17-1.75-3.24-2.64l-3.19-2.71c-2-1.91-4.08-3.81-6.05-5.79l-2.85-3.07c-.94-1-1.93-2-2.78-3.14a118,118,0,0,1-17.79-28.34,139.84,139.84,0,0,1-9.74-32.06,51.7,51.7,0,0,1-.78-8.51c0-2.84.13-5.59.21-8.39s.31-5.58.52-8.36.47-5.56.86-8.33a170.85,170.85,0,0,1,7.11-32.75c1.72-5.32,3.76-10.54,5.84-15.68l1.54-3.85c.59-1.31,1.13-2.68,1.8-3.9,1.27-2.53,2.64-4.95,4-7.39,5.57-9.65,11.44-19.06,17.32-28.46s11.81-18.79,17.15-28.4c.61-1.21,1.29-2.42,1.84-3.62l.79-1.8c.25-.63.48-1.29.72-1.94l2.76-7.82q2.73-7.85,5.3-15.74c1.71-5.26,3.37-10.54,4.86-15.85.76-2.65,1.44-5.31,2-8l.35-2,.08-.92,0-.46,0-.59a20.76,20.76,0,0,1,.84-4.37,60.58,60.58,0,0,1,3.08-7.93c1.18-2.55,2.45-5,3.83-7.49.7-1.22,1.4-2.43,2.19-3.64.24-.32.39-.58.68-.94a8.68,8.68,0,0,1,.8-.85l1.5-1.46q3-2.89,6.15-5.67a125.26,125.26,0,0,1,13.18-10.37,33,33,0,0,1,7.6-3.93,38,38,0,0,1,8.32-1.84,81.64,81.64,0,0,1,8.39-.46c1.39,0,2.78,0,4.14-.09a27.42,27.42,0,0,0,4-.36A16.91,16.91,0,0,0,175,114a39.79,39.79,0,0,0,3.63-1.83c2.39-1.34,4.74-2.83,7.19-4.19a46.84,46.84,0,0,1,7.69-3.5,18.84,18.84,0,0,1,4.24-.91,12.63,12.63,0,0,1,4.37.41c2.82.82,5.21,2.28,7.72,3.35,1.25.56,2.53,1,3.82,1.49s2.6.8,4,1.25a33.79,33.79,0,0,1,13.87,9.41,56.66,56.66,0,0,1,5.23,6.55c1.59,2.3,3.08,4.66,4.45,7.08a89.78,89.78,0,0,1,7.05,15.14c1.87,5.24,3.41,10.58,5,15.89q4.69,15.94,10.4,31.57c1.93,5.19,3.8,10.4,6.1,15.42s4.8,10,7.55,14.76a225,225,0,0,0,18.63,27.39c1.71,2.18,3.48,4.28,5.22,6.48.86,1.1,1.69,2.22,2.53,3.34s1.64,2.26,2.41,3.42A127.43,127.43,0,0,1,314.59,281a123,123,0,0,1,10.85,31.66,164,164,0,0,1,3.21,33.31c0,2.8-.1,5.59-.28,8.38,0,1.39-.28,2.83-.42,4.25s-.47,2.75-.7,4.13l-1.53,8.22c-.23,1.38-.61,2.72-.92,4.08l-1,4.06-1,4.07c-.29,1.36-.77,2.68-1.15,4l-2.4,8c-1.92,5.24-3.67,10.55-6,15.63a145.08,145.08,0,0,1-16.56,29A118.12,118.12,0,0,1,244.33,480c-2.62.93-5.2,2-7.87,2.75-1.33.4-2.65.85-4,1.23l-4,1.07a142.53,142.53,0,0,1-16.36,3.12,164.74,164.74,0,0,1-16.6,1.31C189.94,489.66,184.38,489.47,178.85,489.35Zm0-.3c5.55.09,11.09.24,16.63,0a163.46,163.46,0,0,0,16.54-1.4,133.54,133.54,0,0,0,32-8.4,116.71,116.71,0,0,0,51.15-40.57,151.9,151.9,0,0,0,15.93-28.85c2.27-5,4-10.28,5.81-15.46l2.31-7.94c.37-1.33.83-2.63,1.11-4l.94-4,.94-4c.3-1.34.67-2.67.88-4l1.5-8.13c.22-1.35.56-2.73.7-4.06l.23-2c.09-.66.16-1.34.19-2,.18-2.74.26-5.49.3-8.24a162,162,0,0,0-3-32.81,123.64,123.64,0,0,0-10.3-31.21,125.88,125.88,0,0,0-8.19-14.31c-.75-1.16-1.56-2.27-2.34-3.41s-1.62-2.22-2.45-3.32c-1.67-2.17-3.44-4.33-5.13-6.54a227.62,227.62,0,0,1-18.39-27.82c-2.7-4.86-5.23-9.81-7.49-14.9s-4.15-10.33-6.06-15.53-3.68-10.47-5.38-15.76-3.31-10.59-4.92-15.9-3.18-10.62-5.05-15.81a87.89,87.89,0,0,0-7-14.95,71.94,71.94,0,0,0-9.58-13.4,32.4,32.4,0,0,0-13.46-8.94c-1.27-.41-2.63-.78-4-1.21s-2.65-.93-3.94-1.5c-2.59-1.08-5-2.49-7.55-3.19A13,13,0,0,0,194,106a45,45,0,0,0-7.38,3.46c-2.39,1.36-4.72,2.86-7.15,4.26-1.22.69-2.46,1.37-3.77,1.95a18.59,18.59,0,0,1-4.14,1.35,30,30,0,0,1-4.26.43c-1.41.07-2.79.09-4.18.13-2.76.07-5.5.18-8.2.52a36,36,0,0,0-7.86,1.83,31.08,31.08,0,0,0-7.1,3.77A121.24,121.24,0,0,0,127.15,134c-2,1.84-4.05,3.74-6,5.66l-1.46,1.46a5.89,5.89,0,0,0-.63.67c-.14.17-.35.5-.52.75-.72,1.12-1.4,2.31-2.06,3.5-1.32,2.4-2.55,4.86-3.67,7.35a57.4,57.4,0,0,0-2.87,7.6,18.8,18.8,0,0,0-.7,3.78l-.16,2.18c-.11.72-.24,1.42-.36,2.13-.58,2.78-1.26,5.5-2,8.18-1.49,5.37-3.13,10.68-4.82,16S98.42,203.77,96.62,209l-2.74,7.87c-.24.66-.45,1.31-.71,2l-.87,2c-.6,1.31-1.28,2.52-1.91,3.79-5.4,9.81-11.31,19.18-17.11,28.64S61.57,272.14,56,281.69c-1.36,2.4-2.72,4.8-3.94,7.23-.67,1.21-1.14,2.42-1.7,3.64l-1.55,3.87c-2.09,5.14-4.1,10.25-5.8,15.47a168.12,168.12,0,0,0-7,32.16c-.39,2.72-.57,5.47-.86,8.21s-.37,5.49-.53,8.24-.22,5.54-.26,8.24a48,48,0,0,0,.65,8,136.7,136.7,0,0,0,9.2,31.54,120.07,120.07,0,0,0,17,28.09c.82,1.1,1.77,2.1,2.68,3.13l2.75,3.08c1.9,2,3.88,3.89,5.85,5.82l3.11,2.72c1,.9,2.05,1.85,3.15,2.67,2.19,1.68,4.3,3.46,6.59,5l3.39,2.38c1.15.76,2.33,1.48,3.5,2.22,2.31,1.51,4.73,2.84,7.14,4.2,1.19.7,2.42,1.32,3.66,1.94l3.69,1.88,3.77,1.73c1.26.58,2.51,1.16,3.8,1.66,5.08,2.19,10.31,4,15.58,5.71s10.64,3.08,16,4.26,10.86,2.16,16.35,2.89A141.28,141.28,0,0,0,178.85,489.05Z"/><path d="M170.36,122.55a31,31,0,0,0,8.24-2.19c1.3-.51,2.53-1.18,3.83-1.77s2.58-1.2,3.87-1.78l1.92-.88.94-.44c.32-.15.61-.29.81-.41a1.46,1.46,0,0,0,.42-.32c0-.06,0,0,0,0a3.77,3.77,0,0,0-.42-1.31c.1,0-.29-.32-.83-.53a12.21,12.21,0,0,0-1.82-.54,32,32,0,0,0-4-.6l.78-.25a34.37,34.37,0,0,1-5,2.57c-1.69.72-3.42,1.35-5.17,1.9a27.11,27.11,0,0,1-11,1.4l.3,0a28.42,28.42,0,0,0-5.49,1.72,4.87,4.87,0,0,0-1,.57l-.09.1c-.05,0,0,0,0,0s0-.06,0-.1,0-.16,0-.28a1.7,1.7,0,0,0-.11-.23c-.14-.15,0,0,.11.06a5.51,5.51,0,0,0,.54.26c.4.18.86.33,1.31.49,1.86.59,3.84,1.15,5.82,1.62A38.51,38.51,0,0,0,170.36,122.55Zm0,.3c-2-.16-4.08-.22-6.14-.24a44,44,0,0,1-6.24-.33,14.75,14.75,0,0,1-1.62-.35,5.27,5.27,0,0,1-.87-.33,2.69,2.69,0,0,1-1.1-.84,1.46,1.46,0,0,1-.28-.56,1.74,1.74,0,0,1-.08-.65,2.59,2.59,0,0,1,.21-.83,2.94,2.94,0,0,1,.39-.63,4.47,4.47,0,0,1,.43-.44,6.15,6.15,0,0,1,1.67-1,19,19,0,0,1,6.36-1.06h.22l.08,0a13.79,13.79,0,0,0,5.1.62,19.13,19.13,0,0,0,5.14-1.25,28,28,0,0,0,4.71-2.44,45.24,45.24,0,0,0,4.25-3.07l.3-.24h.48a28.48,28.48,0,0,1,4.51.3,15.05,15.05,0,0,1,2.33.55,7.18,7.18,0,0,1,1.28.59,7.44,7.44,0,0,1,.68.53,4.74,4.74,0,0,1,.61.83,12.54,12.54,0,0,1,.53,1.15,4.5,4.5,0,0,1,.3,1.62,3.17,3.17,0,0,1-.73,2,4.59,4.59,0,0,1-1.24,1,12.14,12.14,0,0,1-1.1.58l-1,.44c-.68.29-1.36.55-2,.81a40.9,40.9,0,0,1-8.46,2.29c-1.46.19-2.91.32-4.34.47l-2.15.23C171.79,122.72,171.1,122.82,170.35,122.85Z"/><path d="M183,119.63s0-.11-.05-.13,0,0,0,0h.53l.61,0c.4,0,.8.09,1.19.16a17.77,17.77,0,0,1,2.35.55,11.53,11.53,0,0,1,2.34,1,10.36,10.36,0,0,1,2,1.63,30,30,0,0,1,3,3.64,15,15,0,0,0,1.22,1.47s0,0,0,0,.07,0,.1.07.08,0-.16.14a.62.62,0,0,0-.27.32c0,.11,0,.13,0,.14s.05-.16.06-.21l0,.08a18.26,18.26,0,0,0-1.1-3.3,9,9,0,0,0-1.91-2.81,5.33,5.33,0,0,0-1.29-.9c-.49-.27-1-.53-1.47-.82a31.73,31.73,0,0,1-2.78-2l1.1.12a10.84,10.84,0,0,1-2.34.29A15.73,15.73,0,0,0,183,119.63Zm-.3,0c.54-.32,1.2-.86,2.06-1.46a18,18,0,0,1,2.94-1.64l.5-.21.6.33a16.17,16.17,0,0,1,3,2,12.35,12.35,0,0,1,1.27,1.33,8.3,8.3,0,0,1,1.08,1.66c.53,1.12,1,2.17,1.62,3.19s1.26,2,1.94,3l0,.08a2.44,2.44,0,0,1,.22.92,1.57,1.57,0,0,1-.8,1.42,2.2,2.2,0,0,1-1.3.18,4.47,4.47,0,0,1-.45-.09,5.32,5.32,0,0,1-.5-.21,10,10,0,0,1-2.08-1.72c-1.13-1.14-2.15-2.26-3.08-3.36-.47-.53-.94-1-1.38-1.46a8.85,8.85,0,0,0-.79-.61c-.29-.21-.59-.42-.9-.62l-1.9-1.26-1-.64-.49-.33-.25-.17-.12-.09-.06,0s0,0-.05,0A.21.21,0,0,1,182.7,119.64Z"/><path d="M178.62,121.86a10.83,10.83,0,0,1,0,5.48,10,10,0,0,1-1,2.54,7.24,7.24,0,0,1-1.94,2.51,2.5,2.5,0,0,1-2.14.36,2.21,2.21,0,0,1-1.39-1.33,3.84,3.84,0,0,1-.28-1.54,8.36,8.36,0,0,1,.24-1.47,19,19,0,0,0,.44-2.52l.07-.81a2,2,0,0,0,0-.46l1,.43a3.25,3.25,0,0,1-2.12-.83,2.47,2.47,0,0,1-.88-1.85l.27-.14a3,3,0,0,0,2.53.38l.44-.15.59.59a3,3,0,0,1,.84,1.93,3.36,3.36,0,0,1-.35,1.73c-.54,1-1.35,1.46-1.81,2.13a1.87,1.87,0,0,0-.36,1,1.34,1.34,0,0,0,.4.92.49.49,0,0,0,.63.13c.15-.11.15-.24.25-.42a10.36,10.36,0,0,0,.72-1.88,17.89,17.89,0,0,1,.91-2.29,27.53,27.53,0,0,1,2.6-4.53Z"/><path d="M149.14,130.33a5.39,5.39,0,0,1,.51-2,6,6,0,0,1,1-1.53,6.34,6.34,0,0,1,1.46-1,5.48,5.48,0,0,1,1.75-.66,3.06,3.06,0,0,0,1.6-.81,17.11,17.11,0,0,0,1-1.65,3.06,3.06,0,0,1,1.52-.92,4,4,0,0,1,2-.06l.15.26a3.54,3.54,0,0,1-.39,1,4,4,0,0,1-.52.77,3.89,3.89,0,0,1-.62.6,1.83,1.83,0,0,1-.75.41,9.89,9.89,0,0,0-1.83.37,2.65,2.65,0,0,0-1.15,1.31A5.69,5.69,0,0,1,154,128a6.47,6.47,0,0,1-1.14,1.25,6.22,6.22,0,0,1-1.52.85,6.49,6.49,0,0,1-1.93.49Z"/><path d="M191.91,115.52a3.77,3.77,0,0,1,1-1.23,3.15,3.15,0,0,1,1.16-.6,3.87,3.87,0,0,1,2.5.55,1.48,1.48,0,0,0,1.21.29c.4-.1.79-.59,1.21-.78a1.48,1.48,0,0,1,1.21.12,2.59,2.59,0,0,1,1.14,1.09l0,.3a3,3,0,0,1-1.22.94,1.34,1.34,0,0,1-1.14,0c-.37-.19-.76-.67-1.15-.75a1.31,1.31,0,0,0-1.14.38,3.14,3.14,0,0,1-1.1.68,2.93,2.93,0,0,1-1.1.31,3.13,3.13,0,0,1-1.18-.25,4.75,4.75,0,0,1-1.32-.81Z"/><path d="M192.18,113.47a6.94,6.94,0,0,1,3.27-3.38,8.08,8.08,0,0,1,2.21-.62,9,9,0,0,1,1.15-.12c.4,0,.8.07,1.19.1a5.1,5.1,0,0,0,2.24-.06c.71-.18,1.4-.73,2.16-1a4.34,4.34,0,0,1,2.26.08,4.72,4.72,0,0,1,2.12,1.21l0,.3a4.84,4.84,0,0,1-1.12.52,5.17,5.17,0,0,1-1.06.3,5.31,5.31,0,0,1-1,.14,2.52,2.52,0,0,1-1,0,10.29,10.29,0,0,0-2.14-.58,3.29,3.29,0,0,0-1,.18,6,6,0,0,0-1,.52,9.69,9.69,0,0,1-1.83,1.12,11,11,0,0,1-6.18,1.55Z"/><path d="M189.57,111a4.06,4.06,0,0,1,1.31-2.89,3.83,3.83,0,0,1,1.31-.65,3.31,3.31,0,0,1,.72-.19,7,7,0,0,1,.8,0,2,2,0,0,0,1.4-.35c.37-.29.59-.92.95-1.29a1.91,1.91,0,0,1,1.36-.46,2.92,2.92,0,0,1,1.65.51l.09.28a3.06,3.06,0,0,1-.43.83,2.8,2.8,0,0,1-.5.57,2.46,2.46,0,0,1-.54.39,1.05,1.05,0,0,1-.63.17c-.47,0-1.08-.26-1.52-.14a1.67,1.67,0,0,0-1,.92,5.94,5.94,0,0,1-1.78,2.06,5.18,5.18,0,0,1-3,.49Z"/><path d="M163.93,118.44a3.12,3.12,0,0,1,.07-.57l.07-.47.14-1,.28-1.89.55-3.79c.32-2.52.71-5,.9-7.55,0-.62.06-1.23.06-1.81a11,11,0,0,0-.28-1.71l-.85-3.7c-.58-2.48-1.2-5-1.74-7.48-.26-1.26-.53-2.51-.74-3.84,0-.35-.1-.66-.13-1.05l0-.57v-.47l-.05-1.9-.26-7.63-.25-7.63c-.11-2.54-.16-5.1-.35-7.56l0-.46.19-.37c.25-.48.53-1,.67-1.3s.11-.2.07-.86a23.45,23.45,0,0,1,0-3.37,10.25,10.25,0,0,1,.29-1.82,6.93,6.93,0,0,1,.34-1l.31-.69c.2-.47.4-1,.65-1.49a6.08,6.08,0,0,1,1.09-1.69,3.77,3.77,0,0,1,1-.74,4.58,4.58,0,0,1,1.09-.33c.55-.1,1.08-.18,1.62-.25,1.07-.14,2.13-.26,3.22-.33.54,0,1.09-.07,1.67-.06a7.4,7.4,0,0,1,.91,0,2.69,2.69,0,0,1,.55.1,4.12,4.12,0,0,1,.45.14,30.35,30.35,0,0,1,3,1.31l.34.16.13.28,1,2.09.5,1a1.56,1.56,0,0,1,.11.57l0,.2a2.75,2.75,0,0,1,0,.34c0,.22-.1.4-.14.6-.4,1.53-.86,3-1.39,4.48-.14.37-.28.73-.46,1.12a1.9,1.9,0,0,1-.16.32,2,2,0,0,1-.22.31l-.39.45a11.91,11.91,0,0,0-1.32,1.74,5.13,5.13,0,0,0-.71,1.94c-.08.73-.11,1.5-.15,2.26-.06,1.53-.08,3.06-.1,4.59v2.3a7.91,7.91,0,0,0,.06,1.11c0,.35.1.74.14,1.11.45,3,1,6,1.63,9l1.85,9,1,4.49.9,4.51.88,4.49.46,2.23c.07.37.16.72.24,1.08l.12.53a.23.23,0,0,1,0,.18c1.66,2.72,3,5.41,4.47,8.16l.47.91-.77.56a22.94,22.94,0,0,1-3.1,2,28.72,28.72,0,0,1-3.3,1.49,20.7,20.7,0,0,1-3.48,1,19.74,19.74,0,0,1-3.6.4h.12a7,7,0,0,1-2.68-.17,15.21,15.21,0,0,1-2.39-.79c-.77-.32-1.51-.67-2.24-1.06-.36-.19-.71-.4-1.06-.61l-.53-.32-.26-.16-.12-.09-.07,0A.69.69,0,0,1,163.93,118.44Zm.28-.12s0,0,0,0l.07,0,.14.07.28.12.55.24,1.13.44a23.21,23.21,0,0,0,2.26.78,13.65,13.65,0,0,0,2.3.48,5.88,5.88,0,0,0,2.15-.07h0l.11,0a18.29,18.29,0,0,0,3.28-.64,22.17,22.17,0,0,0,3.13-1.15,23.88,23.88,0,0,0,3-1.56,26.37,26.37,0,0,0,2.71-1.87L185,116.6l-2.29-4c-.76-1.33-1.53-2.65-2.31-3.88a6.75,6.75,0,0,1-.36-.9l-.16-.58c-.09-.39-.2-.79-.28-1.16-.17-.76-.35-1.52-.49-2.28l-.85-4.54-.72-4.56-.62-4.56L175.74,81l-1.16-9.15c0-.39-.1-.75-.13-1.17a7.93,7.93,0,0,1,0-1.18V67.22c0-1.53,0-3.07,0-4.61,0-.77,0-1.53.08-2.33a6.51,6.51,0,0,1,.76-2.39,13.36,13.36,0,0,1,1.33-2l.34-.45a.38.38,0,0,0,.1-.16,1.37,1.37,0,0,0,.09-.2c.12-.31.24-.67.34-1,.42-1.44.8-2.93,1.07-4.39,0-.17.06-.36.08-.53a.94.94,0,0,0,0-.22v-.09a.54.54,0,0,0,.07.29l-.57-1-1.14-2,.47.45c-.94-.38-1.93-.75-2.85-1a8.12,8.12,0,0,0-2.69,0c-1,.11-2,.27-3,.46-.5.09-1,.19-1.48.3a1.18,1.18,0,0,0-.42.14.93.93,0,0,0-.25.21,9.87,9.87,0,0,0-1.13,2.4l-.32.76c-.06.16-.11.34-.16.53a8.36,8.36,0,0,0-.17,1.3,19.92,19.92,0,0,0,.14,2.94,7,7,0,0,1,0,1,4.13,4.13,0,0,1-.29,1.21c-.27.65-.51,1.07-.73,1.53l.16-.83c.52,5.21.64,10.27.79,15.4l.09,7.67v2.8c0,.25.05.57.07.86.14,1.2.36,2.46.57,3.7l1.34,7.52c.23,1.26.45,2.52.62,3.82a12.08,12.08,0,0,1,.16,2.09c-.05.69-.12,1.35-.22,2-.41,2.58-.93,5.08-1.55,7.57l-.95,3.72-.5,1.86-.26.92-.13.46C164.3,118.1,164.28,118.29,164.21,118.32Z"/><path d="M125.74,102.21a55.72,55.72,0,0,0,7.42-.18,53.4,53.4,0,0,0,7.33-1.12,31.63,31.63,0,0,0,7-2.39,13.44,13.44,0,0,0,3-2,6.32,6.32,0,0,0,1.83-2.9v0l0-.06A17.7,17.7,0,0,0,154,86.93a27.49,27.49,0,0,0-.38-6.83,46.81,46.81,0,0,0-1.69-6.69c-.71-2.21-1.6-4.28-2.46-6.65l.08.22c-.24-.45-.48-.91-.7-1.43a5.91,5.91,0,0,1-.48-1.79l.25.66a8.39,8.39,0,0,1-1.69-3.29l.25.49a9.1,9.1,0,0,1-1.6-2.81l.16.32a9.44,9.44,0,0,1-1.5-2.94l.26.52a9.78,9.78,0,0,1-1.83-3.1l.26.46a18.68,18.68,0,0,1-1.77-2.52l-1.5-2.27-.08-.13c-.56-.94-1.2-1.88-1.75-3l.26.38A7.24,7.24,0,0,1,137,45a5.69,5.69,0,0,1-.62-1.92l.83,1.15a4.26,4.26,0,0,1-1.75-1.53,4.68,4.68,0,0,1-.69-2.13l1,1.3a4.08,4.08,0,0,1-1.87-1.36A4.51,4.51,0,0,1,133,38.4l.91,1.22a4.45,4.45,0,0,1-1.75-1.33,4.72,4.72,0,0,1-.89-1.94l.84,1.07a4.46,4.46,0,0,1-1.61-1.28,4.3,4.3,0,0,1-.85-1.89l.84,1.11A4.75,4.75,0,0,1,129,34.13a4.12,4.12,0,0,1-.87-2l.92,1.19a4.44,4.44,0,0,1-1.6-1.14,3.88,3.88,0,0,1-.92-1.9l.91,1.16a4.52,4.52,0,0,1-1.5-1.05,3.26,3.26,0,0,1-.87-2.06l1,1.39a4.64,4.64,0,0,1-1.56-1.06,3.15,3.15,0,0,1-.65-1.1,3.22,3.22,0,0,1-.14-1.24l1.22,1.69A3.74,3.74,0,0,1,123,27a2.86,2.86,0,0,1-.69-1.17,3.61,3.61,0,0,1-.14-1.12l1.52,1.64a4.06,4.06,0,0,1-1-.17,3,3,0,0,1-1.1-.65,2.73,2.73,0,0,1-.69-1.13,3.35,3.35,0,0,1-.16-1L122.33,25a4.06,4.06,0,0,1-.91-.13,2.7,2.7,0,0,1-1.06-.57,2.56,2.56,0,0,1-.71-1,3.21,3.21,0,0,1-.21-1L121,23.81a3,3,0,0,1-1.78-.62,2.54,2.54,0,0,1-.73-1,3,3,0,0,1-.19-1l1.52,1.56a2.87,2.87,0,0,1-1.58-.5,2.17,2.17,0,0,1-.82-1.14,2.36,2.36,0,0,1,0-1.17l1.53,1.93c-.18,0-.35,0-.57-.05a2.66,2.66,0,0,1-.82-.26,2.29,2.29,0,0,1-.61-.48,1.89,1.89,0,0,1-.45-1,2.08,2.08,0,0,1,.28-1.35l1.2,2.37a4.15,4.15,0,0,1-1.63-.5,2.53,2.53,0,0,1-1-1.05,2.6,2.6,0,0,1-.22-1.42l1.49,1.8a4.25,4.25,0,0,1-1.83-.48,2.66,2.66,0,0,1-1-.95,2.91,2.91,0,0,1-.42-1.18l1.6,1.38a3.79,3.79,0,0,1-2-.47,3,3,0,0,1-.93-.84,3.33,3.33,0,0,1-.48-1l1.53,1.13a3.78,3.78,0,0,1-1.92-.48,3.23,3.23,0,0,1-1.39-1.69l1.41,1a3.91,3.91,0,0,1-1.76-.46,2.76,2.76,0,0,1-.94-.85,2.57,2.57,0,0,1-.45-1.27l1.46,1.43a5.07,5.07,0,0,1-1.88-.46,3,3,0,0,1-1.07-.91,2.87,2.87,0,0,1-.51-1.3l1.62,1.33a4.68,4.68,0,0,1-2.17-.36,4.2,4.2,0,0,1-1.71-1.51l1.46.65a3.72,3.72,0,0,1-2-.29,5.36,5.36,0,0,1-1.39-.89l.61.32a20.57,20.57,0,0,1-2.37-.89l-.11-.05-.08,0a7.77,7.77,0,0,0-1-.48,1.41,1.41,0,0,0-.61-.13l-.7,0-.47-.47a2,2,0,0,0-.67-.49,1.64,1.64,0,0,0-.74-.07l-.94.09-.5-.79a.47.47,0,0,0-.24-.23,1,1,0,0,0-.52,0l-.87.14-.53-.68a1,1,0,0,0-.4-.34.5.5,0,0,0-.37,0l-.82.18L90.05,7a1.55,1.55,0,0,0-1.27-.58l-.55,0-.41-.29a6.92,6.92,0,0,0-2-.89l.15,0a12.1,12.1,0,0,1-1.5-.42A4.13,4.13,0,0,1,82.8,3.81l1.36.44a4.74,4.74,0,0,1-2.19,0,4.78,4.78,0,0,1-1.93-1l1.59.11a3.4,3.4,0,0,1-2.21.43,5.23,5.23,0,0,1-1.75-.64l1.16.09a4,4,0,0,1-1.9.22,4.86,4.86,0,0,1-1.69-.54l1,.09a4.8,4.8,0,0,1-1.83.22,4.52,4.52,0,0,1-1.8-.56l1.15.05A4.55,4.55,0,0,1,72,3.12a4.15,4.15,0,0,1-1.88-.51H71.3a4.74,4.74,0,0,1-1.85.52,4.2,4.2,0,0,1-1.94-.35l1.17-.1a4.46,4.46,0,0,1-1.86.68,4,4,0,0,1-2-.27L66,2.93a4.66,4.66,0,0,1-1.85.87A4.24,4.24,0,0,1,62,3.71l1.09-.23a5,5,0,0,1-1.71.92,3.68,3.68,0,0,1-2.13,0l1.09-.19a5.65,5.65,0,0,1-1.81,1,3.32,3.32,0,0,1-2.43-.24l1.39-.26A5.07,5.07,0,0,1,55.67,6a3.88,3.88,0,0,1-2.46.12l1.17-.45a4.26,4.26,0,0,1-1.72,1.44,5.24,5.24,0,0,1-2.07.4l.77-.34a5.35,5.35,0,0,1-3.42,1.56l.56-.25A6.4,6.4,0,0,1,45.22,10l.46-.21a7.1,7.1,0,0,1-3.09,1.48l.37-.18a7.29,7.29,0,0,1-3,1.43l.37-.19a6.07,6.07,0,0,1-2.88,1.39l.43-.23a5.12,5.12,0,0,1-2.77,1.44l.45-.25A3.8,3.8,0,0,1,33,16l.55-.27a4.47,4.47,0,0,1-1,.89,2.25,2.25,0,0,1-1.6.31l.74-.3a3.78,3.78,0,0,1-.85.91,2,2,0,0,1-.73.35,1.47,1.47,0,0,1-1-.12l.9-.26a4.21,4.21,0,0,1-.74.89,2,2,0,0,1-.64.39,1.5,1.5,0,0,1-.89,0l.77-.31a3.45,3.45,0,0,1-.6.76,2,2,0,0,1-1,.51l.4-.23a7.35,7.35,0,0,1-.83.77l-.13.13-.12,0-.1,0s.09-.15.07-.15l-.88.55,0,0h.06c.05,0,.12.06.41-.13a.62.62,0,0,0,.21-.36,1.14,1.14,0,0,0,0-.19l0-.09v0l-1.06.67a.42.42,0,0,0,.2.14.44.44,0,0,0,.39,0c.08-.08,0,0,0,0l-.16.48-.54-.13a.77.77,0,0,0-.91.36l-.25.33-.35-.08a2.13,2.13,0,0,0-2.07.68l-.24.23-.3-.09a2.65,2.65,0,0,0-2.33.62l-.16.13H18a4.68,4.68,0,0,0-2.93.81l-.13.09h-.16a8.1,8.1,0,0,0-1.48.19,4,4,0,0,0-1.31.53l-.1.07h-.12A20.59,20.59,0,0,0,9,25.78l-2.79.83-2.8.83L2,27.85l-.7.21a1.43,1.43,0,0,1-.63.1A1.68,1.68,0,0,1,0,27.88l.9-.09a1.59,1.59,0,0,1,.12.27l.15.35.31.71,0,0h0a5.93,5.93,0,0,0,.67,1.43l.06.07,0,.09a5.57,5.57,0,0,0,1,2.13l.08.09,0,.12a12.62,12.62,0,0,0,1,2.85,17.62,17.62,0,0,1,1.07,3l-.08-.19a6.34,6.34,0,0,1,1.3,3.46l-.21-.38a3.71,3.71,0,0,1,1.22,1.53,5.54,5.54,0,0,1,.43,1.84l-.25-.43A3.68,3.68,0,0,1,9.1,46.21a5.48,5.48,0,0,1,.55,1.72l-.23-.39a4.5,4.5,0,0,1,1.71,2.77l-.24-.38a3.9,3.9,0,0,1,1.6,2.54l-.37-.5a3.2,3.2,0,0,1,1.08.82,2.51,2.51,0,0,1,.57,1.34l-.58-.62a2.38,2.38,0,0,1,1.07.42,1.6,1.6,0,0,1,.48.6,1.93,1.93,0,0,1,.13.72l-.8-.77a3,3,0,0,1,1.5.19A2.13,2.13,0,0,1,16.72,56l-1-.49a3.72,3.72,0,0,1,1.9-.25,2.93,2.93,0,0,1,1.74,1.06l-1.09-.16a3.4,3.4,0,0,1,2-.64,5.59,5.59,0,0,1,1.87.4l-.81.09a3.43,3.43,0,0,1,1.77-.53,14.61,14.61,0,0,1,1.49,0l-.29,0c.91-.21,1.65-.25,2.38-.39h.12a5.2,5.2,0,0,0,1.88-.39l.2-.09h.28a1.24,1.24,0,0,0,1-.33l1-.2a.41.41,0,0,0-.32.05c-.09.08,0,0,0-.06l.53-1.65,1.27,1.39,1.13,1.25.08.09.07.14a5.23,5.23,0,0,1,.42,1.05,6.25,6.25,0,0,1,.18,1l-.2-.55a1.63,1.63,0,0,1,.24.54l.07.28.06.43.11.77-.24-.57a1.25,1.25,0,0,1,.23.4l.09.2.13.33c.08.2.17.4.25.58l-.09-.17a6.26,6.26,0,0,0,1.53,1.55,15.66,15.66,0,0,0,2.05,1.23l.06,0,.08.06c.48.34,1,.68,1.49,1.1a6.54,6.54,0,0,1,1.51,1.61l-1-.61a5.85,5.85,0,0,1,1.79.32,3.74,3.74,0,0,1,1.71,1.25l-1.54-.41a3.4,3.4,0,0,1,1.71-.31,2.6,2.6,0,0,1,1.06.35,2.91,2.91,0,0,1,.75.67l-1.83-.23a2.84,2.84,0,0,1,1.56-.66,2,2,0,0,1,1.28.34,2.24,2.24,0,0,1,.72.78l-2-.36a3.68,3.68,0,0,1,.6-.41,2.32,2.32,0,0,1,1-.28,1.93,1.93,0,0,1,1.37.57,2.36,2.36,0,0,1,.53.85l-1.87-.7a2.71,2.71,0,0,1,.94-.32,2.09,2.09,0,0,1,1.4.3,2.25,2.25,0,0,1,.79.89,3.9,3.9,0,0,1,.3.75l-1.8-.88A2.12,2.12,0,0,1,50.7,67a1.82,1.82,0,0,1,.82.48,1.89,1.89,0,0,1,.4.62,2.84,2.84,0,0,1,.21.9,5,5,0,0,1,0,.67l-1.58-1.4a2,2,0,0,1,1.53.3,2.06,2.06,0,0,1,.81,1.31,4.06,4.06,0,0,1-.08,1.61l-1.22-1.63a2.19,2.19,0,0,1,2.06,1.76,4.32,4.32,0,0,1,0,1.75l-.94-1.56a2.46,2.46,0,0,1,1.09.64,2.72,2.72,0,0,1,.62,1,4.67,4.67,0,0,1,.17,1.71L53.94,74a3.31,3.31,0,0,1,1.21,1.49A4.6,4.6,0,0,1,55.5,77l-.44-.9a5.23,5.23,0,0,1,1.54,2.63L56.12,78a6.34,6.34,0,0,1,1.8,2.15l-.61-.57a6,6,0,0,1,2.26,1.69l-2.06.11a1.79,1.79,0,0,1,.41-.45,1.46,1.46,0,0,1,.8-.3,1.43,1.43,0,0,1,.64.12,1.81,1.81,0,0,1,.41.28,1.72,1.72,0,0,1,.41.69,2.34,2.34,0,0,1,.08.35l-1.81-.93a2.28,2.28,0,0,1,.83-.22,2,2,0,0,1,1,.22,2.57,2.57,0,0,1,1,1.07l-1.52-.6a2.83,2.83,0,0,1,1.9.06,3.58,3.58,0,0,1,1.29.93l-1.15-.36a3.5,3.5,0,0,1,1.86.16,4.94,4.94,0,0,1,1.37.8L64.28,83a4.94,4.94,0,0,1,3.22,1.15l-.75-.25a5.23,5.23,0,0,1,1.81.29,4.74,4.74,0,0,1,1.59,1l-.89-.29a4.61,4.61,0,0,1,1.9.19,4.24,4.24,0,0,1,1.65,1l-1-.27a3.75,3.75,0,0,1,1.82,0,3.16,3.16,0,0,1,1.58,1l-1.1-.3a3.43,3.43,0,0,1,1.69-.15,2.48,2.48,0,0,1,1.58,1L76,87.3a2.53,2.53,0,0,1,.7-.4,1.64,1.64,0,0,1,1,0,1.8,1.8,0,0,1,.77.46,2.47,2.47,0,0,1,.43.52l-1.19-.3a2.47,2.47,0,0,1,.86-.25,1.91,1.91,0,0,1,.95.16,2.81,2.81,0,0,1,1.17,1l-1-.33a2.35,2.35,0,0,1,1.91.16,3.11,3.11,0,0,1,1.16,1.25l-1-.36a2.46,2.46,0,0,1,2,.11,3.35,3.35,0,0,1,1.28,1.32l-.9-.33a2.55,2.55,0,0,1,2,.14,3.47,3.47,0,0,1,1.3,1.28l-.74-.31a3.07,3.07,0,0,1,2,.25,5,5,0,0,1,1.42,1.1l-.51-.19a3.5,3.5,0,0,1,1.66.35,10.17,10.17,0,0,1,1.3.73l-.11,0c2.76,1.28,5.22,2.74,7.8,4.14,1.28.68,2.55,1.46,3.83,2.06a21.08,21.08,0,0,0,4.18,1c2.87.46,5.78.73,8.69.94S122.82,102.11,125.74,102.21Zm0,.3q-4.36-.12-8.75-.39c-2.91-.21-5.83-.39-8.74-.79a21.6,21.6,0,0,1-4.34-.94c-1.37-.6-2.63-1.29-4-1.93-2.61-1.28-5.24-2.68-7.83-3.77l-.06,0,0,0a4.2,4.2,0,0,0-2.24-.79l-.27,0-.24-.22a3.83,3.83,0,0,0-1.08-.78,1.61,1.61,0,0,0-1.1-.09l-.45.11-.28-.42a2.12,2.12,0,0,0-.78-.73,1,1,0,0,0-.85,0l-.56.21-.34-.53a1.82,1.82,0,0,0-.7-.71.84.84,0,0,0-.74,0l-.63.24-.37-.61a1.49,1.49,0,0,0-.54-.57.62.62,0,0,0-.55,0l-.6.21-.39-.55a1,1,0,0,0-.42-.37c-.08,0-.09,0-.26.06l-.74.38-.45-.68a.61.61,0,0,0-.19-.2.28.28,0,0,0,.12,0l-.09.08-.7.64-.68-.79a.62.62,0,0,0-.41-.24,1.53,1.53,0,0,0-.68.13l-.6.23-.5-.53a1.25,1.25,0,0,0-1.38-.32l-.54.13-.44-.39a2.08,2.08,0,0,0-1.83-.52l-.48.07-.41-.36a2.53,2.53,0,0,0-1.83-.61h-.4L66,86a2.53,2.53,0,0,0-1.68-.56l-.41,0-.37-.28a2.31,2.31,0,0,0-.71-.39.93.93,0,0,0-.51,0l-.65.16-.5-.51a1.25,1.25,0,0,0-.43-.31c-.08,0-.06,0-.18,0l-1.06.31-.46-.91c0-.11-.12-.12,0,0a.57.57,0,0,0,.31.07.24.24,0,0,0,.12,0l-1.38,1-.44-1.9s0,0,0,0a.93.93,0,0,0,.24.37,1.34,1.34,0,0,0,.33.22,1.36,1.36,0,0,0,.56.11,1.09,1.09,0,0,0,.62-.23.87.87,0,0,0,.18-.17L57.59,83a3.53,3.53,0,0,0-1.33-1l-.4-.17-.22-.4a3.92,3.92,0,0,0-1.09-1.28l-.36-.26-.12-.44a2.66,2.66,0,0,0-.77-1.33l-.4-.34,0-.56a2.36,2.36,0,0,0-.15-.7.61.61,0,0,0-.23-.29l-.66-.44.06-.78a1.78,1.78,0,0,0,0-.65s0,0,0,0,.08.06.07.05l-1.16-.59.22-1a1.93,1.93,0,0,0,.05-.61.89.89,0,0,0,.16.21.58.58,0,0,0,.23.12l-1.49-.26.27-1.37c0-.13.05-.26.06-.36a.86.86,0,0,0,0-.18.64.64,0,0,0,.29.38.66.66,0,0,0,.49.14l-1.58-1.4c0-.12,0-.23,0-.3s0-.13,0-.06a.84.84,0,0,0,.55.44.63.63,0,0,0,.37,0l-1.2,1.18-.59-2.06a1.2,1.2,0,0,0-.08-.22s0,0,.12.1a.61.61,0,0,0,.41.1c.06,0,0,0,0,0l-1.42.78L47.12,68s0,0,.07.07a.77.77,0,0,0,.55.22c.17,0,.19,0,.17,0a.64.64,0,0,0-.16.11l-1.25,1-.74-1.34s0,0,.1.07a.55.55,0,0,0,.38.1c.17,0,0,0-.15.12l-.92.77-.91-1c-.09-.11,0,0,0-.06a1.16,1.16,0,0,0-.42.1l-.92.4-.61-.8a1.14,1.14,0,0,0-.55-.42,3.2,3.2,0,0,0-1-.18l-.7,0-.33-.57a9.06,9.06,0,0,0-2.3-2l.15.09a18.61,18.61,0,0,1-2.32-1.5,8.81,8.81,0,0,1-2-2.17l-.07-.1,0-.07c-.1-.24-.19-.48-.28-.71l-.12-.32,0-.12s-.05-.07.07.09l-.24-.57-.07-.75,0-.32,0-.1s0,0,.1.19l-.2-.55a4.49,4.49,0,0,0-.1-.71,2.44,2.44,0,0,0-.22-.62l.16.23L31,55.12l1.8-.25a2.32,2.32,0,0,1-.74,1,1.72,1.72,0,0,1-.8.29,2.14,2.14,0,0,1-.75-.09l1-.2a3.4,3.4,0,0,1-1.2.65,3.71,3.71,0,0,1-1.31.12l.48-.08a7.06,7.06,0,0,1-2.61.48H27c-.81.12-1.64.17-2.25.3l-.16,0h-.12a11.54,11.54,0,0,0-1.27-.06,1.85,1.85,0,0,0-.87.18l-.4.26-.41-.17a4,4,0,0,0-1.27-.33,1.73,1.73,0,0,0-1,.3l-.63.41-.46-.56a1.37,1.37,0,0,0-.77-.54,2.14,2.14,0,0,0-1.1.13l-.74.25-.25-.74c-.08-.23-.15-.33-.3-.4A1.44,1.44,0,0,0,14.2,56l-.77,0,0-.82c0-.12,0-.06,0-.12a1.23,1.23,0,0,0-.44-.17l-.54-.1,0-.52a1.36,1.36,0,0,0-.84-1.11L11.19,53l0-.33a2.59,2.59,0,0,0-1-1.73l-.2-.16,0-.23a3.21,3.21,0,0,0-1.17-2.06l-.2-.14,0-.24a3.23,3.23,0,0,0-1.27-2.36L7,45.6v-.28a3.34,3.34,0,0,0-1.16-2.6l-.2-.15v-.24a5.23,5.23,0,0,0-1-2.94l-.06-.09,0-.1a17.19,17.19,0,0,0-1-2.87,13.72,13.72,0,0,1-1.05-3l.1.22A6.35,6.35,0,0,1,1.37,31l.08.17a6.07,6.07,0,0,1-.8-1.7l0,.05-.33-.76-.16-.39A4.09,4.09,0,0,1,0,27.88l.9-.09a.39.39,0,0,0,0-.49c-.09-.1-.09-.05.07-.11L1.71,27l1.4-.43,2.79-.86,2.79-.86a24,24,0,0,1,2.91-.66l-.21.09a5.21,5.21,0,0,1,1.64-.7,8.18,8.18,0,0,1,1.7-.23l-.28.09a5.84,5.84,0,0,1,3.58-1l-.37.12a4.49,4.49,0,0,1,1.51-.81,3.3,3.3,0,0,1,1.79,0l-.53.14a4,4,0,0,1,1.37-.91,3.14,3.14,0,0,1,1.71-.14l-.6.25a2,2,0,0,1,2.16-.89l-.71.36a1.24,1.24,0,0,1,.41-.55.79.79,0,0,1,.73-.12.91.91,0,0,1,.46.37l-1.06.67a1.94,1.94,0,0,1-.1-.17c0-.05,0-.1-.06-.2a.62.62,0,0,1,0-.24.66.66,0,0,1,.23-.41.69.69,0,0,1,.52-.15l.16,0,.18.07-.88.55a1.05,1.05,0,0,1,.36-.76,1.77,1.77,0,0,1,.51-.28l-.25.16a7.58,7.58,0,0,0,.74-.71l.13-.18.26-.05a.68.68,0,0,0,.34-.2,2.05,2.05,0,0,0,.35-.47l.19-.32.58,0h.06a1,1,0,0,0,.17-.13,2.77,2.77,0,0,0,.46-.6l.23-.39.67.12h.05a.94.94,0,0,0,.17-.1,2.42,2.42,0,0,0,.51-.6l.25-.37.49.07a.78.78,0,0,0,.54-.15,3,3,0,0,0,.64-.61l.21-.24.34,0a2.36,2.36,0,0,0,1.49-.88l.17-.19.28-.05a3.6,3.6,0,0,0,1.87-1l.16-.18.27-.05A4.44,4.44,0,0,0,39.24,11l.15-.13.22-.06A5.38,5.38,0,0,0,41.8,9.67L42,9.54l.23-.06a5,5,0,0,0,2.24-1.16l.19-.16.27-.05A4.55,4.55,0,0,0,47.16,7l.22-.21.35,0a3.2,3.2,0,0,0,2.07-1l.28-.32.48,0a3.19,3.19,0,0,0,1.2-.25,2,2,0,0,0,.79-.73L53,3.82l.76.16a1.67,1.67,0,0,0,1.1-.06,2.73,2.73,0,0,0,1-.79l.56-.65.84.38a.83.83,0,0,0,.71,0,3,3,0,0,0,1-.59l.49-.38.6.19a1.75,1.75,0,0,0,1.59-.51l.46-.4.63.16A1.9,1.9,0,0,0,64.48,1L65,.54l.67.24A1.71,1.71,0,0,0,67.33.54L67.87.2l.63.24A1.71,1.71,0,0,0,70.09.31l.6-.31.62.32a1.56,1.56,0,0,0,1.44,0l.58-.24.58.29a1.89,1.89,0,0,0,1.55.1L76,.28l.51.26A1.63,1.63,0,0,0,77.86.7l.59-.23L79,.79a2.46,2.46,0,0,0,.78.29A.51.51,0,0,0,80.2,1l.85-.47.74.59a2.14,2.14,0,0,0,.82.44,2,2,0,0,0,.92-.05l.79-.18L84.9,2a1.35,1.35,0,0,0,.58.34,9.59,9.59,0,0,0,1.13.29h0l.1,0a10.14,10.14,0,0,1,2.71,1.23l-1-.25a4.07,4.07,0,0,1,2,.3A5.15,5.15,0,0,1,92.1,5L90.71,4.6a3.55,3.55,0,0,1,2.18.12A4.09,4.09,0,0,1,94.52,6l-1.41-.54a4,4,0,0,1,2.08.17A3.43,3.43,0,0,1,96.9,7l-1.43-.7a4.44,4.44,0,0,1,2.13.23A4.79,4.79,0,0,1,99.33,7.7l-1.16-.43a4.63,4.63,0,0,1,1.9.3,10.2,10.2,0,0,1,1.36.65l-.2-.09a17.29,17.29,0,0,0,2,.76l.33.08.28.24a2.49,2.49,0,0,0,.6.39.71.71,0,0,0,.38.06l.91-.12.55.77a1.15,1.15,0,0,0,.45.44,1.85,1.85,0,0,0,.73.07l1.29-.07.33,1.41s0,0,0-.08S109,12,109,12a2,2,0,0,0,.69.12l1.46,1.43a.48.48,0,0,0-.09-.24.42.42,0,0,0-.11-.12,1.25,1.25,0,0,0,.36.06h1l.46,1c.06.11,0,.06,0,.06a.88.88,0,0,0,.3,0h1.09l.44,1.13c.06.14,0,0,0,0a2.17,2.17,0,0,0,.31,0l1.41,0,.19,1.41s0,0,0-.07a.43.43,0,0,0-.15-.14,2.22,2.22,0,0,0,.47.07l1.48,1.8a.68.68,0,0,0-.07-.39.82.82,0,0,0-.26-.3,1.47,1.47,0,0,0,.38.08l1.2,2.38a1,1,0,0,0,.11-.68,1.33,1.33,0,0,0-.3-.67,1.43,1.43,0,0,0-.33-.26l-.15-.06H119l1.53,1.93a1.08,1.08,0,0,0,0-.41,1,1,0,0,0-.38-.54c-.27-.16-.22-.09-.13-.09l1.52,1.56a.23.23,0,0,0,0-.13.69.69,0,0,0-.22-.3c-.21-.16-.25-.1-.14-.11l1.44,0,.1,1.55s0,.05,0,0a.81.81,0,0,0-.17-.22.69.69,0,0,0-.18-.11h.08l1.55,0,0,1.54a.76.76,0,0,0,0,.09.66.66,0,0,0-.12-.19.46.46,0,0,0-.14-.09l.13,0,1.56.09,0,1.55a.32.32,0,0,0,0,.11.34.34,0,0,0-.07-.11c-.07-.06.06.05.32.1l.82.19.39,1.51c0,.07,0-.12,0-.08a1.49,1.49,0,0,0,.47.28l.48.22.47,1.18s0,0,0,.06a1.42,1.42,0,0,0,.44.29l.76.35.15.82a.68.68,0,0,0,.18.39,1.37,1.37,0,0,0,.49.34l.78.36.14.83a.91.91,0,0,0,.2.49,1.61,1.61,0,0,0,.53.4l.68.35.16.76a1.24,1.24,0,0,0,.73,1l.67.35.17.72a1.4,1.4,0,0,0,.85,1.11l.81.4.1.82a1.22,1.22,0,0,0,.21.63,1,1,0,0,0,.49.34l.91.37.07.94a1.59,1.59,0,0,0,.21.75,1.28,1.28,0,0,0,.53.45l.72.36.1.79a3.27,3.27,0,0,0,.94,1.83l.17.19.08.19c.4.88,1,1.82,1.56,2.81l-.09-.13c.54.85,1.08,1.69,1.61,2.54a15.27,15.27,0,0,0,1.46,2.2l.18.22.07.24a7.92,7.92,0,0,0,1.28,2.3l.2.26.06.26a7,7,0,0,0,1,2.09l.11.16L148,58A6.23,6.23,0,0,0,149.09,60l.19.25.06.25A6.12,6.12,0,0,0,150.49,63l.25.33v.34a7,7,0,0,0,.81,2.36l0,.07,0,.15,1.07,3.25c.38,1.12.74,2.26,1.06,3.41a48.63,48.63,0,0,1,1.42,7,28.82,28.82,0,0,1,.09,7.19A18.84,18.84,0,0,1,153.17,94l0-.1A7.18,7.18,0,0,1,151,97.09a14,14,0,0,1-3.23,2,31.52,31.52,0,0,1-7.16,2.26A60.34,60.34,0,0,1,125.72,102.51Z"/><path d="M99.22,16.53a73.47,73.47,0,0,1,14.13,13.61,86.74,86.74,0,0,1,5.59,8.09,71.24,71.24,0,0,1,4.63,8.66c1.37,3,2.74,5.92,4.23,8.81s3.25,5.68,4.66,8.63a45.92,45.92,0,0,1,1.85,4.54l.79,2.32.7,2.35a59,59,0,0,1,1.94,9.62l-.29.08c-1.43-3-2.63-6-3.85-8.95q-.91-2.24-1.78-4.49c-.62-1.49-1.16-3-1.68-4.53-1-3-1.89-6.2-3.21-9.15a52.6,52.6,0,0,0-4.78-8.42l-5.57-7.9c-1.89-2.6-3.82-5.15-5.77-7.7C107,27,103,21.94,99,16.75Z"/><path d="M74.05,8.57A49.18,49.18,0,0,1,85.88,20c.8,1.12,1.58,2.25,2.31,3.41l2.06,3.58c.63,1.22,1.25,2.44,1.83,3.68s1,2.56,1.52,3.83S94.48,37,95,38.3s.93,2.55,1.49,3.79,1.06,2.51,1.67,3.74,1.09,2.52,1.58,3.81.78,2.63,1.08,4,.46,2.7.65,4.06.23,2.73.27,4.1a38.07,38.07,0,0,1-.2,4.13l-.3,0c-.44-1.32-.78-2.63-1.08-3.94s-.69-2.6-1-3.9-.69-2.58-1-3.88-.66-2.58-.89-3.9-.52-2.63-.75-4-.62-2.62-1-3.91-1-2.51-1.52-3.73-1.28-2.38-1.94-3.54S90.65,32.9,90,31.76s-1.45-2.25-2.15-3.38l-2.24-3.3C84.78,24,84,22.92,83.29,21.82c-3-4.39-6.21-8.61-9.45-13Z"/><path d="M41.55,15.43A34,34,0,0,1,51.15,21a30.11,30.11,0,0,1,3.91,4,22.86,22.86,0,0,1,3.12,4.66c.87,1.67,1.67,3.32,2.59,4.92a42.66,42.66,0,0,1,2.74,4.94,14.29,14.29,0,0,1,.88,5.62A12.4,12.4,0,0,1,63,50.6l-.29-.06c-.2-1.87-.35-3.6-.64-5.31s-.67-3.37-1-5.08A21.47,21.47,0,0,0,59.9,35a14.16,14.16,0,0,0-3-4.38c-1.28-1.26-2.58-2.46-3.85-3.69s-2.65-2.32-4-3.51a93,93,0,0,1-7.68-7.7Z"/><path d="M28.9,18.16a15.38,15.38,0,0,1,7,3.87,18.83,18.83,0,0,1,1.34,1.48c.39.54.78,1.08,1.16,1.63s.71,1.12,1,1.71.53,1.23.78,1.84a17.48,17.48,0,0,0,.74,1.83,10.43,10.43,0,0,0,.9,1.72,12.22,12.22,0,0,0,1.14,1.62c.39.54.79,1.08,1.13,1.66a11.38,11.38,0,0,1,1.13,3.79,11,11,0,0,1-.22,4l-.29.05a10.19,10.19,0,0,1-1-1.75,14,14,0,0,1-.78-1.73c-.26-.57-.48-1.14-.68-1.72a9,9,0,0,1-.53-1.77c-.13-.61-.22-1.24-.31-1.89a10.62,10.62,0,0,0-.49-1.84A10.71,10.71,0,0,0,40,31a17,17,0,0,0-1.24-1.45c-.93-.88-1.82-1.75-2.64-2.67-.44-.43-.87-.87-1.3-1.31s-.86-.86-1.27-1.32c-1.61-1.85-3.25-3.66-4.83-5.86Z"/><path d="M14,26.41a2.23,2.23,0,0,1,2.37-.13,1.89,1.89,0,0,1,.59.84,1.7,1.7,0,0,1,.17.51,3.12,3.12,0,0,1,0,.61c0,.42,0,.75.23,1s.79.26,1.11.48a1,1,0,0,1,.27.95,1.88,1.88,0,0,1-.76,1.14l-.29.06a4.27,4.27,0,0,1-.72-.24,2.37,2.37,0,0,1-.46-.25,1,1,0,0,1-.27-.28.35.35,0,0,1-.06-.35c.08-.29.4-.74.34-1s-.33-.42-.71-.46a2.43,2.43,0,0,1-.92-.17,1.25,1.25,0,0,1-.61-.34,3.77,3.77,0,0,1-.41-2Z"/><path d="M12,41.63a7.07,7.07,0,0,1,1.8-1.17,7.85,7.85,0,0,1,1.79-.64,8.24,8.24,0,0,1,1.86-.1,7,7,0,0,1,1.95.22,3.12,3.12,0,0,0,1.92-.11,11.64,11.64,0,0,0,1.6-1.24,2.21,2.21,0,0,1,.87-.36,4.74,4.74,0,0,1,.93-.14,5.5,5.5,0,0,1,2.13.31l.1.28a4.24,4.24,0,0,1-1.47,1.62A3.48,3.48,0,0,1,23.6,41a19.28,19.28,0,0,0-2.08-.21,3.66,3.66,0,0,0-1.81.77c-.29.19-.57.42-.87.58a6.79,6.79,0,0,1-.93.39A7.64,7.64,0,0,1,16,43a6.83,6.83,0,0,1-2-.19,5.93,5.93,0,0,1-2-.88Z"/><path d="M44.61,60.13a9.57,9.57,0,0,1,2.16-1.6,10.39,10.39,0,0,1,4.75-1.4,9.81,9.81,0,0,1,2.54,0,5.61,5.61,0,0,0,2.49-.26,23.38,23.38,0,0,0,2.22-1.34A6,6,0,0,1,61.19,55a6.8,6.8,0,0,1,2.64.4l.08.29a6.8,6.8,0,0,1-2.16,1.58,6,6,0,0,1-2.39.67,22.71,22.71,0,0,0-2.58-.15,5.46,5.46,0,0,0-2.33.91,10.12,10.12,0,0,1-2.26,1.17,12.42,12.42,0,0,1-2.35.77,12.27,12.27,0,0,1-2.51.18,9.45,9.45,0,0,1-2.65-.41Z"/><path d="M67.67,76.65a54.13,54.13,0,0,1,9.76-1.21c1.62-.06,3.23,0,4.85.07a47.58,47.58,0,0,1,4.89.32,18.6,18.6,0,0,0,4.89-.09c1.61-.26,3.16-.94,4.74-1.35A14.78,14.78,0,0,1,99.19,74c.8-.1,1.61-.17,2.42-.22s1.63-.09,2.46-.06a16.68,16.68,0,0,1,2.52.17l.06.29A19.79,19.79,0,0,1,102,76a20.11,20.11,0,0,1-4.86.83c-1.66,0-3.35-.25-5-.17a23.86,23.86,0,0,0-4.87.77c-.81.18-1.62.39-2.44.54s-1.63.24-2.45.33a40.81,40.81,0,0,1-4.94.3A32,32,0,0,1,67.65,77Z"/><path d="M102.21,93.15a48,48,0,0,1,8.47-1.5,20.79,20.79,0,0,1,2.1-.11c.7,0,1.4-.05,2.1-.05a40.6,40.6,0,0,1,4.27,0,19.24,19.24,0,0,0,2.15,0,13.5,13.5,0,0,0,2.09-.39,15.44,15.44,0,0,0,2-.8c.65-.33,1.29-.66,2-.93a10.93,10.93,0,0,1,2-.64c.67-.18,1.36-.33,2.06-.46a21,21,0,0,1,2.13-.32,13.43,13.43,0,0,1,2.22-.11l.1.28a14.88,14.88,0,0,1-3.74,2.38A15.55,15.55,0,0,1,128,91.77c-1.46.18-3,0-4.39.26a18.85,18.85,0,0,0-4.18,1.11c-.69.23-1.39.5-2.09.69s-1.42.33-2.13.48a28.63,28.63,0,0,1-4.33.54,23.11,23.11,0,0,1-8.66-1.4Z"/><path d="M.67,28.11c13.2,4.14,26.2,8.82,39.1,13.73C46.22,44.32,52.6,47,59,49.56s12.75,5.32,19.07,8.1c3.18,1.35,6.34,2.77,9.54,4.06.79.34,1.59.64,2.39,1s1.62.73,2.38,1.15c1.5.84,3,1.63,4.56,2.45,3,1.61,6.15,3.13,9.26,4.65l9.29,4.59c6.15,3.15,12.16,6.53,18.15,10,3,1.73,6,3.48,8.92,5.28,1.48.88,2.94,1.81,4.4,2.73.73.46,1.47.9,2.21,1.4a17.06,17.06,0,0,1,2,1.67l-.18.23a30.2,30.2,0,0,0-4.53-2.41c-1.57-.73-3.14-1.46-4.69-2.22-3.11-1.51-6.19-3.06-9.27-4.64-6.14-3.15-12.25-6.37-18.22-9.83l-8.9-5.31c-3-1.79-5.92-3.57-8.93-5.26-1.51-.84-3-1.7-4.53-2.51-.76-.41-1.53-.71-2.3-1.08S88,63,87.22,62.67c-3.23-1.22-6.5-2.32-9.75-3.48-6.54-2.25-13-4.56-19.51-7S45,47.38,38.61,44.82C25.79,39.68,13.07,34.3.56,28.39Z"/><path d="M165,112.89a10.69,10.69,0,0,1-2.53-1.44,15,15,0,0,1-2-1.83,15.92,15.92,0,0,1-1.58-2.22,12.29,12.29,0,0,1-1.26-2.48,6.52,6.52,0,0,0-1.47-2.31,24.52,24.52,0,0,0-2.32-1.62,7.29,7.29,0,0,1-1.66-2.15,7.84,7.84,0,0,1-.93-2.75l.23-.19a7.83,7.83,0,0,1,2.51,1.46,7.27,7.27,0,0,1,1.79,2,24.11,24.11,0,0,0,1.13,2.59,6.43,6.43,0,0,0,2,1.89A12,12,0,0,1,161,105.6a12.29,12.29,0,0,1,3.27,4.35,11.13,11.13,0,0,1,.93,2.75Z"/><path d="M351.35,68.46a9,9,0,0,1-.21-2.64c0-.89.08-1.77.16-2.66.15-1.77.36-3.53.56-5.29s.43-3.53.52-5.29a8,8,0,0,0,0-1.3,1,1,0,0,0-.07-.28s0,0-.11,0a3.32,3.32,0,0,0-.58.23c-.77.4-1.52.89-2.26,1.37-2.94,2-5.8,4.07-8.65,6.17S335,63,332.19,65.16l-.16.12-.21-.08a8.76,8.76,0,0,0-1.73-.43,11.14,11.14,0,0,0-1.82-.13,11.42,11.42,0,0,0-3.57.64l.06,0-.1,0-.11,0h-.05a.59.59,0,0,1-.24,0A.48.48,0,0,1,324,65a.57.57,0,0,1,.08-.28,1,1,0,0,1,.2-.21l.26-.22.52-.41,1.05-.79,2.09-1.56,4.22-3.07,8.48-6.08.59.94-13.68,7.58.15-.12-5.52,5.91,0,0,0,0-6.83,5.91-.11.09-.13,0-2.94,1L311,74.2l.46-1.37A22.14,22.14,0,0,1,314,67.55a39.12,39.12,0,0,1,3.66-4.49c1.3-1.4,2.65-2.75,4.08-4.05.71-.64,1.44-1.27,2.22-1.87.39-.29.8-.58,1.23-.85s.92-.49,1.36-.7c7-3.05,14-5.89,20.75-9.14.83-.41,1.69-.82,2.49-1.26.42-.22.8-.44,1.17-.68l.28-.17.18-.15.19-.14.17-.24c.45-.68.91-1.53,1.34-2.35s.84-1.67,1.25-2.52l4.86-10.25c.41-.86.82-1.71,1.28-2.58a15.31,15.31,0,0,0,1-2.48c.57-1.75,1-3.57,1.49-5.39.9-3.65,1.68-7.35,2.4-11l.15-.82.83,0,6.53.32,1.09,0-.19,1.09c-.55,3.09-1.05,6.23-1.31,9.32a22.16,22.16,0,0,0-.09,2.28,5.77,5.77,0,0,0,.09,1c.08.31.19.66.32,1,.53,1.45,1.14,2.91,1.75,4.37,1.23,2.91,2.51,5.81,3.78,8.72l1.89,4.34c.67,1.4,1.39,2.83,2.1,4.24,1.42,2.84,2.86,5.67,4.24,8.54l1,2.18.48,1.12.24.59a3.63,3.63,0,0,1,.19.82,6.68,6.68,0,0,1-.09,1.41c-.07.41-.14.82-.22,1.21l-.5,2.34c-.16.77-.31,1.54-.43,2.29-.05.37-.09.74-.11,1.08a3.2,3.2,0,0,0,.08,1c.31,1.47.77,3,1.15,4.57a18.59,18.59,0,0,1,.73,5,30.48,30.48,0,0,1-.67,4.88l-.78,3.73-1-3.69c-1.14-4.21-2.29-8.4-3.26-12.7-.12-.54-.23-1.07-.32-1.67a6.58,6.58,0,0,1,0-1.88,18.6,18.6,0,0,0,.61-3,3.9,3.9,0,0,0-.28-1.29l-.59-1.5-1.25-3c-1.67-4-3.38-8-5.13-12l-1.34-3c-.23-.49-.47-1-.7-1.43l-.17-.3,0,0s0,0,.21.17c-.17,0,.7.26.93-.1l.14-.13a.75.75,0,0,0,.13-.25c0-.1,0-.19,0-.14v0c0,.17,0,.47.07.72.27,2.12.62,4.28,1,6.43l2,12.91.46,3.24a31.36,31.36,0,0,1,.32,3.37v.2a.55.55,0,0,1,0,.16,1.71,1.71,0,0,1-.13.34l-.14.15a1.53,1.53,0,0,1-.57.38,3.29,3.29,0,0,1-1,.22,6.16,6.16,0,0,1-1.83-.21,5.26,5.26,0,0,1-.87-.3,3.36,3.36,0,0,1-.43-.2l-.21-.12A1.08,1.08,0,0,1,374,65a1.7,1.7,0,0,1-.36-.59c-.07-.16-.1-.3-.15-.44-.09-.29-.16-.56-.23-.84-.94-4.34-1.44-8.64-2-13s-1.05-8.65-1.52-13v.06c-.31-1.46-.67-2.93-1.12-4.34a8.57,8.57,0,0,0-.84-1.93c-.08-.13-.2-.21-.16-.19s0,0,.08,0,.14-.05.11,0a.67.67,0,0,0-.12.1,6.5,6.5,0,0,0-.6.84,79.71,79.71,0,0,0-4.08,8c-.62,1.38-1.22,2.77-1.78,4.16-.28.7-.55,1.41-.78,2.11a3.22,3.22,0,0,0-.22,1,2.25,2.25,0,0,0,.34.89,30.88,30.88,0,0,0,2.93,3.4,1.34,1.34,0,0,1,.2.29.53.53,0,0,1,.05.2.35.35,0,0,1,0,.25.46.46,0,0,1-.43.21,2.54,2.54,0,0,1-.65-.19c-.35-.14-.69-.28-1-.39a2.06,2.06,0,0,0-1.89.09l.09-.14a3.43,3.43,0,0,0-.05,1.17c0,.42.09.84.16,1.26.14.84.32,1.68.51,2.51.39,1.68.85,3.34,1.33,5q1.44,5,3.11,9.87l.08.25-.24-.1a63.83,63.83,0,0,0-6.54-2.37,28.16,28.16,0,0,0-3.38-.81A6.54,6.54,0,0,0,351.35,68.46Zm0,0a6.57,6.57,0,0,1,3.44-.18,28.25,28.25,0,0,1,3.4.75,66.66,66.66,0,0,1,6.6,2.26l-.16.15q-1.74-4.87-3.28-9.82c-.51-1.65-1-3.31-1.42-5-.21-.84-.41-1.68-.57-2.54-.07-.43-.14-.86-.18-1.3a3.78,3.78,0,0,1,.06-1.41l0-.07.07-.06a1.93,1.93,0,0,1,1.24-.43,4.32,4.32,0,0,1,1.21.2c.38.11.75.25,1.1.38a2.32,2.32,0,0,0,.44.14s-.08,0-.18.12,0,.14,0,.17-.06-.1-.12-.17a27.64,27.64,0,0,1-3.05-3.42,2.71,2.71,0,0,1-.47-1.23,3.92,3.92,0,0,1,.23-1.24c.23-.75.49-1.46.76-2.18.55-1.42,1.13-2.83,1.73-4.22a72.76,72.76,0,0,1,4-8.23,6.94,6.94,0,0,1,.72-1,1.76,1.76,0,0,1,.31-.27.77.77,0,0,1,.36-.14.71.71,0,0,1,.36,0,1.48,1.48,0,0,1,.68.56,9.17,9.17,0,0,1,1,2.21,43,43,0,0,1,1.2,4.45v0q.75,6.48,1.64,13c.61,4.29,1.17,8.64,2.12,12.81.06.25.13.5.21.74s.07.24.11.33.13.24,0,.11,0,0,0,0l.14.08a3.13,3.13,0,0,0,.32.15,5,5,0,0,0,2.07.37,2,2,0,0,0,.56-.11c.06,0,.1-.06.09-.06h0a.42.42,0,0,0-.09.14.35.35,0,0,1,0,.06v-.1c0-.93-.2-2.08-.34-3.13l-.49-3.21-2.15-12.88c-.35-2.15-.73-4.29-1-6.48,0-.29-.07-.53-.09-.9v-.07a1.27,1.27,0,0,1,0-.24,1.07,1.07,0,0,1,.14-.35.58.58,0,0,1,.15-.18c.24-.36,1.13-.1,1-.09a1,1,0,0,1,.34.32l.09.13c.09.15.16.28.23.41.27.51.51,1,.74,1.5l1.37,3c1.78,4,3.49,8,5.19,12l1.26,3,.61,1.54a5.43,5.43,0,0,1,.4,1.87,6.13,6.13,0,0,1-.26,1.87,14.26,14.26,0,0,0-.36,1.48,4.56,4.56,0,0,0,0,1.38c.07.48.18,1,.29,1.53,1,4.2,2.13,8.41,3.28,12.59l-1.78,0a28.4,28.4,0,0,0,.61-4.55,16.61,16.61,0,0,0-.69-4.43c-.38-1.53-.83-3-1.19-4.65a5.45,5.45,0,0,1-.11-1.41,12.59,12.59,0,0,1,.13-1.28c.12-.82.28-1.61.44-2.4l.48-2.32c.08-.38.15-.75.2-1.12a5.33,5.33,0,0,0,.08-1,1.56,1.56,0,0,0-.09-.34l-.21-.51-.46-1.06-1-2.13c-1.38-2.84-2.82-5.67-4.26-8.5-.71-1.42-1.43-2.82-2.14-4.28l-1.92-4.38q-1.93-4.35-3.79-8.76c-.61-1.47-1.22-2.93-1.77-4.47a11.55,11.55,0,0,1-.39-1.25,7.8,7.8,0,0,1-.13-1.38c0-.85,0-1.67.1-2.47.29-3.23.8-6.37,1.37-9.53l.89,1.14-6.53-.34,1-.77c-.74,3.73-1.53,7.44-2.44,11.14-.47,1.84-.95,3.69-1.56,5.53A18.07,18.07,0,0,1,362.17,27c-.43.81-.84,1.66-1.26,2.5L356,39.73c-.41.85-.84,1.71-1.28,2.55a26.34,26.34,0,0,1-1.48,2.57l-.25.34-.36.31-.37.3L352,46c-.43.27-.86.52-1.29.74-.85.47-1.71.87-2.57,1.3-6.88,3.25-13.91,6.09-20.82,9.09a16.6,16.6,0,0,0-4.42,3.09c-1.39,1.24-2.72,2.56-4,3.92a35.63,35.63,0,0,0-3.55,4.26,21.05,21.05,0,0,0-2.45,4.85l-.93-.91,2.94-1-.24.13,6.89-5.84-.05,0L327,59.86l.07-.07.09,0L341,52.29l.6,1-8.54,6-4.25,3-2.12,1.52-1.05.76-.51.39-.24.19s-.1.11,0,0a.36.36,0,0,0,.06-.24.41.41,0,0,0-.24-.36.4.4,0,0,0-.23,0h0a.05.05,0,0,0,0,0l0,0,0,0h0a12,12,0,0,1,3.85-.62,11.47,11.47,0,0,1,1.94.17,9,9,0,0,1,1.9.52l-.36,0q4.28-3.18,8.6-6.28c2.9-2.06,5.79-4.12,8.79-6a26.24,26.24,0,0,1,2.31-1.34,2.74,2.74,0,0,1,.66-.25.42.42,0,0,1,.25,0c.11,0,.14.13.19.2a1.27,1.27,0,0,1,.09.36,7.74,7.74,0,0,1,0,1.36c-.12,1.78-.38,3.54-.61,5.3s-.47,3.52-.65,5.28c-.09.88-.17,1.77-.21,2.65A9.35,9.35,0,0,0,351.35,68.46Z"/><path d="M343.18,72.06a3.23,3.23,0,0,1-1.28-1.54,11,11,0,0,1-.71-1.91,13.72,13.72,0,0,1-.39-2,9.46,9.46,0,0,1,.1-2.06,52.32,52.32,0,0,1,1.82-8l0,.25c-.21-.91-.43-1.82-.67-2.71-.13-.45-.26-.89-.4-1.31-.07-.22-.15-.42-.23-.62a1.82,1.82,0,0,0-.22-.42s0,0,0,0l0,0a.29.29,0,0,0,.12.07.6.6,0,0,0,.41,0s0,0,0,0l-.18.13-.52.4L340,53.3c-.71.6-1.42,1.22-2.11,1.83l-1.76,1.58.22-2.4a25.28,25.28,0,0,1,.47-3,15.5,15.5,0,0,1,.41-1.51,6.59,6.59,0,0,1,.34-.8,2.05,2.05,0,0,1,.26-.43,2.08,2.08,0,0,1,.44-.48,5,5,0,0,1,1.66-.76,5.81,5.81,0,0,1,1.74-.21,3.47,3.47,0,0,1,1,.18,2.31,2.31,0,0,1,.56.29,2,2,0,0,1,.44.44,15.16,15.16,0,0,1,.87,1.27A21.72,21.72,0,0,1,346,52a6.17,6.17,0,0,1,.52,1.62,11.34,11.34,0,0,1,0,1.58c-.16,2-.38,3.89-.6,5.82v0l-.06,2.4-.06,1.21,0,.6a4.75,4.75,0,0,0-.05.56,10.4,10.4,0,0,0,1,2.12,8.9,8.9,0,0,1,.84,2.26v0h0a4,4,0,0,1-1.84,1.69A3.92,3.92,0,0,1,343.18,72.06Zm0,0a4,4,0,0,0,2.45-.29,3.75,3.75,0,0,0,1.75-1.7v0a9.11,9.11,0,0,0-.95-2.17l-.61-1a4.15,4.15,0,0,1-.54-1.14c0-.88,0-1.6-.08-2.42L345.05,61h0v0c.05-1.93.09-3.88.06-5.8a10.27,10.27,0,0,0-.07-1.33,5.55,5.55,0,0,0-.5-1.1c-.45-.79-1-1.59-1.5-2.36-.27-.38-.56-.77-.83-1.09-.1-.11-.07-.07-.07-.07l-.09,0a2.22,2.22,0,0,0-.44-.06,3.93,3.93,0,0,0-2.1.61s0,0,0,.07a1,1,0,0,0-.11.19,4,4,0,0,0-.24.54c-.14.4-.26.85-.37,1.29-.22.89-.37,1.84-.51,2.75l-1.54-.82c.74-.59,1.48-1.17,2.24-1.75.38-.29.76-.57,1.17-.84l.63-.4a3.89,3.89,0,0,1,.43-.23l.16-.06a.94.94,0,0,1,.59,0l.2.11.1.09a1.41,1.41,0,0,1,.14.16,2.9,2.9,0,0,1,.39.85c.08.25.14.49.2.73.11.47.21.94.29,1.41.17.94.31,1.88.43,2.82l0,.15,0,.1c-.5,1.25-1,2.52-1.4,3.81a31.31,31.31,0,0,0-1.08,3.9,9.14,9.14,0,0,0-.2,2,9.77,9.77,0,0,0,.3,2,10.07,10.07,0,0,0,.67,1.91A3.15,3.15,0,0,0,343.18,72.06Z"/><path d="M367.36,73.37c2.81-1.5,5.68-2.85,8.6-4.15a28.9,28.9,0,0,1,4.59-1.64c.49-.09.85-.1,1.24-.15l1.17-.12,2.37-.26c1.58-.17,3.16-.35,4.76-.47.8,0,1.6-.11,2.41-.13.41,0,.83,0,1.25,0,.21,0,.44,0,.66,0a4.15,4.15,0,0,1,.75.15A7.66,7.66,0,0,1,397.51,68a16.59,16.59,0,0,1,1.82,1.73,16.18,16.18,0,0,1,1.57,2,7.75,7.75,0,0,1,.66,1.22,2.72,2.72,0,0,1,.14.43,1.78,1.78,0,0,1,0,.75,1.28,1.28,0,0,1-.42.65,1.22,1.22,0,0,1-.35.2l-.3.07a1.74,1.74,0,0,1-.76-.11l-.1,0-.12-.09c-1-.74-2.07-1.47-3.11-2.18-.52-.35-1.05-.7-1.57-1a2.66,2.66,0,0,0-.63-.31,4,4,0,0,0-.74-.08,33.68,33.68,0,0,0-3.73.11c-1.26.08-2.54.18-3.8.3l.49-.21C385,72.72,383.5,74,382,75.35c-.75.66-1.49,1.33-2.18,2a3.3,3.3,0,0,0-.71.9,2,2,0,0,0-.1.57c0,.16,0,.41,0,.39l-.29.94L374.43,82l-.38.16-.22-.3Zm0,0c2.52,2.77,4.93,5.32,7.25,7.83l-.6-.13,4.18-2.1-.29.94a2.19,2.19,0,0,1-.26-1.07,3.87,3.87,0,0,1,.1-.92,1.85,1.85,0,0,1,.21-.53,4.53,4.53,0,0,1,.27-.4c.18-.24.35-.41.53-.63.7-.77,1.42-1.49,2.15-2.2,1.46-1.42,3-2.75,4.49-4.1l.2-.17.29,0c1.29-.16,2.56-.3,3.86-.41a36.64,36.64,0,0,1,4-.15,5.34,5.34,0,0,1,1.16.14,4.54,4.54,0,0,1,1.11.49c.59.34,1.14.7,1.68,1.06,1.09.72,2.14,1.47,3.18,2.24l-.22-.12c-.07,0,0,0-.18,0l-.15,0a.68.68,0,0,0-.22.12.74.74,0,0,0-.26.4c-.05.17,0,.19,0,.16a.7.7,0,0,1,0-.13,5.41,5.41,0,0,0-.47-.87A14.81,14.81,0,0,0,397.9,71a15.67,15.67,0,0,0-1.6-1.56,6.06,6.06,0,0,0-1.7-1.09,2.47,2.47,0,0,0-.41-.09l-.53,0c-.37,0-.74,0-1.13,0-.77,0-1.56,0-2.34.06-1.57.07-3.15.15-4.73.25l-2.38.15-1.2.06c-.4,0-.84,0-1.13.06a33,33,0,0,0-4.46,1.27C373.29,71.08,370.34,72.26,367.36,73.37Z"/><path d="M340.6,68.92a18.72,18.72,0,0,0-15.35-3.36,16.78,16.78,0,0,0-7.1,3.55,28.36,28.36,0,0,0-2.87,2.83,22.17,22.17,0,0,1-3.13,2.76c-1.12.81-2.3,1.53-3.48,2.23a15.91,15.91,0,0,0-3.13,2.39A16.08,16.08,0,0,0,301.48,86a15.75,15.75,0,0,0,3,14.68l.67.78-.95.44a16,16,0,0,0-7.45,7.35A17.26,17.26,0,0,0,295,119.58l.08.56-.47.32a37.9,37.9,0,0,0-7,5.68,17.53,17.53,0,0,0-4.31,7.55,11,11,0,0,0,.84,8.24A10.3,10.3,0,0,0,291,146.5l-.46,1.94a.6.6,0,0,0,.42,0c.09,0,.09-.06.09-.06a1.15,1.15,0,0,0-.13.21,4.55,4.55,0,0,0-.33.76,18.08,18.08,0,0,0-.54,1.8,29.77,29.77,0,0,0-.72,3.77,20.73,20.73,0,0,0,.66,7.5,17.93,17.93,0,0,0,3.27,6.74,9.89,9.89,0,0,0,6,3.73l.74.13,0,.73a18.79,18.79,0,0,0,2,8.27,14.26,14.26,0,0,0,6,5.76,12.69,12.69,0,0,0,8.17,1.25,11.42,11.42,0,0,0,7-4.28l1.15.93a9.77,9.77,0,0,0-2.32,6.4,14.28,14.28,0,0,0,1.7,6.85,13.88,13.88,0,0,0,4.95,5.09,17,17,0,0,0,6.79,2.37,16,16,0,0,0,7.19-.69,15.76,15.76,0,0,0,3.27-1.61,16.86,16.86,0,0,0,7.34-16,16.87,16.87,0,0,1-4.17,14,17.47,17.47,0,0,1-2.83,2.53,17,17,0,0,1-3.37,1.78,16.77,16.77,0,0,1-7.53.94,17.53,17.53,0,0,1-7.26-2.37,15.14,15.14,0,0,1-5.45-5.42,15.58,15.58,0,0,1-2-7.47,11.17,11.17,0,0,1,2.58-7.38l1.14.94a13,13,0,0,1-7.89,5,14.06,14.06,0,0,1-9.28-1.31,16,16,0,0,1-6.81-6.45,20.49,20.49,0,0,1-2.23-9l.77.86a11.76,11.76,0,0,1-7.21-4.35,19.81,19.81,0,0,1-3.68-7.42,22.71,22.71,0,0,1-.75-8.22,30.84,30.84,0,0,1,.74-4c.17-.66.35-1.33.59-2a7.26,7.26,0,0,1,.47-1.05,3.29,3.29,0,0,1,.43-.61,1.67,1.67,0,0,1,.49-.35,1.33,1.33,0,0,1,.9-.11l-.46,1.94a15,15,0,0,1-4.55-1.91,10.7,10.7,0,0,1-3.48-3.63,12.87,12.87,0,0,1-1-9.69,19.43,19.43,0,0,1,4.8-8.32,40.26,40.26,0,0,1,7.35-5.92l-.39.88a19.07,19.07,0,0,1,2-11.41,17.31,17.31,0,0,1,8.34-8l-.28,1.23a16.93,16.93,0,0,1,1.43-23.16,16.8,16.8,0,0,1,3.38-2.5c1.18-.67,2.34-1.36,3.44-2.12a21.42,21.42,0,0,0,3.07-2.55,27,27,0,0,1,3-2.82,19,19,0,0,1,3.53-2.2A18.26,18.26,0,0,1,325.14,65a19.37,19.37,0,0,1,8.2.22A18.65,18.65,0,0,1,340.6,68.92Z"/><path d="M315.83,190a13.52,13.52,0,0,0-.12,10.5,15.82,15.82,0,0,0,6.7,8,18.73,18.73,0,0,0,10.14,2.32,23.82,23.82,0,0,0,10.08-2.8l.59-.32.45.52a20.45,20.45,0,0,0,8.67,6,16.32,16.32,0,0,0,10.31.24,13.49,13.49,0,0,0,8-6.24,12.2,12.2,0,0,0,1-9.91L370,193.76l3.23,3.53a7.16,7.16,0,0,0,6.05,2,9.12,9.12,0,0,0,5.83-3.27,14.12,14.12,0,0,0,3-6.34,26,26,0,0,0,.33-7.27l.84.63-1.36.25-.33-1.34a17.76,17.76,0,0,0,11-8.94,18.15,18.15,0,0,0,.76-14.45,18.11,18.11,0,0,1,0,14.79A18.49,18.49,0,0,1,388,183.31l-.32-1.34,1.35-.29.77-.16.08.79a27.34,27.34,0,0,1-.17,7.71,15.36,15.36,0,0,1-3.24,7.16,10.86,10.86,0,0,1-6.93,4,9,9,0,0,1-7.7-2.56l1.62-1a14.16,14.16,0,0,1-1.13,11.54,15.41,15.41,0,0,1-9.11,7.13,18,18,0,0,1-11.52-.35,22.23,22.23,0,0,1-9.33-6.62l1,.2a25,25,0,0,1-10.83,2.73,19.51,19.51,0,0,1-10.74-2.82,16.32,16.32,0,0,1-6.71-8.7,15.32,15.32,0,0,1-.77-5.45A12.29,12.29,0,0,1,315.83,190Z"/><path d="M400.11,159.25a17.11,17.11,0,0,0,6.48-8.57,16.53,16.53,0,0,0-2.65-15.21,34.91,34.91,0,0,0-3.85-3.84,8,8,0,0,1-1.75-2.44,7,7,0,0,1-.52-3c0-1.9.3-3.76-.62-4.77l-.45-.5.43-.56a14.81,14.81,0,0,0,1.74-14.46l-.32-.75.72-.42a3.87,3.87,0,0,0,1.3-1.61,14.34,14.34,0,0,0,.86-2.31,18,18,0,0,0,.71-4.94,12.87,12.87,0,0,0-3.34-9,10.16,10.16,0,0,0-4-2.63,7.86,7.86,0,0,0-1.15-.32l-1.31-.26q-1.32-.3-2.61-.66c-1.71-.47-3.38-1-5.05-1.35a16.32,16.32,0,0,0-5-.47,10.32,10.32,0,0,0-2.39.47,11.76,11.76,0,0,1-2.76.66,4.31,4.31,0,0,1-3-.95,9.33,9.33,0,0,1-1.88-2.2c-.5-.76-.93-1.48-1.45-2.15a18.78,18.78,0,0,0-1.65-1.92,18.27,18.27,0,0,0-4-3.07,15.35,15.35,0,0,0-9.84-1.84,14,14,0,0,0-8.81,4.91l-.21.25-.15-.28-3.39-6.44,3.76,6.23-.35,0a14.69,14.69,0,0,1,9-5.56A16.05,16.05,0,0,1,363.16,71a19.23,19.23,0,0,1,4.44,3.17,20.69,20.69,0,0,1,1.84,2c.58.71,1.09,1.49,1.57,2.18a7.9,7.9,0,0,0,1.58,1.78,2.72,2.72,0,0,0,1.9.56,10.35,10.35,0,0,0,2.35-.61,12.51,12.51,0,0,1,2.77-.57,18,18,0,0,1,5.51.45c1.77.37,3.47.88,5.16,1.32.84.23,1.68.43,2.51.61l1.29.25a11.55,11.55,0,0,1,1.4.37,12,12,0,0,1,4.77,3.08,13.61,13.61,0,0,1,3,4.79,16.38,16.38,0,0,1,.89,5.53,20.2,20.2,0,0,1-.84,5.47,16.23,16.23,0,0,1-1,2.62,5.61,5.61,0,0,1-2.06,2.37l.39-1.16a16.54,16.54,0,0,1-2.1,16.21l0-1.06a4.51,4.51,0,0,1,.79,1.52,7.29,7.29,0,0,1,.21,1.57c0,1-.1,1.93-.13,2.8a5.52,5.52,0,0,0,.32,2.4,6.75,6.75,0,0,0,1.4,2,35.61,35.61,0,0,1,3.83,4.06,17.51,17.51,0,0,1,2.57,5.06,16.79,16.79,0,0,1-7.38,19.46Z"/><path d="M314.43,72.23a27.58,27.58,0,0,0-2,6.24,22.05,22.05,0,0,0,1.31,12.47A27.21,27.21,0,0,0,317,96.63a14.44,14.44,0,0,1-4.63-5,16.73,16.73,0,0,1-1.42-13.54A14.62,14.62,0,0,1,314.43,72.23Z"/><path d="M343.8,75.93c-.1,1.69-.2,3.3-.21,4.9a44,44,0,0,0,.26,4.75,42.12,42.12,0,0,0,.79,4.69c.35,1.56.8,3.11,1.27,4.74a13.82,13.82,0,0,1-2.76-4.26A17.71,17.71,0,0,1,342,80.68,13.83,13.83,0,0,1,343.8,75.93Z"/><path d="M345.27,102a7.87,7.87,0,0,1,.11-4,12.06,12.06,0,0,1,1.82-3.66,22.19,22.19,0,0,1,6-5.46,21.19,21.19,0,0,1,7.56-3.24,15.72,15.72,0,0,1,4.22-.18,17.55,17.55,0,0,1,4.11,1,17,17,0,0,1,3.71,2,15.15,15.15,0,0,1,3.1,2.83,14.49,14.49,0,0,1,3.34,7.61,15.45,15.45,0,0,1-6.06,14.39,16.08,16.08,0,0,0,4.52-14.15,14.45,14.45,0,0,0-9.32-10.79,15.42,15.42,0,0,0-3.6-.89,15.19,15.19,0,0,0-3.69.1,21.42,21.42,0,0,0-7.08,2.7A23.52,23.52,0,0,0,348,94.93,9.69,9.69,0,0,0,345.27,102Z"/><path d="M319.79,122.58a11.39,11.39,0,0,1-6.81-4,13.56,13.56,0,0,1-3.2-7.45,16.29,16.29,0,0,1,1.35-8.09,19.53,19.53,0,0,1,4.81-6.63,27.51,27.51,0,0,1,14.68-6.4,17.85,17.85,0,0,1,8.05.6,11.11,11.11,0,0,1,6.18,4.87,11.62,11.62,0,0,0-6.46-3.93,18.2,18.2,0,0,0-7.53,0,32.27,32.27,0,0,0-7.26,2.29,23.6,23.6,0,0,0-6.32,4,18.06,18.06,0,0,0-4.43,5.93,15.45,15.45,0,0,0-1.52,7.19,13.08,13.08,0,0,0,2.42,7A11.91,11.91,0,0,0,319.79,122.58Z"/><path d="M336.77,139.45a40.33,40.33,0,0,1-5.18-3.56,19.06,19.06,0,0,1-4.25-4.81,12.92,12.92,0,0,1-2-6.28,12.14,12.14,0,0,1,1.73-6.46,16.31,16.31,0,0,1,4.47-4.81,19.22,19.22,0,0,1,5.85-2.8,41.55,41.55,0,0,1,12.51-1.33c-4.1.78-8.23,1.38-12,2.81a19.93,19.93,0,0,0-5.22,2.83,15.07,15.07,0,0,0-3.88,4.32,11.49,11.49,0,0,0-1.16,2.61,10.57,10.57,0,0,0-.4,2.79,12.26,12.26,0,0,0,1.45,5.57C330.5,133.88,333.68,136.66,336.77,139.45Z"/><path d="M361.29,145.06a25.46,25.46,0,0,0,9.12,3.49,25.15,25.15,0,0,0,4.82.39,16.1,16.1,0,0,0,4.66-.64,5,5,0,0,0,3-2.86,29.82,29.82,0,0,0,1.44-4.57,25.84,25.84,0,0,0,1.22-9.41,9.88,9.88,0,0,0-4.23-7.65c-2.53-1.71-5.79-2.27-9-2.66s-6.53-.52-9.39.86a7.86,7.86,0,0,0-3.41,3.18,5.8,5.8,0,0,0-.59,4.68,5.77,5.77,0,0,1,.12-4.92,8.54,8.54,0,0,1,3.42-3.8,12.67,12.67,0,0,1,4.92-1.53,27,27,0,0,1,5.08,0c3.31.22,6.82.72,9.9,2.62a10.57,10.57,0,0,1,3.66,3.94,13.86,13.86,0,0,1,1.52,5.09,27.13,27.13,0,0,1-1.39,10.13,31.17,31.17,0,0,1-1.69,4.82,7.38,7.38,0,0,1-1.65,2.24,6.39,6.39,0,0,1-2.46,1.34,16.32,16.32,0,0,1-5.16.46,24.73,24.73,0,0,1-5-.74A23.94,23.94,0,0,1,361.29,145.06Z"/><path d="M333,158.26a15.23,15.23,0,0,1,0-11.47,16.93,16.93,0,0,1,7.89-8.65,19.49,19.49,0,0,1,11.77-2.21,12.09,12.09,0,0,1,5.76,2.47,12.94,12.94,0,0,1,3.68,5.1,14.16,14.16,0,0,1,.93,6.18,15.86,15.86,0,0,1-1.76,5.93,18.64,18.64,0,0,1-3.7,4.83,26.85,26.85,0,0,1-4.83,3.56,21.09,21.09,0,0,1-5.48,2.33,10.3,10.3,0,0,1-3,.34,10.58,10.58,0,0,1-2.91-.63,14.79,14.79,0,0,1-5-3.06A13.76,13.76,0,0,1,333,158.26Zm0,0a14.06,14.06,0,0,0,8.51,7.51,9.15,9.15,0,0,0,2.83.45,9.59,9.59,0,0,0,2.8-.5,20.15,20.15,0,0,0,5.12-2.57,25.89,25.89,0,0,0,4.38-3.68,18.55,18.55,0,0,0,3.14-4.63,14.81,14.81,0,0,0,1.38-5.3,12.52,12.52,0,0,0-.86-5.31,11.08,11.08,0,0,0-3.06-4.35,10.58,10.58,0,0,0-4.83-2.26,18.4,18.4,0,0,0-11,1.41,16.06,16.06,0,0,0-8.07,7.87A14.38,14.38,0,0,0,333,158.26Z"/><path d="M387.23,125.88a17,17,0,0,1,12.47,6.34,17.18,17.18,0,0,1,3.38,6.51,17.78,17.78,0,0,1,.3,7.37,16.15,16.15,0,0,1-2.88,6.81,13.18,13.18,0,0,1-5.89,4.49,13.75,13.75,0,0,1-7.23.74,12.73,12.73,0,0,1-3.44-1.12,11.3,11.3,0,0,1-2.84-2.13A12.9,12.9,0,0,0,394,156a13.45,13.45,0,0,0,7.4-10.21,16.36,16.36,0,0,0-2.94-12.58A18.54,18.54,0,0,0,387.23,125.88Z"/><path d="M321.62,127.17a23.47,23.47,0,0,0-6.3,7.51,14.21,14.21,0,0,0-1.38,9.18,10.59,10.59,0,0,0,5,7.43,10,10,0,0,0,9.28.49,8.17,8.17,0,0,1-2.21,1.31,10.18,10.18,0,0,1-2.57.57,11.81,11.81,0,0,1-2.65-.16,11.07,11.07,0,0,1-2.56-.82,10.92,10.92,0,0,1-2.31-1.45,12.29,12.29,0,0,1-1.86-2,13.2,13.2,0,0,1-2.09-5,14.4,14.4,0,0,1,2-10.3A17.89,17.89,0,0,1,321.62,127.17Z"/><path d="M308.08,118.56A22.28,22.28,0,0,0,295.73,127c-3,3.94-5,8.83-4.72,13.71s2.73,9.7,6.95,12.15A12.71,12.71,0,0,0,305,154.4a11.47,11.47,0,0,0,6.92-2.79,11,11,0,0,1-6.8,3.77,13.23,13.23,0,0,1-7.93-1.2,14.4,14.4,0,0,1-5.88-5.62,17.49,17.49,0,0,1-2.33-7.79,19.48,19.48,0,0,1,1.34-8,23.51,23.51,0,0,1,4.17-6.83,23.77,23.77,0,0,1,6.1-5.07A17.15,17.15,0,0,1,308.08,118.56Z"/><path d="M319,152.31a20.29,20.29,0,0,0-3.3,14.6,18.2,18.2,0,0,0,2.69,6.93,18.88,18.88,0,0,0,5.11,5.35,16.93,16.93,0,0,0,6.75,2.91,11.68,11.68,0,0,0,7.13-.76,8.82,8.82,0,0,0,4.8-5.23,7.62,7.62,0,0,0-1.38-7.15,7.67,7.67,0,0,1,2.33,7.39,9.67,9.67,0,0,1-5,6.38A12.89,12.89,0,0,1,330,184a18.52,18.52,0,0,1-7.58-3.15,19.59,19.59,0,0,1-8.19-13.7A18.77,18.77,0,0,1,319,152.31Z"/><path d="M349.81,175.61a7.39,7.39,0,0,0,1.7,3.11,11.82,11.82,0,0,0,2.76,2.16,29.34,29.34,0,0,0,6.58,2.62,14.87,14.87,0,0,0,6.77.56,10.54,10.54,0,0,0,5.66-3.28,21,21,0,0,0,3.84-5.74,33.08,33.08,0,0,0,2.36-6.65,36,36,0,0,0,.45-14.26A29.1,29.1,0,0,1,381,168.7a30.75,30.75,0,0,1-2.17,7.13,22.09,22.09,0,0,1-4.12,6.34,12.24,12.24,0,0,1-6.78,3.75,15.58,15.58,0,0,1-7.55-.94,25.77,25.77,0,0,1-6.65-3.29,11.45,11.45,0,0,1-2.66-2.63A7,7,0,0,1,349.81,175.61Z"/><path d="M303.58,155.92a14.77,14.77,0,0,0-4.09,7.45,41,41,0,0,0-.74,4.28c-.19,1.47-.34,3-.69,4.51a19.16,19.16,0,0,1-.87-4.55,15.34,15.34,0,0,1,.36-4.71,11,11,0,0,1,2.1-4.34A7.25,7.25,0,0,1,303.58,155.92Z"/><path d="M358.7,193a20,20,0,0,0,8.48,3.18,12.86,12.86,0,0,0,8.32-1.9,12.18,12.18,0,0,0,4.84-7,60.35,60.35,0,0,0,1.59-9.11,29.14,29.14,0,0,1-.08,9.5,14.77,14.77,0,0,1-1.75,4.62,11.51,11.51,0,0,1-3.51,3.64,13,13,0,0,1-9.64,1.77A15.39,15.39,0,0,1,358.7,193Z"/><path d="M294.54,118.83a5.28,5.28,0,0,1,1.54.22,5.78,5.78,0,0,1,1.22.5,6.34,6.34,0,0,1,1.07.76,5.21,5.21,0,0,1,1,1.2,3,3,0,0,1-1.61.25,3.88,3.88,0,0,1-1.43-.46,3.82,3.82,0,0,1-1.15-1A3.06,3.06,0,0,1,294.54,118.83Z"/><path d="M377.35,92.68a10.76,10.76,0,0,1,7.21-1.9,15,15,0,0,1,7.23,2.52,19.24,19.24,0,0,1,5.26,5.46,23.42,23.42,0,0,1,3,6.79,72.24,72.24,0,0,0-4.27-5.86A24.61,24.61,0,0,0,390.67,95a17.26,17.26,0,0,0-6.31-2.64A14.33,14.33,0,0,0,377.35,92.68Z"/><path d="M399.38,158.63c-.38-.34-.6-.56-.8-.75a2,2,0,0,1-.41-.55,2.08,2.08,0,0,1-.2-.65c0-.27-.07-.58-.12-1.09a1.44,1.44,0,0,1,1.27,0,1.78,1.78,0,0,1,.83.82,1.86,1.86,0,0,1,.17,1.16A1.5,1.5,0,0,1,399.38,158.63Z"/></svg>