<svg xmlns="http://www.w3.org/2000/svg" viewBox="0 0 413.14 489.55"><title>Asset 6</title><path d="M183.69,489.35a141.81,141.81,0,0,1-16.6-1.24c-5.5-.7-11-1.65-16.41-2.79s-10.8-2.58-16.12-4.16c-2.65-.86-5.31-1.65-7.91-2.62-1.31-.47-2.63-.9-3.93-1.4l-3.88-1.53c-1.3-.49-2.57-1.05-3.84-1.61l-3.82-1.67-3.75-1.83c-1.25-.61-2.51-1.21-3.72-1.9-2.44-1.32-4.91-2.62-7.26-4.11-1.19-.73-2.39-1.43-3.56-2.18L89.43,460c-2.35-1.51-4.51-3.28-6.75-4.94-1.14-.81-2.17-1.75-3.24-2.64l-3.2-2.71c-2-1.91-4.07-3.81-6-5.79l-2.85-3.07c-.94-1-1.92-2-2.78-3.14a118,118,0,0,1-17.79-28.34A139.33,139.33,0,0,1,37,377.28a51.71,51.71,0,0,1-.79-8.51c0-2.84.13-5.59.21-8.39s.32-5.58.53-8.36.46-5.56.85-8.33A170.85,170.85,0,0,1,45,310.94c1.72-5.32,3.77-10.54,5.85-15.68l1.53-3.85c.59-1.31,1.14-2.68,1.81-3.9,1.26-2.53,2.64-4.95,4-7.39,5.57-9.65,11.45-19.06,17.32-28.46s11.81-18.79,17.15-28.4c.61-1.21,1.29-2.42,1.85-3.62l.79-1.8c.25-.63.47-1.29.71-1.94l2.76-7.82q2.73-7.85,5.3-15.74c1.71-5.26,3.37-10.54,4.87-15.85.76-2.65,1.43-5.31,2-8l.35-2,.08-.92,0-.46.05-.59a19.56,19.56,0,0,1,.84-4.37,59.16,59.16,0,0,1,3.07-7.93c1.18-2.55,2.45-5,3.83-7.49.7-1.22,1.4-2.43,2.2-3.64.23-.32.38-.58.68-.94a7.65,7.65,0,0,1,.79-.85l1.5-1.46c2-1.93,4.06-3.82,6.15-5.67a125.38,125.38,0,0,1,13.19-10.37,32.9,32.9,0,0,1,7.59-3.93,38,38,0,0,1,8.32-1.84,82,82,0,0,1,8.4-.46c1.38,0,2.77,0,4.13-.09a27.29,27.29,0,0,0,4-.36,16.75,16.75,0,0,0,3.76-1.19,37.37,37.37,0,0,0,3.63-1.83c2.39-1.34,4.74-2.83,7.19-4.19a46.57,46.57,0,0,1,7.7-3.5,18.75,18.75,0,0,1,4.23-.91A12.68,12.68,0,0,1,207,104c2.82.82,5.2,2.28,7.72,3.35,1.24.56,2.52,1,3.81,1.49s2.6.8,4,1.25a33.75,33.75,0,0,1,13.86,9.41,56.66,56.66,0,0,1,5.23,6.55c1.59,2.3,3.08,4.66,4.45,7.08a89,89,0,0,1,7.05,15.14c1.87,5.24,3.41,10.58,5,15.89q4.68,15.94,10.39,31.57c1.93,5.19,3.8,10.4,6.11,15.42s4.79,10,7.54,14.76a226.11,226.11,0,0,0,18.63,27.39c1.71,2.18,3.48,4.28,5.22,6.48.86,1.1,1.69,2.22,2.53,3.34s1.64,2.26,2.42,3.42A128.93,128.93,0,0,1,319.44,281a123.8,123.8,0,0,1,10.85,31.66,164,164,0,0,1,3.2,33.31c0,2.8-.1,5.59-.27,8.38,0,1.39-.29,2.83-.42,4.25s-.48,2.75-.7,4.13l-1.54,8.22c-.22,1.38-.6,2.72-.92,4.08l-1,4.06-1,4.07c-.29,1.36-.77,2.68-1.14,4l-2.4,8c-1.92,5.24-3.67,10.55-6,15.63a145.56,145.56,0,0,1-16.56,29A118.22,118.22,0,0,1,249.17,480c-2.62.93-5.19,2-7.87,2.75-1.33.4-2.65.85-4,1.23l-4,1.07a142.12,142.12,0,0,1-16.36,3.12,164.74,164.74,0,0,1-16.6,1.31C194.78,489.66,189.23,489.47,183.69,489.35Zm0-.3c5.56.09,11.09.24,16.63,0a163.46,163.46,0,0,0,16.54-1.4,133.42,133.42,0,0,0,32-8.4A116.82,116.82,0,0,0,300,438.71,151.31,151.31,0,0,0,316,409.86c2.27-5,4-10.28,5.82-15.46l2.31-7.94c.36-1.33.82-2.63,1.1-4l.94-4,.94-4c.31-1.34.67-2.67.88-4l1.5-8.13c.23-1.35.56-2.73.7-4.06l.24-2c.09-.66.15-1.34.18-2,.18-2.74.26-5.49.3-8.24a162,162,0,0,0-3-32.81,123.61,123.61,0,0,0-10.29-31.21,127.49,127.49,0,0,0-8.2-14.31c-.75-1.16-1.56-2.27-2.33-3.41s-1.62-2.22-2.46-3.32c-1.67-2.17-3.43-4.33-5.12-6.54a226.47,226.47,0,0,1-18.39-27.82c-2.71-4.86-5.24-9.81-7.5-14.9s-4.15-10.33-6.06-15.53-3.68-10.47-5.38-15.76-3.31-10.59-4.92-15.9-3.17-10.62-5-15.81a87.85,87.85,0,0,0-7-14.95,72.46,72.46,0,0,0-9.59-13.4,32.43,32.43,0,0,0-13.45-8.94c-1.28-.41-2.64-.78-4-1.21a41.5,41.5,0,0,1-3.94-1.5c-2.59-1.08-5-2.49-7.56-3.19a13,13,0,0,0-7.73.55,45.41,45.41,0,0,0-7.38,3.46c-2.39,1.36-4.72,2.86-7.15,4.26a41.83,41.83,0,0,1-3.77,1.95,18.42,18.42,0,0,1-4.14,1.35,29.86,29.86,0,0,1-4.26.43c-1.4.07-2.79.09-4.17.13a82,82,0,0,0-8.2.52,36,36,0,0,0-7.87,1.83,31,31,0,0,0-7.09,3.77A121.24,121.24,0,0,0,132,134c-2.05,1.84-4,3.74-6,5.66l-1.47,1.46a5.65,5.65,0,0,0-.62.67c-.15.17-.35.5-.53.75-.72,1.12-1.4,2.31-2.06,3.5-1.32,2.4-2.55,4.86-3.67,7.35a56,56,0,0,0-2.86,7.6,17.5,17.5,0,0,0-.7,3.78l-.17,2.18c-.1.72-.24,1.42-.36,2.13-.57,2.78-1.25,5.5-2,8.18-1.49,5.37-3.13,10.68-4.82,16s-3.45,10.56-5.25,15.81l-2.74,7.87c-.24.66-.45,1.31-.71,2l-.87,2c-.6,1.31-1.27,2.52-1.91,3.79-5.39,9.81-11.31,19.18-17.11,28.64s-11.71,18.83-17.24,28.38c-1.35,2.4-2.72,4.8-3.94,7.23-.66,1.21-1.14,2.42-1.69,3.64l-1.55,3.87c-2.1,5.14-4.11,10.25-5.81,15.47a168.12,168.12,0,0,0-7,32.16c-.39,2.72-.57,5.47-.85,8.21s-.38,5.49-.54,8.24-.22,5.54-.26,8.24a49.08,49.08,0,0,0,.65,8,137.22,137.22,0,0,0,9.21,31.54,119.7,119.7,0,0,0,17,28.09c.82,1.1,1.77,2.1,2.68,3.13l2.75,3.08c1.91,2,3.89,3.89,5.86,5.82l3.1,2.72c1,.9,2,1.85,3.15,2.67,2.19,1.68,4.3,3.46,6.6,5l3.39,2.38c1.15.76,2.33,1.48,3.49,2.22,2.31,1.51,4.73,2.84,7.14,4.2,1.19.7,2.43,1.32,3.66,1.94l3.69,1.88,3.77,1.73c1.26.58,2.51,1.16,3.8,1.66,5.08,2.19,10.31,4,15.58,5.71s10.64,3.08,16,4.26,10.87,2.16,16.36,2.89A141.11,141.11,0,0,0,183.69,489.05Z"/><path d="M175.2,122.55a30.9,30.9,0,0,0,8.24-2.19c1.3-.51,2.53-1.18,3.83-1.77s2.58-1.2,3.87-1.78l1.93-.88.93-.44c.32-.15.61-.29.82-.41a1.85,1.85,0,0,0,.42-.32c0-.06,0,0,0,0a3.77,3.77,0,0,0-.42-1.31c.1,0-.29-.32-.83-.53a12.44,12.44,0,0,0-1.81-.54,32.14,32.14,0,0,0-4.05-.6l.78-.25a34.26,34.26,0,0,1-4.95,2.57c-1.7.72-3.43,1.35-5.17,1.9a27.11,27.11,0,0,1-11,1.4l.29,0a28.42,28.42,0,0,0-5.49,1.72,4.76,4.76,0,0,0-1,.57l-.1.1s0,0,0,0,.05-.06,0-.1a1.21,1.21,0,0,0,0-.28,1,1,0,0,0-.11-.23c-.14-.15,0,0,.12.06a5.26,5.26,0,0,0,.53.26c.4.18.86.33,1.32.49,1.85.59,3.83,1.15,5.81,1.62A38.69,38.69,0,0,0,175.2,122.55Zm0,.3c-2.05-.16-4.07-.22-6.13-.24a43.88,43.88,0,0,1-6.24-.33,14.75,14.75,0,0,1-1.62-.35,5,5,0,0,1-.88-.33,2.69,2.69,0,0,1-1.1-.84,1.81,1.81,0,0,1-.28-.56,1.5,1.5,0,0,1-.07-.65,2.59,2.59,0,0,1,.2-.83,2.94,2.94,0,0,1,.39-.63,6,6,0,0,1,.43-.44,6.15,6.15,0,0,1,1.67-1,19,19,0,0,1,6.37-1.06h.21l.08,0a13.82,13.82,0,0,0,5.11.62,19.06,19.06,0,0,0,5.13-1.25,27.65,27.65,0,0,0,4.71-2.44,46.75,46.75,0,0,0,4.26-3.07l.3-.24h.48a28.36,28.36,0,0,1,4.5.3,15.44,15.44,0,0,1,2.34.55,7.11,7.11,0,0,1,1.27.59,6.29,6.29,0,0,1,.68.53,4.28,4.28,0,0,1,.61.83,12.54,12.54,0,0,1,.53,1.15,4.11,4.11,0,0,1,.3,1.62,3.17,3.17,0,0,1-.73,2,4.45,4.45,0,0,1-1.24,1,12.14,12.14,0,0,1-1.1.58l-1,.44c-.68.29-1.36.55-2,.81a40.9,40.9,0,0,1-8.46,2.29c-1.46.19-2.9.32-4.34.47l-2.15.23C176.64,122.72,175.94,122.82,175.19,122.85Z"/><path d="M187.84,119.63a.11.11,0,0,0,0-.13s0,0,0,0h.54l.6,0c.4,0,.8.09,1.19.16a17.06,17.06,0,0,1,2.35.55,11.84,11.84,0,0,1,2.35,1,10.66,10.66,0,0,1,2,1.63,30.86,30.86,0,0,1,2.94,3.64,14.9,14.9,0,0,0,1.23,1.47s0,0,0,0,.07,0,.11.07.07,0-.17.14a.6.6,0,0,0-.26.32c0,.11,0,.13,0,.14s.05-.16.06-.21l0,.08a19.08,19.08,0,0,0-1.1-3.3,9.17,9.17,0,0,0-1.92-2.81,5.33,5.33,0,0,0-1.29-.9c-.49-.27-1-.53-1.47-.82a31.73,31.73,0,0,1-2.78-2l1.1.12a10.84,10.84,0,0,1-2.34.29A15.82,15.82,0,0,0,187.84,119.63Zm-.3,0c.54-.32,1.2-.86,2.06-1.46a17.72,17.72,0,0,1,3-1.64l.49-.21.6.33a16.17,16.17,0,0,1,3,2,12.35,12.35,0,0,1,1.27,1.33,8.3,8.3,0,0,1,1.08,1.66c.53,1.12,1,2.17,1.62,3.19s1.27,2,1.94,3l0,.08a2.44,2.44,0,0,1,.22.92,1.57,1.57,0,0,1-.8,1.42,2.19,2.19,0,0,1-1.3.18,3.82,3.82,0,0,1-.44-.09,4.4,4.4,0,0,1-.5-.21,9.83,9.83,0,0,1-2.09-1.72c-1.13-1.14-2.15-2.26-3.08-3.36-.47-.53-.93-1-1.37-1.46a9.13,9.13,0,0,0-.8-.61c-.29-.21-.59-.42-.9-.62l-1.9-1.26-1-.64-.49-.33-.25-.17-.12-.09-.06,0s0,0-.05,0A.27.27,0,0,1,187.54,119.64Z"/><path d="M183.46,121.86a10.83,10.83,0,0,1,0,5.48,10,10,0,0,1-1,2.54,7.12,7.12,0,0,1-1.94,2.51,2.48,2.48,0,0,1-2.13.36,2.26,2.26,0,0,1-1.4-1.33,4,4,0,0,1-.27-1.54,7.53,7.53,0,0,1,.23-1.47,19,19,0,0,0,.44-2.52l.07-.81a2,2,0,0,0,0-.46l1,.43a3.25,3.25,0,0,1-2.13-.83,2.46,2.46,0,0,1-.87-1.85l.26-.14a3,3,0,0,0,2.53.38l.44-.15.6.59a3,3,0,0,1,.83,1.93,3.36,3.36,0,0,1-.35,1.73c-.54,1-1.35,1.46-1.81,2.13a1.78,1.78,0,0,0-.35,1,1.29,1.29,0,0,0,.39.92.5.5,0,0,0,.64.13c.14-.11.14-.24.24-.42a9.66,9.66,0,0,0,.72-1.88,19.48,19.48,0,0,1,.91-2.29,27.53,27.53,0,0,1,2.6-4.53Z"/><path d="M154,130.33a5.39,5.39,0,0,1,.51-2,5.73,5.73,0,0,1,1-1.53,5.94,5.94,0,0,1,1.46-1,5.33,5.33,0,0,1,1.74-.66,3,3,0,0,0,1.6-.81,15.29,15.29,0,0,0,1-1.65,3.06,3.06,0,0,1,1.52-.92,4,4,0,0,1,2-.06l.15.26a3.54,3.54,0,0,1-.39,1,4,4,0,0,1-.52.77,3.51,3.51,0,0,1-.62.6,1.79,1.79,0,0,1-.74.41,9.73,9.73,0,0,0-1.83.37,2.61,2.61,0,0,0-1.15,1.31,6,6,0,0,1-.93,1.54,6.86,6.86,0,0,1-1.15,1.25,6.15,6.15,0,0,1-1.51.85,6.64,6.64,0,0,1-1.94.49Z"/><path d="M196.76,115.52a3.53,3.53,0,0,1,1-1.23,3,3,0,0,1,1.15-.6,3.07,3.07,0,0,1,1.24,0,3,3,0,0,1,1.26.5,1.5,1.5,0,0,0,1.22.29c.39-.1.79-.59,1.2-.78a1.5,1.5,0,0,1,1.22.12,2.63,2.63,0,0,1,1.13,1.09l0,.3a3,3,0,0,1-1.22.94,1.34,1.34,0,0,1-1.14,0c-.37-.19-.76-.67-1.15-.75a1.31,1.31,0,0,0-1.14.38,3.11,3.11,0,0,1-1.09.68,2.45,2.45,0,0,1-2.28.06,4.75,4.75,0,0,1-1.32-.81Z"/><path d="M197,113.47a6.88,6.88,0,0,1,3.26-3.38,8.05,8.05,0,0,1,2.22-.62,8.79,8.79,0,0,1,1.15-.12c.39,0,.79.07,1.18.1a5.1,5.1,0,0,0,2.24-.06c.71-.18,1.41-.73,2.16-1a4.38,4.38,0,0,1,2.27.08,4.74,4.74,0,0,1,2.11,1.21l0,.3a7.36,7.36,0,0,1-2.18.82,5.11,5.11,0,0,1-1,.14,2.57,2.57,0,0,1-1,0,10,10,0,0,0-2.14-.58,3.39,3.39,0,0,0-1,.18,6,6,0,0,0-1,.52,9.38,9.38,0,0,1-1.83,1.12,13.35,13.35,0,0,1-1.83.88,13.52,13.52,0,0,1-4.35.67Z"/><path d="M194.41,111a4,4,0,0,1,1.32-2.89,3.7,3.7,0,0,1,1.3-.65,3.31,3.31,0,0,1,.72-.19,7.13,7.13,0,0,1,.81,0,2,2,0,0,0,1.39-.35c.37-.29.59-.92,1-1.29a1.87,1.87,0,0,1,1.35-.46,3,3,0,0,1,1.66.51l.09.28a3.36,3.36,0,0,1-.44.83,3.1,3.1,0,0,1-.49.57,2.51,2.51,0,0,1-.55.39,1,1,0,0,1-.63.17c-.47,0-1.08-.26-1.52-.14a1.67,1.67,0,0,0-1,.92,4.29,4.29,0,0,1-.81,1.19,4.18,4.18,0,0,1-1,.87,5.18,5.18,0,0,1-3,.49Z"/><path d="M168.78,118.44a2.53,2.53,0,0,1,.06-.57l.07-.47.14-1,.28-1.89.55-3.79c.32-2.52.72-5,.9-7.55,0-.62.07-1.23.06-1.81a9.93,9.93,0,0,0-.28-1.71l-.85-3.7c-.58-2.48-1.2-5-1.73-7.48-.27-1.26-.54-2.51-.74-3.84-.05-.35-.11-.66-.13-1.05l0-.57v-.47l-.05-1.9-.26-7.63-.25-7.63c-.11-2.54-.16-5.1-.35-7.56l0-.46.19-.37c.25-.48.53-1,.67-1.3s.12-.2.08-.86a23.4,23.4,0,0,1-.06-3.37,11.25,11.25,0,0,1,.29-1.82,8.55,8.55,0,0,1,.34-1l.31-.69c.2-.47.4-1,.65-1.49a6.08,6.08,0,0,1,1.09-1.69,3.82,3.82,0,0,1,1-.74,4.53,4.53,0,0,1,1.08-.33c.55-.1,1.08-.18,1.62-.25,1.07-.14,2.13-.26,3.22-.33.55,0,1.09-.07,1.67-.06a7.32,7.32,0,0,1,.91,0,2.69,2.69,0,0,1,.55.1,4.12,4.12,0,0,1,.45.14,29.36,29.36,0,0,1,3,1.31l.34.16.14.28,1,2.09.5,1a1.38,1.38,0,0,1,.11.57l0,.2c0,.14,0,.23-.06.34s-.09.4-.14.6c-.4,1.53-.85,3-1.39,4.48-.14.37-.27.73-.45,1.12a3.5,3.5,0,0,1-.17.32,2,2,0,0,1-.22.31l-.39.45a11.91,11.91,0,0,0-1.32,1.74,5.11,5.11,0,0,0-.7,1.94c-.09.73-.12,1.5-.16,2.26q-.08,2.3-.09,4.59v2.3a6.67,6.67,0,0,0,0,1.11c0,.35.1.74.15,1.11.44,3,1,6,1.63,9l1.85,9,.95,4.49.91,4.51.88,4.49.45,2.23c.07.37.16.72.24,1.08l.13.53a.38.38,0,0,1,0,.18c1.66,2.72,3,5.41,4.46,8.16l.47.91-.76.56a23.67,23.67,0,0,1-3.11,2,27.83,27.83,0,0,1-3.29,1.49,21.25,21.25,0,0,1-3.48,1,19.85,19.85,0,0,1-3.61.4h.12a7,7,0,0,1-2.68-.17,15.93,15.93,0,0,1-2.39-.79c-.76-.32-1.51-.67-2.23-1.06-.36-.19-.72-.4-1.07-.61l-.52-.32-.26-.16-.13-.09-.07,0A.43.43,0,0,1,168.78,118.44Zm.27-.12a.08.08,0,0,0,0,0l.06,0,.14.07.28.12.56.24,1.12.44a23.39,23.39,0,0,0,2.27.78,13.34,13.34,0,0,0,2.29.48,5.93,5.93,0,0,0,2.16-.07h0l.11,0a18.36,18.36,0,0,0,3.27-.64,21.72,21.72,0,0,0,3.13-1.15,24.73,24.73,0,0,0,3-1.56,27.35,27.35,0,0,0,2.7-1.87l-.29,1.47-2.29-4c-.76-1.33-1.52-2.65-2.31-3.88a6.75,6.75,0,0,1-.36-.9l-.15-.58c-.1-.39-.21-.79-.29-1.16-.16-.76-.35-1.52-.48-2.28l-.85-4.54-.73-4.56-.62-4.56L180.58,81l-1.15-9.15c-.05-.39-.11-.75-.14-1.17a9.56,9.56,0,0,1,0-1.18l0-2.31c0-1.53,0-3.07,0-4.61,0-.77,0-1.53.08-2.33a6.31,6.31,0,0,1,.75-2.39,12.69,12.69,0,0,1,1.34-2l.34-.45a.53.53,0,0,0,.1-.16l.08-.2c.13-.31.24-.67.35-1,.42-1.44.79-2.93,1.06-4.39a4.85,4.85,0,0,0,.08-.53,1,1,0,0,0,0-.22v-.09a.54.54,0,0,0,.07.29l-.57-1-1.14-2,.48.45c-.94-.38-1.93-.75-2.86-1a8.06,8.06,0,0,0-2.68,0c-1,.11-2,.27-3,.46-.51.09-1,.19-1.49.3a1.27,1.27,0,0,0-.42.14,1.11,1.11,0,0,0-.25.21,10.26,10.26,0,0,0-1.13,2.4l-.31.76a3.66,3.66,0,0,0-.17.53,7.33,7.33,0,0,0-.16,1.3,19.86,19.86,0,0,0,.13,2.94,5.81,5.81,0,0,1,0,1,4.13,4.13,0,0,1-.29,1.21c-.26.65-.51,1.07-.72,1.53l.15-.83c.52,5.21.64,10.27.79,15.4l.09,7.67v2.8c0,.25,0,.57.07.86.14,1.2.35,2.46.56,3.7L172,95.52c.23,1.26.45,2.52.62,3.82a12.08,12.08,0,0,1,.16,2.09c0,.69-.12,1.35-.22,2-.41,2.58-.93,5.08-1.55,7.57l-.95,3.72-.49,1.86-.26.92-.14.46C169.14,118.1,169.12,118.29,169.05,118.32Z"/><path d="M130.58,102.21A55.68,55.68,0,0,0,138,102a53.16,53.16,0,0,0,7.33-1.12,31.63,31.63,0,0,0,7-2.39,13.44,13.44,0,0,0,3-2,6.32,6.32,0,0,0,1.83-2.9v0l0-.06a17.51,17.51,0,0,0,1.71-6.56,27.49,27.49,0,0,0-.38-6.83,45.51,45.51,0,0,0-1.69-6.69c-.71-2.21-1.6-4.28-2.46-6.65l.08.22c-.23-.45-.47-.91-.69-1.43a5.63,5.63,0,0,1-.49-1.79l.26.66a8.41,8.41,0,0,1-1.7-3.29l.25.49a9.1,9.1,0,0,1-1.6-2.81l.16.32a9.44,9.44,0,0,1-1.5-2.94l.26.52a9.76,9.76,0,0,1-1.82-3.1l.25.46A19.62,19.62,0,0,1,146,51.55l-1.49-2.27-.09-.13c-.55-.94-1.19-1.88-1.75-3l.26.38A7.21,7.21,0,0,1,141.82,45a5.71,5.71,0,0,1-.63-1.92l.83,1.15a4.32,4.32,0,0,1-1.75-1.53,4.68,4.68,0,0,1-.69-2.13l1,1.3a4.11,4.11,0,0,1-1.86-1.36,4.3,4.3,0,0,1-.81-2.09l.9,1.22A4.52,4.52,0,0,1,137,38.29a4.72,4.72,0,0,1-.89-1.94l.84,1.07a4.37,4.37,0,0,1-2.46-3.17l.84,1.11a4.75,4.75,0,0,1-1.58-1.23,4.32,4.32,0,0,1-.87-2l.92,1.19a4.52,4.52,0,0,1-1.6-1.14,4,4,0,0,1-.92-1.9l.91,1.16a4.49,4.49,0,0,1-1.49-1.05,3.27,3.27,0,0,1-.88-2.06l1,1.39a4.57,4.57,0,0,1-1.57-1.06,3,3,0,0,1-.64-1.1,3.06,3.06,0,0,1-.15-1.24l1.22,1.69a3.74,3.74,0,0,1-1.87-1,2.84,2.84,0,0,1-.68-1.17,3.64,3.64,0,0,1-.15-1.12l1.52,1.64a4.14,4.14,0,0,1-1-.17,2.92,2.92,0,0,1-1.09-.65,2.75,2.75,0,0,1-.7-1.13,3.69,3.69,0,0,1-.16-1L127.17,25a4.06,4.06,0,0,1-.91-.13,2.67,2.67,0,0,1-1.77-1.6,2.9,2.9,0,0,1-.2-1l1.54,1.51a3,3,0,0,1-1.78-.62,2.51,2.51,0,0,1-.72-1,2.76,2.76,0,0,1-.2-1l1.52,1.56a2.89,2.89,0,0,1-1.58-.5,2.28,2.28,0,0,1-.82-1.14,2.46,2.46,0,0,1,0-1.17l1.52,1.93c-.18,0-.35,0-.57-.05a2.66,2.66,0,0,1-.82-.26,2.29,2.29,0,0,1-.61-.48,2,2,0,0,1-.45-1,2.15,2.15,0,0,1,.28-1.35l1.21,2.37a4.14,4.14,0,0,1-1.64-.5,2.45,2.45,0,0,1-1-1.05,2.51,2.51,0,0,1-.22-1.42l1.48,1.8a4.21,4.21,0,0,1-1.82-.48,2.61,2.61,0,0,1-1-.95,3.06,3.06,0,0,1-.42-1.18l1.6,1.38a3.81,3.81,0,0,1-2-.47,2.85,2.85,0,0,1-.92-.84,3.11,3.11,0,0,1-.48-1l1.52,1.13a3.72,3.72,0,0,1-1.91-.48,3.29,3.29,0,0,1-1.4-1.69l1.42,1a4,4,0,0,1-1.77-.46,2.85,2.85,0,0,1-.94-.85,2.67,2.67,0,0,1-.45-1.27l1.46,1.43a5.07,5.07,0,0,1-1.88-.46,3,3,0,0,1-1.07-.91,2.87,2.87,0,0,1-.51-1.3l1.62,1.33a4.63,4.63,0,0,1-2.16-.36,4.13,4.13,0,0,1-1.71-1.51l1.45.65a3.72,3.72,0,0,1-2-.29,5.54,5.54,0,0,1-1.39-.89l.61.32A21.06,21.06,0,0,1,105,11l-.11-.05-.09,0a8.49,8.49,0,0,0-1-.48,1.47,1.47,0,0,0-.62-.13l-.7,0-.46-.47a2.09,2.09,0,0,0-.68-.49,1.64,1.64,0,0,0-.74-.07l-.94.09-.49-.79A.52.52,0,0,0,99,8.34a1,1,0,0,0-.51,0l-.88.14-.53-.68a1,1,0,0,0-.4-.34.5.5,0,0,0-.37,0l-.81.18L94.89,7a1.54,1.54,0,0,0-1.26-.58l-.55,0-.42-.29a6.85,6.85,0,0,0-2-.89l.15,0a11.21,11.21,0,0,1-1.5-.42,4.15,4.15,0,0,1-1.7-1.12L89,4.25a4.78,4.78,0,0,1-2.2,0,4.78,4.78,0,0,1-1.93-1l1.59.11a3.38,3.38,0,0,1-2.2.43,5.07,5.07,0,0,1-1.75-.64l1.15.09a4,4,0,0,1-1.9.22,4.86,4.86,0,0,1-1.69-.54l1,.09a4.78,4.78,0,0,1-1.83.22,4.57,4.57,0,0,1-1.8-.56l1.16.05a4.62,4.62,0,0,1-1.84.38,4.16,4.16,0,0,1-1.89-.51h1.22a4.69,4.69,0,0,1-1.84.52,4.24,4.24,0,0,1-2-.35l1.17-.1a4.42,4.42,0,0,1-1.85.68,4,4,0,0,1-2-.27l1.2-.17A4.66,4.66,0,0,1,69,3.8a4.24,4.24,0,0,1-2.1-.09L68,3.48a5.1,5.1,0,0,1-1.71.92,3.72,3.72,0,0,1-2.14,0l1.09-.19a5.65,5.65,0,0,1-1.81,1A3.29,3.29,0,0,1,61,4.91l1.39-.26A5.11,5.11,0,0,1,60.51,6a3.88,3.88,0,0,1-2.46.12l1.17-.45a4.23,4.23,0,0,1-1.71,1.44,5.24,5.24,0,0,1-2.07.4l.76-.34a5.33,5.33,0,0,1-3.42,1.56l.57-.25A6.44,6.44,0,0,1,50.06,10l.46-.21a7,7,0,0,1-3.09,1.48l.38-.18a7.42,7.42,0,0,1-3,1.43l.37-.19a6.1,6.1,0,0,1-2.89,1.39l.43-.23A5.12,5.12,0,0,1,40,14.93l.46-.25A3.85,3.85,0,0,1,37.86,16l.54-.27a4.47,4.47,0,0,1-1,.89,2.25,2.25,0,0,1-1.6.31l.75-.3a4,4,0,0,1-.86.91,1.91,1.91,0,0,1-.73.35,1.49,1.49,0,0,1-.95-.12l.9-.26a4.21,4.21,0,0,1-.74.89,1.88,1.88,0,0,1-.64.39,1.47,1.47,0,0,1-.88,0l.76-.31a3.18,3.18,0,0,1-.6.76,2,2,0,0,1-1,.51l.39-.23a6.58,6.58,0,0,1-.83.77l-.13.13-.11,0c-.08,0-.13.06-.11,0s.09-.15.07-.15l-.88.55,0,0h.06c.05,0,.12.06.41-.13a.58.58,0,0,0,.21-.55c0-.06,0-.08,0-.09v0l-1.05.67a.31.31,0,0,0,.19.14.44.44,0,0,0,.39,0c.09-.08,0,0,0,0l-.16.48-.54-.13a.75.75,0,0,0-.9.36l-.25.33-.36-.08a2.14,2.14,0,0,0-2.07.68l-.23.23-.31-.09a2.65,2.65,0,0,0-2.33.62l-.16.13h-.2a4.69,4.69,0,0,0-2.93.81l-.13.09h-.15a8.1,8.1,0,0,0-1.49.19,4,4,0,0,0-1.31.53l-.1.07H16.6a20.4,20.4,0,0,0-2.79.61L11,26.61l-2.8.83-1.4.41-.69.21a1.49,1.49,0,0,1-.64.1,1.85,1.85,0,0,1-.65-.28l.9-.09c0,.09.09.18.13.27l.15.35.31.71v0h0A5.26,5.26,0,0,0,7,30.6l.06.07,0,.09a5.43,5.43,0,0,0,1,2.13l.08.09,0,.12a12.62,12.62,0,0,0,1,2.85,18.53,18.53,0,0,1,1.08,3l-.09-.19a6.34,6.34,0,0,1,1.3,3.46l-.21-.38a3.71,3.71,0,0,1,1.22,1.53,5.3,5.3,0,0,1,.43,1.84l-.25-.43a3.68,3.68,0,0,1,1.27,1.39,5.23,5.23,0,0,1,.55,1.72l-.23-.39A4.5,4.5,0,0,1,16,50.31l-.24-.38a3.86,3.86,0,0,1,1.6,2.54L17,52a3.26,3.26,0,0,1,1.07.82,2.51,2.51,0,0,1,.57,1.34L18,53.51a2.38,2.38,0,0,1,1.07.42,1.53,1.53,0,0,1,.61,1.32l-.8-.77a3,3,0,0,1,1.5.19A2.13,2.13,0,0,1,21.56,56l-1-.49a3.74,3.74,0,0,1,1.9-.25,3,3,0,0,1,1.75,1.06l-1.1-.16a3.42,3.42,0,0,1,2-.64,5.53,5.53,0,0,1,1.87.4l-.81.09a3.46,3.46,0,0,1,1.77-.53,14.57,14.57,0,0,1,1.49,0l-.29,0c.92-.21,1.65-.25,2.38-.39h.12a5.15,5.15,0,0,0,1.88-.39l.2-.09H34a1.27,1.27,0,0,0,1-.33l1-.2a.41.41,0,0,0-.32.05c-.09.08,0,0,0-.06l.53-1.65,1.27,1.39,1.13,1.25.08.09.08.14a5.22,5.22,0,0,1,.41,1.05,6.25,6.25,0,0,1,.18,1l-.2-.55a2.06,2.06,0,0,1,.25.54l.06.28.07.43.1.77-.24-.57a1.71,1.71,0,0,1,.24.4l.08.2.13.33c.09.2.17.4.26.58l-.1-.17a6.26,6.26,0,0,0,1.53,1.55,16.35,16.35,0,0,0,2,1.23l.07,0,.08.06c.47.34,1,.68,1.48,1.1a6.36,6.36,0,0,1,1.51,1.61l-1-.61a5.79,5.79,0,0,1,1.79.32,3.69,3.69,0,0,1,1.71,1.25l-1.54-.41a3.4,3.4,0,0,1,1.71-.31,2.56,2.56,0,0,1,1.06.35,2.91,2.91,0,0,1,.75.67l-1.82-.23a2.84,2.84,0,0,1,1.55-.66,2,2,0,0,1,1.29.34,2.3,2.3,0,0,1,.71.78l-2-.36a3.57,3.57,0,0,1,.59-.41,2.32,2.32,0,0,1,1-.28,1.91,1.91,0,0,1,1.37.57,2.41,2.41,0,0,1,.54.85l-1.88-.7a2.79,2.79,0,0,1,.94-.32,2.09,2.09,0,0,1,1.4.3,2.25,2.25,0,0,1,.79.89A3.9,3.9,0,0,1,56,68l-1.79-.88A2.11,2.11,0,0,1,55.55,67a1.79,1.79,0,0,1,.81.48,2.12,2.12,0,0,1,.41.62,2.79,2.79,0,0,1,.2.9,5,5,0,0,1,0,.67l-1.57-1.4a2,2,0,0,1,1.53.3,2.08,2.08,0,0,1,.8,1.31,4.28,4.28,0,0,1-.07,1.61l-1.23-1.63a2.32,2.32,0,0,1,1.33.52,2.2,2.2,0,0,1,.73,1.24,4.15,4.15,0,0,1,0,1.75l-.93-1.56a2.48,2.48,0,0,1,1.08.64,2.72,2.72,0,0,1,.62,1,4.27,4.27,0,0,1,.17,1.71L58.78,74A3.33,3.33,0,0,1,60,75.46,5.14,5.14,0,0,1,60.35,77l-.45-.9a5.33,5.33,0,0,1,1.55,2.63L61,78a6.57,6.57,0,0,1,1.8,2.15l-.62-.57a6.09,6.09,0,0,1,2.27,1.69l-2.07.11a1.69,1.69,0,0,1,.42-.45,1.39,1.39,0,0,1,.79-.3,1.41,1.41,0,0,1,.64.12,1.45,1.45,0,0,1,.41.28,1.59,1.59,0,0,1,.41.69,2.59,2.59,0,0,1,.09.35l-1.81-.93a2.17,2.17,0,0,1,.82-.22,2,2,0,0,1,1,.22,2.51,2.51,0,0,1,1,1.07l-1.51-.6a2.83,2.83,0,0,1,1.9.06,3.77,3.77,0,0,1,1.29.93l-1.16-.36a3.5,3.5,0,0,1,1.86.16,4.67,4.67,0,0,1,1.37.8L69.13,83a4.91,4.91,0,0,1,3.21,1.15l-.75-.25a5.23,5.23,0,0,1,1.81.29,4.89,4.89,0,0,1,1.6,1l-.89-.29a4.64,4.64,0,0,1,1.9.19,4.28,4.28,0,0,1,1.64,1l-1-.27a3.75,3.75,0,0,1,1.82,0,3.15,3.15,0,0,1,1.59,1l-1.1-.3a3.38,3.38,0,0,1,1.68-.15,2.51,2.51,0,0,1,1.59,1l-1.38-.15a2.46,2.46,0,0,1,.69-.4,1.67,1.67,0,0,1,1,0,1.8,1.8,0,0,1,.77.46,3.29,3.29,0,0,1,.43.52l-1.19-.3a2.42,2.42,0,0,1,.85-.25,2,2,0,0,1,1,.16,2.78,2.78,0,0,1,1.16,1l-1-.33a2.35,2.35,0,0,1,1.91.16,3.11,3.11,0,0,1,1.16,1.25l-1-.36a2.48,2.48,0,0,1,2,.11A3.32,3.32,0,0,1,90,90.65l-.89-.33a2.52,2.52,0,0,1,2,.14,3.47,3.47,0,0,1,1.3,1.28l-.73-.31a3.08,3.08,0,0,1,2,.25A5.08,5.08,0,0,1,95,92.78l-.51-.19a3.5,3.5,0,0,1,1.66.35,9,9,0,0,1,1.3.73l-.1,0c2.75,1.28,5.21,2.74,7.79,4.14,1.28.68,2.55,1.46,3.84,2.06a21,21,0,0,0,4.17,1c2.87.46,5.78.73,8.69.94S127.66,102.11,130.58,102.21Zm0,.3q-4.38-.12-8.75-.39c-2.92-.21-5.84-.39-8.74-.79a21.31,21.31,0,0,1-4.34-.94c-1.38-.6-2.64-1.29-4-1.93-2.61-1.28-5.24-2.68-7.83-3.77l-.06,0,0,0a4.19,4.19,0,0,0-2.23-.79l-.28,0-.23-.22A4.13,4.13,0,0,0,93,92.89a1.63,1.63,0,0,0-1.11-.09l-.45.11-.28-.42a2,2,0,0,0-.78-.73,1,1,0,0,0-.85,0L89,92l-.34-.53a1.91,1.91,0,0,0-.71-.71.84.84,0,0,0-.74,0l-.63.24-.37-.61a1.42,1.42,0,0,0-.54-.57.6.6,0,0,0-.54,0l-.61.21-.39-.55a1,1,0,0,0-.42-.37c-.07,0-.09,0-.26.06l-.74.38-.45-.68c-.12-.18-.27-.25-.18-.2a.28.28,0,0,0,.12,0l-.1.08-.7.64-.68-.79a.62.62,0,0,0-.41-.24,1.53,1.53,0,0,0-.68.13l-.6.23-.5-.53a1.25,1.25,0,0,0-1.38-.32l-.54.13-.44-.39a2.06,2.06,0,0,0-1.82-.52l-.49.07-.4-.36a2.55,2.55,0,0,0-1.84-.61h-.4L70.88,86a2.53,2.53,0,0,0-1.68-.56l-.41,0-.37-.28a2.27,2.27,0,0,0-.7-.39,1,1,0,0,0-.52,0l-.65.16-.5-.51a1.25,1.25,0,0,0-.43-.31c-.07,0-.06,0-.18,0l-1.06.31-.45-.91c-.06-.11-.13-.12,0,0a.57.57,0,0,0,.31.07.24.24,0,0,0,.12,0l-1.38,1-.43-1.9s0,0,0,0,0,.08.24.37a1,1,0,0,0,.33.22,1.29,1.29,0,0,0,.55.11,1.06,1.06,0,0,0,.62-.23.87.87,0,0,0,.18-.17L62.43,83a3.46,3.46,0,0,0-1.33-1l-.4-.17-.22-.4a3.92,3.92,0,0,0-1.09-1.28L59,79.88l-.12-.44a2.66,2.66,0,0,0-.77-1.33l-.4-.34,0-.56a2.69,2.69,0,0,0-.16-.7.61.61,0,0,0-.23-.29l-.66-.44.06-.78a1.78,1.78,0,0,0-.05-.65s0,0,0,0,.08.06.07.05l-1.16-.59.22-1a2.1,2.1,0,0,0,.06-.61.47.47,0,0,0,.15.21.58.58,0,0,0,.24.12l-1.5-.26L55,70.93a3,3,0,0,0,.06-.36.86.86,0,0,0,0-.18.64.64,0,0,0,.29.38.67.67,0,0,0,.49.14l-1.57-1.4a3,3,0,0,0,0-.3c0-.08,0-.13,0-.06a.84.84,0,0,0,.55.44.71.71,0,0,0,.38,0L54,70.78l-.6-2.06a1.2,1.2,0,0,0-.08-.22s0,0,.13.1a.59.59,0,0,0,.4.1c.06,0,0,0,0,0l-1.42.78L52,68s0,0,.06.07a.79.79,0,0,0,.55.22c.18,0,.2,0,.17,0a.91.91,0,0,0-.16.11l-1.25,1-.73-1.34s0,0,.09.07a.56.56,0,0,0,.38.1c.18,0,0,0-.15.12l-.91.77-.91-1c-.1-.11,0,0,0-.06a1.1,1.1,0,0,0-.41.1l-.93.4-.61-.8a1.11,1.11,0,0,0-.54-.42,3.32,3.32,0,0,0-1-.18l-.71,0-.32-.57a9.43,9.43,0,0,0-2.3-2l.14.09a18.61,18.61,0,0,1-2.32-1.5,8.81,8.81,0,0,1-2-2.17l-.07-.1,0-.07c-.11-.24-.2-.48-.29-.71l-.11-.32-.05-.12s0-.07.07.09l-.24-.57-.07-.75,0-.32,0-.1a1.61,1.61,0,0,0,.11.19l-.21-.55a4.57,4.57,0,0,0-.09-.71,3,3,0,0,0-.23-.62l.16.23-1.16-1.37,1.8-.25a2.24,2.24,0,0,1-.74,1,1.72,1.72,0,0,1-.8.29,2.06,2.06,0,0,1-.74-.09l1-.2a3.32,3.32,0,0,1-1.2.65,3.71,3.71,0,0,1-1.31.12l.48-.08A7.06,7.06,0,0,1,31.7,57h.12c-.81.12-1.63.17-2.24.3l-.17,0h-.12A11.43,11.43,0,0,0,28,57.26a1.89,1.89,0,0,0-.87.18l-.4.26-.41-.17a4,4,0,0,0-1.26-.33,1.7,1.7,0,0,0-1,.3l-.64.41-.46-.56a1.37,1.37,0,0,0-.77-.54,2.1,2.1,0,0,0-1.09.13l-.75.25-.25-.74c-.08-.23-.15-.33-.29-.4A1.49,1.49,0,0,0,19,56l-.77,0,0-.82c0-.12,0-.06,0-.12a1.23,1.23,0,0,0-.44-.17l-.54-.1,0-.52a1.37,1.37,0,0,0-.85-1.11L16,53l0-.33a2.56,2.56,0,0,0-1-1.73l-.2-.16,0-.23a3.17,3.17,0,0,0-1.17-2.06l-.2-.14,0-.24a3.26,3.26,0,0,0-1.26-2.36l-.25-.15v-.28a3.34,3.34,0,0,0-1.16-2.6l-.2-.15v-.24a5.29,5.29,0,0,0-1-2.94l-.07-.09,0-.1a18.08,18.08,0,0,0-1-2.87,13.25,13.25,0,0,1-1.06-3l.1.22A6.65,6.65,0,0,1,6.21,31l.09.17a6.11,6.11,0,0,1-.81-1.7l0,.05-.32-.76L5,28.37l-.18-.49.91-.09a.39.39,0,0,0,0-.49c-.1-.1-.1-.05.06-.11l.7-.22L8,26.54l2.79-.86,2.8-.86a23.45,23.45,0,0,1,2.9-.66l-.21.09a5.26,5.26,0,0,1,1.65-.7,8.09,8.09,0,0,1,1.69-.23l-.28.09a5.84,5.84,0,0,1,3.58-1l-.36.12A4.39,4.39,0,0,1,24,21.69a3.29,3.29,0,0,1,1.79,0l-.54.14a4,4,0,0,1,1.37-.91,3.14,3.14,0,0,1,1.71-.14l-.6.25a2,2,0,0,1,2.16-.89l-.7.36a1.29,1.29,0,0,1,.4-.55.79.79,0,0,1,.73-.12.87.87,0,0,1,.46.37l-1.05.67a1.94,1.94,0,0,1-.1-.17,2,2,0,0,1-.07-.2.92.92,0,0,1,0-.24.68.68,0,0,1,.24-.41.66.66,0,0,1,.51-.15l.17,0,.18.07-.89.55a1.05,1.05,0,0,1,.36-.76,1.91,1.91,0,0,1,.51-.28l-.24.16a8.53,8.53,0,0,0,.73-.71l.13-.18.27-.05a.7.7,0,0,0,.33-.2,2.05,2.05,0,0,0,.35-.47l.19-.32.58,0h.06a.92.92,0,0,0,.18-.13,2.76,2.76,0,0,0,.45-.6l.24-.39.66.12h0a.69.69,0,0,0,.18-.1,2.64,2.64,0,0,0,.5-.6l.25-.37.5.07a.76.76,0,0,0,.53-.15,3,3,0,0,0,.65-.61l.2-.24.34,0a2.34,2.34,0,0,0,1.49-.88l.18-.19.28-.05a3.57,3.57,0,0,0,1.86-1l.17-.18.26-.05a4.44,4.44,0,0,0,2-1.08l.15-.13.22-.06a5.32,5.32,0,0,0,2.19-1.15l.16-.13L47,9.48a5.05,5.05,0,0,0,2.25-1.16l.18-.16.28-.05A4.51,4.51,0,0,0,52,7l.23-.21.34,0a3.18,3.18,0,0,0,2.07-1l.29-.32.48,0a3.17,3.17,0,0,0,1.19-.25,2.13,2.13,0,0,0,.8-.73l.4-.61.77.16a1.64,1.64,0,0,0,1.09-.06,2.84,2.84,0,0,0,1-.79l.55-.65.84.38a.85.85,0,0,0,.72,0,3.08,3.08,0,0,0,1-.59l.48-.38.61.19a1.73,1.73,0,0,0,1.58-.51l.47-.4.63.16A1.88,1.88,0,0,0,69.32,1l.54-.41.67.24A1.71,1.71,0,0,0,72.17.54L72.71.2l.63.24a1.73,1.73,0,0,0,1.6-.13L75.53,0l.63.32A1.56,1.56,0,0,0,77.6.3l.57-.24.58.29a1.89,1.89,0,0,0,1.55.1l.54-.17.51.26A1.62,1.62,0,0,0,82.71.7l.58-.23.57.32a2.46,2.46,0,0,0,.78.29A.55.55,0,0,0,85.05,1l.84-.47.74.59a2.17,2.17,0,0,0,.83.44,2,2,0,0,0,.92-.05l.78-.18.58.62a1.35,1.35,0,0,0,.58.34,10.74,10.74,0,0,0,1.13.29h0l.1,0a10,10,0,0,1,2.71,1.23l-1-.25a4,4,0,0,1,2,.3A5.2,5.2,0,0,1,97,5l-1.4-.38a3.59,3.59,0,0,1,2.19.12A4.05,4.05,0,0,1,99.36,6L98,5.42a4,4,0,0,1,2.07.17A3.39,3.39,0,0,1,101.74,7l-1.43-.7a4.48,4.48,0,0,1,2.14.23,4.88,4.88,0,0,1,1.73,1.14L103,7.27a4.63,4.63,0,0,1,1.9.3,10.2,10.2,0,0,1,1.36.65l-.19-.09a17.23,17.23,0,0,0,2,.76l.33.08.28.24a2.52,2.52,0,0,0,.61.39.71.71,0,0,0,.38.06l.91-.12.54.77a1.09,1.09,0,0,0,.46.44,1.82,1.82,0,0,0,.72.07l1.29-.07.33,1.41s0,0,0-.08-.09-.09-.05-.07a2,2,0,0,0,.69.12L116,13.56a.56.56,0,0,0-.08-.24.55.55,0,0,0-.12-.12,1.25,1.25,0,0,0,.36.06h.95l.47,1c.05.11,0,.06,0,.06a.92.92,0,0,0,.31,0H119l.45,1.13c0,.14,0,0,0,0a2.07,2.07,0,0,0,.3,0l1.41,0,.2,1.41s0,0,0-.07a.36.36,0,0,0-.15-.14,2.4,2.4,0,0,0,.47.07l1.49,1.8a.85.85,0,0,0-.08-.39.73.73,0,0,0-.26-.3,1.67,1.67,0,0,0,.38.08l1.21,2.38a1.09,1.09,0,0,0,.1-.68,1.33,1.33,0,0,0-.3-.67,1.1,1.1,0,0,0-.33-.26l-.14-.06h.14l1.52,1.93a.89.89,0,0,0,0-.41,1,1,0,0,0-.38-.54c-.27-.16-.22-.09-.12-.09l1.52,1.56a.38.38,0,0,0,0-.13.69.69,0,0,0-.22-.3c-.21-.16-.24-.1-.14-.11l1.45,0,.09,1.55s0,.05,0,0a1,1,0,0,0-.16-.22,1.37,1.37,0,0,0-.18-.11h.07l1.55,0,0,1.54c0,.08,0,.11,0,.09a.49.49,0,0,0-.12-.19.36.36,0,0,0-.14-.09l.14,0,1.55.09,0,1.55a.32.32,0,0,0,0,.11.23.23,0,0,0-.07-.11c-.07-.06.07.05.32.1l.82.19.4,1.51c0,.07,0-.12,0-.08a1.65,1.65,0,0,0,.47.28l.49.22.46,1.18s0,0,0,.06a1.42,1.42,0,0,0,.44.29l.76.35.15.82a.83.83,0,0,0,.18.39,1.37,1.37,0,0,0,.49.34l.79.36.13.83a1.1,1.1,0,0,0,.2.49,1.61,1.61,0,0,0,.53.4l.68.35.16.76a1.23,1.23,0,0,0,.74,1L139,35l.18.72a1.37,1.37,0,0,0,.84,1.11l.82.4.09.82a1.43,1.43,0,0,0,.21.63,1,1,0,0,0,.49.34l.91.37.07.94a1.87,1.87,0,0,0,.21.75,1.28,1.28,0,0,0,.53.45l.72.36.11.79a3.19,3.19,0,0,0,.93,1.83l.17.19.09.19c.39.88,1,1.82,1.55,2.81l-.08-.13c.53.85,1.08,1.69,1.6,2.54a17.14,17.14,0,0,0,1.46,2.2l.18.22.08.24a7.69,7.69,0,0,0,1.28,2.3l.2.26.05.26a7,7,0,0,0,1,2.09l.11.16.05.15A6.42,6.42,0,0,0,153.93,60l.2.25.05.25A6.26,6.26,0,0,0,155.33,63l.25.33v.34A6.61,6.61,0,0,0,156.4,66l0,.07,0,.15,1.07,3.25c.38,1.12.74,2.26,1.06,3.41a50,50,0,0,1,1.43,7,29.81,29.81,0,0,1,.09,7.19A19.05,19.05,0,0,1,158,94l0-.1a7.2,7.2,0,0,1-2.23,3.24,14,14,0,0,1-3.23,2,31.37,31.37,0,0,1-7.16,2.26A60.3,60.3,0,0,1,130.57,102.51Z"/><path d="M104.07,16.53a73.7,73.7,0,0,1,14.12,13.61,83.07,83.07,0,0,1,5.59,8.09,72.72,72.72,0,0,1,4.64,8.66c1.36,3,2.73,5.92,4.23,8.81s3.24,5.68,4.65,8.63a41.52,41.52,0,0,1,1.85,4.54l.79,2.32.7,2.35a58,58,0,0,1,2,9.62l-.29.08c-1.44-3-2.64-6-3.86-8.95q-.91-2.24-1.78-4.49c-.61-1.49-1.16-3-1.67-4.53-1-3-1.9-6.2-3.22-9.15A51.84,51.84,0,0,0,127,47.7l-5.57-7.9c-1.88-2.6-3.82-5.15-5.76-7.7-3.82-5.15-7.83-10.16-11.8-15.35Z"/><path d="M78.89,8.57A49.41,49.41,0,0,1,90.73,20c.79,1.12,1.57,2.25,2.31,3.41l2,3.58c.63,1.22,1.26,2.44,1.84,3.68s1,2.56,1.51,3.83.88,2.59,1.4,3.85.94,2.55,1.49,3.79,1.06,2.51,1.67,3.74,1.09,2.52,1.58,3.81.79,2.63,1.09,4,.46,2.7.65,4.06.22,2.73.27,4.1a40.8,40.8,0,0,1-.21,4.13l-.3,0c-.44-1.32-.78-2.63-1.08-3.94s-.68-2.6-1-3.9-.69-2.58-1-3.88-.66-2.58-.89-3.9-.51-2.63-.74-4-.62-2.62-1-3.91-1-2.51-1.52-3.73S97.63,36.32,97,35.16s-1.47-2.26-2.16-3.4-1.44-2.25-2.14-3.38l-2.24-3.3c-.8-1.06-1.55-2.16-2.29-3.26-3-4.39-6.21-8.61-9.45-13Z"/><path d="M46.39,15.43A34,34,0,0,1,56,21a30.81,30.81,0,0,1,3.92,4A23.23,23.23,0,0,1,63,29.61c.87,1.67,1.68,3.32,2.59,4.92a41.22,41.22,0,0,1,2.74,4.94,14.11,14.11,0,0,1,.88,5.62,12.39,12.39,0,0,1-1.39,5.51l-.3-.06c-.2-1.87-.34-3.6-.64-5.31s-.67-3.37-1-5.08A22,22,0,0,0,64.74,35a14,14,0,0,0-3-4.38c-1.28-1.26-2.58-2.46-3.84-3.69s-2.66-2.32-4-3.51a91.43,91.43,0,0,1-7.67-7.7Z"/><path d="M33.74,18.16a15.32,15.32,0,0,1,7,3.87A18.83,18.83,0,0,1,42,23.51c.39.54.78,1.08,1.16,1.63s.71,1.12,1,1.71.53,1.23.79,1.84a17.44,17.44,0,0,0,.73,1.83,12.22,12.22,0,0,0,.9,1.72,13.22,13.22,0,0,0,1.14,1.62c.39.54.79,1.08,1.14,1.66A11.6,11.6,0,0,1,50,39.31a10.73,10.73,0,0,1-.21,4l-.3.05a11.75,11.75,0,0,1-1-1.75,15.59,15.59,0,0,1-.78-1.73c-.25-.57-.48-1.14-.67-1.72a8.39,8.39,0,0,1-.53-1.77c-.14-.61-.23-1.24-.32-1.89a10.62,10.62,0,0,0-.49-1.84A10.71,10.71,0,0,0,44.86,31a17,17,0,0,0-1.24-1.45c-.93-.88-1.82-1.75-2.64-2.67-.44-.43-.87-.87-1.29-1.31a17.69,17.69,0,0,1-1.28-1.32c-1.61-1.85-3.24-3.66-4.83-5.86Z"/><path d="M18.79,26.41a2.23,2.23,0,0,1,2.37-.13,1.91,1.91,0,0,1,.6.84,2,2,0,0,1,.16.51,4.14,4.14,0,0,1,0,.61c-.05.42,0,.75.22,1s.79.26,1.11.48a.93.93,0,0,1,.27.95,1.88,1.88,0,0,1-.76,1.14l-.29.06a4.27,4.27,0,0,1-.72-.24,2.37,2.37,0,0,1-.46-.25,1,1,0,0,1-.27-.28A.33.33,0,0,1,21,30.7c.08-.29.39-.74.33-1s-.33-.42-.7-.46a2.39,2.39,0,0,1-.92-.17,1.29,1.29,0,0,1-.62-.34,3.86,3.86,0,0,1-.41-2Z"/><path d="M16.8,41.63a7.07,7.07,0,0,1,1.8-1.17,7.92,7.92,0,0,1,1.8-.64,8.2,8.2,0,0,1,1.86-.1,7.08,7.08,0,0,1,1.95.22,3.09,3.09,0,0,0,1.91-.11,11.72,11.72,0,0,0,1.61-1.24,2.11,2.11,0,0,1,.86-.36,4.73,4.73,0,0,1,.94-.14,5.48,5.48,0,0,1,2.12.31l.11.28a4.41,4.41,0,0,1-1.47,1.62,3.49,3.49,0,0,1-1.85.68,19,19,0,0,0-2.08-.21,3.59,3.59,0,0,0-1.8.77c-.29.19-.58.42-.88.58a6.79,6.79,0,0,1-.93.39,7.53,7.53,0,0,1-1.92.49,6.83,6.83,0,0,1-2-.19,5.88,5.88,0,0,1-2-.88Z"/><path d="M49.46,60.13a9.31,9.31,0,0,1,2.15-1.6,12.27,12.27,0,0,1,2.31-1,11.63,11.63,0,0,1,2.44-.41,9.88,9.88,0,0,1,2.55,0,5.58,5.58,0,0,0,2.48-.26,23.38,23.38,0,0,0,2.22-1.34A6,6,0,0,1,66,55a6.85,6.85,0,0,1,2.65.4l.07.29a6.69,6.69,0,0,1-2.16,1.58,6,6,0,0,1-2.38.67,22.89,22.89,0,0,0-2.59-.15,5.38,5.38,0,0,0-2.32.91A10.34,10.34,0,0,1,57,59.88a12.76,12.76,0,0,1-2.36.77,12.23,12.23,0,0,1-2.5.18,9.34,9.34,0,0,1-2.65-.41Z"/><path d="M72.51,76.65a54.24,54.24,0,0,1,9.77-1.21c1.61-.06,3.23,0,4.85.07a47.39,47.39,0,0,1,4.88.32,18.6,18.6,0,0,0,4.89-.09c1.61-.26,3.16-.94,4.74-1.35A15,15,0,0,1,104,74c.8-.1,1.61-.17,2.42-.22s1.63-.09,2.46-.06a16.68,16.68,0,0,1,2.52.17l.06.29a19.79,19.79,0,0,1-4.65,1.9,20,20,0,0,1-4.86.83c-1.66,0-3.35-.25-5-.17a24,24,0,0,0-4.87.77c-.81.18-1.62.39-2.43.54s-1.64.24-2.46.33a40.81,40.81,0,0,1-4.94.3A32,32,0,0,1,72.49,77Z"/><path d="M107.06,93.15a47.77,47.77,0,0,1,8.46-1.5c.7-.07,1.4-.11,2.1-.11s1.4-.05,2.11-.05a40.43,40.43,0,0,1,4.26,0,19.24,19.24,0,0,0,2.15,0,13.28,13.28,0,0,0,2.09-.39,14.38,14.38,0,0,0,2-.8c.65-.33,1.29-.66,2-.93a10.93,10.93,0,0,1,2-.64c.68-.18,1.37-.33,2.06-.46a21,21,0,0,1,2.13-.32,13.48,13.48,0,0,1,2.22-.11l.11.28A14.88,14.88,0,0,1,137,90.48a15.62,15.62,0,0,1-4.15,1.29c-1.46.18-3,0-4.39.26a19,19,0,0,0-4.18,1.11c-.69.23-1.38.5-2.09.69s-1.41.33-2.13.48a28.63,28.63,0,0,1-4.33.54,23.11,23.11,0,0,1-8.66-1.4Z"/><path d="M5.51,28.11c13.21,4.14,26.2,8.82,39.11,13.73,6.44,2.48,12.82,5.11,19.21,7.72s12.75,5.32,19.08,8.1c3.18,1.35,6.33,2.77,9.53,4.06.8.34,1.59.64,2.4,1s1.62.73,2.37,1.15c1.51.84,3,1.63,4.56,2.45,3.06,1.61,6.16,3.13,9.26,4.65l9.29,4.59c6.15,3.15,12.17,6.53,18.15,10,3,1.73,6,3.48,8.92,5.28,1.48.88,2.94,1.81,4.41,2.73.73.46,1.47.9,2.2,1.4a18,18,0,0,1,2,1.67l-.19.23a29.72,29.72,0,0,0-4.53-2.41c-1.57-.73-3.14-1.46-4.69-2.22Q142,90,137.36,87.58c-6.15-3.15-12.25-6.37-18.23-9.83l-8.9-5.31c-3-1.79-5.92-3.57-8.93-5.26-1.51-.84-3-1.7-4.53-2.51-.76-.41-1.53-.71-2.29-1.08s-1.61-.62-2.41-.92c-3.23-1.22-6.51-2.32-9.76-3.48-6.53-2.25-13-4.56-19.5-7s-13-4.81-19.36-7.37C30.64,39.68,17.92,34.3,5.4,28.39Z"/><path d="M169.82,112.89a10.62,10.62,0,0,1-2.52-1.44,13.87,13.87,0,0,1-2.05-1.83,15.19,15.19,0,0,1-1.59-2.22,12.83,12.83,0,0,1-1.26-2.48,6.64,6.64,0,0,0-1.46-2.31,27.4,27.4,0,0,0-2.32-1.62A7,7,0,0,1,157,98.84a7.85,7.85,0,0,1-.94-2.75l.23-.19a7.72,7.72,0,0,1,2.51,1.46,7.27,7.27,0,0,1,1.79,2c.43.83.63,1.83,1.13,2.59a6.66,6.66,0,0,0,2,1.89,12,12,0,0,1,2.18,1.72,15.18,15.18,0,0,1,1.87,2,13.68,13.68,0,0,1,1.4,2.37,11.13,11.13,0,0,1,.93,2.75Z"/><path d="M387.56,34.56a7.85,7.85,0,0,1-.06-2.37c.05-.79.13-1.57.21-2.36s.16-1.57.2-2.35a3.25,3.25,0,0,0,0-.55.56.56,0,0,0,0-.1s.09.06.07.05l-.23.1a11.32,11.32,0,0,0-1,.61c-2.59,1.78-5.09,3.73-7.57,5.67l-.16.12-.22-.08a3.62,3.62,0,0,0-.72-.17,4,4,0,0,0-.77-.05,4.82,4.82,0,0,0-1.51.29l.06,0-.06,0-.1,0s-.07.06-.28,0a.45.45,0,0,1-.26-.36.5.5,0,0,1,.08-.27c.11-.15.09-.11.13-.15l.12-.11.24-.18.46-.36.93-.7L379,29.85l3.76-2.73.59.95-6.07,3.41.16-.12L375,34l0,0,0,0-3,2.65-.1.09-.14.05-1.31.45-1.38.47.45-1.38a10.57,10.57,0,0,1,1.19-2.46,17.36,17.36,0,0,1,1.66-2.06c.59-.64,1.19-1.26,1.83-1.85a8.88,8.88,0,0,1,2.26-1.61c3.1-1.37,6.21-2.64,9.21-4.08.36-.18.74-.36,1.08-.55s.35-.19.49-.28l.12-.07,0,0h0l.05-.08a20.2,20.2,0,0,0,1.11-2.1l2.15-4.56c.19-.39.37-.77.58-1.17a6.38,6.38,0,0,0,.41-1c.24-.76.45-1.56.65-2.37.39-1.61.73-3.25,1.05-4.88l.15-.81.83,0,2.91.14,1.08.05-.19,1.09c-.24,1.35-.45,2.75-.56,4.09,0,.34,0,.66,0,1,0,.14,0,.27,0,.33a2.92,2.92,0,0,0,.13.39c.22.62.5,1.27.77,1.92l1.67,3.87.83,1.92.93,1.87,1.89,3.82.45,1,.23.52.11.29a1.85,1.85,0,0,1,.11.49,3.28,3.28,0,0,1,0,.76l-.1.56-.23,1.05a5.52,5.52,0,0,0-.21,1.71c.13.61.33,1.32.5,2a8.55,8.55,0,0,1,.34,2.34,15,15,0,0,1-.31,2.26l-.79,3.74-1-3.69c-.51-1.89-1-3.74-1.45-5.68-.05-.25-.1-.49-.15-.78a3.58,3.58,0,0,1,0-1c0-.32.14-.6.19-.81a1.63,1.63,0,0,0,.08-.46,1.22,1.22,0,0,0-.09-.41l-.26-.66-.55-1.34c-.74-1.78-1.5-3.56-2.27-5.32l-.59-1.31-.3-.62-.06-.1h0s0,0,.23.21a.91.91,0,0,0,.9-.05l.14-.11.06-.06a.4.4,0,0,0,.1-.15.46.46,0,0,0,.05-.27v.08l0,.16c.11.92.27,1.89.41,2.84l.87,5.76.19,1.45.09.74c0,.12,0,.24,0,.38l0,.21a2.08,2.08,0,0,1,0,.33,1,1,0,0,1-.63.81,1.82,1.82,0,0,1-.59.12,3.19,3.19,0,0,1-.94-.11,2.86,2.86,0,0,1-.44-.15l-.22-.11-.11-.07a.57.57,0,0,1-.19-.14,1.18,1.18,0,0,1-.25-.4l-.07-.22-.11-.4c-.42-2-.62-3.88-.87-5.82s-.45-3.85-.64-5.79v.06a18.85,18.85,0,0,0-.48-1.9,4,4,0,0,0-.33-.78s0,0,0,0h0a.19.19,0,0,0,.1.05h.14c.06,0,.19-.08.17-.06s0,0,0,0a2.87,2.87,0,0,0-.24.33c-.66,1.09-1.25,2.32-1.82,3.52-.28.61-.55,1.22-.81,1.84-.12.31-.24.62-.34.92s-.14.34,0,.64a13,13,0,0,0,1.27,1.5.62.62,0,0,1,.11.17.39.39,0,0,1,0,.36.39.39,0,0,1-.37.22,1.38,1.38,0,0,1-.36-.1,3.67,3.67,0,0,0-.45-.17.77.77,0,0,0-.67,0l.1-.14,0,.19v.26a5.24,5.24,0,0,0,.06.54c.06.37.13.74.22,1.11.16.74.36,1.48.57,2.22.41,1.47.86,2.94,1.33,4.4l.11.31-.3-.13a29.62,29.62,0,0,0-2.89-1.1,13,13,0,0,0-1.49-.38A2.8,2.8,0,0,0,387.56,34.56Zm0,0a2.83,2.83,0,0,1,1.53-.11c.51.07,1,.19,1.52.31a27.67,27.67,0,0,1,3,1l-.19.18c-.54-1.44-1-2.89-1.51-4.36-.23-.73-.46-1.47-.65-2.22q-.15-.55-.27-1.14c0-.2-.07-.38-.08-.6l0-.31c0-.13,0-.26.05-.38v-.08l.09-.06a1.33,1.33,0,0,1,1.26-.15c.18.05.35.12.5.17l.13,0a.14.14,0,0,0-.09,0s-.15.07-.17.15a.27.27,0,0,0,0,.25l0,0a11.86,11.86,0,0,1-1.38-1.53A1.34,1.34,0,0,1,391,25a1.87,1.87,0,0,1,.1-.63c.11-.34.22-.66.34-1q.36-1,.75-1.89a31.54,31.54,0,0,1,1.79-3.71,3.87,3.87,0,0,1,.35-.5,1.26,1.26,0,0,1,.19-.16.69.69,0,0,1,.29-.11.53.53,0,0,1,.26,0l.21.09.1.09a.94.94,0,0,1,.15.17,4.06,4.06,0,0,1,.5,1.07,20.71,20.71,0,0,1,.56,2v.05c.24,1.92.49,3.84.77,5.75s.55,3.85,1,5.65l.09.31,0,.12s.07.09-.08-.09l0,0,0,0,.11,0,.25.08a1.8,1.8,0,0,0,.5.05.21.21,0,0,0,.11,0,.57.57,0,0,0-.23.28c0,.15,0,0,0,0v-.15a2.09,2.09,0,0,0,0-.34l-.1-.7-.22-1.43-1-5.72c-.16-1-.34-1.89-.48-2.9l0-.2v-.1a1.16,1.16,0,0,1,.05-.45.87.87,0,0,1,.1-.24l.06-.11c.06,0-.08.06.14-.13a1,1,0,0,1,.93,0,1,1,0,0,1,.29.27l.06.09.12.21.34.68.61,1.34c.8,1.78,1.57,3.56,2.33,5.35l.56,1.34.28.7a3,3,0,0,1,.21,1,3.47,3.47,0,0,1-.13,1,5.17,5.17,0,0,0-.15.6,1.49,1.49,0,0,0,0,.47,6.54,6.54,0,0,0,.12.65c.43,1.84.95,3.72,1.46,5.57l-1.78,0a11.76,11.76,0,0,0,.26-1.93,7,7,0,0,0-.3-1.82c-.16-.68-.36-1.33-.53-2.1a3,3,0,0,1-.07-.75,5.32,5.32,0,0,1,.07-.62c0-.39.12-.75.2-1.1l.21-1,.08-.47a1.82,1.82,0,0,0,0-.31s0,0,0,0l-.08-.21-.2-.45L402,27.7l-1.9-3.77-1-1.91-.87-2c-.57-1.29-1.14-2.59-1.68-3.91-.27-.66-.54-1.31-.8-2-.06-.17-.13-.38-.19-.62a4.13,4.13,0,0,1-.07-.72c0-.41,0-.79.05-1.16.13-1.47.36-2.86.62-4.29l.9,1.14-2.91-.16,1-.77c-.34,1.67-.7,3.32-1.11,5-.21.83-.43,1.66-.71,2.5a7.9,7.9,0,0,1-.54,1.31c-.19.34-.37.72-.55,1.09L390.08,22a21.48,21.48,0,0,1-1.28,2.35,2.2,2.2,0,0,1-.71.63,6.57,6.57,0,0,1-.6.35c-.4.22-.78.4-1.17.59-3.08,1.45-6.22,2.71-9.29,4a7,7,0,0,0-1.85,1.29c-.61.53-1.2,1.11-1.77,1.7a15.25,15.25,0,0,0-1.54,1.83,9,9,0,0,0-1.06,2l-.93-.9,1.31-.42-.24.13L374,33l0,0,2.5-2.59.08-.08.08,0,6.14-3.28.59.95-3.81,2.64L377.66,32l-1,.67-.47.33-.22.17-.1.08s-.05.06,0,0A.37.37,0,0,0,376,33a.41.41,0,0,0-.24-.36c-.21-.09-.31,0-.28,0l-.06,0h0l.07,0a5.66,5.66,0,0,1,1.78-.28,6.69,6.69,0,0,1,.9.09,4.5,4.5,0,0,1,.9.25l-.38,0c2.57-1.85,5.12-3.71,7.8-5.42.34-.21.68-.41,1.05-.6a1.58,1.58,0,0,1,.33-.11s.12,0,.18,0a.35.35,0,0,1,.13.14.9.9,0,0,1,.05.19,4.41,4.41,0,0,1,0,.63c-.06.8-.19,1.58-.31,2.36s-.23,1.56-.32,2.34A7.79,7.79,0,0,0,387.56,34.56Z"/><path d="M383.92,36.16a1.44,1.44,0,0,1-.57-.69,4.16,4.16,0,0,1-.33-.85,4,4,0,0,1-.19-1.82,30.11,30.11,0,0,1,.63-3.64l0,.25c-.11-.4-.24-.79-.37-1.17l-.21-.56a1.33,1.33,0,0,0-.11-.24c0-.05-.1-.16,0,0l.06.06,0,0a.52.52,0,0,0,.17.09.63.63,0,0,0,.45,0h0c.07,0,0,0,0,0l-.2.17-.44.41-.9.83-1.69,1.58.15-2.4a10.8,10.8,0,0,1,.19-1.39,6.36,6.36,0,0,1,.2-.74,2.78,2.78,0,0,1,.18-.42,1.14,1.14,0,0,1,.16-.26,1.41,1.41,0,0,1,.3-.33,2.86,2.86,0,0,1,1.87-.53,2.07,2.07,0,0,1,.6.11,1.56,1.56,0,0,1,.38.2,1.14,1.14,0,0,1,.3.3,5.82,5.82,0,0,1,.4.62,10.45,10.45,0,0,1,.64,1.25,3.48,3.48,0,0,1,.24.87,4.24,4.24,0,0,1,0,.77c-.12.88-.28,1.73-.44,2.59v0l-.21,2.11a4.06,4.06,0,0,0,.38.93,4.15,4.15,0,0,1,.34,1v0a1.82,1.82,0,0,1-1.94.85Zm0,0A1.72,1.72,0,0,0,385,36a1.58,1.58,0,0,0,.75-.76v0a4.27,4.27,0,0,0-.45-.94,4.86,4.86,0,0,1-.56-1l-.11-1.12-.12-1v0c0-.86-.07-1.73-.14-2.57a2.08,2.08,0,0,0-.06-.53s-.11-.2-.2-.34c-.21-.31-.44-.65-.68-1-.12-.16-.26-.33-.36-.44s0,0,.07.07a.27.27,0,0,0,.09.06s0,0,0,0a1.33,1.33,0,0,0-.57.17.54.54,0,0,0,.09-.09s0,0,0,0a.57.57,0,0,0-.07.17,3.09,3.09,0,0,0-.15.51c-.1.37-.17.78-.25,1.16l-1.54-.82,1-.76.55-.36.31-.18a1.51,1.51,0,0,1,.26-.13l.11,0a.88.88,0,0,1,.53,0,1,1,0,0,1,.21.1l.06.06.11.12a1.41,1.41,0,0,1,.24.52c0,.12.06.24.08.35a5.57,5.57,0,0,1,.1.66c.06.44.09.86.12,1.29v.18l0,.07a17.44,17.44,0,0,0-1.29,3.35,3.65,3.65,0,0,0,0,1.77A2.43,2.43,0,0,0,383.92,36.16Z"/><path d="M394.68,36.74a40,40,0,0,1,3.73-2.09,12,12,0,0,1,2.08-.83l.58-.09.52-.07,1.05-.15c.7-.09,1.4-.2,2.12-.26.36,0,.72-.07,1.1-.08h.58l.33,0a2.57,2.57,0,0,1,.44.08,4,4,0,0,1,1.22.68,8.58,8.58,0,0,1,.87.83,8,8,0,0,1,.76.94,3.77,3.77,0,0,1,.34.64,1.86,1.86,0,0,1,.09.28,1.22,1.22,0,0,1,0,.59,1.12,1.12,0,0,1-.68.75l-.26.06a1.37,1.37,0,0,1-.61-.08l-.08,0-.14-.1-1.36-1c-.23-.16-.46-.31-.66-.43s-.25-.13-.15-.09-.11,0-.22,0c-.47,0-1,0-1.59,0l-1.67.1.48-.21L401.5,38c-.34.28-.68.57-1,.85-.14.13-.28.31-.24.21,0,.07,0,.12,0,.16s0,.13-.05,0l-.29.94-2,.73-.4.16-.2-.29c-.5-.7-1-1.41-1.42-2.08S395.08,37.32,394.68,36.74Zm0,0c.62.63,1.23,1.21,1.81,1.74s1.11,1.05,1.63,1.56l-.6-.13,1.82-1-.29.94a1.45,1.45,0,0,1-.18-.67,2.76,2.76,0,0,1,.05-.51,2.24,2.24,0,0,1,.53-.87c.31-.37.63-.7.95-1,.63-.66,1.31-1.26,2-1.88l.18-.16.3,0c.58-.08,1.15-.15,1.74-.21a15.16,15.16,0,0,1,1.82-.08,3.12,3.12,0,0,1,.64.08,2.38,2.38,0,0,1,.62.27c.29.16.53.32.78.49.5.32,1,.66,1.44,1l-.22-.12a.66.66,0,0,0-.34,0,.71.71,0,0,0-.2,0,.89.89,0,0,0-.25.14.86.86,0,0,0-.31.47.67.67,0,0,0,0,.33s0,0,0,0a2,2,0,0,0-.15-.29,6.89,6.89,0,0,0-.55-.72,7.81,7.81,0,0,0-.65-.64,2.09,2.09,0,0,0-.58-.41l-.08,0-.2,0-.48,0c-.33,0-.67,0-1,0l-2.09.06-1.07,0h-1a14,14,0,0,0-1.95.47Z"/><path d="M382.77,34.76a8.33,8.33,0,0,0-6.8-1.35,7.17,7.17,0,0,0-3.05,1.6,12.44,12.44,0,0,0-1.24,1.27,9.53,9.53,0,0,1-1.41,1.28c-.5.38-1,.71-1.55,1a6.31,6.31,0,0,0-1.32,1,6.8,6.8,0,0,0-1.67,2.83,6.62,6.62,0,0,0,1.33,6.13l.68.78-1,.45a7.15,7.15,0,0,0-3.76,7.4l.1.57-.5.33a16.19,16.19,0,0,0-3,2.47,7.2,7.2,0,0,0-1.79,3.12,4.38,4.38,0,0,0,.32,3.26,4.07,4.07,0,0,0,2.69,1.77l-.47,1.94a.85.85,0,0,0,.56-.05.53.53,0,0,0,.2-.15s0-.06,0,0a1.13,1.13,0,0,0-.1.25,6.46,6.46,0,0,0-.23.74,12.54,12.54,0,0,0-.3,1.61,8.58,8.58,0,0,0,.27,3.13A7.26,7.26,0,0,0,362.14,79a3.9,3.9,0,0,0,2.35,1.47l.78.16,0,.74a7.85,7.85,0,0,0,.78,3.46,5.84,5.84,0,0,0,2.45,2.37,5.17,5.17,0,0,0,3.33.54,4.69,4.69,0,0,0,2.87-1.7l1.17,1c-1.24,1.31-1.19,3.7-.28,5.44a6.63,6.63,0,0,0,4.94,3.23,6.55,6.55,0,0,0,5.76-1.91,7.53,7.53,0,0,0,2.13-6,7.5,7.5,0,0,1-1.75,6.3,7.33,7.33,0,0,1-2.8,2,7.75,7.75,0,0,1-3.45.49A7.64,7.64,0,0,1,374.51,93a7.14,7.14,0,0,1-1-3.5A5.39,5.39,0,0,1,374.77,86l1.17,1a6.21,6.21,0,0,1-3.77,2.43,6.7,6.7,0,0,1-4.43-.59,7.6,7.6,0,0,1-3.27-3.06,9.63,9.63,0,0,1-1.08-4.24l.8.89a5.76,5.76,0,0,1-3.55-2.12,9.47,9.47,0,0,1-1.74-3.51,10.6,10.6,0,0,1-.35-3.86,13.48,13.48,0,0,1,.34-1.87,8.91,8.91,0,0,1,.28-1,2.81,2.81,0,0,1,.25-.55,2.11,2.11,0,0,1,.27-.38,1.36,1.36,0,0,1,.38-.27,1.28,1.28,0,0,1,.77-.09l-.47,1.94A6,6,0,0,1,356.45,68a6.27,6.27,0,0,1-.5-4.72,9.19,9.19,0,0,1,2.27-3.94,18.15,18.15,0,0,1,3.38-2.69l-.4.89a9,9,0,0,1,1-5.37,8.16,8.16,0,0,1,4-3.75l-.29,1.24a7.87,7.87,0,0,1,.75-10.83,7.6,7.6,0,0,1,1.58-1.13c.53-.29,1-.59,1.52-.91A8.88,8.88,0,0,0,371,35.66a12.86,12.86,0,0,1,1.39-1.25,8,8,0,0,1,3.43-1.53,8.54,8.54,0,0,1,3.7.16A8.19,8.19,0,0,1,382.77,34.76Z"/><path d="M371.75,88.65a6.1,6.1,0,0,0,.1,4.62,7,7,0,0,0,3,3.34,8.08,8.08,0,0,0,4.35.89,10.21,10.21,0,0,0,4.28-1.26l.57-.32.47.52a8.76,8.76,0,0,0,3.67,2.47,6.86,6.86,0,0,0,4.25.08,5.55,5.55,0,0,0,3.22-2.53,4.86,4.86,0,0,0,.44-4l-1.63-4.62,3.25,3.63a2.72,2.72,0,0,0,2.24.76A3.54,3.54,0,0,0,402.22,91a7.71,7.71,0,0,0,1.46-5.71l.85.63-.61.11-.33-1.34A7.73,7.73,0,0,0,408.4,81a8.09,8.09,0,0,0,.53-6.34,8,8,0,0,1,.19,6.69A8.42,8.42,0,0,1,404,86l-.32-1.34.6-.13.75-.18.09.8a12.15,12.15,0,0,1,0,3.56,7.12,7.12,0,0,1-1.5,3.41,5.39,5.39,0,0,1-3.4,2,4.49,4.49,0,0,1-3.88-1.29l1.62-1a6.86,6.86,0,0,1-.52,5.59,7.36,7.36,0,0,1-4.38,3.42,8.44,8.44,0,0,1-5.46-.18,10.4,10.4,0,0,1-4.34-3.13l1,.2a11.41,11.41,0,0,1-5,1.2,9,9,0,0,1-5-1.4,7.43,7.43,0,0,1-3-4.07A6,6,0,0,1,371.75,88.65Z"/><path d="M409.25,75A7.65,7.65,0,0,0,412,71.08a7,7,0,0,0-.19-4.54,6.77,6.77,0,0,0-1.13-2A19.62,19.62,0,0,0,409,62.94a4,4,0,0,1-.88-1.2,3.53,3.53,0,0,1-.28-1.51c0-.91,0-1.63-.2-1.81l-.52-.39.5-.67a6.13,6.13,0,0,0,.65-5.93l-.39-.87.8-.35a1.28,1.28,0,0,0,.35-.48,5.13,5.13,0,0,0,.35-.94,7.5,7.5,0,0,0,.29-2,5.16,5.16,0,0,0-1.33-3.6,3.93,3.93,0,0,0-1.56-1,3.17,3.17,0,0,0-.44-.12l-.58-.12c-.41-.09-.81-.19-1.19-.3a13.65,13.65,0,0,0-4.28-.84,4.61,4.61,0,0,0-1,.17,5.51,5.51,0,0,1-1.35.31,2.38,2.38,0,0,1-1.65-.54,4.45,4.45,0,0,1-.92-1.09,9,9,0,0,0-1.31-1.76,7.8,7.8,0,0,0-1.68-1.34,6.56,6.56,0,0,0-4.16-.89,6,6,0,0,0-3.87,2l-.21.25-.14-.27c-.49-1-.94-2-1.41-2.93.6.91,1.2,1.8,1.78,2.72l-.36,0a6.71,6.71,0,0,1,4.05-2.65,7.5,7.5,0,0,1,4.94.65,9.41,9.41,0,0,1,3.68,3.36,3,3,0,0,0,.61.68.78.78,0,0,0,.54.14,5.06,5.06,0,0,0,.93-.26,5.52,5.52,0,0,1,1.34-.29,14.14,14.14,0,0,1,4.93.76c.37.1.73.18,1.09.26l.56.11a4.23,4.23,0,0,1,.7.18,5.84,5.84,0,0,1,2.34,1.51,6.52,6.52,0,0,1,1.46,2.33,8,8,0,0,1,.43,2.64,9.34,9.34,0,0,1-.4,2.59,8,8,0,0,1-.49,1.26,3.06,3.06,0,0,1-1.14,1.29l.41-1.22a7.85,7.85,0,0,1-1.06,7.72l0-1.06a2.67,2.67,0,0,1,.53,1.66c0,.49-.05.91-.07,1.27a2.25,2.25,0,0,0,.09.9A2.66,2.66,0,0,0,410,62a14.44,14.44,0,0,1,1.7,1.87,8.16,8.16,0,0,1,1.14,2.38,7.51,7.51,0,0,1-.28,5.08A7.38,7.38,0,0,1,409.25,75Z"/><path d="M371.13,36.23a22.34,22.34,0,0,0-.46,2.89,13.79,13.79,0,0,0,0,2.65,13.43,13.43,0,0,0,.54,2.59,25,25,0,0,0,1,2.73,5.33,5.33,0,0,1-2.45-2,6.78,6.78,0,0,1-.66-6.33A5.38,5.38,0,0,1,371.13,36.23Z"/><path d="M384.2,37.88c.17.82.25,1.53.34,2.22l.23,2,.22,2c.06.7.14,1.4.15,2.25a4.56,4.56,0,0,1-1.65-1.76A6.23,6.23,0,0,1,383,40,4.53,4.53,0,0,1,384.2,37.88Z"/><path d="M384.85,49.47a4.16,4.16,0,0,1,.64-3.57,9.68,9.68,0,0,1,2.67-2.63,9.28,9.28,0,0,1,3.49-1.59,7.45,7.45,0,0,1,4,.34,7.85,7.85,0,0,1,3.23,2.32,6.86,6.86,0,0,1-1.61,10.13,7.36,7.36,0,0,0,1.59-6.23,6.18,6.18,0,0,0-3.92-4.35,6.85,6.85,0,0,0-6,.7,11,11,0,0,0-2.71,1.91A4.32,4.32,0,0,0,384.85,49.47Z"/><path d="M373.51,58.64a5.67,5.67,0,0,1-4.88-5,8.21,8.21,0,0,1,2.8-7,12.2,12.2,0,0,1,6.83-2.87,8.19,8.19,0,0,1,3.73.44,4.81,4.81,0,0,1,2.67,2.43,5.32,5.32,0,0,0-3-1.49,8.24,8.24,0,0,0-3.2.17,12.88,12.88,0,0,0-5.74,2.8,7.4,7.4,0,0,0-2.59,5.4A5.74,5.74,0,0,0,373.51,58.64Z"/><path d="M381.07,66.14a10.18,10.18,0,0,1-4.58-3.51,6.11,6.11,0,0,1-1-3,5.66,5.66,0,0,1,.81-3.16A7.87,7.87,0,0,1,381.21,53a14.88,14.88,0,0,1,5.71-.18c-1.81.57-3.62,1-5.21,1.66a7.83,7.83,0,0,0-3.71,3,4.52,4.52,0,0,0-.15,4.39A18.5,18.5,0,0,0,381.07,66.14Z"/><path d="M392,68.64a12.42,12.42,0,0,0,4.11,1.28,9.78,9.78,0,0,0,2.09.08,7,7,0,0,0,1.94-.33,1.82,1.82,0,0,0,1-1.08,12.85,12.85,0,0,0,.57-2,11.11,11.11,0,0,0,.5-4,3.89,3.89,0,0,0-1.62-3,8.91,8.91,0,0,0-3.76-1.19,7.61,7.61,0,0,0-4,.19,3,3,0,0,0-1.91,3.26,2.62,2.62,0,0,1-.09-2.26,3.92,3.92,0,0,1,1.54-1.86,8,8,0,0,1,4.62-.89A9.52,9.52,0,0,1,401.65,58,5.12,5.12,0,0,1,403.47,60a6.93,6.93,0,0,1,.75,2.46,12.43,12.43,0,0,1-.67,4.71,13.9,13.9,0,0,1-.82,2.22,3.7,3.7,0,0,1-.85,1.12,3.36,3.36,0,0,1-1.28.67,7.58,7.58,0,0,1-2.43.16,11.72,11.72,0,0,1-2.29-.43A9.85,9.85,0,0,1,392,68.64Z"/><path d="M379.38,74.51a7,7,0,0,1-.05-5.13,8,8,0,0,1,3.45-4.07,8.74,8.74,0,0,1,5.45-1.2,5.79,5.79,0,0,1,2.82,1.15,6.3,6.3,0,0,1,1.81,2.48,6.77,6.77,0,0,1,.44,3,7.47,7.47,0,0,1-.89,2.81,9.51,9.51,0,0,1-4.08,3.76,9.86,9.86,0,0,1-2.54,1,4.85,4.85,0,0,1-1.37.11,5.2,5.2,0,0,1-1.32-.32,6.8,6.8,0,0,1-2.22-1.42A6.08,6.08,0,0,1,379.38,74.51Zm0,0a6.07,6.07,0,0,0,3.81,3.27c1.67.53,3.29-.36,4.61-1.33a9.12,9.12,0,0,0,3.06-3.68,5.51,5.51,0,0,0,.15-4.3,4.2,4.2,0,0,0-3.08-2.67,8,8,0,0,0-4.7.4,6.75,6.75,0,0,0-3.64,3.28A6.17,6.17,0,0,0,379.38,74.51Z"/><path d="M403.52,60.1a7.22,7.22,0,0,1,5.89,2.56,7.76,7.76,0,0,1,1.67,3,8.27,8.27,0,0,1,.17,3.5,7.73,7.73,0,0,1-1.4,3.25A6.12,6.12,0,0,1,407,74.53a6.34,6.34,0,0,1-3.42.2A4.82,4.82,0,0,1,400.79,73a5.88,5.88,0,0,0,5.58.08,5.75,5.75,0,0,0,2.91-4.24,7.12,7.12,0,0,0-1.1-5.24A8.81,8.81,0,0,0,403.52,60.1Z"/><path d="M374.33,60.68a12.78,12.78,0,0,0-2.43,3.55,6.43,6.43,0,0,0-.45,3.77,4.6,4.6,0,0,0,1.88,3,4.67,4.67,0,0,0,3.93.6,4.12,4.12,0,0,1-4.64.78,5.35,5.35,0,0,1-3.13-4,6.52,6.52,0,0,1,1.05-4.9A7.07,7.07,0,0,1,374.33,60.68Z"/><path d="M368.3,56.85a10.62,10.62,0,0,0-5.16,4,9.33,9.33,0,0,0-1.88,5.8,6.39,6.39,0,0,0,2.75,5,5.51,5.51,0,0,0,6-.15,4.77,4.77,0,0,1-3,2,6.06,6.06,0,0,1-3.76-.42,6.79,6.79,0,0,1-2.87-2.62,8.2,8.2,0,0,1-1.13-3.7,9.58,9.58,0,0,1,2.67-6.9A8.6,8.6,0,0,1,368.3,56.85Z"/><path d="M373.18,71.86a9.49,9.49,0,0,0-1,6.44,8.38,8.38,0,0,0,3.36,5.07,6.08,6.08,0,0,0,5.66,1,3.68,3.68,0,0,0,2.07-2,3.36,3.36,0,0,0-.35-3.11,3.43,3.43,0,0,1,1.3,3.36,4.57,4.57,0,0,1-2.31,3.15,6.09,6.09,0,0,1-3.91.69A8.63,8.63,0,0,1,374.35,85a8.9,8.9,0,0,1-3.75-6.49A8,8,0,0,1,373.18,71.86Z"/><path d="M386.87,82.23A4,4,0,0,0,389,84.35a14.44,14.44,0,0,0,2.91,1,6.38,6.38,0,0,0,2.79.14,4.15,4.15,0,0,0,2.21-1.32,8.91,8.91,0,0,0,1.63-2.4,15.31,15.31,0,0,0,1.11-2.82,19,19,0,0,0,.62-6.26,12.23,12.23,0,0,1-1.92,12.86,5.91,5.91,0,0,1-3.32,1.8,7.05,7.05,0,0,1-3.58-.52,11.19,11.19,0,0,1-3-1.65,5.33,5.33,0,0,1-1.16-1.3A3,3,0,0,1,386.87,82.23Z"/><path d="M366.3,73.47a9.73,9.73,0,0,0-.81,1.8,16.83,16.83,0,0,0-.47,1.64l-.43,1.79a8.85,8.85,0,0,1-.75,2,5.48,5.48,0,0,1-.82-2,5.22,5.22,0,0,1,.06-2.22,4.36,4.36,0,0,1,1.11-2A2.81,2.81,0,0,1,366.3,73.47Z"/><path d="M390.82,90a10.6,10.6,0,0,0,3.85,1,5.67,5.67,0,0,0,3.32-.88,5.39,5.39,0,0,0,2-2.75c.46-1.19.71-2.56,1.13-4a10,10,0,0,1,.39,4.34,5.73,5.73,0,0,1-2.46,4,5.9,5.9,0,0,1-4.66.75A6.09,6.09,0,0,1,390.82,90Z"/><path d="M362.28,57a3,3,0,0,1,.93-.26.85.85,0,0,1,.94.51,3.22,3.22,0,0,1,.28.94,1.56,1.56,0,0,1-.89.51,1.15,1.15,0,0,1-.74-.12,1.18,1.18,0,0,1-.49-.56A1.62,1.62,0,0,1,362.28,57Z"/><path d="M399.12,45.33a4.38,4.38,0,0,1,3.27-1.28,6.39,6.39,0,0,1,3.47,1.1,7.57,7.57,0,0,1,2.38,2.63,7.77,7.77,0,0,1,1,3.28c-.83-.81-1.52-1.63-2.25-2.35a15.77,15.77,0,0,0-2.24-1.91,9.16,9.16,0,0,0-2.55-1.19A7.64,7.64,0,0,0,399.12,45.33Z"/><path d="M408.92,74.68a2.94,2.94,0,0,0-.78-.26c-.15,0-.23,0-.25-.07s0-.1.09-.24a3.34,3.34,0,0,0,.26-.79,1,1,0,0,1,.89-.29.83.83,0,0,1,.55.42.77.77,0,0,1,0,.68A1,1,0,0,1,408.92,74.68Z"/><path d="M376.42,393.91a8.19,8.19,0,0,1-.86-2.2c-.22-.76-.41-1.53-.61-2.29s-.38-1.54-.62-2.28a3.52,3.52,0,0,0-.2-.52.25.25,0,0,0-.05-.07s.1,0,.08,0a.91.91,0,0,0-.18.17,11.09,11.09,0,0,0-.72.91c-1.82,2.56-3.5,5.24-5.17,7.91l-.11.17h-.23a3.25,3.25,0,0,0-.74.09,3.92,3.92,0,0,0-.74.22,4.74,4.74,0,0,0-1.32.78l.05,0-.05,0a.27.27,0,0,1-.08.07.52.52,0,0,1-.28.07.47.47,0,0,1-.36-.26.44.44,0,0,1,0-.28.62.62,0,0,1,.07-.18l.08-.14.16-.26.31-.5.63-1,1.28-1.94,2.6-3.85.88.68-4.53,5.28.1-.16-1.39,3.32v0l0,0-1.94,3.52-.06.12-.12.09-1.07.87-1.13.92-.05-1.45a10.14,10.14,0,0,1,.27-2.72,18.49,18.49,0,0,1,.86-2.51c.33-.8.69-1.58,1.09-2.35a8.63,8.63,0,0,1,1.56-2.29c2.46-2.35,4.94-4.6,7.27-7,.28-.3.57-.6.83-.9.14-.15.25-.29.36-.43l.08-.1,0,0,0,0,0-.09a20.59,20.59,0,0,0,.32-2.35l.46-5c.05-.42.08-.84.15-1.29a6.58,6.58,0,0,0,0-1.1c0-.8-.11-1.62-.19-2.45-.19-1.64-.43-3.31-.69-4.95l-.13-.81.79-.25,2.77-.87,1-.32.2,1.09c.24,1.35.51,2.74.86,4,.09.32.19.63.3.91a2.25,2.25,0,0,0,.14.3,3.6,3.6,0,0,0,.25.33c.42.5.91,1,1.38,1.53l2.9,3.06,1.44,1.52,1.51,1.45,3.08,2.94.76.76.39.41.2.23a2.28,2.28,0,0,1,.28.43,3.08,3.08,0,0,1,.21.72l.1.57.15,1.06a5.51,5.51,0,0,0,.38,1.68c.34.53.77,1.12,1.17,1.72a9.28,9.28,0,0,1,1.12,2.09,14.77,14.77,0,0,1,.47,2.23l.55,3.78-2.2-3.13c-1.12-1.59-2.23-3.17-3.3-4.84-.14-.22-.27-.42-.41-.69a3.53,3.53,0,0,1-.33-.91,6.08,6.08,0,0,1-.09-.83,1.48,1.48,0,0,0-.09-.46,1.18,1.18,0,0,0-.23-.36l-.46-.52-1-1.07c-1.3-1.42-2.62-2.84-3.95-4.23l-1-1-.49-.48-.09-.08h0s0,0,.29.11a.89.89,0,0,0,.83-.35c.14-.25.05-.09.09-.15l0-.08a.47.47,0,0,0,0-.17.66.66,0,0,0,0-.28l0,.08.08.14c.41.82.89,1.69,1.35,2.53l2.78,5.11.69,1.3.33.66c.05.12.11.22.16.35l.09.19a1.27,1.27,0,0,1,.1.31,1,1,0,0,1-.31,1,1.75,1.75,0,0,1-.51.32,3.16,3.16,0,0,1-.92.22h-.47l-.24,0-.13,0a.7.7,0,0,1-.22-.07,1.07,1.07,0,0,1-.38-.29l-.15-.18-.23-.34c-1.07-1.72-1.91-3.43-2.81-5.17s-1.74-3.47-2.58-5.22l0,0a17,17,0,0,0-1.1-1.62,3.21,3.21,0,0,0-.57-.62h0l.1,0,.14-.05c.06,0,.15-.13.14-.11s0,0,0,0a2.84,2.84,0,0,0-.11.39,35.31,35.31,0,0,0-.51,3.94c-.05.66-.1,1.33-.13,2,0,.33,0,.66,0,1s0,.36.24.59a12.53,12.53,0,0,0,1.71,1l.16.12a.42.42,0,0,1,.13.34.4.4,0,0,1-.28.33,1.34,1.34,0,0,1-.36,0,4,4,0,0,0-.48,0c-.31,0-.56.08-.64.22l0-.17a1.8,1.8,0,0,1,.05.19l.09.24a4.52,4.52,0,0,0,.25.49c.18.33.37.65.58,1,.41.64.85,1.27,1.29,1.89.89,1.25,1.82,2.47,2.76,3.68l.21.26-.33,0a28.78,28.78,0,0,0-3.08-.05,13.17,13.17,0,0,0-1.54.16A2.88,2.88,0,0,0,376.42,393.91Zm0,0a3,3,0,0,1,1.41-.63,13,13,0,0,1,1.54-.22,26.86,26.86,0,0,1,3.11-.11l-.12.24q-1.5-1.76-2.91-3.58c-.47-.61-.93-1.23-1.37-1.86-.23-.32-.44-.65-.64-1a3.81,3.81,0,0,1-.29-.53l-.13-.29c0-.12-.06-.24-.08-.37l0-.07.06-.09a1.36,1.36,0,0,1,1.14-.57,4.77,4.77,0,0,1,.53,0h.13l-.07.05s-.12.11-.12.2a.29.29,0,0,0,.08.24l-.05,0a11.68,11.68,0,0,1-1.82-1,1.24,1.24,0,0,1-.45-.52,2,2,0,0,1-.12-.63c0-.36,0-.7,0-1,0-.69,0-1.36.06-2a32.16,32.16,0,0,1,.41-4.1,2.7,2.7,0,0,1,.16-.58.7.7,0,0,1,.12-.22.69.69,0,0,1,.23-.2.54.54,0,0,1,.26-.06.83.83,0,0,1,.23,0l.12.05a.8.8,0,0,1,.21.11,4.33,4.33,0,0,1,.83.83,18.11,18.11,0,0,1,1.21,1.7h0v0c.88,1.72,1.78,3.44,2.69,5.14s1.83,3.43,2.84,5l.19.26.08.1-.1-.06h.37a1.67,1.67,0,0,0,.49-.13c.07,0,.11-.06.1-.06a.57.57,0,0,0-.12.34c0,.15,0,0,0,0l-.06-.15c0-.09-.1-.2-.15-.3l-.34-.63-.69-1.26-2.89-5c-.48-.85-1-1.67-1.44-2.57l-.09-.18-.05-.09a1.38,1.38,0,0,1-.11-.44,1.1,1.1,0,0,1,0-.26l0-.12c0-.07-.06.08.09-.17a.91.91,0,0,1,.85-.36c.35.1.29.12.37.16l.08.06.19.15.55.53,1,1.05c1.35,1.4,2.68,2.81,4,4.23l1,1.07.5.56a2.94,2.94,0,0,1,.54.86,3.21,3.21,0,0,1,.21,1,4,4,0,0,0,.07.62,1.56,1.56,0,0,0,.16.44c.09.16.22.37.34.56,1,1.58,2.16,3.17,3.28,4.74l-1.66.65a12.53,12.53,0,0,0-.41-1.9,7.12,7.12,0,0,0-.91-1.62c-.39-.57-.8-1.12-1.22-1.78a3.14,3.14,0,0,1-.32-.69q-.09-.32-.15-.6c-.08-.39-.14-.75-.19-1.1l-.15-1-.09-.48a1.62,1.62,0,0,0-.07-.29s0,0,0,0l-.15-.17-.34-.36-.74-.72-3.07-2.89L383,378.16l-1.49-1.54c-1-1-1.95-2-2.92-3.09-.48-.53-.95-1-1.44-1.63a5.47,5.47,0,0,1-.38-.52,3.51,3.51,0,0,1-.32-.65c-.14-.38-.25-.75-.35-1.11-.38-1.43-.64-2.82-.88-4.24l1.23.76-2.78.85.65-1.06c.26,1.68.49,3.35.67,5.05.09.86.16,1.71.19,2.6a8.54,8.54,0,0,1-.06,1.41c-.06.39-.1.81-.15,1.22l-.49,5a24.3,24.3,0,0,1-.4,2.64,2.33,2.33,0,0,1-.45.84,5,5,0,0,1-.45.53c-.3.34-.6.64-.9.95-2.4,2.42-4.92,4.68-7.34,7a6.93,6.93,0,0,0-1.31,1.84c-.38.71-.74,1.46-1.07,2.21a15,15,0,0,0-.83,2.25,9,9,0,0,0-.29,2.28l-1.19-.53,1.09-.85-.18.21,2-3.48,0,.06,1.47-3.29,0-.09.06-.07,4.65-5.18.88.68L367.58,393l-1.33,1.9-.66,1-.33.47-.15.24-.07.1s0,.08,0-.05a.46.46,0,0,0,0-.26.47.47,0,0,0-.36-.26c-.22,0-.29.09-.27.07a.1.1,0,0,0,0,0h0l0,0a5.73,5.73,0,0,1,1.59-.87,5.31,5.31,0,0,1,.87-.23,4.68,4.68,0,0,1,.93-.07l-.33.17c1.77-2.61,3.54-5.23,5.47-7.75a9.73,9.73,0,0,1,.78-.92,1.29,1.29,0,0,1,.27-.23.31.31,0,0,1,.18,0,.3.3,0,0,1,.16.08.77.77,0,0,1,.12.17,3.71,3.71,0,0,1,.21.58c.22.78.36,1.55.52,2.33s.32,1.54.5,2.31A7.93,7.93,0,0,0,376.42,393.91Z"/><path d="M373.55,396.65a1.47,1.47,0,0,1-.77-.44,5.51,5.51,0,0,1-.6-.68,4.07,4.07,0,0,1-.8-1.66,29.35,29.35,0,0,1-.66-3.63l.07.24c-.24-.33-.5-.66-.76-1l-.38-.45-.18-.19s-.16-.12-.05,0a.2.2,0,0,0,.08,0h0a.94.94,0,0,0,.2,0,.63.63,0,0,0,.42-.15l0,0c.05-.05,0,0,0,0l-.13.24-.28.53-.55,1.09-1.05,2.06-.68-2.31a10.44,10.44,0,0,1-.3-1.37,5.86,5.86,0,0,1-.06-.76,2.53,2.53,0,0,1,0-.46.88.88,0,0,1,.06-.29,1.4,1.4,0,0,1,.17-.42A2.94,2.94,0,0,1,369,386a2.42,2.42,0,0,1,.6-.1,1.77,1.77,0,0,1,.43.06,1.69,1.69,0,0,1,.38.18c.23.16.4.29.58.44a9.23,9.23,0,0,1,1,1,3.28,3.28,0,0,1,.53.73,5.94,5.94,0,0,1,.22.74c.19.87.33,1.73.48,2.59v0l.52,2.06a4,4,0,0,0,.67.74,4.3,4.3,0,0,1,.68.85v0a1.9,1.9,0,0,1-.54,1A1.73,1.73,0,0,1,373.55,396.65Zm0,0a1.64,1.64,0,0,0,1.43-1.47v0a4,4,0,0,0-.75-.73,6,6,0,0,1-.86-.73l-.48-1-.47-.93v0c-.33-.8-.67-1.61-1-2.38a2.77,2.77,0,0,0-.24-.47s-.17-.15-.31-.25c-.3-.22-.63-.47-1-.68a5.33,5.33,0,0,0-.49-.28l.09,0,.11,0s0,0,0,0a1.67,1.67,0,0,0-.49.35.38.38,0,0,0,.06-.11v0a.92.92,0,0,0,0,.19,3.39,3.39,0,0,0,0,.53c0,.38.11.79.16,1.17l-1.73-.24.72-1.07c.12-.17.25-.35.39-.52l.23-.28c.07-.07.07-.09.2-.21l.08-.07a.94.94,0,0,1,.51-.17,1.17,1.17,0,0,1,.23,0l.08,0,.15.08a1.58,1.58,0,0,1,.4.4l.2.3c.12.2.22.4.32.59.2.39.37.77.55,1.17l.07.16v.08a18,18,0,0,0-.06,3.59,3.73,3.73,0,0,0,.59,1.67A2.47,2.47,0,0,0,373.55,396.65Z"/><path d="M383.86,393.52a40.88,40.88,0,0,1,2.8-3.24,11.75,11.75,0,0,1,1.67-1.49c.23-.14.36-.2.51-.28l.46-.25.94-.49c.62-.33,1.25-.67,1.9-1l1-.45.54-.21L394,386a1.84,1.84,0,0,1,.43-.07,3.93,3.93,0,0,1,1.39.22,7.78,7.78,0,0,1,1.1.48,7.49,7.49,0,0,1,1,.63,4.36,4.36,0,0,1,.55.48,2,2,0,0,1,.17.23,1.16,1.16,0,0,1,.2.55,1.09,1.09,0,0,1-.15.67.87.87,0,0,1-.23.27,1.5,1.5,0,0,1-.23.15,1.29,1.29,0,0,1-.59.13h-.09l-.16,0-1.61-.43c-.26-.07-.53-.14-.77-.18l-.17,0-.21,0c-.45.14-1,.37-1.48.58l-1.54.67L392,390l-1.36,2.29c-.22.38-.44.76-.62,1.13-.09.17-.16.39-.15.28a.81.81,0,0,0,0,.17s.07.11-.05,0l.05,1-1.59,1.36-.32.28-.29-.2c-.71-.48-1.4-1-2.05-1.46S384.43,393.93,383.86,393.52Zm0,0c.8.38,1.57.72,2.3,1s1.41.6,2.07.9l-.62.08L389,394l0,1a1.38,1.38,0,0,1-.4-.57,2.33,2.33,0,0,1-.12-.49,2.25,2.25,0,0,1,.19-1c.17-.46.36-.87.55-1.29.37-.84.79-1.63,1.21-2.44l.11-.22.27-.15c.52-.27,1-.54,1.56-.79a15.62,15.62,0,0,1,1.69-.7,2.62,2.62,0,0,1,.62-.14,2.4,2.4,0,0,1,.68,0c.33.05.62.12.91.19.57.13,1.13.29,1.69.46l-.25,0a.65.65,0,0,0-.34.08.76.76,0,0,0-.16.11.67.67,0,0,0-.19.22.84.84,0,0,0-.13.54.62.62,0,0,0,.1.31s0,0,0,0a1.92,1.92,0,0,0-.24-.22,5.18,5.18,0,0,0-.76-.48,7.89,7.89,0,0,0-.84-.39,2.76,2.76,0,0,0-.68-.19h-.09l-.19.05-.45.14-1,.36-1.95.77-1,.39-.5.2-.45.16a13,13,0,0,0-1.66,1.11Z"/><path d="M372,395.74a8.35,8.35,0,0,0-6.85,1.05,7.33,7.33,0,0,0-2.33,2.56,12.45,12.45,0,0,0-.72,1.61,10,10,0,0,1-.89,1.68c-.35.53-.73,1-1.11,1.5a6.64,6.64,0,0,0-.88,1.43,6.83,6.83,0,0,0-.6,3.24,6.59,6.59,0,0,0,3.34,5.3l.91.5-.75.76a7.12,7.12,0,0,0-1,8.24l.29.49-.36.49a16.29,16.29,0,0,0-2,3.34,7.26,7.26,0,0,0-.61,3.55,4.32,4.32,0,0,0,1.41,2.94,4,4,0,0,0,3.13.75l.23,2a.74.74,0,0,0,.5-.24.43.43,0,0,0,.14-.2s0-.08,0,0a1.56,1.56,0,0,0,0,.27,7.6,7.6,0,0,0,.05.78,13.2,13.2,0,0,0,.26,1.61,8.61,8.61,0,0,0,1.33,2.85,7.48,7.48,0,0,0,2.22,2.16,3.91,3.91,0,0,0,2.71.58l.79-.12.27.69a7.91,7.91,0,0,0,1.92,3,5.86,5.86,0,0,0,3.11,1.39,5.16,5.16,0,0,0,3.32-.63,4.67,4.67,0,0,0,2.11-2.58l1.42.49c-.71,1.66.15,3.88,1.6,5.2a6.6,6.6,0,0,0,5.75,1.35,6.52,6.52,0,0,0,4.76-3.77,7.49,7.49,0,0,0,0-6.33,7.52,7.52,0,0,1,.51,6.53A7.15,7.15,0,0,1,394,453a7.56,7.56,0,0,1-3.07,1.64,7.65,7.65,0,0,1-6.79-1.3,7.2,7.2,0,0,1-2.11-3,5.37,5.37,0,0,1-.06-3.77l1.42.49a6.2,6.2,0,0,1-2.71,3.57,6.68,6.68,0,0,1-4.37,1,7.62,7.62,0,0,1-4.11-1.75,9.71,9.71,0,0,1-2.48-3.62l1.07.57a5.78,5.78,0,0,1-4.07-.79,9.46,9.46,0,0,1-2.83-2.69,10.49,10.49,0,0,1-1.65-3.51A13.32,13.32,0,0,1,362,438a7.86,7.86,0,0,1-.06-1,3.5,3.5,0,0,1,0-.61,2.52,2.52,0,0,1,.13-.45,1.47,1.47,0,0,1,.26-.39,1.32,1.32,0,0,1,.69-.34l.23,2a6,6,0,0,1-4.62-1.22,6.29,6.29,0,0,1-2.09-4.27,9.25,9.25,0,0,1,.79-4.47,17.78,17.78,0,0,1,2.26-3.69l-.07,1a8.92,8.92,0,0,1-.93-5.38,8.23,8.23,0,0,1,2.43-4.88l.16,1.26a7.87,7.87,0,0,1-3-10.43,7.4,7.4,0,0,1,1.1-1.61c.39-.45.77-.9,1.11-1.37a9,9,0,0,0,.9-1.48,13,13,0,0,1,.88-1.64,8,8,0,0,1,2.7-2.62,8.74,8.74,0,0,1,3.53-1.11A8.35,8.35,0,0,1,372,395.74Z"/><path d="M380.08,450.15a6.08,6.08,0,0,0,1.67,4.3,6.94,6.94,0,0,0,3.95,2.12,8,8,0,0,0,4.38-.65,10.24,10.24,0,0,0,3.59-2.65l.44-.5.61.33a8.6,8.6,0,0,0,4.3,1.07,6.87,6.87,0,0,0,4-1.38,5.53,5.53,0,0,0,2.16-3.48,4.94,4.94,0,0,0-.94-3.87l-3.12-3.78,4.3,2.3a2.72,2.72,0,0,0,2.36-.06,3.52,3.52,0,0,0,1.72-2,7.75,7.75,0,0,0-.58-5.86l1,.3-.54.3-.76-1.14a7.69,7.69,0,0,0,3.24-5.13,8.13,8.13,0,0,0-1.66-6.14,8.06,8.06,0,0,1,2.46,6.22,8.43,8.43,0,0,1-3.23,6.16l-.77-1.14.52-.34.65-.42.36.72a12.57,12.57,0,0,1,1.18,3.35,7.16,7.16,0,0,1-.24,3.72,5.35,5.35,0,0,1-2.51,3,4.46,4.46,0,0,1-4.09.12l1.19-1.48a6.86,6.86,0,0,1,1.41,5.43,7.33,7.33,0,0,1-2.94,4.71A8.5,8.5,0,0,1,399,456a10.49,10.49,0,0,1-5.15-1.46l1.05-.16a11.7,11.7,0,0,1-4.31,2.84,9,9,0,0,1-5.13.38,7.46,7.46,0,0,1-4.2-2.81A6,6,0,0,1,380.08,450.15Z"/><path d="M410.63,424.44a7.6,7.6,0,0,0,1.23-4.57,7,7,0,0,0-1.72-4.2,6.85,6.85,0,0,0-1.73-1.45,18.14,18.14,0,0,0-2.17-1,3.87,3.87,0,0,1-1.24-.82,3.54,3.54,0,0,1-.78-1.33c-.28-.86-.52-1.55-.8-1.63l-.63-.19.24-.8a6.13,6.13,0,0,0-1.42-5.8L401,402l.63-.6a1.35,1.35,0,0,0,.17-.58,5.45,5.45,0,0,0,0-1,7.56,7.56,0,0,0-.42-2,5.15,5.15,0,0,0-2.49-2.93,3.9,3.9,0,0,0-1.81-.44,3.55,3.55,0,0,0-.46,0l-.59.09c-.41.06-.82.1-1.22.13a13.73,13.73,0,0,0-4.31.67,4.48,4.48,0,0,0-.84.49,5.69,5.69,0,0,1-1.16.75,2.38,2.38,0,0,1-1.74.06,4.54,4.54,0,0,1-1.24-.71,9.19,9.19,0,0,0-1.83-1.21,8.09,8.09,0,0,0-2-.68,6.51,6.51,0,0,0-4.22.59,6,6,0,0,0-2.95,3.2l-.12.31-.22-.21c-.79-.74-1.55-1.51-2.32-2.27.87.65,1.74,1.28,2.6,1.95l-.34.1a6.65,6.65,0,0,1,2.89-3.88,7.45,7.45,0,0,1,4.86-1.08,9.46,9.46,0,0,1,4.61,1.9,3,3,0,0,0,.81.42.7.7,0,0,0,.55-.05,4.22,4.22,0,0,0,.78-.56,5.81,5.81,0,0,1,1.16-.73,14.33,14.33,0,0,1,4.9-1q.57,0,1.11-.12l.57-.1q.36,0,.72-.06a6,6,0,0,1,2.71.61,6.67,6.67,0,0,1,2.17,1.7,7.72,7.72,0,0,1,1.31,2.34,9.86,9.86,0,0,1,.51,2.56,7.83,7.83,0,0,1,0,1.36,3,3,0,0,1-.63,1.59l0-1.28a7.84,7.84,0,0,1,1.64,7.62l-.38-1a2.59,2.59,0,0,1,1.07,1.37c.17.47.26.88.37,1.23a2.06,2.06,0,0,0,.39.8,2.53,2.53,0,0,0,.77.57,14.65,14.65,0,0,1,2.23,1.17A8.1,8.1,0,0,1,411,415a7.49,7.49,0,0,1,1.47,4.87A7.33,7.33,0,0,1,410.63,424.44Z"/><path d="M361.56,401.1a23.26,23.26,0,0,0,.55,2.87,14.18,14.18,0,0,0,.92,2.49,15.18,15.18,0,0,0,1.39,2.25,24.36,24.36,0,0,0,1.92,2.21,5.32,5.32,0,0,1-3-1.07,6.68,6.68,0,0,1-2.1-2.52,6.75,6.75,0,0,1-.69-3.2A5.34,5.34,0,0,1,361.56,401.1Z"/><path d="M374.4,398.18c.45.71.76,1.35,1.08,2l.91,1.81.89,1.81c.3.64.61,1.27.91,2.06a4.37,4.37,0,0,1-2.15-1.09,6.24,6.24,0,0,1-2.07-4.2A4.54,4.54,0,0,1,374.4,398.18Z"/><path d="M379,408.85a4.2,4.2,0,0,1-.61-3.58,9.66,9.66,0,0,1,1.6-3.38,9.38,9.38,0,0,1,2.74-2.69,7.47,7.47,0,0,1,3.87-1,7.82,7.82,0,0,1,3.83,1.06,6.88,6.88,0,0,1,2.68,2.93,6.73,6.73,0,0,1-.72,7.14,7.35,7.35,0,0,0-.65-6.39,6.13,6.13,0,0,0-5.16-2.74,6.85,6.85,0,0,0-5.38,2.7,10.79,10.79,0,0,0-1.89,2.72A4.38,4.38,0,0,0,379,408.85Z"/><path d="M371.46,421.34c-2.33.71-5.12-.71-6.31-3.07a8.24,8.24,0,0,1,.24-7.53,12.17,12.17,0,0,1,5.44-5,8.07,8.07,0,0,1,3.65-.86,4.83,4.83,0,0,1,3.34,1.36,5.29,5.29,0,0,0-3.28-.38,8.27,8.27,0,0,0-3,1.25,13,13,0,0,0-4.44,4.6,7.43,7.43,0,0,0-.58,5.95A5.73,5.73,0,0,0,371.46,421.34Z"/><path d="M381.13,425.81a10.17,10.17,0,0,1-5.5-1.74,6.07,6.07,0,0,1-2-2.46,5.69,5.69,0,0,1-.31-3.25,7.89,7.89,0,0,1,3.42-5,15,15,0,0,1,5.31-2.12c-1.51,1.16-3.07,2.15-4.33,3.34a7.74,7.74,0,0,0-2.44,4.14,4.48,4.48,0,0,0,1.36,4.17A18.85,18.85,0,0,0,381.13,425.81Z"/><path d="M392.24,424.42a12.35,12.35,0,0,0,4.3-.2,10.6,10.6,0,0,0,2-.64,6.9,6.9,0,0,0,1.7-1,1.78,1.78,0,0,0,.61-1.37,13.74,13.74,0,0,0-.13-2,11.11,11.11,0,0,0-.9-3.92,3.9,3.9,0,0,0-2.55-2.29,9,9,0,0,0-3.94.17,7.67,7.67,0,0,0-3.71,1.56,3,3,0,0,0-.68,3.71,2.62,2.62,0,0,1-.85-2.1,3.87,3.87,0,0,1,.8-2.27,8,8,0,0,1,4-2.41,9.52,9.52,0,0,1,4.77-.5,5.15,5.15,0,0,1,2.37,1.2,6.78,6.78,0,0,1,1.55,2,12.37,12.37,0,0,1,1,4.65,14.46,14.46,0,0,1,0,2.37,3.66,3.66,0,0,1-.42,1.34,3.25,3.25,0,0,1-1,1.07,7.6,7.6,0,0,1-2.23,1,12.13,12.13,0,0,1-2.3.38A9.77,9.77,0,0,1,392.24,424.42Z"/><path d="M382.41,434.25a7,7,0,0,1-1.8-4.81,7.87,7.87,0,0,1,1.85-5,8.67,8.67,0,0,1,4.71-3,5.74,5.74,0,0,1,3,.12,6.2,6.2,0,0,1,2.55,1.7,6.78,6.78,0,0,1,1.43,2.67,7.31,7.31,0,0,1,.13,2.94,10.76,10.76,0,0,1-4.61,6.7,4.72,4.72,0,0,1-1.25.57,4.78,4.78,0,0,1-1.35.15,6.6,6.6,0,0,1-2.56-.58A6.11,6.11,0,0,1,382.41,434.25Zm0,0A6.06,6.06,0,0,0,387.1,436c1.76-.07,3-1.47,3.88-2.83a9.06,9.06,0,0,0,1.62-4.5,5.46,5.46,0,0,0-1.33-4.09,4.21,4.21,0,0,0-3.81-1.46,8.11,8.11,0,0,0-4.28,2,6.83,6.83,0,0,0-2.3,4.34A6.17,6.17,0,0,0,382.41,434.25Z"/><path d="M400.16,412.45a7.23,7.23,0,0,1,6.41.39,7.79,7.79,0,0,1,2.61,2.28,8.41,8.41,0,0,1,1.36,3.23,7.69,7.69,0,0,1-.21,3.53,6.23,6.23,0,0,1-5.13,4.3,4.69,4.69,0,0,1-3.18-.67,5.81,5.81,0,0,0,5.26-1.83,5.71,5.71,0,0,0,1.29-5,7.11,7.11,0,0,0-2.83-4.55A8.82,8.82,0,0,0,400.16,412.45Z"/><path d="M372.93,423a13.1,13.1,0,0,0-1.07,4.17,6.5,6.5,0,0,0,.87,3.69,4.52,4.52,0,0,0,6.7,1.43,4.13,4.13,0,0,1-4.09,2.32,5.33,5.33,0,0,1-4.33-2.73,6.52,6.52,0,0,1-.68-5A7,7,0,0,1,372.93,423Z"/><path d="M366,421.44a10.61,10.61,0,0,0-3.48,5.53,9.31,9.31,0,0,0,.21,6.09,6.41,6.41,0,0,0,4.31,3.81,5.52,5.52,0,0,0,5.61-2.2,4.76,4.76,0,0,1-2.15,2.85,6.06,6.06,0,0,1-3.68.9,6.76,6.76,0,0,1-3.59-1.49,8.32,8.32,0,0,1-2.33-3.08,9.62,9.62,0,0,1,.15-7.4A8.58,8.58,0,0,1,366,421.44Z"/><path d="M375.68,433.88a9.55,9.55,0,0,0,1.22,6.41,8.06,8.06,0,0,0,2.12,2.27,8,8,0,0,0,2.78,1.34,6.08,6.08,0,0,0,5.67-1,3.67,3.67,0,0,0,1.25-2.59,3.34,3.34,0,0,0-1.39-2.8,3.44,3.44,0,0,1,2.37,2.7,4.59,4.59,0,0,1-1.1,3.76,6,6,0,0,1-3.44,2,8.66,8.66,0,0,1-3.89-.14,8.88,8.88,0,0,1-5.74-4.82A8,8,0,0,1,375.68,433.88Z"/><path d="M392.09,438.94a4,4,0,0,0,2.73,1.26,14.38,14.38,0,0,0,3.07-.07,6.45,6.45,0,0,0,2.67-.82,4.18,4.18,0,0,0,1.62-2,9,9,0,0,0,.72-2.8,16.12,16.12,0,0,0,.07-3,19,19,0,0,0-1.56-6.09,12.26,12.26,0,0,1,2.6,12.74A6,6,0,0,1,401.5,441a7.21,7.21,0,0,1-3.54.73,11.18,11.18,0,0,1-3.37-.53,5.29,5.29,0,0,1-1.53-.83A3.07,3.07,0,0,1,392.09,438.94Z"/><path d="M369.76,437.75a9.39,9.39,0,0,0-.14,2c0,.59.06,1.15.12,1.71l.21,1.83a8.48,8.48,0,0,1,0,2.13,5.4,5.4,0,0,1-2.18-3.74,4.46,4.46,0,0,1,.35-2.3A2.8,2.8,0,0,1,369.76,437.75Z"/><path d="M398.46,444.87a10.73,10.73,0,0,0,4-.38,5.82,5.82,0,0,0,2.82-2,5.43,5.43,0,0,0,1-3.28c0-1.27-.21-2.65-.29-4.09a10.1,10.1,0,0,1,1.84,3.93,5.71,5.71,0,0,1-.93,4.64,5.94,5.94,0,0,1-4.12,2.3A6.08,6.08,0,0,1,398.46,444.87Z"/><path d="M360.34,423.61a3.26,3.26,0,0,1,.79-.56.91.91,0,0,1,.56-.1.93.93,0,0,1,.5.26,3.09,3.09,0,0,1,.57.79,1.57,1.57,0,0,1-.65.79,1.16,1.16,0,0,1-.74.13,1.12,1.12,0,0,1-.65-.36A1.55,1.55,0,0,1,360.34,423.61Z"/><path d="M391,400.08a4.31,4.31,0,0,1,2.63-2.32,6.35,6.35,0,0,1,3.64-.16,7.67,7.67,0,0,1,3.13,1.65,7.78,7.78,0,0,1,2.05,2.75c-1.05-.48-2-1-2.92-1.43a14.65,14.65,0,0,0-2.75-1,8.78,8.78,0,0,0-2.81-.25A7.66,7.66,0,0,0,391,400.08Z"/><path d="M410.23,424.3a3.27,3.27,0,0,0-.83,0c-.15,0-.23.05-.26,0s0-.1,0-.26a2.88,2.88,0,0,0,0-.82,1,1,0,0,1,.74-.58.77.77,0,0,1,.65.21.76.76,0,0,1,.24.64A1,1,0,0,1,410.23,424.3Z"/><path d="M16,186.34a8.19,8.19,0,0,1-1.29-2c-.36-.7-.7-1.41-1.05-2.12s-.68-1.43-1.06-2.11a4.6,4.6,0,0,0-.3-.46l-.07-.07s.1,0,.08,0l-.14.2a11,11,0,0,0-.52,1c-1.27,2.88-2.38,5.84-3.49,8.79l-.07.19-.22.05a3.45,3.45,0,0,0-.71.23,4,4,0,0,0-.68.36,4.67,4.67,0,0,0-1.14,1l0,0,0,.06-.06.07a.45.45,0,0,1-.26.13.44.44,0,0,1-.41-.18.5.5,0,0,1-.08-.27.82.82,0,0,1,0-.2l0-.15.1-.28.21-.55L5.31,189l.87-2.15L8,182.53,9,183,5.57,189.1l.07-.18-.7,3.53v.07l-1.19,3.84,0,.12-.1.12-.87,1.06-.93,1.13-.34-1.41a10.18,10.18,0,0,1-.27-2.72A18.17,18.17,0,0,1,1.51,192c.17-.85.36-1.68.6-2.52A8.57,8.57,0,0,1,3.19,187c1.93-2.8,3.91-5.5,5.72-8.3.21-.35.44-.7.63-1,.11-.18.19-.34.27-.5l.06-.12s0,0,0,0l0,0v-.1a23.17,23.17,0,0,0-.15-2.36l-.56-5c0-.43-.09-.84-.12-1.29a5.62,5.62,0,0,0-.18-1.09c-.19-.78-.43-1.57-.68-2.36-.51-1.57-1.08-3.16-1.67-4.71l-.29-.77.73-.4,2.55-1.41,1-.52.41,1c.5,1.28,1,2.59,1.65,3.79.15.3.32.58.47.83a2.34,2.34,0,0,0,.2.27,3.66,3.66,0,0,0,.32.27c.51.41,1.09.82,1.65,1.23l3.46,2.42,1.71,1.2,1.77,1.12,3.6,2.26.9.6.46.32.25.19a2.45,2.45,0,0,1,.36.36,3.09,3.09,0,0,1,.35.66l.21.54.35,1a5.7,5.7,0,0,0,.72,1.57c.43.45,1,1,1.48,1.45a8.69,8.69,0,0,1,1.52,1.83,14.22,14.22,0,0,1,.91,2.09l1.29,3.6-2.78-2.63c-1.42-1.34-2.82-2.66-4.2-4.09-.18-.18-.35-.36-.54-.59a3.85,3.85,0,0,1-.51-.83c-.12-.3-.19-.59-.25-.79a1.38,1.38,0,0,0-.18-.43,1,1,0,0,0-.29-.31l-.57-.43-1.16-.85c-1.57-1.13-3.14-2.25-4.73-3.35l-1.18-.81-.58-.37-.1-.06h0a.84.84,0,0,0,.31.05c-.14,0,.6,0,.74-.51.09-.27,0-.1.06-.17l0-.08a.54.54,0,0,0,0-.18.56.56,0,0,0-.1-.26l.05.07.1.12c.58.72,1.22,1.48,1.84,2.21l3.75,4.45.92,1.14.46.58c.08.1.15.19.23.31l.12.17a1.31,1.31,0,0,1,.17.28,1,1,0,0,1-.11,1,1.88,1.88,0,0,1-.44.42,3.14,3.14,0,0,1-.86.39,2.21,2.21,0,0,1-.46.1,1.75,1.75,0,0,1-.24,0H23.9a.64.64,0,0,1-.23,0,.87.87,0,0,1-.42-.21l-.19-.15-.29-.28c-1.4-1.47-2.57-3-3.79-4.5s-2.4-3.06-3.58-4.6l0,0a18.06,18.06,0,0,0-1.4-1.37,3.73,3.73,0,0,0-.68-.49h0a.17.17,0,0,0,.1,0l.12-.07c.06,0,.13-.17.12-.14s0,0,0,0a3.47,3.47,0,0,0,0,.4,38.46,38.46,0,0,0,.29,4c.08.67.17,1.33.27,2,.06.32.12.65.19,1s.06.36.35.54a14.18,14.18,0,0,0,1.87.61l.19.08a.46.46,0,0,1,.19.31.39.39,0,0,1-.21.38,1.05,1.05,0,0,1-.35.1c-.17,0-.33.05-.47.09-.3.07-.53.19-.58.34v-.17a1.42,1.42,0,0,1,.08.18l.14.22c.09.14.23.28.34.43s.5.56.76.83c.53.55,1.09,1.07,1.65,1.59,1.12,1.05,2.27,2.06,3.44,3.05l.25.22-.32,0a28.58,28.58,0,0,0-3,.58,13.08,13.08,0,0,0-1.47.45A2.91,2.91,0,0,0,16,186.34Zm0,0a2.9,2.9,0,0,1,1.25-.9,15,15,0,0,1,1.46-.53q1.5-.43,3-.72l-.07.26c-1.21-.95-2.4-1.92-3.56-2.93-.59-.5-1.16-1-1.72-1.55-.28-.27-.56-.55-.82-.84a4.49,4.49,0,0,1-.39-.46l-.18-.26c-.06-.11-.11-.23-.16-.34l0-.07,0-.11a1.34,1.34,0,0,1,1-.78l.52-.12.13,0-.07.06a.37.37,0,0,0-.07.22.28.28,0,0,0,.12.22h-.05a11.66,11.66,0,0,1-2-.59,1.27,1.27,0,0,1-.54-.42,1.64,1.64,0,0,1-.24-.6,9.73,9.73,0,0,1-.23-1c-.14-.67-.25-1.34-.35-2a30.29,30.29,0,0,1-.42-4.09,3.29,3.29,0,0,1,0-.6,1.16,1.16,0,0,1,.07-.24.81.81,0,0,1,.19-.25.72.72,0,0,1,.24-.11,1,1,0,0,1,.23,0l.13,0a1,1,0,0,1,.22.07,4.62,4.62,0,0,1,1,.64,20.84,20.84,0,0,1,1.53,1.43h0l0,0q1.82,2.26,3.66,4.5c1.23,1.47,2.48,3,3.78,4.31l.24.22.1.07s.11.05-.11,0h.11l.25-.06a1.57,1.57,0,0,0,.45-.22.38.38,0,0,0,.09-.08.57.57,0,0,0-.05.36c.07.13,0,0,0,0l-.1-.13c-.05-.08-.14-.18-.21-.27l-.45-.54-.93-1.1-3.84-4.36c-.64-.73-1.28-1.43-1.92-2.22l-.13-.16-.06-.08a1.21,1.21,0,0,1-.19-.41.82.82,0,0,1,0-.26v-.12c0-.08,0,.09.05-.19a.9.9,0,0,1,.76-.51,1.14,1.14,0,0,1,.4.07l.09.05.21.11.65.41,1.22.82q2.41,1.65,4.78,3.34l1.18.85.61.45a2.94,2.94,0,0,1,.7.74,3.11,3.11,0,0,1,.39.9c.08.26.13.44.19.59a1.9,1.9,0,0,0,.25.4c.12.14.29.31.45.48,1.32,1.34,2.75,2.67,4.16,4l-1.49,1a13,13,0,0,0-.8-1.78,6.68,6.68,0,0,0-1.21-1.4c-.49-.48-1-.93-1.55-1.5a3.18,3.18,0,0,1-.44-.61c-.11-.2-.2-.38-.28-.56-.15-.36-.28-.71-.4-1l-.36-1-.17-.45a2.37,2.37,0,0,0-.14-.27s0,0,0,0l-.17-.13-.41-.28-.87-.57-3.59-2.22-1.82-1.13-1.77-1.22c-1.16-.8-2.32-1.61-3.48-2.44-.57-.43-1.14-.84-1.73-1.31a4.4,4.4,0,0,1-.48-.43,3.14,3.14,0,0,1-.44-.57c-.22-.35-.4-.69-.57-1-.65-1.32-1.19-2.63-1.71-4l1.36.5L7.9,160.51l.43-1.17c.59,1.59,1.15,3.19,1.67,4.82.25.81.5,1.63.7,2.5a8.54,8.54,0,0,1,.22,1.4c0,.39.06.81.1,1.22l.52,5a22.28,22.28,0,0,1,.14,2.68,2.49,2.49,0,0,1-.27.91c-.11.22-.23.43-.34.61-.22.39-.45.75-.69,1.11-1.87,2.85-3.88,5.57-5.8,8.29A6.9,6.9,0,0,0,3.67,190c-.24.77-.44,1.57-.61,2.37a16,16,0,0,0-.37,2.38A9.1,9.1,0,0,0,2.86,197l-1.26-.29.89-1-.13.24,1.28-3.82,0,.07.77-3.51,0-.11,0-.08,3.52-6,1,.5-1.86,4.25-.93,2.12-.46,1.06-.22.53-.11.26,0,.12s0,.08,0-.05a.47.47,0,0,0-.08-.26.46.46,0,0,0-.4-.18c-.22,0-.27.15-.25.12l0,.05h0l0-.06A5.72,5.72,0,0,1,6,189.76a6,6,0,0,1,.81-.39,4.73,4.73,0,0,1,.9-.26l-.3.24c1.22-2.92,2.43-5.84,3.82-8.7.18-.35.36-.7.58-1.05a1.24,1.24,0,0,1,.21-.27.33.33,0,0,1,.17-.09.32.32,0,0,1,.18,0,.92.92,0,0,1,.14.14,3.92,3.92,0,0,1,.33.54c.37.71.66,1.44,1,2.17s.62,1.45.94,2.16A8.14,8.14,0,0,0,16,186.34Z"/><path d="M13.7,189.6a1.47,1.47,0,0,1-.85-.28,5.48,5.48,0,0,1-.72-.55A4,4,0,0,1,11,187.31a31.83,31.83,0,0,1-1.37-3.43l.11.22c-.3-.27-.61-.54-.93-.8l-.47-.36-.21-.15c-.05,0-.18-.09-.05,0l.08,0h.05a.59.59,0,0,0,.19,0,.71.71,0,0,0,.39-.24l0,0c0-.06,0,0,0,0l-.08.25-.17.58-.32,1.18-.62,2.23-1.13-2.12A12.26,12.26,0,0,1,6,183.39a6.31,6.31,0,0,1-.22-.73,2.66,2.66,0,0,1-.07-.45,1.58,1.58,0,0,1,0-.31,1.55,1.55,0,0,1,.09-.44A2.9,2.9,0,0,1,7.07,180a1.78,1.78,0,0,1,.57-.22,1.85,1.85,0,0,1,.43,0,1.69,1.69,0,0,1,.41.1c.26.11.45.21.66.32a11,11,0,0,1,1.2.73,3.79,3.79,0,0,1,.66.61,4.24,4.24,0,0,1,.36.69c.36.81.67,1.62,1,2.43l0,0,.92,1.91a4,4,0,0,0,.81.6,3.91,3.91,0,0,1,.83.69l0,0v0a1.93,1.93,0,0,1-.33,1.07A1.8,1.8,0,0,1,13.7,189.6Zm0,0a1.68,1.68,0,0,0,.85-.68,1.63,1.63,0,0,0,.25-1v0a3.84,3.84,0,0,0-.87-.57,5.47,5.47,0,0,1-1-.54l-.68-.89-.64-.83,0,0c-.48-.72-1-1.44-1.46-2.13a2.47,2.47,0,0,0-.33-.41s-.2-.11-.36-.18c-.33-.16-.71-.34-1.08-.48l-.54-.18c-.07,0,0,0,.1,0h.11s0,0,0,0a1.53,1.53,0,0,0-.4.45.41.41,0,0,0,0-.13v0s0,.12,0,.19a4.43,4.43,0,0,0,.14.51c.11.37.26.76.4,1.12L6.47,184,7,182.8a5.38,5.38,0,0,1,.28-.6l.17-.32a1.83,1.83,0,0,1,.15-.24l.07-.09a.94.94,0,0,1,.46-.26,1.06,1.06,0,0,1,.23,0l.09,0,.16,0a1.39,1.39,0,0,1,.47.32l.26.25c.16.17.29.34.43.51.27.35.52.69.77,1l.1.15v.08a16.82,16.82,0,0,0,.66,3.52,3.6,3.6,0,0,0,.91,1.52A2.43,2.43,0,0,0,13.7,189.6Z"/><path d="M23.17,184.47a41.31,41.31,0,0,1,2.09-3.73,12.13,12.13,0,0,1,1.34-1.8c.21-.18.32-.26.45-.38l.4-.33.82-.67c.55-.45,1.09-.91,1.67-1.34.29-.21.58-.43.9-.64.15-.1.31-.21.49-.31l.29-.16A3.89,3.89,0,0,1,32,175a4,4,0,0,1,1.4,0,8.8,8.8,0,0,1,1.18.24,7.91,7.91,0,0,1,1.14.42,3.48,3.48,0,0,1,.62.36,1.62,1.62,0,0,1,.22.19,1.11,1.11,0,0,1,.31.5,1.12,1.12,0,0,1-.19,1l-.19.19A1.26,1.26,0,0,1,36,178l-.08,0h-.17l-1.66-.1-.79,0h-.17l-.2.09a15.83,15.83,0,0,0-1.34.87c-.45.31-.92.63-1.37,1l.31-.43-.87,2.51c-.14.41-.28.83-.39,1.23-.05.19-.08.41-.09.31a.6.6,0,0,0,.05.16s.08.09-.06,0l.25,1-1.28,1.65-.26.33-.33-.13c-.79-.34-1.57-.69-2.29-1Zm0,0c.86.22,1.68.39,2.46.55s1.5.3,2.2.47l-.58.2,1-1.82.24,1a1.27,1.27,0,0,1-.5-.48,1.93,1.93,0,0,1-.22-.46,2.23,2.23,0,0,1,0-1c.07-.49.17-.93.27-1.38.2-.9.45-1.76.7-2.64l.07-.23.24-.2,1.36-1.09a17.44,17.44,0,0,1,1.52-1,3.37,3.37,0,0,1,.58-.26,2.44,2.44,0,0,1,.67-.1c.33,0,.63,0,.93,0,.59,0,1.16.06,1.75.11h-.25a.64.64,0,0,0-.32.14,1,1,0,0,0-.14.15.68.68,0,0,0-.14.25.9.9,0,0,0,0,.56.67.67,0,0,0,.16.28l0,0a2.5,2.5,0,0,0-.29-.17,5.88,5.88,0,0,0-.84-.32,7.61,7.61,0,0,0-.89-.21,2.4,2.4,0,0,0-.71,0l-.08,0-.18.08-.42.23-.86.54-1.76,1.15-.89.58-.45.29-.41.25A14.58,14.58,0,0,0,26,181.31Z"/><path d="M12,189a8.33,8.33,0,0,0-6.5,2.41,7.24,7.24,0,0,0-1.77,3,11.65,11.65,0,0,0-.39,1.72,10.38,10.38,0,0,1-.53,1.83A17.46,17.46,0,0,1,2,199.62a7,7,0,0,0-.58,1.58,6.78,6.78,0,0,0,.06,3.29A6.62,6.62,0,0,0,5.83,209l1,.31-.59.89a7.13,7.13,0,0,0,.66,8.27l.38.44-.25.54a16.8,16.8,0,0,0-1.26,3.67,7.29,7.29,0,0,0,.11,3.6,4.4,4.4,0,0,0,2,2.6,4,4,0,0,0,3.21.11l.62,1.89a.8.8,0,0,0,.45-.33.48.48,0,0,0,.09-.23s0-.08,0,0a.84.84,0,0,0,0,.28,5.28,5.28,0,0,0,.2.75,12.31,12.31,0,0,0,.57,1.52,8.66,8.66,0,0,0,1.87,2.53,7.58,7.58,0,0,0,2.61,1.68,3.89,3.89,0,0,0,2.77,0l.75-.28.41.62a7.81,7.81,0,0,0,2.47,2.54,5.89,5.89,0,0,0,3.33.75,5.22,5.22,0,0,0,3.12-1.28,4.63,4.63,0,0,0,1.55-3l1.5.2c-.36,1.77.92,3.78,2.61,4.78a6.64,6.64,0,0,0,5.9.18,6.56,6.56,0,0,0,3.91-4.65,7.53,7.53,0,0,0-1.3-6.19,7.51,7.51,0,0,1,1.8,6.29A7.23,7.23,0,0,1,45,240.7a7.87,7.87,0,0,1-9.6,2.3,7.19,7.19,0,0,1-2.66-2.48,5.36,5.36,0,0,1-.81-3.68l1.49.2a6.2,6.2,0,0,1-1.94,4,6.74,6.74,0,0,1-4.09,1.81A7.63,7.63,0,0,1,23,242a9.82,9.82,0,0,1-3.15-3.06l1.15.35a5.72,5.72,0,0,1-4.13,0,9.38,9.38,0,0,1-3.32-2.07,10.72,10.72,0,0,1-2.32-3.11,13.92,13.92,0,0,1-.68-1.77,7.85,7.85,0,0,1-.26-1,3.12,3.12,0,0,1-.08-.6,2,2,0,0,1,0-.46,1.51,1.51,0,0,1,.18-.44,1.29,1.29,0,0,1,.61-.47l.62,1.89a6,6,0,0,1-4.77-.27A6.28,6.28,0,0,1,4,227.3a9.09,9.09,0,0,1-.13-4.54,18.09,18.09,0,0,1,1.48-4.07l.12,1a9,9,0,0,1-2-5.09,8.16,8.16,0,0,1,1.41-5.26l.41,1.2a7.86,7.86,0,0,1-5-9.61,7.52,7.52,0,0,1,.75-1.8,15.7,15.7,0,0,0,.82-1.57,8.84,8.84,0,0,0,.59-1.63A12.13,12.13,0,0,1,3,194.12,8.1,8.1,0,0,1,5.11,191a8.78,8.78,0,0,1,3.24-1.8A8.46,8.46,0,0,1,12,189Z"/><path d="M30.78,240.71a6.06,6.06,0,0,0,2.5,3.88,6.86,6.86,0,0,0,4.29,1.29,8.1,8.1,0,0,0,4.17-1.51,10.09,10.09,0,0,0,3-3.32l.33-.57.66.2a8.67,8.67,0,0,0,4.43.19,6.87,6.87,0,0,0,3.66-2.16,5.51,5.51,0,0,0,1.42-3.84,4.92,4.92,0,0,0-1.69-3.61l-3.81-3.07,4.68,1.39a2.72,2.72,0,0,0,2.3-.53A3.56,3.56,0,0,0,58,226.79a7.71,7.71,0,0,0-1.73-5.63l1,.09-.46.41-1-1A7.66,7.66,0,0,0,58,215a8,8,0,0,0-2.85-5.68,8,8,0,0,1,3.66,5.59,8.47,8.47,0,0,1-1.94,6.69l-1-1,.44-.43.55-.54.5.63a12.87,12.87,0,0,1,1.83,3,7.13,7.13,0,0,1,.5,3.7,5.33,5.33,0,0,1-1.86,3.46,4.46,4.46,0,0,1-4,.93l.87-1.68a6.84,6.84,0,0,1,2.47,5A7.33,7.33,0,0,1,55.27,240a8.46,8.46,0,0,1-4.75,2.7,10.47,10.47,0,0,1-5.33-.4l1-.37a11.46,11.46,0,0,1-3.66,3.64,8.92,8.92,0,0,1-4.94,1.4,7.42,7.42,0,0,1-4.68-1.91A5.94,5.94,0,0,1,30.78,240.71Z"/><path d="M55.58,209.42a7.65,7.65,0,0,0,.29-4.72,7.1,7.1,0,0,0-4.51-4.85,18.58,18.58,0,0,0-2.32-.5,4.22,4.22,0,0,1-1.38-.57,3.9,3.9,0,0,1-1-1.14c-.44-.79-.81-1.42-1.11-1.44l-.65-.06.07-.83a6.1,6.1,0,0,0-2.55-5.4l-.78-.53.5-.72a1.38,1.38,0,0,0,0-.6,5.41,5.41,0,0,0-.2-1,7.31,7.31,0,0,0-.81-1.9,5.18,5.18,0,0,0-3-2.37,3.91,3.91,0,0,0-1.86-.07,3.17,3.17,0,0,0-.44.12l-.56.21c-.4.13-.79.26-1.17.37A13.56,13.56,0,0,0,30,185a4.85,4.85,0,0,0-.72.64,6.55,6.55,0,0,1-1,1,2.42,2.42,0,0,1-1.7.41,4.37,4.37,0,0,1-1.35-.45,9.57,9.57,0,0,0-2-.82,8,8,0,0,0-2.13-.26,6.54,6.54,0,0,0-4,1.42,6,6,0,0,0-2.25,3.73l-.05.32-.27-.16c-.92-.57-1.82-1.17-2.73-1.76,1,.46,2,.91,2.94,1.39l-.31.16a6.73,6.73,0,0,1,2.06-4.38,7.43,7.43,0,0,1,4.54-2,9.37,9.37,0,0,1,4.9.94,2.84,2.84,0,0,0,.88.25.7.7,0,0,0,.53-.16,4.37,4.37,0,0,0,.65-.71,6.36,6.36,0,0,1,1-.95,14.42,14.42,0,0,1,4.6-1.93l1.07-.34.54-.21a5,5,0,0,1,.69-.2,5.68,5.68,0,0,1,2.78.06,6.46,6.46,0,0,1,2.46,1.22,7.67,7.67,0,0,1,1.75,2,9.13,9.13,0,0,1,1,2.42,7.31,7.31,0,0,1,.25,1.33,3.06,3.06,0,0,1-.3,1.69l-.28-1.25a7.81,7.81,0,0,1,3.12,7.13l-.57-.89a2.62,2.62,0,0,1,1.33,1.13c.26.42.42.81.6,1.13a2.2,2.2,0,0,0,.54.71,2.6,2.6,0,0,0,.87.4,14.8,14.8,0,0,1,2.43.7A8.3,8.3,0,0,1,54,200.09a7.57,7.57,0,0,1,2.42,4.49A7.36,7.36,0,0,1,55.58,209.42Z"/><path d="M2.83,196.36A24.72,24.72,0,0,0,4,199.06a14.19,14.19,0,0,0,1.4,2.25,14.86,14.86,0,0,0,1.81,1.93A25,25,0,0,0,9.48,205a5.41,5.41,0,0,1-3.16-.45,6.84,6.84,0,0,1-3.87-5A5.34,5.34,0,0,1,2.83,196.36Z"/><path d="M14.83,190.92c.58.61,1,1.18,1.46,1.72l1.25,1.59,1.23,1.6a22.23,22.23,0,0,1,1.3,1.84,4.55,4.55,0,0,1-2.32-.64A6.26,6.26,0,0,1,16,195.46a6.13,6.13,0,0,1-1.08-2.13A4.57,4.57,0,0,1,14.83,190.92Z"/><path d="M21.45,200.47a4.21,4.21,0,0,1-1.32-3.39,9.8,9.8,0,0,1,.9-3.63,9.51,9.51,0,0,1,2.15-3.19,7.55,7.55,0,0,1,3.58-1.79,8,8,0,0,1,4,.28,6.84,6.84,0,0,1,3.21,2.33,6.75,6.75,0,0,1,.72,7.15,7.38,7.38,0,0,0-1.91-6.14,6.17,6.17,0,0,0-5.61-1.66,6.86,6.86,0,0,0-4.73,3.72,11,11,0,0,0-1.31,3A4.37,4.37,0,0,0,21.45,200.47Z"/><path d="M16.58,214.21a5.66,5.66,0,0,1-6.8-1.75A8.24,8.24,0,0,1,8.51,205a12.13,12.13,0,0,1,4.33-6,8,8,0,0,1,3.4-1.58,4.89,4.89,0,0,1,3.55.67,5.32,5.32,0,0,0-3.29.28,8.26,8.26,0,0,0-2.65,1.82,12.94,12.94,0,0,0-3.42,5.39,7.44,7.44,0,0,0,.61,6A5.75,5.75,0,0,0,16.58,214.21Z"/><path d="M26.94,216.65a10.1,10.1,0,0,1-5.73-.6,6.05,6.05,0,0,1-2.44-2,5.62,5.62,0,0,1-1-3.12,7.89,7.89,0,0,1,2.36-5.58,14.94,14.94,0,0,1,4.77-3.13,54.41,54.41,0,0,0-3.57,4.13,7.74,7.74,0,0,0-1.56,4.54A4.46,4.46,0,0,0,22,214.69,18.35,18.35,0,0,0,26.94,216.65Z"/><path d="M37.55,213.07a12.36,12.36,0,0,0,4.18-1,10.91,10.91,0,0,0,1.83-1A7,7,0,0,0,45,209.7a1.88,1.88,0,0,0,.33-1.47,15.25,15.25,0,0,0-.54-2,10.9,10.9,0,0,0-1.67-3.66,3.9,3.9,0,0,0-2.95-1.73,9,9,0,0,0-3.83.95,7.7,7.7,0,0,0-3.32,2.27,3,3,0,0,0,.08,3.77A2.61,2.61,0,0,1,31.87,206a3.9,3.9,0,0,1,.33-2.39,8,8,0,0,1,3.48-3.17A9.64,9.64,0,0,1,40.25,199a5.19,5.19,0,0,1,2.57.7,6.58,6.58,0,0,1,1.92,1.71,12.22,12.22,0,0,1,1.89,4.35,15.2,15.2,0,0,1,.47,2.33,3.83,3.83,0,0,1-.15,1.4,3.28,3.28,0,0,1-.74,1.24,7.16,7.16,0,0,1-2,1.4,11.42,11.42,0,0,1-2.17.83A9.8,9.8,0,0,1,37.55,213.07Z"/><path d="M29.88,224.67a7,7,0,0,1-2.72-4.35,7.92,7.92,0,0,1,.82-5.27,8.67,8.67,0,0,1,4-3.88,5.85,5.85,0,0,1,3-.49,6.42,6.42,0,0,1,2.84,1.16,6.8,6.8,0,0,1,1.93,2.33,7.26,7.26,0,0,1,.71,2.86A9.54,9.54,0,0,1,39,222.36a9.89,9.89,0,0,1-1.66,2.15,4.65,4.65,0,0,1-1.11.81,4.81,4.81,0,0,1-1.3.42,6.85,6.85,0,0,1-2.63-.06A6.17,6.17,0,0,1,29.88,224.67Zm0,0a6.06,6.06,0,0,0,5,.79c1.7-.41,2.61-2,3.23-3.54a9.08,9.08,0,0,0,.69-4.74,5.48,5.48,0,0,0-2.12-3.74,4.18,4.18,0,0,0-4-.67,8.13,8.13,0,0,0-3.8,2.8,6.79,6.79,0,0,0-1.39,4.71A6.21,6.21,0,0,0,29.88,224.67Z"/><path d="M42.93,199.76a7.23,7.23,0,0,1,6.36-.9,7.8,7.8,0,0,1,3,1.72,8.24,8.24,0,0,1,2,2.89,7.56,7.56,0,0,1,.5,3.5,6.07,6.07,0,0,1-1.36,3.28,6.18,6.18,0,0,1-2.81,2,4.77,4.77,0,0,1-3.25,0,5.83,5.83,0,0,0,4.79-2.85,5.71,5.71,0,0,0,.27-5.14,7.13,7.13,0,0,0-3.68-3.88A8.77,8.77,0,0,0,42.93,199.76Z"/><path d="M18.35,215.52a12.68,12.68,0,0,0-.22,4.3,6.5,6.5,0,0,0,1.59,3.44,4.58,4.58,0,0,0,3.19,1.6,4.64,4.64,0,0,0,3.66-1.54,4.14,4.14,0,0,1-3.54,3.1,5.38,5.38,0,0,1-4.79-1.81,6.55,6.55,0,0,1-1.66-4.73A7,7,0,0,1,18.35,215.52Z"/><path d="M11.21,215.41a10.65,10.65,0,0,0-2.31,6.11,9.27,9.27,0,0,0,1.43,5.92,6.36,6.36,0,0,0,5,2.87A5.49,5.49,0,0,0,20.37,227a4.75,4.75,0,0,1-1.54,3.22,6,6,0,0,1-3.43,1.61,6.8,6.8,0,0,1-3.81-.73,8.31,8.31,0,0,1-2.9-2.56,9.6,9.6,0,0,1-1.33-7.28A8.59,8.59,0,0,1,11.21,215.41Z"/><path d="M23.22,225.65a9.52,9.52,0,0,0,2.48,6,8.43,8.43,0,0,0,5.51,2.56,6.07,6.07,0,0,0,5.36-2.09,3.67,3.67,0,0,0,.71-2.79,3.34,3.34,0,0,0-1.92-2.47,3.42,3.42,0,0,1,2.86,2.17A4.59,4.59,0,0,1,37.9,233a6.08,6.08,0,0,1-3,2.62,8.44,8.44,0,0,1-3.83.64,8.92,8.92,0,0,1-6.6-3.57A8,8,0,0,1,23.22,225.65Z"/><path d="M40.31,227.33a4,4,0,0,0,2.92.69,14.24,14.24,0,0,0,3-.69A6.31,6.31,0,0,0,48.68,226a4.22,4.22,0,0,0,1.19-2.29,8.93,8.93,0,0,0,.14-2.89,16.19,16.19,0,0,0-.54-3,18.79,18.79,0,0,0-2.74-5.65,12.23,12.23,0,0,1,5.09,12,5.92,5.92,0,0,1-1.89,3.27,7.05,7.05,0,0,1-3.32,1.43,11.44,11.44,0,0,1-3.41.16,5.61,5.61,0,0,1-1.66-.51A3,3,0,0,1,40.31,227.33Z"/><path d="M18.19,230.62a10.31,10.31,0,0,0,.25,2c.13.57.29,1.11.46,1.65l.57,1.74a8.5,8.5,0,0,1,.41,2.1,5.38,5.38,0,0,1-1.77-1.31A5.32,5.32,0,0,1,17,234.84a4.35,4.35,0,0,1-.12-2.32A2.82,2.82,0,0,1,18.19,230.62Z"/><path d="M47.73,231.87a10.6,10.6,0,0,0,3.79-1.16,5.72,5.72,0,0,0,2.38-2.5,5.38,5.38,0,0,0,.3-3.4c-.24-1.26-.73-2.56-1.1-4a10.05,10.05,0,0,1,2.59,3.49,5.73,5.73,0,0,1,0,4.73,5.93,5.93,0,0,1-3.58,3.07A6.09,6.09,0,0,1,47.73,231.87Z"/><path d="M6.13,218.66A3.11,3.11,0,0,1,6.8,218a.85.85,0,0,1,.52-.21,1,1,0,0,1,.55.16,3.41,3.41,0,0,1,.72.65,1.57,1.57,0,0,1-.49.9,1.11,1.11,0,0,1-1.4.06A1.62,1.62,0,0,1,6.13,218.66Z"/><path d="M31.45,189.47a4.35,4.35,0,0,1,2.12-2.79,6.31,6.31,0,0,1,3.53-.89,7.91,7.91,0,0,1,6,3.28c-1.13-.26-2.14-.59-3.14-.82a14.52,14.52,0,0,0-2.91-.46,9.23,9.23,0,0,0-2.8.31A8,8,0,0,0,31.45,189.47Z"/><path d="M55.16,209.36a3,3,0,0,0-.81.19c-.14.06-.21.09-.25.07s0-.1-.05-.25a3.44,3.44,0,0,0-.18-.81,1,1,0,0,1,.6-.71.79.79,0,0,1,1.05.65A1,1,0,0,1,55.16,209.36Z"/></svg>