<svg xmlns="http://www.w3.org/2000/svg" viewBox="0 0 98.45 116.62"><defs><style>.a,.b{fill:none;stroke:#000;stroke-miterlimit:10;}.b{stroke-width:2px;}</style></defs><title>chilli-thymeAsset 2</title><path d="M18.82,87.57a1.23,1.23,0,0,0,0-.65c-.06-.23-.12-.46-.2-.69l-.46-1.35c-.31-.91-.63-1.81-.9-2.73a12.4,12.4,0,0,1-.54-2.84,4.24,4.24,0,0,1,.22-1.46,6.14,6.14,0,0,1,.59-1.34,6.58,6.58,0,0,1,4.74-3.25,9.7,9.7,0,0,1,2.95.16,15.46,15.46,0,0,1,2.82.83l.06,0,.07.06A9.29,9.29,0,0,0,30.5,76a1.52,1.52,0,0,0,1.18.19A8.2,8.2,0,0,0,33,75.6a4.39,4.39,0,0,1,3.26-.35,6.82,6.82,0,0,1,4.67,4.19A6.57,6.57,0,0,1,41.3,81a10.52,10.52,0,0,1,0,1.59,33.35,33.35,0,0,1-1.17,6v0h0a41.58,41.58,0,0,0-2,6A6.79,6.79,0,0,0,38,96.23c0,.49.4.81.78,1.17.78.7,1.63,1.33,2.48,2a62.29,62.29,0,0,1,5.06,3.88,12.31,12.31,0,0,1,1.12,1.16,5.52,5.52,0,0,1,.46.69l.16.42a1.93,1.93,0,0,1,.06.42,5.8,5.8,0,0,1-1,3.1A27,27,0,0,1,42.93,114a4.43,4.43,0,0,1-1.59.69,14.94,14.94,0,0,1-1.6.29,24.84,24.84,0,0,1-3.22.19,21.92,21.92,0,0,1-3.23-.22,10.9,10.9,0,0,1-1.63-.37,3.58,3.58,0,0,1-.82-.39,2.45,2.45,0,0,1-.67-.65c-1.29-1.77-2.32-3.61-3.4-5.44s-2.09-3.69-3.1-5.57l-.73-1.41-.36-.73L22.4,100l0-.11,0-.09a1.13,1.13,0,0,1,0-.12c.05.16-.29-.46.69-.56a.51.51,0,0,1,.23.15l.07.09a.88.88,0,0,1,.09.21,1.21,1.21,0,0,1,0,.25,2.86,2.86,0,0,1-.31.94,7.37,7.37,0,0,1-.39.74c-.28.48-.58.93-.89,1.38a14.46,14.46,0,0,1-2.17,2.48,5.13,5.13,0,0,1-.72.52,1.6,1.6,0,0,1-1.09.26,2.84,2.84,0,0,1-.89-.43c-.24-.15-.46-.31-.67-.47a59,59,0,0,1-4.88-4.15A40.69,40.69,0,0,1,7,96.43a2.71,2.71,0,0,1-.44-.79,2.58,2.58,0,0,1,0-.92A9,9,0,0,1,7,93.14,24.8,24.8,0,0,1,8.3,90.22,26.21,26.21,0,0,1,10,87.49a4,4,0,0,1,1.12-1.19,3.13,3.13,0,0,1,1.62-.2,16.26,16.26,0,0,1,3.1.73l1.52.47c.25.08.5.16.76.22A1.34,1.34,0,0,0,18.82,87.57Zm.07.07c-.31.15-.56,0-.83,0s-.51-.13-.77-.21L15.77,87a16.45,16.45,0,0,0-3.08-.67,2.91,2.91,0,0,0-1.5.2,4,4,0,0,0-1,1.15A25.39,25.39,0,0,0,8.67,90.4a22.73,22.73,0,0,0-1.18,2.91,9.21,9.21,0,0,0-.36,1.49,2,2,0,0,0,0,.66,2.21,2.21,0,0,0,.36.57,50.46,50.46,0,0,0,4.5,4.38c1.58,1.39,3.21,2.75,4.87,4,.21.15.42.3.63.43a2.8,2.8,0,0,0,.51.28.77.77,0,0,0,.42-.14,6.09,6.09,0,0,0,.56-.41,14.39,14.39,0,0,0,2-2.31c.29-.42.58-.86.83-1.3.13-.22.24-.44.35-.66a2.74,2.74,0,0,0,.2-.55s0,0,0,0a.28.28,0,0,0,.05.12l0,0a.58.58,0,0,0,.2.12c1-.1.62-.71.68-.53v-.07h0l0,.07.16.34.35.7.73,1.4c1,1.86,2,3.72,3,5.56s2.08,3.71,3.26,5.38c.47.73,1.53.89,2.53,1.09a21.14,21.14,0,0,0,3.1.27,25,25,0,0,0,3.12-.12c.51-.06,1-.14,1.52-.24a3.81,3.81,0,0,0,1.33-.51,26,26,0,0,0,4.13-4.68,5.38,5.38,0,0,0,1-2.81,2.22,2.22,0,0,0-.56-1.31A10.47,10.47,0,0,0,46,103.5c-1.56-1.41-3.29-2.64-5-3.9-.85-.63-1.72-1.24-2.53-1.95a6.35,6.35,0,0,1-.58-.58,2.75,2.75,0,0,1-.24-.38,1.63,1.63,0,0,1-.08-.44,6.7,6.7,0,0,1,.16-1.62,51.83,51.83,0,0,1,1.82-6.12v0a35,35,0,0,0,1-6,6.06,6.06,0,0,0-2-5.15,5.94,5.94,0,0,0-2.49-1.32,3.65,3.65,0,0,0-2.67.3A9.38,9.38,0,0,1,31.9,77a2,2,0,0,1-.95,0,3.34,3.34,0,0,1-.81-.3,10.2,10.2,0,0,1-2.56-1.88l.12.08a12.6,12.6,0,0,0-5.4-1.13,6.17,6.17,0,0,0-4.52,2.86,5.75,5.75,0,0,0-.6,1.25,4.06,4.06,0,0,0-.27,1.36,10.83,10.83,0,0,0,.49,2.8c.25.92.55,1.82.86,2.73l.44,1.37c.07.23.13.46.19.69S19,87.36,18.89,87.64Z"/><path d="M21.31,78.07a2.11,2.11,0,0,1,1.05-.32c.35,0,.71-.06,1.07-.08.71,0,1.43,0,2.15,0,.35,0,.71,0,1.07.1a3.7,3.7,0,0,1,.54.11.58.58,0,0,1,.43.41c.26.69.33,1.41.53,2.08.11.33.21.66.55.68a6.75,6.75,0,0,0,1,.12c.7,0,1.41,0,2.12,0A14.22,14.22,0,0,0,33.94,81l.21-.06a.4.4,0,0,0,.15-.11c.12-.11.24-.24.36-.37l.7-.8a3.76,3.76,0,0,1,.86-.81A.78.78,0,0,1,37,79a1.66,1.66,0,0,1,.42.51,2.25,2.25,0,0,1,.22.58,2.3,2.3,0,0,1,0,.38l0,.27c-.06.37-.15.72-.23,1.07-.34,1.39-.71,2.77-1.11,4.15S35.44,88.66,35,90c-.22.68-.44,1.36-.69,2-.12.34-.24.67-.41,1a3,3,0,0,1-.22.35,2.39,2.39,0,0,1-.23.22c-.15.13-.3.24-.44.35-.57.4-1.15.88-1.18,1.23A2.2,2.2,0,0,0,32,96a9.44,9.44,0,0,0,.45.9,12.05,12.05,0,0,0,1.13,1.71,15.57,15.57,0,0,0,1.55,1.3c1.13.88,2.26,1.69,3.4,2.67a1.47,1.47,0,0,1,.41.64,5.12,5.12,0,0,1,.17.57l.21,1.06a2.63,2.63,0,0,0,.23.78s0,0-.05,0,0,0,0,0l.24.06.52.14c.69.19,1.38.39,2.08.63a6.47,6.47,0,0,1,2.1,1l.14.15a1.43,1.43,0,0,1,.13.28,1.22,1.22,0,0,1,0,.4,1.94,1.94,0,0,1-.16.68,4,4,0,0,1-.67,1l-.16.21-.08.09,0,.05a.44.44,0,0,1-.12.11.9.9,0,0,1-.26.15l-.19.05a2.11,2.11,0,0,1-.33,0,7.08,7.08,0,0,1-1.14,0,30.63,30.63,0,0,1-4.27-.81,10.58,10.58,0,0,1-1.07-.32,1.8,1.8,0,0,0-.44-.14c-.15,0-.33,0-.49-.08-.69-.08-1.4-.12-2.12-.18s-1.42-.1-2.15-.19a10.76,10.76,0,0,1-1.09-.18,3.13,3.13,0,0,1-.57-.18,1.26,1.26,0,0,1-.58-.43,8.69,8.69,0,0,1-.94-2c-.24-.68-.46-1.36-.67-2.05-.41-1.37-.78-2.75-1.11-4.15l-.12-.53a1.92,1.92,0,0,1,0-.62l.08-1.07c0-.35,0-.7,0-1a1.62,1.62,0,0,0-.05-.38s0,.06,0,0l-.07,0a1.24,1.24,0,0,0-.22,0,19.38,19.38,0,0,0-4.17.06l-.11,0s0,0,0,0a1.15,1.15,0,0,1-.11.14l-.29.43-.59.89c-.39.6-.79,1.2-1.24,1.78-.12.14-.23.29-.37.43a1.17,1.17,0,0,1-.58.37,4.39,4.39,0,0,1-1.15,0,9.48,9.48,0,0,1-2.15-.51,1.92,1.92,0,0,1-1-.72c-.19-.35-.33-.67-.47-1-.28-.67-.53-1.34-.76-2a21.34,21.34,0,0,1-.61-2.07A7.9,7.9,0,0,1,12,93a2.33,2.33,0,0,1,0-.59.62.62,0,0,1,.11-.34c0-.14.21-.18.32-.25a5.75,5.75,0,0,1,2.22.2c.7.15,1.39.34,2.08.51a19.61,19.61,0,0,0,2.07.44,2,2,0,0,0,.48,0,3.7,3.7,0,0,1,.55-.09l1.07-.1c.71,0,1.42-.1,2.13-.17a7.47,7.47,0,0,0,2-.42c.08,0,.11-.09.16-.13a1.55,1.55,0,0,0,.07-.23c0-.17.06-.34.08-.52,0-.35.06-.7.08-1.06q0-1.06.06-2.13c0-.71,0-1.43,0-2.14,0-.35,0-.71-.06-1.06s0-.72-.29-1a11.89,11.89,0,0,0-1.49-1.52,10.74,10.74,0,0,0-1.84-1.06,8.6,8.6,0,0,1-.92-.55c-.27-.2-.63-.46-.63-.87A3.18,3.18,0,0,1,21.31,78.07Zm.08.07a3.07,3.07,0,0,0-1,1.79c0,.35.31.58.59.79a6.82,6.82,0,0,0,.91.54,10.76,10.76,0,0,1,1.85,1.08,11.49,11.49,0,0,1,1.51,1.53.91.91,0,0,1,.24.49c0,.18.05.36.08.54,0,.35.06.71.08,1.07,0,.71.05,1.42.06,2.14s0,1.43,0,2.14c0,.36,0,.71-.07,1.07a5,5,0,0,1-.07.54,1.9,1.9,0,0,1-.09.29.65.65,0,0,1-.23.21,7.3,7.3,0,0,1-2.12.48c-.72.09-1.43.15-2.14.21l-1.05.12-.51.08a2.38,2.38,0,0,1-.59,0,20.91,20.91,0,0,1-2.12-.42c-.69-.16-1.39-.33-2.08-.47a5.93,5.93,0,0,0-2-.17c-.16,0-.15.38-.12.72a9.23,9.23,0,0,0,.21,1c.17.68.39,1.35.63,2s.49,1.33.77,2c.14.32.29.66.44.94s.42.36.73.49a9,9,0,0,0,2,.46,4,4,0,0,0,1,0c.13,0,.41-.36.61-.61.42-.55.81-1.14,1.19-1.74l.58-.9.31-.45a2,2,0,0,1,.23-.28,1.54,1.54,0,0,1,.24-.1l.15,0a20.59,20.59,0,0,1,4.37-.1,2,2,0,0,1,.3.06l.18.06a.63.63,0,0,1,.24.21,1.67,1.67,0,0,1,.15.67c0,.39,0,.75,0,1.11l-.07,1.07a1.25,1.25,0,0,0,0,.44l.12.51c.35,1.37.73,2.74,1.15,4.1.21.68.43,1.35.67,2a8.37,8.37,0,0,0,.84,1.83c.09.17.39.25.72.32a10.33,10.33,0,0,0,1,.17c.69.08,1.4.12,2.11.17s1.42.07,2.15.15c.19,0,.37,0,.57.09a3,3,0,0,1,.57.17,8.7,8.7,0,0,0,1,.28,31.26,31.26,0,0,0,4.14.74,8.6,8.6,0,0,0,1,0,1.06,1.06,0,0,0,.2,0H43s0,0,0,0,0,0,0,0l0-.06.09-.11.17-.22a3.48,3.48,0,0,0,.52-.77c.11-.2.08-.6,0-.49a6.29,6.29,0,0,0-1.74-.78c-.66-.21-1.34-.4-2-.58l-.52-.14-.27-.08a.62.62,0,0,1-.21-.08.74.74,0,0,1-.24-.2,1.81,1.81,0,0,1-.32-.67c-.06-.19-.1-.38-.14-.56l-.2-1a4.07,4.07,0,0,0-.13-.45.44.44,0,0,0-.16-.25c-1-.88-2.21-1.74-3.33-2.61a13.6,13.6,0,0,1-1.71-1.46,13.81,13.81,0,0,1-1.23-1.85,10.54,10.54,0,0,1-.5-1,2.63,2.63,0,0,1-.27-1.29,2,2,0,0,1,.69-1.19,8.84,8.84,0,0,1,.88-.71l.4-.3.16-.15s0-.08.06-.11c.13-.27.26-.61.39-.94.24-.65.48-1.32.71-2,.46-1.34.89-2.7,1.32-4S36.32,83,36.7,81.6c.09-.34.18-.69.26-1l0-.25a1.3,1.3,0,0,1,0-.15,1.6,1.6,0,0,0-.14-.42c-.13-.28-.37-.46-.44-.39a4,4,0,0,0-.71.65L35,80.8a5,5,0,0,1-.4.39.8.8,0,0,1-.28.18,1.29,1.29,0,0,1-.31.08,14.6,14.6,0,0,1-2.17.16c-.72,0-1.43,0-2.15-.08a7,7,0,0,1-1.09-.16.73.73,0,0,1-.5-.36,2.83,2.83,0,0,1-.21-.52c-.2-.7-.26-1.43-.49-2.07a.39.39,0,0,0-.29-.3,4.19,4.19,0,0,0-.51-.11c-.35-.05-.7-.09-1.06-.12-.71-.06-1.42-.09-2.13-.08-.35,0-.71,0-1.06.06A2.07,2.07,0,0,0,21.39,78.14Z"/><path d="M10.39,87.14,6.18,92.49c-.17.22-.34.46-.47.66a2.34,2.34,0,0,0-.09.68c0,.56-.06,1.12-.06,1.68a15.19,15.19,0,0,0,.05,1.66,3.8,3.8,0,0,0,.12.75c.08.22.2.48.32.73a58.48,58.48,0,0,0,3.29,5.86,1.07,1.07,0,0,0,.5.44c.23.12.49.22.75.33.51.2,1.05.4,1.58.58,1.07.37,2.15.72,3.23,1h0a16.42,16.42,0,0,0,3,1.07,2,2,0,0,0,.73,0c.18,0,.25-.25.24-.49,0-.5-.22-1-.31-1.56a1.43,1.43,0,0,1,.08-.9,3.23,3.23,0,0,1,.6-.62,12.71,12.71,0,0,1,1.3-1,7.15,7.15,0,0,1,.72-.42,2.3,2.3,0,0,1,.42-.16l.13,0a.47.47,0,0,1,.25.07,2,2,0,0,1,.2.18,11,11,0,0,1,.92,1.38c1.1,1.86,2.07,3.78,3.07,5.67.25.47.5,1,.76,1.38A1.33,1.33,0,0,0,28,112c.19.15.4.3.61.44a30.83,30.83,0,0,0,2.73,1.59,6.75,6.75,0,0,0,1.37.58l1.55.38,1.55.35a11.86,11.86,0,0,0,1.47.23l3.14-.38c.53-.08,1.05-.14,1.57-.23.26,0,.52-.08.76-.14l.33-.09c.06,0,.1,0,.12-.07a1.21,1.21,0,0,0,.11-.54,3.84,3.84,0,0,1,.12-.89,1.38,1.38,0,0,1,.7-.86,2.56,2.56,0,0,1,.91-.22c1.12-.1,2.21.08,2.57-.84a8.37,8.37,0,0,0,.36-1.51c.06-.26.13-.53.22-.8a5.35,5.35,0,0,0,.17-.74,14.09,14.09,0,0,0,0-3.18h.1a13.93,13.93,0,0,1,.29,3.23,6.15,6.15,0,0,1-.12.83,7,7,0,0,0-.16.77,8.17,8.17,0,0,1-.3,1.64,2,2,0,0,1-.54.77,2,2,0,0,1-.86.41,15,15,0,0,1-1.63.2,1.75,1.75,0,0,0-.63.17.53.53,0,0,0-.27.37,3.37,3.37,0,0,0-.06.7,1.84,1.84,0,0,1-.24,1,1.11,1.11,0,0,1-.52.4,3,3,0,0,1-.43.14c-.28.08-.55.14-.82.19-.54.11-1.07.21-1.6.28-1.09.15-2.09.28-3.24.41a10.12,10.12,0,0,1-1.71-.23L34,116c-.53-.12-1-.24-1.57-.38a7,7,0,0,1-1.58-.7,30.53,30.53,0,0,1-2.79-1.7,7.69,7.69,0,0,1-.68-.52,2.15,2.15,0,0,1-.61-.73c-.28-.49-.52-1-.75-1.45-.95-1.93-1.83-3.88-2.8-5.78a10.61,10.61,0,0,0-.79-1.33l-.09-.1s0,0,.06,0h-.06a1.66,1.66,0,0,0-.33.12,5.64,5.64,0,0,0-.69.36,9.7,9.7,0,0,0-1.3.9,2.84,2.84,0,0,0-.52.52,1,1,0,0,0,0,.67c.07.51.25,1,.28,1.6a.75.75,0,0,1-.48.8,2.23,2.23,0,0,1-.86,0,16.43,16.43,0,0,1-3.09-1h0c-1.11-.27-2.21-.56-3.31-.87-.55-.15-1.1-.31-1.65-.5a8.59,8.59,0,0,1-.83-.31,1.86,1.86,0,0,1-.79-.62,25.68,25.68,0,0,1-1.86-2.93c-.57-1-1.09-2-1.58-3.06a6.67,6.67,0,0,1-.34-.84,4,4,0,0,1-.14-.93c0-.59,0-1.17,0-1.74s0-1.15.12-1.73L5,93.33a1.19,1.19,0,0,1,.17-.53,8.57,8.57,0,0,1,.56-.7c1.48-1.74,3-3.4,4.62-5Z"/><path d="M41.4,80.1a13.94,13.94,0,0,1,.37,4.15c-.07.7-.22,1.39-.26,2.08s0,1.39,0,2.1a10.65,10.65,0,0,1-.23,2.11,12.53,12.53,0,0,1-.54,2.08,15.68,15.68,0,0,1-2.34,3.51l-.08,0a33.31,33.31,0,0,1,1.43-3.87c.11-.25.19-.61.31-.93l.31-1,.6-2a8.88,8.88,0,0,0,0-4.1,14.18,14.18,0,0,1,.37-4.14Z"/><ellipse class="a" cx="29.85" cy="86.61" rx="1.5" ry="0.5"/><ellipse class="a" cx="32.97" cy="83.73" rx="1.5" ry="0.5"/><ellipse class="a" cx="30.85" cy="90.61" rx="1.5" ry="0.5"/><ellipse class="a" cx="27.85" cy="93.61" rx="1.5" ry="0.5"/><ellipse class="a" cx="17.29" cy="95.53" rx="1.5" ry="0.5"/><ellipse class="a" cx="29.85" cy="97.61" rx="1.5" ry="0.5"/><ellipse class="a" cx="30.81" cy="101.81" rx="1.5" ry="0.5"/><ellipse class="a" cx="35.37" cy="106.13" rx="1.5" ry="0.5"/><ellipse class="a" cx="53.59" cy="72.23" rx="1.5" ry="0.5"/><path d="M53.73,78.87a1.41,1.41,0,0,0-.85-.4c-.31-.07-.63-.12-.94-.16L50,78.06a15.2,15.2,0,0,1-1.88-.36,2.44,2.44,0,0,1-1.57-1A9.67,9.67,0,0,1,45.7,73c-.06-.63-.08-1.27-.08-1.91a3.84,3.84,0,0,1,.31-1.89,9.72,9.72,0,0,1,1.29-1.42,1.4,1.4,0,0,0,.44-.79,2.23,2.23,0,0,0-.24-.88c-.54-1.15-1.22-2.24-1.85-3.35A14.5,14.5,0,0,1,44.69,61a3.75,3.75,0,0,1,.08-1.94A27.86,27.86,0,0,1,46,55.41v.05a6.36,6.36,0,0,1,.44-2.27,2.69,2.69,0,0,1,.71-.94l.82-.79c1.12-1,2.29-2,3.49-2.92a41.58,41.58,0,0,1,7.73-4.8,43.93,43.93,0,0,1,8.64-2.91l1.13-.23a4.32,4.32,0,0,1,1.23-.1c.79.09,1.52.25,2.27.4,1.49.3,3,.64,4.43,1L81.24,43l1.1.29c.18.05.36.09.59.17a4.79,4.79,0,0,1,.56.29c.67.4,1.3.83,1.93,1.28l.47.36a4.77,4.77,0,0,1,.45.45l.75.87,1.46,1.73c1,1.15,1.94,2.32,2.93,3.44a5.85,5.85,0,0,0,.74.75l.88.69,1.79,1.4c.59.47,1.18.94,1.77,1.44.29.25.58.5.87.77a6,6,0,0,1,.42.44,1.2,1.2,0,0,1,.21.31,2.59,2.59,0,0,1,.14.42,36.14,36.14,0,0,1,.14,4.62c0,1.52-.09,3-.18,4.55s-.19,3-.34,4.54c-.08.75-.17,1.51-.29,2.27-.07.38-.13.76-.23,1.15a2.92,2.92,0,0,1-.53,1.16A67.69,67.69,0,0,1,90.8,83.2a18.41,18.41,0,0,1-3.58,2.87c-1.28.8-2.59,1.57-3.89,2.34-2.63,1.49-5.16,3.12-7.76,4.68s-5.16,3.14-7.87,4.51a3.16,3.16,0,0,1-1.11.37,7.31,7.31,0,0,1-1.14-.1,9.32,9.32,0,0,1-2.19-.64,5.85,5.85,0,0,1-1.78-1.42L59.9,94.18c-2.07-2.2-4.11-4.43-6-6.75-.24-.29-.47-.59-.7-.89a1.83,1.83,0,0,1-.5-1A9.48,9.48,0,0,1,53,83.29l.54-2.2c.08-.37.17-.73.22-1.11A2.09,2.09,0,0,0,53.73,78.87Zm0,0a2.2,2.2,0,0,1,0,1.11,10.55,10.55,0,0,1-.22,1.12L53,83.3a9.45,9.45,0,0,0-.32,2.23,1.92,1.92,0,0,0,.5,1c.23.3.47.59.71.88,2,2.31,4,4.52,6.09,6.71l1.59,1.61a5.77,5.77,0,0,0,1.74,1.38,8.56,8.56,0,0,0,2.16.6,6.91,6.91,0,0,0,1.11.08,3.2,3.2,0,0,0,1-.36c2.66-1.41,5.21-3,7.77-4.64S80.46,89.5,83.06,88s5.24-3,7.26-5.25A67.87,67.87,0,0,0,96.2,75.9a1.69,1.69,0,0,0,.24-.42,2.84,2.84,0,0,0,.14-.46,9,9,0,0,0,.2-1.08c.12-.73.2-1.47.27-2.22.14-1.5.24-3,.31-4.5s.13-3,.14-4.51a33.89,33.89,0,0,0-.14-4.43c0-.13-.24-.4-.5-.65s-.55-.49-.83-.73c-.57-.47-1.16-.94-1.75-1.4l-1.79-1.39-.9-.72a6.75,6.75,0,0,1-.84-.86c-1-1.15-2-2.32-2.93-3.48l-1.45-1.74-.72-.85a3,3,0,0,0-.35-.36l-.43-.33c-.59-.43-1.22-.86-1.84-1.24a2.57,2.57,0,0,0-.93-.38L81,43.86l-4.38-1.13c-1.47-.36-2.93-.71-4.4-1-.73-.16-1.47-.33-2.18-.42a3.33,3.33,0,0,0-1,.07c-.37.06-.74.13-1.1.21a42.82,42.82,0,0,0-8.56,2.71,41.88,41.88,0,0,0-7.71,4.62c-1.21.9-2.39,1.84-3.51,2.84-.28.25-.56.5-.83.76a2.51,2.51,0,0,0-.66.84,6.2,6.2,0,0,0-.44,2.15v.05A26.84,26.84,0,0,0,45,59.12,3.59,3.59,0,0,0,44.86,61a13.48,13.48,0,0,0,.85,1.7c.61,1.11,1.29,2.2,1.82,3.37a2.12,2.12,0,0,1,.25.94,1.5,1.5,0,0,1-.47.85A9.44,9.44,0,0,0,46,69.21a3.79,3.79,0,0,0-.31,1.84c0,.64,0,1.27.06,1.91a10,10,0,0,0,.86,3.69,2.4,2.4,0,0,0,1.54,1A14.75,14.75,0,0,0,50,78l1.9.25c.32,0,.63.1.94.17A1.48,1.48,0,0,1,53.73,78.87Z"/><path d="M65.68,96.86c-.05-2-.07-4.1-.17-6.13,0-.25,0-.51-.05-.75a2.18,2.18,0,0,0-.18-.65A12,12,0,0,0,64.56,88c-.54-.85-1.15-1.67-1.69-2.57-.13-.22-.27-.45-.39-.7a2.3,2.3,0,0,1-.16-.42,1.09,1.09,0,0,1,0-.3.61.61,0,0,1,.22-.48,1,1,0,0,1,.69-.12,3.75,3.75,0,0,1,.43.12,5.78,5.78,0,0,1,.76.32A17.1,17.1,0,0,1,67,85.56a4.42,4.42,0,0,1,1.17,1.22c.27.47.48.93.71,1.39.46.92.9,1.84,1.42,2.68a3.65,3.65,0,0,0,.39.56l.07.06s-.13,0-.08,0L71,91.4c.48-.12,1-.27,1.44-.44a21,21,0,0,0,2.8-1.12,2.27,2.27,0,0,0,.28-.18.51.51,0,0,0,.14-.21,3.56,3.56,0,0,0,.16-.68,9.37,9.37,0,0,0,.07-1.5,6.77,6.77,0,0,0-.61-2.9c-.92-1.82-2-3.57-3.06-5.31-.27-.46-.55-.84-.8-1.35a4.37,4.37,0,0,1-.25-1.59,8.77,8.77,0,0,1,.54-3.1,26.46,26.46,0,0,1,1.41-2.76,2.24,2.24,0,0,0,.27-.61c0-.24.09-.49.12-.73a10.73,10.73,0,0,0,.14-1.48,2.38,2.38,0,0,0-.22-1.23s-.13-.15-.21-.23L73,65.71l-.55-.53c-.38-.38-.7-.67-1.13-1.12s-.57-.91-.85-1.36a13.07,13.07,0,0,0-.8-1.23.84.84,0,0,0-.18-.19s0,0,0,0l-.12,0a4.84,4.84,0,0,0-.69-.08,21.42,21.42,0,0,0-3,.12l-.72.1h-.07l-.07,0-.23.19a11.89,11.89,0,0,0-.94,1.11c-.61.8-1.19,1.64-1.78,2.48a26.69,26.69,0,0,1-1.92,2.48,2.55,2.55,0,0,1-.75.6.75.75,0,0,1-.48.07,1.56,1.56,0,0,1-.27-.08L58,68.12a15.29,15.29,0,0,1-1.4-.71A18.44,18.44,0,0,1,54,65.69a5,5,0,0,1-.61-.61,2.54,2.54,0,0,1-.37-.84,10,10,0,0,1-.27-1.58c-.1-1-.1-2.08-.18-3.07a2.59,2.59,0,0,0-.12-.67,5.48,5.48,0,0,0-.33-.63c-.27-.42-.56-.84-.86-1.25l-.93-1.21-.48-.59a1.2,1.2,0,0,0-.51-.45,6.62,6.62,0,0,0-3,0l0-.09a11,11,0,0,1,1.52-.29,4,4,0,0,1,1.58.07,1.23,1.23,0,0,1,.39.21c.12.1.19.19.29.28l.53.57c.34.38.67.78,1,1.17s.64.81.94,1.25a4,4,0,0,1,.42.71,3.37,3.37,0,0,1,.2.82c.13,1.05.18,2.06.31,3.06A8,8,0,0,0,53.78,64a1.83,1.83,0,0,0,.26.56,3,3,0,0,0,.48.45,17.15,17.15,0,0,0,2.55,1.55c.45.23.9.45,1.35.65l.33.13s.16.06.1,0-.1,0-.11,0a2.1,2.1,0,0,0,.42-.38A24.93,24.93,0,0,0,61,64.61c.59-.84,1.17-1.68,1.8-2.52a10.45,10.45,0,0,1,1-1.23,2.2,2.2,0,0,1,.36-.3,1.27,1.27,0,0,1,.26-.15l.19-.06.11,0c.28,0,.54-.07.8-.1a22,22,0,0,1,3.15-.07,6.69,6.69,0,0,1,.84.11l.24.07a1.24,1.24,0,0,1,.3.17,1.84,1.84,0,0,1,.34.37,12.67,12.67,0,0,1,.86,1.35c.25.43.51.91.75,1.26l1,1.06.54.56.27.27a3,3,0,0,1,.3.34,3.08,3.08,0,0,1,.32,1.74A10.33,10.33,0,0,1,74.28,69a7.82,7.82,0,0,1-.17.78,1.88,1.88,0,0,1-.16.43l-.2.35a25,25,0,0,0-1.51,2.63,8.59,8.59,0,0,0-.61,2.9,4,4,0,0,0,.16,1.44c.2.41.51.87.76,1.3,1,1.77,2.08,3.53,3.07,5.34a7.32,7.32,0,0,1,.71,3,9.15,9.15,0,0,1,0,1.57,3.49,3.49,0,0,1-.16.82,1.24,1.24,0,0,1-.26.43,2.6,2.6,0,0,1-.36.25,20.09,20.09,0,0,1-2.84,1.3c-.48.19-1,.37-1.47.53l-.43.1a.77.77,0,0,1-.44-.1,1.42,1.42,0,0,1-.22-.18,4.2,4.2,0,0,1-.52-.67c-.57-.91-1-1.83-1.5-2.74-.23-.45-.46-.92-.7-1.33a4.14,4.14,0,0,0-1-1A15,15,0,0,0,64,84.61a4.82,4.82,0,0,0-.66-.3l-.3-.09h-.1s0,0,0,0c.15-.19.05-.15.1-.06a1.53,1.53,0,0,0,.11.29c.1.22.22.43.34.65.52.86,1.08,1.72,1.59,2.63a9.74,9.74,0,0,1,.7,1.41,2.59,2.59,0,0,1,.2.83c0,.27,0,.53,0,.78,0,2.07-.12,4.11-.26,6.16Z"/><path d="M73.79,42.05c-1.75,1.37-3.52,2.7-5.28,4.05l-5.33,4A62.45,62.45,0,0,1,57.79,54a36.85,36.85,0,0,1-6,3l-.12-.17a36.94,36.94,0,0,1,5-4.47,64,64,0,0,1,5.61-3.56L68,45.28c1.91-1.13,3.8-2.29,5.72-3.4Z"/><path d="M76.8,43.94,69.3,52c-1.21,1.34-2.38,2.85-3.52,4-.06.11-.16.12-.21.29a4.06,4.06,0,0,0-.16.52,10.73,10.73,0,0,0-.23,1.25c-.12.88-.21,1.8-.35,2.74l-.2,0a10.4,10.4,0,0,1-.86-2.74,8.09,8.09,0,0,1-.11-1.5,3.15,3.15,0,0,1,.51-1.76,23,23,0,0,1,4-4c1.38-1.22,2.78-2.42,4.18-3.62s2.84-2.34,4.3-3.47Z"/><path d="M93.81,55.92c-1.08,1.85-2.23,3.65-3.42,5.45-.61.88-1.22,1.76-1.89,2.63a11.93,11.93,0,0,1-1.14,1.28,8.56,8.56,0,0,1-1.46,1,39.53,39.53,0,0,1-5.78,2.9,31.15,31.15,0,0,1-6.25,1.69l-.08-.19a37.06,37.06,0,0,1,5.53-3.33c1.88-1,4-1.62,5.84-2.49a7.1,7.1,0,0,0,1.27-.68,11.17,11.17,0,0,0,1.08-1c.72-.76,1.4-1.57,2.08-2.39,1.39-1.61,2.72-3.29,4.06-4.95Z"/><path d="M94.82,56.92c-1.06,2-2.17,4-3.27,6l-1.71,3L89,67.38c-.15.25-.29.49-.48.76a6.9,6.9,0,0,1-.59.73,31,31,0,0,1-5,4.85,8.78,8.78,0,0,1-.79.49,4.36,4.36,0,0,1-.44.24l-.24.11-.32.11a4.08,4.08,0,0,1-1,.09,8.88,8.88,0,0,1-.91-.06A16.15,16.15,0,0,1,75.72,74l0-.19c1.15-.21,2.29-.33,3.39-.48l.8-.13a1.84,1.84,0,0,0,.64-.18,10.15,10.15,0,0,0,1.1-.84c1.61-1.46,3.44-2.85,5.06-4.38a17.57,17.57,0,0,0,2-2.56l2-2.8,4-5.59Z"/><path d="M48.73,73.87a2.28,2.28,0,0,1,.09-1.1c.09-.36.21-.71.33-1.07.24-.7.51-1.39.77-2.09a19.31,19.31,0,0,0,.7-2.11,3.42,3.42,0,0,0-.38-2.13c-.27-.69-.57-1.36-.88-2l-.47-1a4.38,4.38,0,0,1-.4-1,11.93,11.93,0,0,1-.28-2.22,8.33,8.33,0,0,1,0-1.12,1.9,1.9,0,0,1,.39-1.08.47.47,0,0,1,.59,0,1.75,1.75,0,0,1,.45.35,7.38,7.38,0,0,1,.72.87A14.43,14.43,0,0,1,51.53,60a3.32,3.32,0,0,1,.35,1.09,10.69,10.69,0,0,1,0,1.13l-.07,2.23a14.49,14.49,0,0,0,0,2.19c0,.3.35.42.66.6s.67.29,1,.43l2.09.77a8.87,8.87,0,0,1,2.08,1,.85.85,0,0,1,.25.32A.54.54,0,0,1,58,70a.58.58,0,0,1,0,.19,1.38,1.38,0,0,1-.3.59,6,6,0,0,0-.65.81.39.39,0,0,0,0,.33,2.33,2.33,0,0,0,.26.41A4.72,4.72,0,0,0,58,73c.5.44,1.25.85,1.58.52a2.92,2.92,0,0,0,.72-1.8,9.45,9.45,0,0,0,.08-1.07v-.81c0-.11,0-.22,0-.33A8.81,8.81,0,0,1,61,67.31a20.39,20.39,0,0,1,1-2.06c.1-.16.19-.33.3-.5l.09-.13.17-.17a1.57,1.57,0,0,1,.34-.2A4.71,4.71,0,0,1,64.1,64a13.74,13.74,0,0,1,2.31,0,7.22,7.22,0,0,1,2.34.45,5.81,5.81,0,0,1,.53.33l.46.31a4.6,4.6,0,0,1,.94.8,2.46,2.46,0,0,1,.36.58,1.75,1.75,0,0,1,.12.32,1.92,1.92,0,0,1,0,.41A5.15,5.15,0,0,1,71,68.33c-.46,1.46-1.1,2.82-1.61,4.18a3,3,0,0,0-.13.45,4.34,4.34,0,0,0-.07.52,9.42,9.42,0,0,0-.06,1.06,6.79,6.79,0,0,0,.09,1,3,3,0,0,0,.13.45c.06.16.13.32.21.49.58,1.34,1.24,2.67,1.9,4,.33.66.67,1.32,1,2,.17.32.35.64.54.94l.13.2c.06.09.13.18.18.27a3.66,3.66,0,0,1,.28.56,10.89,10.89,0,0,1,.58,2.24,1.24,1.24,0,0,0,.14.41.76.76,0,0,1,.08.39,1.15,1.15,0,0,1-.07.25l-.13.28a1.86,1.86,0,0,1-1,1,7.36,7.36,0,0,1-1.14.32l-.13,0a1.11,1.11,0,0,1-.32,0,1,1,0,0,1-.42-.19,3,3,0,0,1-.48-.45,15.35,15.35,0,0,1-1.31-1.9l-.56-1a4.26,4.26,0,0,0-.53-.84,13.76,13.76,0,0,0-1.73-1.26c-.62-.39-1.25-.77-1.89-1.1a4.73,4.73,0,0,0-.89-.36A6.55,6.55,0,0,1,62.57,82c-.71-.18-1.34-.29-1.74.25a4.33,4.33,0,0,0-.67.79,1.28,1.28,0,0,0-.12.87c.09.55.77,1,1.36,1.4l.46.34a2,2,0,0,1,.43.45,5.7,5.7,0,0,1,.59,1,18,18,0,0,1,.86,2.09,8.51,8.51,0,0,1,.45,2.22,5.84,5.84,0,0,1-.08,2.31.63.63,0,0,1-.25.3.34.34,0,0,1-.26,0L63.43,94a3.08,3.08,0,0,1-.47-.37c-.28-.27-.53-.54-.78-.82-1-1.12-1.9-2.29-2.8-3.48q-.68-.89-1.32-1.8a6.26,6.26,0,0,1-1-2,9.58,9.58,0,0,1-.31-1.08,2.52,2.52,0,0,1-.08-.56,3.28,3.28,0,0,1,.08-.56c.15-.73.34-1.45.51-2.17a13.74,13.74,0,0,0,.42-2.18,4.66,4.66,0,0,0-.87-2,3.59,3.59,0,0,0-.72-.83,2.11,2.11,0,0,0-1-.38l-2.18-.44c-.72-.16-1.45-.32-2.17-.52a10.85,10.85,0,0,1-1.06-.34A2,2,0,0,1,48.73,73.87Zm0,0a2,2,0,0,0,.94.56,7.66,7.66,0,0,0,1.06.33c.72.2,1.44.35,2.17.5l2.19.43a2.06,2.06,0,0,1,1,.38,3.9,3.9,0,0,1,.74.83,4.88,4.88,0,0,1,.91,2,14.71,14.71,0,0,1-.41,2.2c-.17.72-.35,1.45-.5,2.17a3.48,3.48,0,0,0-.07.54,2.52,2.52,0,0,0,.08.53c.09.36.2.71.32,1.06a12.1,12.1,0,0,0,2.36,3.72c.92,1.16,1.85,2.31,2.85,3.4.26.27.51.53.78.78a3.68,3.68,0,0,0,.41.31l.08,0s0,0,0,0,.06-.07.09-.13a6,6,0,0,0,0-2.11,8.38,8.38,0,0,0-.48-2.12,17.16,17.16,0,0,0-.87-2,6.32,6.32,0,0,0-.56-.91,1.82,1.82,0,0,0-.34-.34l-.45-.32a10.22,10.22,0,0,1-.93-.67,1.83,1.83,0,0,1-.54-2.35,4.8,4.8,0,0,1,.74-.93,2,2,0,0,1,.5-.43,1.65,1.65,0,0,1,.67-.19,3.84,3.84,0,0,1,1.2.14,6.74,6.74,0,0,0,1,.2,4,4,0,0,1,1.19.41c.69.33,1.34.71,2,1.1a14,14,0,0,1,1.88,1.32,1.44,1.44,0,0,1,.26.28l.15.25.28.49.57,1a14.4,14.4,0,0,0,1.22,1.76,2.3,2.3,0,0,0,.33.31l.07,0s-.09,0,0,0l.14,0a7.12,7.12,0,0,0,1-.28,1,1,0,0,0,.57-.52l.1-.22s0-.06,0,0,0,.16,0,.12a2.21,2.21,0,0,1-.22-.64,10.52,10.52,0,0,0-.55-2.06,2.18,2.18,0,0,0-.22-.43,1.27,1.27,0,0,0-.13-.19l-.18-.26c-.2-.34-.39-.66-.57-1-.37-.66-.72-1.32-1.06-2-.68-1.33-1.35-2.65-2-4-.08-.17-.15-.35-.22-.53a3.68,3.68,0,0,1-.17-.63,8.07,8.07,0,0,1-.1-1.19c0-.39,0-.78.07-1.17,0-.19,0-.38.08-.58s.13-.43.19-.61c.55-1.42,1.18-2.75,1.63-4.12a4.48,4.48,0,0,0,.22-1,.66.66,0,0,0,0-.14,1.59,1.59,0,0,0-.07-.2,2.06,2.06,0,0,0-.23-.37,4,4,0,0,0-.75-.64l-.46-.31a2.77,2.77,0,0,0-.41-.27,6.78,6.78,0,0,0-2-.38,11.85,11.85,0,0,0-2.15,0,4.27,4.27,0,0,0-1,.2s-.15.06-.14.08l0,0-.07.1c-.09.13-.19.29-.28.44a18.63,18.63,0,0,0-1,2,8.36,8.36,0,0,0-.64,2v1.09a9.08,9.08,0,0,1-.1,1.15,3.53,3.53,0,0,1-1,2.2,1.07,1.07,0,0,1-.7.25,1.69,1.69,0,0,1-.66-.15,4,4,0,0,1-1-.67,6,6,0,0,1-.79-.87,3.06,3.06,0,0,1-.31-.54.93.93,0,0,1,0-.75,5.08,5.08,0,0,1,.74-.92.86.86,0,0,0,.21-.38c0-.17,0-.12-.08-.25a8.56,8.56,0,0,0-1.92-.93L53.38,68c-.34-.14-.69-.29-1-.46a2.94,2.94,0,0,1-.5-.31.91.91,0,0,1-.24-.24,1.41,1.41,0,0,1-.11-.33,15.46,15.46,0,0,1,0-2.26l.12-2.23c0-.37,0-.74,0-1.1a3.32,3.32,0,0,0-.31-1,14,14,0,0,0-1.08-1.93,5.59,5.59,0,0,0-.68-.86c-.23-.23-.6-.56-.83-.32a1.79,1.79,0,0,0-.35,1,6.75,6.75,0,0,0,0,1.1,10.84,10.84,0,0,0,.26,2.2,4.41,4.41,0,0,0,.38,1l.46,1c.31.68.6,1.36.87,2.06a10.11,10.11,0,0,1,.35,1.06,1.83,1.83,0,0,1,0,1.11A20.24,20.24,0,0,1,50,69.63c-.26.69-.53,1.38-.78,2.08-.12.35-.25.7-.34,1.06A2.17,2.17,0,0,0,48.73,73.87Z"/><path d="M85.74,45.82a17.27,17.27,0,0,0,3.18.39,3.22,3.22,0,0,0,1.5-.28,2.67,2.67,0,0,0,1-1.06c1.08-1.82.66-4.06.63-6.19s-.22-4.31-.41-6.44A23.49,23.49,0,0,0,90,26.13a74.62,74.62,0,0,0-5.79-11.46c-2.28-3.61-4.68-7.3-8-10l0,0,0,0c-.12-.22-.62-.25-1-.26s-.81,0-1.23,0a2.35,2.35,0,0,1-.35,0,.24.24,0,0,1-.13-.06A.21.21,0,0,1,73.47,4a.36.36,0,0,1,.16-.21.28.28,0,0,1,.27-.06c.1,0,.14.07.21.11a1.37,1.37,0,0,1,.21.3,2.88,2.88,0,0,1,.24,1.29,1.44,1.44,0,0,1-.2.67.79.79,0,0,1-.66.36,1.89,1.89,0,0,1-1.22-.54,7.49,7.49,0,0,1-1.49-2,4.21,4.21,0,0,1-.29-.6,1.68,1.68,0,0,1,0-.7,3.5,3.5,0,0,1,.43-1.25,2.93,2.93,0,0,1,.88-1A2.8,2.8,0,0,1,73.29,0a5.24,5.24,0,0,1,2.54.59,4.43,4.43,0,0,1,1,.82l.86.9Q81,6,84.16,9.8c1,1.28,2.08,2.56,3.06,3.9.25.33.49.67.73,1a7.49,7.49,0,0,1,.62,1.14l1,2.26q2,4.53,3.84,9.08l.93,2.29a17.31,17.31,0,0,1,.84,2.4,38.42,38.42,0,0,1,.51,5c.09,1.64.13,3.29.11,5a16,16,0,0,1-.19,2.53,13.13,13.13,0,0,1-1.07,2.3c-.39.72-.8,1.43-1.14,2.16a4.87,4.87,0,0,0-.4,1.1A1.93,1.93,0,0,0,93.22,51c.6,1.51,1.36,3,2.11,4.43l-.08,0a49,49,0,0,1-2.36-4.34,2.32,2.32,0,0,1-.31-1.28A4.77,4.77,0,0,1,93,48.62c.33-.77.71-1.5,1.08-2.24A12.08,12.08,0,0,0,95,44.19a16.69,16.69,0,0,0,.09-2.38c0-1.62-.1-3.26-.22-4.89a39.5,39.5,0,0,0-.61-4.81,19.86,19.86,0,0,0-.82-2.24l-.94-2.27c-1.26-3-2.56-6-3.87-9l-1-2.26a6.16,6.16,0,0,0-.54-1c-.21-.33-.44-.66-.68-1-1-1.32-2-2.61-3-3.89-2-2.56-4.11-5.11-6.26-7.57A7.82,7.82,0,0,0,75.5,1.18,4.55,4.55,0,0,0,73.3.59a2.24,2.24,0,0,0-1,.21,2.52,2.52,0,0,0-.71.82,3,3,0,0,0-.41,1,1.44,1.44,0,0,0,.25,1,7,7,0,0,0,1.35,2,1.5,1.5,0,0,0,1,.46c.32,0,.49-.31.51-.7A2.48,2.48,0,0,0,74,4.31a.85.85,0,0,0-.14-.21c-.06,0,0,0-.06,0s0,0,0,0,0-.1,0-.1h0A1.1,1.1,0,0,0,74,4c.4,0,.81,0,1.23,0a2.83,2.83,0,0,1,.64.06.83.83,0,0,1,.63.37l0-.06A27,27,0,0,1,81,9.09c1.36,1.68,2.61,3.45,3.82,5.25a61.17,61.17,0,0,1,6.1,11.47,24.62,24.62,0,0,1,1.59,6.36c.15,2.17.25,4.32.28,6.48,0,1.09,0,2.16,0,3.26a6.29,6.29,0,0,1-.9,3.2,3,3,0,0,1-1.26,1.16,3.43,3.43,0,0,1-1.66.24,15,15,0,0,1-3.2-.6Z"/><ellipse class="b" cx="62.35" cy="77.97" rx="1.5" ry="0.5"/><ellipse class="b" cx="63.73" cy="73.09" rx="1.5" ry="0.5"/><ellipse class="b" cx="68.35" cy="81.61" rx="1.5" ry="0.5"/><ellipse class="b" cx="65.65" cy="69.67" rx="1.5" ry="0.5"/><path d="M31.76,27.53a6.77,6.77,0,0,0,.67,1,3.13,3.13,0,0,0,.39.42.62.62,0,0,0,.43.21h0a6.24,6.24,0,0,0,4-1.33,7.82,7.82,0,0,0,1.55-1.43,3.3,3.3,0,0,0,.78-1.82,23.44,23.44,0,0,0,.24-4.28,18.15,18.15,0,0,0-.19-2.12,3.42,3.42,0,0,0-.26-.94l-.22-.51c-.07-.16-.15-.37-.18-.42s.13.1.09.07l-.23,0-.56-.08-1.08-.15c-.72-.09-1.44-.18-2.15-.21a6.94,6.94,0,0,0-1,0,2.42,2.42,0,0,0-.85.3,4.88,4.88,0,0,0-1.49,1.31,7.91,7.91,0,0,0-1.5,3.82,2.89,2.89,0,0,0,0,1c.05.2,0,.16.11.22a1.08,1.08,0,0,0,.41.07,7.2,7.2,0,0,0,2.06-.36l.31-.09,0,.3.17,3.25v.05l0,0Zm0,0,1.32-1.89,0,.08-.44-3.22.33.21a7.72,7.72,0,0,1-2.23.51,1.66,1.66,0,0,1-.66-.11.87.87,0,0,1-.5-.63,4.08,4.08,0,0,1-.12-1.19A8.13,8.13,0,0,1,31,17a5.6,5.6,0,0,1,1.75-1.6,3.22,3.22,0,0,1,1.21-.43,9.23,9.23,0,0,1,1.17,0c.75,0,1.49.11,2.23.2l1.09.16.52.07a2.31,2.31,0,0,1,.32,0,.85.85,0,0,1,.54.36,5.27,5.27,0,0,1,.27.58l.21.5A4.72,4.72,0,0,1,40.57,18a14.4,14.4,0,0,1,.16,2.26,20.38,20.38,0,0,1-.39,4.46A5.6,5.6,0,0,1,40,25.84a3.71,3.71,0,0,1-.68,1,8.93,8.93,0,0,1-1.74,1.46,6.28,6.28,0,0,1-4.3,1.09h0a.81.81,0,0,1-.6-.3,3.41,3.41,0,0,1-.37-.48A7.16,7.16,0,0,1,31.76,27.53Z"/><path d="M33,22.88a9.64,9.64,0,0,1-2,1,2.67,2.67,0,0,1-1.18.17.74.74,0,0,1-.57-.42,3.83,3.83,0,0,1-.14-.6A9.3,9.3,0,0,0,28.38,21c-.31-.62-.75-1.31-1.27-1.36a5.68,5.68,0,0,0-2.06.21,3.66,3.66,0,0,0-1.76.83,9.11,9.11,0,0,0-1,1.86,20.36,20.36,0,0,0-.77,2.08c-.07.19-.18.43-.18.46s0,.05.08.21a8.23,8.23,0,0,0,.54.88,8.68,8.68,0,0,0,1.59,1.37,41.81,41.81,0,0,0,3.76,2.38c.66.35,1.31.7,2,1a6.28,6.28,0,0,0,1,.36,3.64,3.64,0,0,0,1,.05l.12,0s0,0,0,0a4.91,4.91,0,0,0-.17-1.56,20.92,20.92,0,0,0-.71-2.11l-.06-.13.11-.07c.87-.57,1.74-1.14,2.62-1.69-.8.67-1.61,1.31-2.43,2l.05-.2a17,17,0,0,1,.92,2.09A4.53,4.53,0,0,1,32,30.72a3.83,3.83,0,0,1,0,.62.63.63,0,0,1-.21.45.86.86,0,0,1-.4.18,3.75,3.75,0,0,1-1.25,0A6.2,6.2,0,0,1,29,31.64c-.72-.28-1.41-.61-2.09-.95A34.69,34.69,0,0,1,23,28.33a9.27,9.27,0,0,1-1.82-1.56,8,8,0,0,1-.64-1,1.33,1.33,0,0,1-.16-.87,4.28,4.28,0,0,1,.23-.59,19.26,19.26,0,0,1,.81-2.13,9,9,0,0,1,1.19-2.06,2.68,2.68,0,0,1,1.12-.72A7,7,0,0,1,24.85,19a6.21,6.21,0,0,1,2.4-.1,1.84,1.84,0,0,1,1.1.77,5.46,5.46,0,0,1,.57,1.06A8.43,8.43,0,0,1,29.51,23c0,.44,0,.68.34.75a2.3,2.3,0,0,0,1-.07A12.66,12.66,0,0,0,33,22.88Z"/><path d="M34.89,15.5c0-.83,0-1.67-.09-2.49a5.53,5.53,0,0,0-.6-2.31,31.08,31.08,0,0,0-2.83-4,13.78,13.78,0,0,0-3.45-3.3C26.46,2.62,25,1.48,23.76,2.08a3.09,3.09,0,0,0-1.35,1.61A9.31,9.31,0,0,0,21.7,6a46.6,46.6,0,0,0-.7,4.88c-.08.82-.13,1.64-.13,2.45a7.86,7.86,0,0,0,.31,2.38,29.9,29.9,0,0,0,1.88,4.59,25,25,0,0,1-2.34-4.43,7.82,7.82,0,0,1-.48-2.52c0-.84,0-1.68,0-2.52a35.22,35.22,0,0,1,.55-5,9.86,9.86,0,0,1,.74-2.49,4,4,0,0,1,1.82-2.11,3.37,3.37,0,0,1,2.82.16c.8.38,1.5.81,2.22,1.22a8.42,8.42,0,0,1,2,1.68,23,23,0,0,1,1.6,2,31.87,31.87,0,0,1,2.66,4.28A6,6,0,0,1,35.06,13,17.41,17.41,0,0,1,34.89,15.5Z"/><path d="M37,29a11.18,11.18,0,0,1,2.46,1,4.17,4.17,0,0,1,2,1.92,12.62,12.62,0,0,1,0,5.4,9.78,9.78,0,0,1-.87,2.61c-.38.81-.8,1.61-1.26,2.38a16,16,0,0,1-1.59,2.23,3.62,3.62,0,0,1-1.2,1,6,6,0,0,1-1.41.34,8.23,8.23,0,0,1-2.8-.19l-.68-.19a4.17,4.17,0,0,1-.68-.31,8.76,8.76,0,0,1-1.16-.79,16.28,16.28,0,0,1-3.53-4.11A19.32,19.32,0,0,1,25,37.84a9.27,9.27,0,0,1-.83-2.58,5.16,5.16,0,0,1,1.7-4.89,4.83,4.83,0,0,0-1.25,2.26,5.59,5.59,0,0,0,0,2.54,8.39,8.39,0,0,0,.92,2.39,18.62,18.62,0,0,0,1.35,2.23,17.19,17.19,0,0,0,3.48,3.78,7.41,7.41,0,0,0,1,.69,3,3,0,0,0,.52.23c.2.07.4.12.6.17a7.3,7.3,0,0,0,2.46.15,5.27,5.27,0,0,0,1.17-.27,2.66,2.66,0,0,0,.83-.7,15.58,15.58,0,0,0,1.51-2.06,25.36,25.36,0,0,0,1.28-2.27,10.07,10.07,0,0,0,.91-2.36A12.35,12.35,0,0,0,41,32a3.84,3.84,0,0,0-1.62-1.85A14.39,14.39,0,0,0,37,29Z"/><path d="M23.56,33.4a1,1,0,0,1-.8.37,1.84,1.84,0,0,1-.88-.26c-.51-.31-1-.56-1.58-.85A3.17,3.17,0,0,1,19,31.35a13.32,13.32,0,0,1-.64-1.72,4.53,4.53,0,0,0-.66-1.52,2.85,2.85,0,0,0-1.43-.74,6.74,6.74,0,0,0-3.38.25,29.49,29.49,0,0,0-3.29,1.29,9.16,9.16,0,0,0-2.79,2,24.16,24.16,0,0,0-4.27,5.56c-.28.55-.61,1.08-.91,1.59A4.13,4.13,0,0,0,1,39.47a.62.62,0,0,0,.16.45,1.06,1.06,0,0,0,.55.21,6.76,6.76,0,0,0,1.68,0c.58,0,1.16-.14,1.77-.21A11.38,11.38,0,0,1,7,39.84l3.6,0,1.8,0c.6,0,1.19,0,1.79-.07s1.19-.09,1.77-.16a5.13,5.13,0,0,0,1.66-.42c1.07-.49,2.14-1,3.18-1.63a14.68,14.68,0,0,0,1.5-1c.51-.3.46-1,.26-1.53l0-.07h.07l1.22,0-1.22.05.05-.07a2,2,0,0,1,.21.9,1,1,0,0,1-.42.84,13.4,13.4,0,0,1-1.47,1.07,29.51,29.51,0,0,1-3.13,1.84,5.74,5.74,0,0,1-1.79.52c-.6.1-1.21.17-1.81.23s-1.2.12-1.8.15l-1.8,0-3.6,0a10.19,10.19,0,0,0-1.76.08c-.58.08-1.18.17-1.79.24a7.6,7.6,0,0,1-1.91,0,1.8,1.8,0,0,1-1.08-.47A1.52,1.52,0,0,1,0,39.41a4.51,4.51,0,0,1,.75-1.86c.3-.53.6-1,.88-1.55a24.84,24.84,0,0,1,4.53-5.75,10,10,0,0,1,3.06-2.13,24.62,24.62,0,0,1,3.44-1.23,7.47,7.47,0,0,1,3.73-.12,3.51,3.51,0,0,1,1.69,1,4.61,4.61,0,0,1,.71,1.77,12.78,12.78,0,0,0,.52,1.69,2.73,2.73,0,0,0,1.12,1.24c.5.31,1,.61,1.53,1a1.69,1.69,0,0,0,.8.32A1,1,0,0,0,23.56,33.4Z"/><path d="M40.36,39.17c1.38-.06,2.77-.09,4.14-.22a18.76,18.76,0,0,0,2-.25A6.86,6.86,0,0,0,48.38,38a20.49,20.49,0,0,0,3.37-2.23l.35-.32c.12-.11.28-.27.42-.38.3-.24.63-.44.82-.61s.19-.23.18-.51a1.86,1.86,0,0,0-.26-.75A10.17,10.17,0,0,0,50.09,31a29.46,29.46,0,0,0-3.73-1.66,13.63,13.63,0,0,0-4-.76,33.57,33.57,0,0,0-4.14-.1,26.27,26.27,0,0,1,4.16-.39,14.31,14.31,0,0,1,4.2.51,23.82,23.82,0,0,1,3.93,1.56c.63.31,1.24.65,1.85,1a8.47,8.47,0,0,1,.9.63,3.79,3.79,0,0,1,.83.86,2.8,2.8,0,0,1,.4,1.2,1.59,1.59,0,0,1-.08.73,1.42,1.42,0,0,1-.44.61c-.33.28-.61.43-.85.63s-.22.19-.36.32l-.42.36a18.57,18.57,0,0,1-3.64,2.2,8.09,8.09,0,0,1-2.08.63,16.67,16.67,0,0,1-2.11.11C43.12,39.4,41.74,39.33,40.36,39.17Z"/><polyline class="a" points="24.88 30.47 23.06 28.85 21.64 30.16 21.54 32.8"/><path d="M22.55,36.54c-1.12.83-2.26,1.64-3.4,2.46s-2.27,1.63-3.42,2.42h0C13.51,43.2,11.31,45,9.06,46.79l0,0L3.29,53.15,3,52.35c1,.22,2,.46,3,.7l-.46.14,4.33-4.42c1.44-1.47,2.88-3,4.35-4.4l0,0h0c2.54-1.83,5.06-3.69,7.63-5.48h0a12.75,12.75,0,0,1,1.81-.59,4.25,4.25,0,0,1,.94-.12c.31,0,.69,0,.85.34a.87.87,0,0,0-.84-.26,4.77,4.77,0,0,0-.91.2,11.38,11.38,0,0,0-1.73.7l0,0c-2.42,2-4.89,3.91-7.34,5.85l0,0c-1.39,1.52-2.82,3-4.25,4.5L6.32,53.87l-.19.2L5.85,54c-1-.23-2-.46-3-.71L2,53.1l.57-.61,5.91-6.33,0,0,0,0c2.27-1.74,4.58-3.42,6.87-5.14h0c1.17-.76,2.37-1.49,3.55-2.23S21.35,37.26,22.55,36.54Z"/></svg>