<svg xmlns="http://www.w3.org/2000/svg" viewBox="0 0 99.22 116.92"><defs><style>.a,.b,.c{fill:none;stroke:#000;stroke-miterlimit:10;}.b{stroke-width:2px;}.c{stroke-width:1.5px;}</style></defs><title>chilli-thymeAsset 1</title><path d="M19.09,87.87a1.27,1.27,0,0,0,0-.66,5.82,5.82,0,0,0-.2-.68l-.46-1.36c-.31-.9-.63-1.81-.9-2.73A12.3,12.3,0,0,1,17,79.6a4.19,4.19,0,0,1,.22-1.45,6.22,6.22,0,0,1,.59-1.35,6.59,6.59,0,0,1,4.74-3.24,9.17,9.17,0,0,1,3,.16,16.41,16.41,0,0,1,2.81.82l.06,0,.07.06a9.54,9.54,0,0,0,2.37,1.68A1.58,1.58,0,0,0,32,76.5a8.55,8.55,0,0,0,1.31-.6,4.34,4.34,0,0,1,3.26-.35,6.82,6.82,0,0,1,4.67,4.19,6.49,6.49,0,0,1,.37,1.58,10.52,10.52,0,0,1,0,1.59A33.29,33.29,0,0,1,40.38,89h0v0a41.18,41.18,0,0,0-1.95,6,6.72,6.72,0,0,0-.18,1.53c0,.48.4.8.78,1.17.78.69,1.63,1.33,2.48,2,1.71,1.25,3.46,2.46,5.06,3.88a15.33,15.33,0,0,1,1.12,1.16,6.49,6.49,0,0,1,.46.7l.16.41a2.12,2.12,0,0,1,.06.43,5.8,5.8,0,0,1-1,3.1,27,27,0,0,1-4.13,4.93,4.26,4.26,0,0,1-1.59.69c-.53.13-1.07.22-1.6.3a26.73,26.73,0,0,1-3.22.18,21.92,21.92,0,0,1-3.23-.22,10.85,10.85,0,0,1-1.63-.36,4.05,4.05,0,0,1-.82-.39,2.61,2.61,0,0,1-.67-.65c-1.29-1.78-2.32-3.61-3.4-5.45S25,104.67,24,102.8l-.74-1.42-.36-.72-.18-.38,0-.12,0-.09a.69.69,0,0,1,0-.12c.05.17-.29-.46.69-.56a.61.61,0,0,1,.23.15.36.36,0,0,1,.07.1.5.5,0,0,1,.09.2,1.21,1.21,0,0,1,0,.25,2.85,2.85,0,0,1-.31,1c-.12.26-.25.5-.39.74a14,14,0,0,1-.89,1.37,14.9,14.9,0,0,1-2.16,2.49,5.24,5.24,0,0,1-.73.52,1.71,1.71,0,0,1-1.09.26,3.07,3.07,0,0,1-.89-.43c-.24-.15-.46-.31-.67-.47a59.11,59.11,0,0,1-4.88-4.16,40.59,40.59,0,0,1-4.44-4.63,2.64,2.64,0,0,1-.44-.8,2.52,2.52,0,0,1,0-.91,9.1,9.1,0,0,1,.45-1.59,24,24,0,0,1,1.33-2.92,24.52,24.52,0,0,1,1.66-2.73,4.2,4.2,0,0,1,1.12-1.19A3.12,3.12,0,0,1,13,86.4a16.24,16.24,0,0,1,3.1.72l1.52.48.76.22A1.34,1.34,0,0,0,19.09,87.87Zm.07.07c-.31.15-.56,0-.83,0s-.51-.14-.77-.21L16,87.26A16.42,16.42,0,0,0,13,86.6a2.91,2.91,0,0,0-1.5.19,4.14,4.14,0,0,0-1,1.15A25.53,25.53,0,0,0,8.94,90.7a22.73,22.73,0,0,0-1.18,2.91,8,8,0,0,0-.35,1.49,1.8,1.8,0,0,0,0,.66,2,2,0,0,0,.36.56,47.84,47.84,0,0,0,4.5,4.38c1.58,1.4,3.21,2.76,4.87,4,.21.15.42.31.63.43a3,3,0,0,0,.51.29.73.73,0,0,0,.42-.15,4.66,4.66,0,0,0,.56-.41,14,14,0,0,0,2-2.31c.29-.42.58-.85.83-1.29.13-.22.24-.44.35-.66a2.77,2.77,0,0,0,.2-.56.18.18,0,0,0,0,.06.25.25,0,0,0,.05.11l0,.06a.58.58,0,0,0,.2.12c1-.1.62-.71.68-.53v-.07h0l0,.06.16.34.35.7.73,1.4c1,1.87,2,3.73,3,5.57s2.08,3.7,3.26,5.37c.47.74,1.53.9,2.53,1.1a21.26,21.26,0,0,0,3.1.27,25,25,0,0,0,3.12-.12c.51-.06,1-.14,1.52-.25a3.62,3.62,0,0,0,1.33-.51,25.92,25.92,0,0,0,4.13-4.67,5.38,5.38,0,0,0,1-2.81,2.25,2.25,0,0,0-.56-1.32,11.37,11.37,0,0,0-1.07-1.13c-1.56-1.41-3.29-2.64-5-3.9-.85-.63-1.72-1.24-2.53-2a7.93,7.93,0,0,1-.58-.58c-.09-.11-.16-.26-.24-.38a3.39,3.39,0,0,1-.08-.44,7.18,7.18,0,0,1,.16-1.62,50.73,50.73,0,0,1,1.82-6.12v0a33.82,33.82,0,0,0,1-6,6,6,0,0,0-2-5.16,5.81,5.81,0,0,0-2.49-1.31,3.65,3.65,0,0,0-2.67.3,8.55,8.55,0,0,1-1.48.63,2,2,0,0,1-1,0,3.81,3.81,0,0,1-.81-.3,10.38,10.38,0,0,1-2.56-1.88l.12.08a12.61,12.61,0,0,0-5.4-1.14A6.17,6.17,0,0,0,18.05,77a5.83,5.83,0,0,0-.6,1.26,4,4,0,0,0-.27,1.36,10.69,10.69,0,0,0,.49,2.79c.25.92.55,1.83.86,2.74L19,86.49c.07.23.13.46.19.7S19.31,87.66,19.16,87.94Z"/><path class="a" d="M21.62,78.4c.54-.62,5.58-.34,6,0s.5,2.54,1,3,5.5.38,6,0,1.58-1.82,2-2,.86.38,1,1-3.46,12.42-4,13-1.78,1.14-2,2,1.46,3.42,2,4,4.54,3.46,5,4,.46,2.82,1,3,4.9,1.18,5,2-.54,1.38-1,2-6.1-.58-7-1-6-.26-7-1-3-8.62-3-9,.26-2.62,0-3-4.7-.22-5,0-2.34,3.82-3,4-3.5-.26-4-1-2.66-6.3-2-7,6,1.26,7,1,5.62-.3,6-1,.34-7.5,0-8a10.51,10.51,0,0,0-2-2c-.62-.42-2.86-1.3-3-2S21.08,79,21.62,78.4Z"/><path d="M10.66,87.43,6.45,92.79c-.17.22-.34.45-.47.66a2.34,2.34,0,0,0-.09.68c0,.56-.06,1.12-.06,1.68a15.19,15.19,0,0,0,0,1.66,4.72,4.72,0,0,0,.12.75,7.28,7.28,0,0,0,.32.72,57.39,57.39,0,0,0,3.29,5.86,1,1,0,0,0,.5.44,7.37,7.37,0,0,0,.75.33c.52.21,1.05.4,1.58.59,1.07.37,2.15.72,3.23,1h0a17.17,17.17,0,0,0,3,1.06,2.06,2.06,0,0,0,.73,0c.18,0,.25-.26.24-.5,0-.49-.21-1-.3-1.55a1.36,1.36,0,0,1,.07-.9,3.3,3.3,0,0,1,.6-.63,12.63,12.63,0,0,1,1.3-1,5.65,5.65,0,0,1,.72-.42,3.33,3.33,0,0,1,.42-.17l.13,0a.39.39,0,0,1,.25.07.9.9,0,0,1,.2.18,10.77,10.77,0,0,1,.93,1.38c1.1,1.86,2.06,3.78,3.06,5.67.25.46.5.94.76,1.38a1.39,1.39,0,0,0,.42.48,7.61,7.61,0,0,0,.62.45,28.13,28.13,0,0,0,2.73,1.58,6.52,6.52,0,0,0,1.36.59l1.55.37,1.55.35a10.24,10.24,0,0,0,1.47.23l3.14-.38c.53-.07,1-.13,1.57-.22l.76-.14.33-.1c.06,0,.1,0,.12-.07a1.2,1.2,0,0,0,.11-.53,4,4,0,0,1,.12-.9,1.37,1.37,0,0,1,.7-.85,2.56,2.56,0,0,1,.92-.22c1.11-.1,2.2.07,2.56-.85a8.25,8.25,0,0,0,.36-1.5,7.27,7.27,0,0,1,.22-.8,6.11,6.11,0,0,0,.17-.74,14.09,14.09,0,0,0,0-3.18l.1,0a14,14,0,0,1,.29,3.24,6.15,6.15,0,0,1-.12.83,6.41,6.41,0,0,0-.16.76,7.92,7.92,0,0,1-.3,1.64,1.9,1.9,0,0,1-.54.78,2,2,0,0,1-.86.4,15.19,15.19,0,0,1-1.63.21,2,2,0,0,0-.63.16.58.58,0,0,0-.27.38,3.37,3.37,0,0,0-.06.7,1.83,1.83,0,0,1-.24,1,1.11,1.11,0,0,1-.51.41c-.16,0-.31.11-.44.14-.28.08-.55.13-.82.19-.53.1-1.07.2-1.6.28-1.09.15-2.09.27-3.24.41a10.06,10.06,0,0,1-1.71-.24l-1.59-.34c-.53-.12-1.05-.24-1.57-.38a8,8,0,0,1-1.58-.7,30.63,30.63,0,0,1-2.79-1.71c-.23-.16-.45-.32-.68-.51a2.25,2.25,0,0,1-.61-.73c-.28-.49-.51-1-.75-1.46-1-1.93-1.83-3.88-2.8-5.77a10.07,10.07,0,0,0-.79-1.34l-.09-.09s0,0,.07,0h-.07a1.6,1.6,0,0,0-.33.11,5.64,5.64,0,0,0-.69.36,10.73,10.73,0,0,0-1.3.9,3.22,3.22,0,0,0-.52.53,1,1,0,0,0,0,.67c.07.51.25,1,.28,1.6a.73.73,0,0,1-.48.79,2.06,2.06,0,0,1-.86,0,17.21,17.21,0,0,1-3.09-1h0c-1.11-.27-2.21-.55-3.31-.86-.55-.15-1.1-.32-1.64-.5-.28-.09-.55-.19-.83-.31a1.85,1.85,0,0,1-.8-.63,25.68,25.68,0,0,1-1.86-2.93c-.57-1-1.09-2-1.58-3a7.34,7.34,0,0,1-.34-.84,4.2,4.2,0,0,1-.14-.93c0-.6,0-1.17,0-1.75s0-1.15.12-1.72l.06-.44a1.17,1.17,0,0,1,.18-.54A7.93,7.93,0,0,1,6,92.4c1.48-1.75,3-3.4,4.62-5Z"/><path d="M41.67,80.4A13.59,13.59,0,0,1,42,84.55c-.07.69-.22,1.38-.26,2.07s0,1.4,0,2.11a10.47,10.47,0,0,1-.23,2.1A12.29,12.29,0,0,1,41,92.91a15.82,15.82,0,0,1-2.33,3.52l-.09-.05A33.47,33.47,0,0,1,40,92.5c.11-.25.19-.6.31-.92l.31-1,.6-1.95a9,9,0,0,0,0-4.1,13.87,13.87,0,0,1,.36-4.15Z"/><ellipse class="a" cx="30.12" cy="86.9" rx="1.5" ry="0.5"/><ellipse class="a" cx="33.24" cy="84.02" rx="1.5" ry="0.5"/><ellipse class="a" cx="31.12" cy="90.9" rx="1.5" ry="0.5"/><ellipse class="a" cx="28.12" cy="93.9" rx="1.5" ry="0.5"/><ellipse class="a" cx="17.56" cy="95.82" rx="1.5" ry="0.5"/><ellipse class="a" cx="30.12" cy="97.9" rx="1.5" ry="0.5"/><ellipse class="a" cx="31.08" cy="102.1" rx="1.5" ry="0.5"/><ellipse class="a" cx="35.64" cy="106.42" rx="1.5" ry="0.5"/><path d="M54,79.16a1.46,1.46,0,0,0-.85-.39c-.31-.08-.63-.12-.94-.17l-1.9-.24A13.58,13.58,0,0,1,48.43,78a2.39,2.39,0,0,1-1.57-1A9.71,9.71,0,0,1,46,73.26q-.09-1-.09-1.92a3.8,3.8,0,0,1,.31-1.9A8.77,8.77,0,0,1,47.47,68a1.38,1.38,0,0,0,.42-.77,2.09,2.09,0,0,0-.25-.86c-.54-1.14-1.22-2.22-1.86-3.33a14.69,14.69,0,0,1-.9-1.72,3.82,3.82,0,0,1,.06-2,26.19,26.19,0,0,1,1.16-3.68l0,.1a6.57,6.57,0,0,1,.42-2.34,2.16,2.16,0,0,1,.33-.56l.41-.43c.27-.28.55-.54.83-.8,1.11-1,2.28-2,3.48-3a41.59,41.59,0,0,1,7.73-4.9,44.44,44.44,0,0,1,8.69-3q.56-.14,1.14-.24l.59-.1a3,3,0,0,1,.74,0c.83.09,1.55.24,2.31.38,1.5.29,3,.62,4.46,1l4.42,1.07,1.1.28a5.85,5.85,0,0,1,.64.19,5.39,5.39,0,0,1,.64.32,22.35,22.35,0,0,1,2,1.3l.5.37a5.88,5.88,0,0,1,.5.5l.76.88,1.46,1.74c1,1.15,2,2.32,2.92,3.42l.37.4a2.31,2.31,0,0,0,.32.3l.87.68,1.79,1.4c.59.47,1.19,1,1.78,1.45.3.26.59.51.89.8a5.17,5.17,0,0,1,.46.47,2,2,0,0,1,.27.38,4.23,4.23,0,0,1,.19.57,16.43,16.43,0,0,1,.15,2.44c0,.77,0,1.53,0,2.29,0,1.53-.09,3-.19,4.57s-.21,3-.38,4.56c-.08.76-.17,1.52-.3,2.29a11.53,11.53,0,0,1-.25,1.19,3.3,3.3,0,0,1-.6,1.3,69,69,0,0,1-6.17,6.81c-.55.52-1.12,1.05-1.73,1.54a17,17,0,0,1-1.92,1.34c-1.3.8-2.61,1.55-3.92,2.31-2.64,1.47-5.18,3.07-7.8,4.61S70.75,96.64,68,98l-.53.23a1.72,1.72,0,0,1-.62.13,6.34,6.34,0,0,1-1.16-.11,9.07,9.07,0,0,1-2.21-.66,3,3,0,0,1-1-.65c-.29-.26-.55-.53-.82-.79l-1.57-1.64c-2-2.22-4.07-4.47-6-6.78-.24-.29-.47-.59-.7-.89a1.9,1.9,0,0,1-.5-1,9.48,9.48,0,0,1,.33-2.24l.54-2.2c.08-.37.17-.74.22-1.11A2.13,2.13,0,0,0,54,79.16Zm0,0a2.24,2.24,0,0,1,0,1.12c-.05.37-.13.74-.21,1.11l-.53,2.21A9.38,9.38,0,0,0,53,85.83a2,2,0,0,0,.5,1l.71.88c1.95,2.31,4,4.51,6.12,6.68l1.6,1.6a5.57,5.57,0,0,0,1.73,1.35,8.81,8.81,0,0,0,2.14.58,6.85,6.85,0,0,0,1.1.07,1.22,1.22,0,0,0,.47-.13l.5-.24c2.63-1.42,5.18-3.07,7.72-4.69S80.61,89.59,83.2,88c1.28-.8,2.56-1.6,3.8-2.43a14.84,14.84,0,0,0,1.76-1.3c.55-.48,1.07-1,1.6-1.53A70,70,0,0,0,96.13,76a1.14,1.14,0,0,0,.2-.37l0-.14.06-.25c.08-.31.13-.67.19-1,.1-.72.18-1.46.24-2.2.13-1.48.23-3,.29-4.48s.1-3,.12-4.49c0-.75,0-1.5,0-2.24a18.58,18.58,0,0,0-.13-2.09s0,0,0,0,0-.05,0-.08l-.33-.33c-.25-.23-.53-.47-.81-.71-.57-.47-1.15-.93-1.74-1.39L92.45,54.8l-.91-.73a4.37,4.37,0,0,1-.5-.47l-.4-.44c-1-1.17-2-2.33-2.93-3.5l-1.45-1.73-.71-.85a2.81,2.81,0,0,0-.3-.3l-.4-.31c-.58-.43-1.2-.86-1.79-1.22a2,2,0,0,0-.82-.34l-1.08-.3-4.37-1.15-4.37-1.08C71.7,42.22,71,42,70.27,42a1.19,1.19,0,0,0-.38,0l-.53.07-1.09.19a43.84,43.84,0,0,0-8.51,2.62,40.92,40.92,0,0,0-7.7,4.53c-1.21.89-2.39,1.81-3.52,2.8-.29.24-.56.49-.83.75a4.51,4.51,0,0,0-.38.37,1.8,1.8,0,0,0-.26.41,6,6,0,0,0-.44,2.09v0l0,0a26.49,26.49,0,0,0-1.25,3.57,3.55,3.55,0,0,0-.14,1.78A13.88,13.88,0,0,0,46,62.91c.61,1.11,1.27,2.21,1.81,3.38a2.35,2.35,0,0,1,.24,1,1.51,1.51,0,0,1-.49.87,9.33,9.33,0,0,0-1.29,1.39A3.72,3.72,0,0,0,46,71.35a15.08,15.08,0,0,0,.06,1.9,9.67,9.67,0,0,0,.85,3.69,2.32,2.32,0,0,0,1.54,1,13.18,13.18,0,0,0,1.87.38l1.9.26c.32,0,.63.1.94.17A1.47,1.47,0,0,1,54,79.16Z"/><path d="M66,97.16c0-2-.07-4.1-.17-6.13,0-.26,0-.51,0-.76a2.35,2.35,0,0,0-.18-.65,12.85,12.85,0,0,0-.72-1.3c-.54-.86-1.14-1.68-1.69-2.57-.13-.23-.26-.46-.39-.71a2,2,0,0,1-.16-.42,1,1,0,0,1-.05-.3.61.61,0,0,1,.22-.48,1,1,0,0,1,.69-.11,1.8,1.8,0,0,1,.43.12,5.78,5.78,0,0,1,.76.32,16.39,16.39,0,0,1,2.66,1.69,4.42,4.42,0,0,1,1.17,1.22c.27.47.49.93.72,1.39.45.91.89,1.84,1.41,2.68a4.09,4.09,0,0,0,.39.55l.07.07s-.13,0-.08,0l.32-.07c.48-.12,1-.28,1.44-.44a21,21,0,0,0,2.8-1.12,2.27,2.27,0,0,0,.28-.18.64.64,0,0,0,.14-.22,2.71,2.71,0,0,0,.16-.68,9.19,9.19,0,0,0,.07-1.49,6.78,6.78,0,0,0-.61-2.91c-.92-1.81-2-3.56-3.06-5.31-.27-.45-.55-.83-.8-1.34a4.41,4.41,0,0,1-.25-1.59,8.77,8.77,0,0,1,.54-3.1,23.87,23.87,0,0,1,1.42-2.76,2.42,2.42,0,0,0,.26-.62c0-.23.09-.48.12-.73A10.59,10.59,0,0,0,74,67.74a2.54,2.54,0,0,0-.21-1.24s-.14-.14-.22-.22L73.24,66l-.55-.54c-.38-.37-.7-.66-1.13-1.12S71,63.44,70.72,63a11.91,11.91,0,0,0-.81-1.23.74.74,0,0,0-.18-.2s0,0,0,0l-.12,0a4.88,4.88,0,0,0-.69-.07,20,20,0,0,0-3,.12,5.67,5.67,0,0,0-.72.1h-.07l-.07,0a1.92,1.92,0,0,0-.23.2,11.72,11.72,0,0,0-.94,1.1c-.61.8-1.19,1.64-1.78,2.48A25.53,25.53,0,0,1,60.17,68a2.72,2.72,0,0,1-.75.6.92.92,0,0,1-.48.07c-.19,0-.17-.06-.27-.08l-.38-.16a15.29,15.29,0,0,1-1.4-.71A18.35,18.35,0,0,1,54.25,66a4,4,0,0,1-.62-.62,2.5,2.5,0,0,1-.37-.83A10.17,10.17,0,0,1,53,63c-.1-1-.1-2.07-.18-3.06a2.59,2.59,0,0,0-.12-.67,5.48,5.48,0,0,0-.33-.63c-.27-.43-.56-.84-.86-1.25l-.93-1.21-.48-.59a1.17,1.17,0,0,0-.5-.45,6.53,6.53,0,0,0-3,0l0-.1a11,11,0,0,1,1.52-.29,4,4,0,0,1,1.58.07,1.22,1.22,0,0,1,.4.22,3.7,3.7,0,0,1,.28.28l.53.57c.34.38.67.77,1,1.17s.65.81.94,1.24a4.43,4.43,0,0,1,.42.71,3.44,3.44,0,0,1,.2.83c.13,1,.18,2.06.31,3.06a9.05,9.05,0,0,0,.28,1.43,1.76,1.76,0,0,0,.26.55,3.14,3.14,0,0,0,.49.46,17.37,17.37,0,0,0,2.54,1.55c.45.23.9.45,1.35.64l.33.14.1,0c-.11,0-.1,0-.11,0a2.31,2.31,0,0,0,.43-.37,28.73,28.73,0,0,0,1.81-2.39c.58-.84,1.16-1.69,1.79-2.52a10.52,10.52,0,0,1,1-1.24,2.86,2.86,0,0,1,.36-.3,2,2,0,0,1,.26-.15l.19-.06H65c.28-.05.54-.07.8-.1A22,22,0,0,1,69,60.46a5.24,5.24,0,0,1,.84.11l.24.07a1,1,0,0,1,.3.17,1.59,1.59,0,0,1,.34.36,13.11,13.11,0,0,1,.86,1.35c.25.44.51.92.76,1.27l1,1.06.53.55.27.28a2.11,2.11,0,0,1,.62,2.08,10.33,10.33,0,0,1-.19,1.58,7.08,7.08,0,0,1-.17.77,1.72,1.72,0,0,1-.16.43l-.2.35a25.13,25.13,0,0,0-1.51,2.64,8.53,8.53,0,0,0-.61,2.9,3.83,3.83,0,0,0,.17,1.44c.19.4.5.87.75,1.3,1,1.77,2.08,3.53,3.07,5.34a7.32,7.32,0,0,1,.71,3,9.15,9.15,0,0,1,0,1.57,3.06,3.06,0,0,1-.16.81,1.1,1.1,0,0,1-.26.43,2,2,0,0,1-.36.26A22.62,22.62,0,0,1,73,91.92c-.48.18-1,.36-1.47.52a3.83,3.83,0,0,1-.43.11.86.86,0,0,1-.44-.1l-.22-.18a3.85,3.85,0,0,1-.52-.68c-.57-.9-1-1.82-1.49-2.73-.24-.45-.47-.92-.71-1.33a3.8,3.8,0,0,0-1-1,15.72,15.72,0,0,0-2.48-1.65,5.21,5.21,0,0,0-.65-.29,2.54,2.54,0,0,0-.31-.09h-.1c-.05,0,0,0,0,0,.15-.18,0-.15.1,0a1.53,1.53,0,0,0,.11.29c.1.21.22.43.34.65.52.86,1.08,1.72,1.59,2.62a10.45,10.45,0,0,1,.71,1.42,2.8,2.8,0,0,1,.19.83c0,.26,0,.52,0,.78,0,2.06-.12,4.11-.26,6.15Z"/><path d="M74.06,42.34c-1.75,1.38-3.52,2.71-5.28,4.06l-5.33,4a60.38,60.38,0,0,1-5.39,3.89,36.06,36.06,0,0,1-6,3L52,57.08a35.63,35.63,0,0,1,5-4.47,64,64,0,0,1,5.61-3.56l5.67-3.48c1.91-1.13,3.8-2.28,5.73-3.39Z"/><path d="M77.07,44.23l-7.5,8.09c-1.21,1.33-2.38,2.84-3.52,4-.06.1-.16.12-.21.29a3.88,3.88,0,0,0-.16.51,11.32,11.32,0,0,0-.23,1.26c-.12.87-.2,1.79-.35,2.73l-.2,0A10.52,10.52,0,0,1,64,58.44a9.21,9.21,0,0,1-.11-1.5,3.18,3.18,0,0,1,.51-1.77,23.63,23.63,0,0,1,4-4c1.38-1.23,2.78-2.43,4.18-3.62s2.85-2.34,4.3-3.47Z"/><path d="M94.08,56.22c-1.08,1.85-2.23,3.65-3.42,5.44-.61.89-1.22,1.77-1.89,2.63a12,12,0,0,1-1.14,1.29,8.56,8.56,0,0,1-1.46,1,39.53,39.53,0,0,1-5.78,2.9,31.13,31.13,0,0,1-6.25,1.68L74.06,71a38,38,0,0,1,5.53-3.34c1.88-1,4-1.61,5.84-2.48a7.1,7.1,0,0,0,1.27-.69,9.91,9.91,0,0,0,1.08-1c.72-.76,1.41-1.57,2.09-2.39,1.38-1.61,2.71-3.29,4-5Z"/><path d="M95.09,57.21c-1.06,2-2.17,4-3.27,6l-1.71,3-.88,1.48c-.15.25-.29.48-.48.76a8.09,8.09,0,0,1-.59.73,31.47,31.47,0,0,1-5,4.85c-.26.16-.5.33-.79.49a4.36,4.36,0,0,1-.44.24l-.24.11-.32.11a4,4,0,0,1-1,.08,6.84,6.84,0,0,1-.91-.06A16.13,16.13,0,0,1,76,74.26l0-.2c1.15-.2,2.29-.32,3.39-.47l.81-.13a2.27,2.27,0,0,0,.64-.18,10.23,10.23,0,0,0,1.09-.85C83.55,71,85.38,69.59,87,68.06a17.15,17.15,0,0,0,2-2.57l2-2.8,4-5.58Z"/><path d="M49,74.16a2.3,2.3,0,0,1,.09-1.1c.09-.36.21-.71.33-1.06.24-.7.51-1.39.77-2.09a20,20,0,0,0,.7-2.11,3.41,3.41,0,0,0-.38-2.13c-.27-.69-.57-1.37-.88-2l-.47-1a4.3,4.3,0,0,1-.4-1,11.83,11.83,0,0,1-.28-2.22,8.39,8.39,0,0,1,0-1.12,1.87,1.87,0,0,1,.39-1.07.47.47,0,0,1,.59,0,1.78,1.78,0,0,1,.45.36,6.65,6.65,0,0,1,.72.87,13.83,13.83,0,0,1,1.13,1.94,3.32,3.32,0,0,1,.35,1.09,10.65,10.65,0,0,1,0,1.13l-.07,2.22a14.44,14.44,0,0,0,0,2.19c0,.3.35.43.66.6s.67.3,1,.43l2.09.77a8.91,8.91,0,0,1,2.08,1,.72.72,0,0,1,.25.32.53.53,0,0,1,0,.23.55.55,0,0,1,0,.18,1.42,1.42,0,0,1-.3.6,5.16,5.16,0,0,0-.64.81.33.33,0,0,0,0,.32,2.4,2.4,0,0,0,.26.42,5.74,5.74,0,0,0,.72.76c.5.44,1.25.85,1.59.52a3,3,0,0,0,.71-1.81A9.45,9.45,0,0,0,60.66,71v-.8c0-.11,0-.23,0-.33a8.81,8.81,0,0,1,.64-2.24,19.41,19.41,0,0,1,1-2.06c.1-.17.19-.33.31-.51l.08-.12a1.37,1.37,0,0,1,.17-.17,1,1,0,0,1,.34-.2,4.75,4.75,0,0,1,1.2-.29,13.73,13.73,0,0,1,2.31,0,7.22,7.22,0,0,1,2.34.45,4.3,4.3,0,0,1,.53.32l.46.32a4.6,4.6,0,0,1,.94.8,2.39,2.39,0,0,1,.36.57,2.08,2.08,0,0,1,.12.32,1.93,1.93,0,0,1,0,.42,5.15,5.15,0,0,1-.26,1.21c-.46,1.46-1.09,2.82-1.6,4.18a2.17,2.17,0,0,0-.14.44c0,.17,0,.35-.07.53a7.38,7.38,0,0,0,0,1,5.81,5.81,0,0,0,.08,1,3.19,3.19,0,0,0,.13.44,5.32,5.32,0,0,0,.21.5c.58,1.33,1.24,2.67,1.9,4,.33.66.68,1.31,1,2,.17.32.35.64.54.94l.13.2c.06.09.13.18.18.27a3.25,3.25,0,0,1,.28.56A10.73,10.73,0,0,1,74.42,87a1.32,1.32,0,0,0,.14.41.76.76,0,0,1,.08.39,1.21,1.21,0,0,1-.07.24l-.13.29a1.85,1.85,0,0,1-1,.94,6.72,6.72,0,0,1-1.15.32l-.13,0a.76.76,0,0,1-.31,0,1,1,0,0,1-.43-.19,3,3,0,0,1-.48-.46,15.25,15.25,0,0,1-1.31-1.89l-.56-1a4.46,4.46,0,0,0-.53-.83A12.83,12.83,0,0,0,66.78,84c-.62-.4-1.25-.77-1.89-1.1a4.13,4.13,0,0,0-.89-.36,5.73,5.73,0,0,1-1.16-.25c-.71-.17-1.34-.28-1.74.25a5.12,5.12,0,0,0-.67.79,1.3,1.3,0,0,0-.12.88c.09.55.77,1,1.36,1.4l.46.33a2.31,2.31,0,0,1,.43.46,5.62,5.62,0,0,1,.59,1A17,17,0,0,1,64,89.46a9.13,9.13,0,0,1,.46,2.23,6,6,0,0,1-.09,2.3.63.63,0,0,1-.25.3.33.33,0,0,1-.26,0,.54.54,0,0,1-.17-.08,2.56,2.56,0,0,1-.47-.37c-.28-.26-.53-.53-.78-.81-1-1.12-1.9-2.3-2.8-3.48-.45-.6-.89-1.19-1.32-1.8a6.82,6.82,0,0,1-1-2A11,11,0,0,1,57,84.71a2.61,2.61,0,0,1-.08-.56,3.4,3.4,0,0,1,.08-.57c.15-.73.34-1.45.51-2.17A14.87,14.87,0,0,0,58,79.24a4.89,4.89,0,0,0-.87-2,4.1,4.1,0,0,0-.73-.83,2.1,2.1,0,0,0-1-.37l-2.19-.45c-.72-.15-1.45-.31-2.16-.51-.36-.1-.72-.21-1.07-.34A2,2,0,0,1,49,74.16Zm0,0a1.9,1.9,0,0,0,.94.57c.34.13.7.23,1.06.33.72.19,1.44.35,2.17.5l2.19.42a2.15,2.15,0,0,1,1,.38,4.26,4.26,0,0,1,.75.84,4.88,4.88,0,0,1,.9,2,14.71,14.71,0,0,1-.41,2.2c-.17.72-.35,1.44-.49,2.17a2.52,2.52,0,0,0-.08.53,2,2,0,0,0,.09.54,9.88,9.88,0,0,0,.31,1.06,11.94,11.94,0,0,0,2.36,3.71c.92,1.16,1.86,2.32,2.86,3.4.25.27.5.54.77.78a2.86,2.86,0,0,0,.41.32L64,94s0,0,0,0,.05-.07.08-.13a6,6,0,0,0,0-2.12,8.3,8.3,0,0,0-.48-2.11,18.07,18.07,0,0,0-.87-2,6.21,6.21,0,0,0-.56-.9,2.27,2.27,0,0,0-.34-.35L61.36,86c-.3-.21-.62-.41-.93-.67A1.84,1.84,0,0,1,59.89,83a5.5,5.5,0,0,1,.74-.93,2,2,0,0,1,.5-.42,1.7,1.7,0,0,1,.67-.19,3.85,3.85,0,0,1,1.2.13,5.79,5.79,0,0,0,1,.21,3.76,3.76,0,0,1,1.19.41c.69.33,1.34.7,2,1.09a15,15,0,0,1,1.88,1.33,1.7,1.7,0,0,1,.26.27l.15.26.28.48.57.95a14.53,14.53,0,0,0,1.22,1.77,3,3,0,0,0,.33.31l.07,0s-.09,0,0,0l.14,0a6,6,0,0,0,1-.28,1,1,0,0,0,.57-.51l.1-.22s0-.06,0,0,0,.16,0,.12a2.32,2.32,0,0,1-.22-.64A10.33,10.33,0,0,0,73,85.08a2.26,2.26,0,0,0-.22-.44,2,2,0,0,0-.12-.19l-.19-.26c-.2-.33-.39-.66-.57-1-.37-.66-.72-1.32-1.06-2-.68-1.33-1.35-2.66-2-4-.08-.17-.15-.35-.22-.54a3.35,3.35,0,0,1-.17-.62,6.89,6.89,0,0,1-.09-1.19,11.46,11.46,0,0,1,.06-1.17c0-.19,0-.39.08-.58s.13-.43.19-.62c.55-1.41,1.18-2.75,1.63-4.12a4.35,4.35,0,0,0,.22-1,.57.57,0,0,0,0-.13,1.18,1.18,0,0,0-.07-.2,1.62,1.62,0,0,0-.23-.37,3.7,3.7,0,0,0-.75-.64L69,65.73a3.56,3.56,0,0,0-.41-.26,6.47,6.47,0,0,0-2-.38,12.84,12.84,0,0,0-2.15,0,3.77,3.77,0,0,0-1,.21s-.15.06-.14.07l0,0-.07.1L63,66a19.5,19.5,0,0,0-1,1.94,8.1,8.1,0,0,0-.63,2l0,.22V71a8.77,8.77,0,0,1-.1,1.15,3.55,3.55,0,0,1-1,2.21,1,1,0,0,1-.7.24,1.4,1.4,0,0,1-.66-.15,4,4,0,0,1-1-.67,5.49,5.49,0,0,1-.79-.87,3,3,0,0,1-.31-.53.89.89,0,0,1,0-.75,4.4,4.4,0,0,1,.73-.92.86.86,0,0,0,.21-.38c0-.18.05-.12-.08-.25a9,9,0,0,0-1.92-.94l-2.08-.81c-.34-.14-.69-.29-1-.46a2.94,2.94,0,0,1-.5-.31.83.83,0,0,1-.24-.25,1,1,0,0,1-.1-.33,14.21,14.21,0,0,1,0-2.26l.12-2.22c0-.37,0-.74,0-1.1a3.24,3.24,0,0,0-.31-1,13,13,0,0,0-1.08-1.93,5.15,5.15,0,0,0-.68-.86c-.23-.23-.6-.56-.83-.33a1.79,1.79,0,0,0-.35,1,6.7,6.7,0,0,0,0,1.1,11.6,11.6,0,0,0,.26,2.2,4.41,4.41,0,0,0,.38,1l.46,1c.31.68.6,1.36.87,2a10.11,10.11,0,0,1,.35,1.06,1.83,1.83,0,0,1,0,1.11,20.94,20.94,0,0,1-.72,2.11c-.27.7-.54,1.39-.79,2.09-.12.35-.24.7-.34,1.06A2.25,2.25,0,0,0,49,74.16Z"/><path d="M86,46.06a18,18,0,0,0,3.17.3,2.92,2.92,0,0,0,1.4-.3,2.47,2.47,0,0,0,.92-1,5.6,5.6,0,0,0,.61-2.86c0-1-.08-2.13-.14-3.2-.15-2.13-.27-4.3-.48-6.4a24,24,0,0,0-1.62-6,85.46,85.46,0,0,0-5.64-11.44c-1.1-1.84-2.23-3.66-3.49-5.39a24.31,24.31,0,0,0-4.28-4.7L76.37,5l0,0s-.14-.11-.31-.13a2.48,2.48,0,0,0-.56,0c-.39,0-.79,0-1.23,0a1.44,1.44,0,0,1-.38,0,.43.43,0,0,1-.19-.09.38.38,0,0,1-.12-.16.42.42,0,0,1,0-.22.53.53,0,0,1,.23-.3.44.44,0,0,1,.38-.08.57.57,0,0,1,.29.15,1.27,1.27,0,0,1,.23.34A3.11,3.11,0,0,1,75,5.76a1.65,1.65,0,0,1-.22.74A1,1,0,0,1,74,7a2.09,2.09,0,0,1-1.34-.57,7.87,7.87,0,0,1-1.57-2.07,4.28,4.28,0,0,1-.31-.64,2.22,2.22,0,0,1-.06-.8,3.66,3.66,0,0,1,.45-1.34,4.56,4.56,0,0,1,.38-.59l.23-.27A1.87,1.87,0,0,1,72.1.39,3.08,3.08,0,0,1,73.56,0a5.42,5.42,0,0,1,2.7.6,4.32,4.32,0,0,1,1.13.86c.31.3.6.6.89.9C80.53,4.79,82.7,7.25,84.8,9.8c1,1.28,2.09,2.55,3.1,3.9.25.33.5.68.74,1.05a6.26,6.26,0,0,1,.38.62c.14.24.19.39.29.59l1,2.25c1.31,3,2.62,6,3.84,9.1l.91,2.3a16.32,16.32,0,0,1,.84,2.48,38.68,38.68,0,0,1,.49,5c.06,1.66.08,3.32,0,5a16.73,16.73,0,0,1-.25,2.61,12.24,12.24,0,0,1-1.14,2.35c-.41.72-.82,1.42-1.17,2.13a6,6,0,0,0-.41,1c-.1.21,0,.6.18,1,.56,1.5,1.29,3,2,4.47l-.18.1A44.3,44.3,0,0,1,93,51.5a6.39,6.39,0,0,1-.26-.6,2,2,0,0,1-.1-.37,1.44,1.44,0,0,1,0-.42A5.28,5.28,0,0,1,93,48.82c.32-.79.69-1.53,1-2.27a12.61,12.61,0,0,0,.88-2.14,19.15,19.15,0,0,0,0-2.3c0-1.62-.15-3.25-.3-4.86A38.74,38.74,0,0,0,94,32.51a22.38,22.38,0,0,0-.82-2.15l-.95-2.26-3.88-9-.95-2.26a4.33,4.33,0,0,0-.24-.52,3.58,3.58,0,0,0-.25-.44c-.2-.32-.43-.64-.66-1-.93-1.31-1.93-2.61-2.94-3.89-2-2.56-4.06-5.14-6.18-7.62l-.79-.91a3,3,0,0,0-.77-.68,4.17,4.17,0,0,0-2-.59,2.06,2.06,0,0,0-.92.15,1.1,1.1,0,0,0-.14.09l-.18.19A3.36,3.36,0,0,0,72,2a2.63,2.63,0,0,0-.39,1,1.16,1.16,0,0,0,.21.9,7,7,0,0,0,1.27,1.92,1.42,1.42,0,0,0,.85.43.27.27,0,0,0,.23-.12.91.91,0,0,0,.12-.42,2.16,2.16,0,0,0-.17-1,.63.63,0,0,0-.1-.17s0,0,0,0a.25.25,0,0,0,.1,0s0,0,0-.07a.22.22,0,0,0,0-.14.29.29,0,0,0-.08-.11l-.05,0,.23,0c.39,0,.81,0,1.23,0a3.91,3.91,0,0,1,.67.07,1,1,0,0,1,.73.45l-.09-.12A19.1,19.1,0,0,1,79.25,6.8c.75.79,1.45,1.62,2.14,2.46,1.39,1.67,2.68,3.42,3.92,5.2a55,55,0,0,1,6.26,11.48,24.78,24.78,0,0,1,1.6,6.49c.13,2.19.2,4.34.2,6.51,0,1.08,0,2.16-.05,3.27a6.61,6.61,0,0,1-1,3.32,3.36,3.36,0,0,1-1.37,1.21,3.64,3.64,0,0,1-1.76.21,14.25,14.25,0,0,1-3.2-.69Z"/><ellipse class="b" cx="62.62" cy="78.26" rx="1.5" ry="0.5"/><ellipse class="b" cx="64" cy="73.38" rx="1.5" ry="0.5"/><ellipse class="b" cx="68.62" cy="81.9" rx="1.5" ry="0.5"/><ellipse class="a" cx="53.86" cy="72.52" rx="1.5" ry="0.5"/><ellipse class="b" cx="65.92" cy="69.96" rx="1.5" ry="0.5"/><path class="c" d="M32,27.83s.91,1.82,1.52,1.72c2.57.35,5.41-1.87,6.27-3.34s1-7.33.3-8.8-.3-1.16-1.31-1.31-4.05-.61-5-.31a5.32,5.32,0,0,0-2.93,2.84,6.12,6.12,0,0,0-.71,4.24c.3.81,2.93-.1,2.93-.1l.3,3.24Z"/><path class="c" d="M33.24,23.18s-3.49,2-3.64.5-1-3.69-1.92-4a6.2,6.2,0,0,0-4.35.91,12.9,12.9,0,0,0-1.92,3.94c-.31,1-.61.66.3,2.13s7.54,5.31,9,5.36,1.27-.15,1.22-1.11a12.66,12.66,0,0,0-1-3L33.44,26"/><path class="c" d="M35.16,15.79s.26-3.18-.3-4.55-4.1-6.67-6.27-7.89-2.88-1.72-4.05-1.62-2,1-2.63,2.84-1.57,8.75-.81,11.12a27.83,27.83,0,0,0,2.23,4.86"/><path class="c" d="M37.29,29.25s3.89,1.26,4.25,3.23a13.73,13.73,0,0,1-.21,5.26c-.31,1.76-3.23,7.08-4.75,7.59a7.34,7.34,0,0,1-4.55-.1c-1.37-.46-4.55-3.09-6.68-7.69s.81-6.88.81-6.88"/><path class="c" d="M23.83,33.7s-.55.76-1.72,0-1.92-.91-2.52-1.82-.86-3-1.42-3.64a4,4,0,0,0-3.24-1,16.3,16.3,0,0,0-5.56,1.72c-2.53,1.12-6,5.52-7,7.49S.27,39.51,1,40.48s4,.15,5.16.1,5.46.05,6.58,0a28.17,28.17,0,0,0,4.55-.51,23.75,23.75,0,0,0,5.56-3.24c.41-.55,0-1.41,0-1.41H24"/><path class="c" d="M40.63,39.46a37.93,37.93,0,0,0,6.47-.2A15.59,15.59,0,0,0,52.76,36c.81-.8,1.62-.86,1.52-1.82a2.75,2.75,0,0,0-1.41-2c-.81-.61-5.16-3.08-8.3-3.44a29.93,29.93,0,0,0-6.07,0"/><polyline class="c" points="25.15 30.76 23.33 29.15 21.91 30.46 21.81 33.09"/><path class="c" d="M22.82,36.83l-7,4.66L9.07,46.75,3.2,53.12l3,.71,8.6-8.9,7.49-5.67s3.08-1.41,3.54-.5"/></svg>