<svg xmlns="http://www.w3.org/2000/svg" viewBox="0 0 28.5 28.13"><defs><style>.a,.c{fill:none;}.a,.b,.c{stroke:#000;stroke-miterlimit:10;}.a{stroke-width:0.5px;}.b{fill:#fff;}.b,.c{stroke-width:0.25px;}.c{stroke-linecap:round;}</style></defs><title>fish-n-veg-1</title><path class="a" d="M2.92,26.23a1.75,1.75,0,0,1,0-1.88c1.18-2,3.49-2.46,6.37-2.49C16,21.8,25,25.19,25,25.19S30,19,30,21.5v7c0,2.47-5-3.32-5-3.32S6.1,30.74,2.92,26.23Z" transform="translate(-1.75 -1.25)"/><circle class="b" cx="4.75" cy="22.25" r="0.5"/><path class="a" d="M2,15.5c0,1,22.62,3,23.69,3s1.08-7,0-7S2,14.5,2,15.5Z" transform="translate(-1.75 -1.25)"/><path d="M30,12a3.59,3.59,0,0,0-1.9,1.15,5.74,5.74,0,0,0-.64.91,7.22,7.22,0,0,0-.46,1l-.09-.28c.48.34,1,.66,1.48,1A6.72,6.72,0,0,0,30,16.5a3.94,3.94,0,0,1-1.78-.41,8.53,8.53,0,0,1-1.59-.89l-.16-.1.07-.18a6.06,6.06,0,0,1,.52-1.09,4.35,4.35,0,0,1,.76-.95A3,3,0,0,1,30,12Z" transform="translate(-1.75 -1.25)"/><path d="M30,18a7,7,0,0,1-1.94-.91,3.46,3.46,0,0,1-1.44-1.68,1.2,1.2,0,0,1,.25-1.19,2.32,2.32,0,0,1,1-.56A5.91,5.91,0,0,1,30,13.47a0,0,0,1,1,0,.06A8.55,8.55,0,0,0,28,14c-.63.23-1.15.72-.93,1.3a3.91,3.91,0,0,0,1.27,1.47C28.85,17.18,29.42,17.58,30,18Z" transform="translate(-1.75 -1.25)"/><path d="M30,16.5a2.65,2.65,0,0,1-.93,0,5.5,5.5,0,0,1-.9-.27,7.91,7.91,0,0,1-1.62-.88l-.17-.11V15A1.41,1.41,0,0,1,27,13.89a2.83,2.83,0,0,1,1-.42,5,5,0,0,1,2,0,17.88,17.88,0,0,0-1.83.56,2.83,2.83,0,0,0-.73.41.66.66,0,0,0-.28.53L27,14.68c.48.34,1,.66,1.45,1A9.33,9.33,0,0,0,30,16.5Z" transform="translate(-1.75 -1.25)"/><line class="c" x1="20.71" y1="10.75" x2="20.71" y2="12.75"/><line class="c" x1="19.1" y1="10.75" x2="19.1" y2="12.75"/><line class="c" x1="16.94" y1="11.25" x2="16.94" y2="13.75"/><line class="c" x1="14.79" y1="11.75" x2="14.79" y2="12.75"/><line class="c" x1="12.63" y1="11.75" x2="12.63" y2="12.75"/><line class="c" x1="9.94" y1="12.25" x2="9.94" y2="13.75"/><path class="a" d="M2,5.5c0,1,22.62,3,23.69,3s1.08-7,0-7S2,4.5,2,5.5Z" transform="translate(-1.75 -1.25)"/><path d="M30,2a3.59,3.59,0,0,0-1.9,1.15,5.74,5.74,0,0,0-.64.91,7.22,7.22,0,0,0-.46,1l-.09-.28c.48.34,1,.66,1.48,1A6.72,6.72,0,0,0,30,6.5a3.94,3.94,0,0,1-1.78-.41,8.53,8.53,0,0,1-1.59-.89l-.16-.1.07-.18a6.06,6.06,0,0,1,.52-1.09,4.35,4.35,0,0,1,.76-1A3,3,0,0,1,30,2Z" transform="translate(-1.75 -1.25)"/><path d="M30,8a7,7,0,0,1-1.94-.91,3.46,3.46,0,0,1-1.44-1.68,1.2,1.2,0,0,1,.25-1.19,2.32,2.32,0,0,1,1-.56A5.91,5.91,0,0,1,30,3.47a0,0,0,1,1,0,.06A8.55,8.55,0,0,0,28,4c-.63.23-1.15.72-.93,1.3a3.91,3.91,0,0,0,1.27,1.47C28.85,7.18,29.42,7.58,30,8Z" transform="translate(-1.75 -1.25)"/><path d="M30,6.5a2.65,2.65,0,0,1-.93,0,5.5,5.5,0,0,1-.9-.27,7.91,7.91,0,0,1-1.62-.88l-.17-.11V5A1.41,1.41,0,0,1,27,3.89a2.83,2.83,0,0,1,1-.42,5,5,0,0,1,2,0,17.88,17.88,0,0,0-1.83.56,2.83,2.83,0,0,0-.73.41.66.66,0,0,0-.28.53L27,4.68c.48.34,1,.66,1.45,1A9.33,9.33,0,0,0,30,6.5Z" transform="translate(-1.75 -1.25)"/><line class="c" x1="20.71" y1="0.75" x2="20.71" y2="2.75"/><line class="c" x1="19.1" y1="0.75" x2="19.1" y2="2.75"/><line class="c" x1="16.94" y1="1.25" x2="16.94" y2="3.75"/><line class="c" x1="14.79" y1="1.75" x2="14.79" y2="2.75"/><line class="c" x1="12.63" y1="1.75" x2="12.63" y2="2.75"/><line class="c" x1="9.94" y1="2.25" x2="9.94" y2="3.75"/></svg>