<svg xmlns="http://www.w3.org/2000/svg" viewBox="0 0 107.92 100.07"><defs><style>.a{fill:none;stroke:#000;stroke-miterlimit:10;stroke-width:1.25px;}</style></defs><title>macaroni</title><path d="M24,62.56A11.09,11.09,0,0,1,22.72,68a6.05,6.05,0,0,1-2,2.15A5,5,0,0,1,17.9,71a5.3,5.3,0,0,1-2.77-1,7.52,7.52,0,0,1-1.93-2.09,11.11,11.11,0,0,1-1.64-5.35A9.52,9.52,0,0,1,13,57,7.17,7.17,0,0,1,15,54.91a5.09,5.09,0,0,1,5.78,0,6.36,6.36,0,0,1,2,2.17A11.22,11.22,0,0,1,24,62.56Zm-.1,0a8.41,8.41,0,0,0-1.72-5.08,5.61,5.61,0,0,0-4.29-2.39,5.28,5.28,0,0,0-4.17,2.47,10,10,0,0,0-1.62,5,8.52,8.52,0,0,0,1.36,5.17,5.26,5.26,0,0,0,4.43,2.41,5.87,5.87,0,0,0,4.3-2.49A8.45,8.45,0,0,0,23.91,62.56Z" transform="translate(-10.04 -13.97)"/><path d="M25.53,62.56a13.56,13.56,0,0,1-1.65,6.76A8.15,8.15,0,0,1,21.43,72a6.25,6.25,0,0,1-7.08,0,8.69,8.69,0,0,1-2.54-2.62,11.84,11.84,0,0,1-1.76-6.83,13.35,13.35,0,0,1,2-6.66,9,9,0,0,1,2.42-2.58,6.45,6.45,0,0,1,3.42-1.18,6.23,6.23,0,0,1,3.51,1,7.79,7.79,0,0,1,2.45,2.63A13.52,13.52,0,0,1,25.53,62.56Zm-.1,0a10.84,10.84,0,0,0-2.09-6.4A7.29,7.29,0,0,0,17.9,53a6.64,6.64,0,0,0-5.57,3.1,11,11,0,0,0-1.74,6.48,12.39,12.39,0,0,0,2,6.31A6.69,6.69,0,0,0,17.9,72,7,7,0,0,0,23.33,69,10.87,10.87,0,0,0,25.43,62.56Z" transform="translate(-10.04 -13.97)"/><path class="a" d="M39.91,40.16" transform="translate(-10.04 -13.97)"/><path class="a" d="M17.68,52.58" transform="translate(-10.04 -13.97)"/><path d="M17.9,72.51,21.3,72a32.22,32.22,0,0,0,3.38-.57L28,70.68l.83-.2.81-.28,1.62-.54a48.67,48.67,0,0,0,6.29-2.6c1-.58,2-1.14,2.95-1.71l.74-.42.69-.5,1.38-1a37.19,37.19,0,0,0,9.42-9.79A28.73,28.73,0,0,0,57.55,41a8.47,8.47,0,0,0-7.87-8.9A8.53,8.53,0,0,0,43.61,34a8.34,8.34,0,0,0-2.08,2.46,9.53,9.53,0,0,0-1,3.1,8,8,0,0,1-1.61,3.27l-1.14,1.33c-.41.41-.82.83-1.24,1.23a25,25,0,0,1-5.72,4,37.44,37.44,0,0,1-13.39,3.26l0-.1c4.52-.72,9.06-1.71,13.05-3.86a23.67,23.67,0,0,0,5.41-4c.4-.39.77-.82,1.17-1.22l1.1-1.28a7.13,7.13,0,0,0,1.39-2.86,9.37,9.37,0,0,1,10.27-8.13A9.27,9.27,0,0,1,56,34.41,9.14,9.14,0,0,1,58.1,41,33,33,0,0,1,53,53.84,40,40,0,0,1,43.82,64.1l-1.4,1-.7.51-.75.44c-1,.59-2,1.18-3,1.75a48.79,48.79,0,0,1-6.45,2.54l-1.66.52-.83.25-.85.17-3.4.65a24.5,24.5,0,0,1-3.43.39l-3.44.25Z" transform="translate(-10.04 -13.97)"/><path d="M30.52,56.48c.95-.29,1.89-.5,2.83-.73l1.38-.4a10.69,10.69,0,0,0,1.36-.42c.9-.31,1.81-.57,2.68-.94a18.23,18.23,0,0,0,7.12-4.63,16.16,16.16,0,0,0,3.29-4.72l.12,0a16.42,16.42,0,0,1-2.94,5.09,20.67,20.67,0,0,1-4.47,3.92,18.58,18.58,0,0,1-5.45,2.45,22.66,22.66,0,0,1-2.95.48,24.51,24.51,0,0,1-3,0Z" transform="translate(-10.04 -13.97)"/><path d="M38.78,59c1.15-.85,2.33-1.52,3.45-2.29s2.32-1.4,3.42-2.22a23.9,23.9,0,0,0,3.08-2.71,19.54,19.54,0,0,0,2.61-3.19l.12.06a22.27,22.27,0,0,1-5.17,6.62,16.3,16.3,0,0,1-3.43,2.52,12.8,12.8,0,0,1-4,1.33Z" transform="translate(-10.04 -13.97)"/><path d="M74.18,103.5a8.45,8.45,0,0,0,1.71,5.09,5.87,5.87,0,0,0,4.3,2.49,5.26,5.26,0,0,0,4.43-2.41A8.52,8.52,0,0,0,86,103.5a10,10,0,0,0-1.62-5A5.28,5.28,0,0,0,80.19,96a5.61,5.61,0,0,0-4.29,2.39A8.41,8.41,0,0,0,74.18,103.5Zm-.1,0a11.22,11.22,0,0,1,1.27-5.44,6.36,6.36,0,0,1,2-2.17,5.09,5.09,0,0,1,5.78,0,7.17,7.17,0,0,1,2,2.13,9.52,9.52,0,0,1,1.39,5.52,11.11,11.11,0,0,1-1.64,5.35A7.52,7.52,0,0,1,83,110.94a5.3,5.3,0,0,1-2.77,1,5,5,0,0,1-2.85-.84,6.05,6.05,0,0,1-2-2.15A11.09,11.09,0,0,1,74.08,103.5Z" transform="translate(-10.04 -13.97)"/><path d="M72.66,103.5a10.87,10.87,0,0,0,2.1,6.39A7,7,0,0,0,80.19,113a6.69,6.69,0,0,0,5.31-3.16,12.39,12.39,0,0,0,2-6.31A11,11,0,0,0,85.76,97a6.64,6.64,0,0,0-5.57-3.1,7.29,7.29,0,0,0-5.44,3.18A10.84,10.84,0,0,0,72.66,103.5Zm-.1,0a13.52,13.52,0,0,1,1.67-6.75,7.79,7.79,0,0,1,2.45-2.63,6.23,6.23,0,0,1,3.51-1,6.45,6.45,0,0,1,3.42,1.18A9,9,0,0,1,86,96.84a13.35,13.35,0,0,1,2,6.66,11.84,11.84,0,0,1-1.76,6.83A8.69,8.69,0,0,1,83.74,113a6.25,6.25,0,0,1-7.08,0,8.15,8.15,0,0,1-2.45-2.65A13.56,13.56,0,0,1,72.56,103.5Z" transform="translate(-10.04 -13.97)"/><path class="a" d="M58.18,81.1" transform="translate(-10.04 -13.97)"/><path class="a" d="M80.41,93.52" transform="translate(-10.04 -13.97)"/><path d="M80.19,113.55l-3.44-.25a24.5,24.5,0,0,1-3.43-.39l-3.4-.65-.85-.17-.83-.25-1.66-.52a48.79,48.79,0,0,1-6.45-2.54c-1-.57-2-1.16-3-1.75l-.75-.44-.7-.51-1.4-1a40,40,0,0,1-9.21-10.26A33,33,0,0,1,40,82a9.14,9.14,0,0,1,2.09-6.63,9.27,9.27,0,0,1,6.25-3.24A9.37,9.37,0,0,1,58.6,80.24,7.13,7.13,0,0,0,60,83.1l1.1,1.28c.4.4.77.83,1.17,1.22a23.67,23.67,0,0,0,5.41,4c4,2.15,8.53,3.14,13,3.86l0,.1a37.44,37.44,0,0,1-13.39-3.26,25,25,0,0,1-5.72-4c-.42-.4-.83-.82-1.24-1.23l-1.14-1.33a8,8,0,0,1-1.61-3.27,9.53,9.53,0,0,0-1-3.1,8.34,8.34,0,0,0-2.08-2.46,8.53,8.53,0,0,0-6.07-1.85A8.47,8.47,0,0,0,40.54,82a28.73,28.73,0,0,0,4.81,12.64,37.19,37.19,0,0,0,9.42,9.79l1.38,1,.69.5.74.42c1,.57,2,1.13,3,1.71a48.67,48.67,0,0,0,6.29,2.6l1.62.54.81.28.83.2,3.33.77a32.22,32.22,0,0,0,3.38.57l3.4.49Z" transform="translate(-10.04 -13.97)"/><path d="M67.57,97.54a24.51,24.51,0,0,1-3,0,22.66,22.66,0,0,1-2.95-.48,18.58,18.58,0,0,1-5.45-2.45,20.67,20.67,0,0,1-4.47-3.92,16.42,16.42,0,0,1-2.94-5.09l.12,0A16.16,16.16,0,0,0,52.2,90.3a18.23,18.23,0,0,0,7.12,4.63c.87.37,1.78.63,2.68.94a10.69,10.69,0,0,0,1.36.42l1.38.4c.94.23,1.88.44,2.83.73Z" transform="translate(-10.04 -13.97)"/><path d="M59.27,100.06a12.8,12.8,0,0,1-4-1.33,16.3,16.3,0,0,1-3.43-2.52,22.27,22.27,0,0,1-5.17-6.62l.12-.06a19.54,19.54,0,0,0,2.61,3.19,23.9,23.9,0,0,0,3.08,2.71c1.1.82,2.28,1.48,3.42,2.22s2.3,1.44,3.45,2.29Z" transform="translate(-10.04 -13.97)"/><path d="M104,24.5a11.09,11.09,0,0,1,1.29-5.43,6.05,6.05,0,0,1,2-2.15,5,5,0,0,1,2.85-.84,5.3,5.3,0,0,1,2.77,1,7.52,7.52,0,0,1,1.93,2.09,11.11,11.11,0,0,1,1.64,5.35A9.52,9.52,0,0,1,115.05,30a7.17,7.17,0,0,1-2,2.13,5.09,5.09,0,0,1-5.78,0,6.36,6.36,0,0,1-2-2.17A11.22,11.22,0,0,1,104,24.5Zm.1,0a8.41,8.41,0,0,0,1.72,5.08A5.61,5.61,0,0,0,110.1,32a5.28,5.28,0,0,0,4.17-2.47,10,10,0,0,0,1.62-5,8.52,8.52,0,0,0-1.36-5.17,5.26,5.26,0,0,0-4.43-2.41,5.87,5.87,0,0,0-4.3,2.49A8.45,8.45,0,0,0,104.09,24.5Z" transform="translate(-10.04 -13.97)"/><path d="M102.47,24.5a13.56,13.56,0,0,1,1.65-6.76,8.15,8.15,0,0,1,2.45-2.65,6.25,6.25,0,0,1,7.08,0,8.69,8.69,0,0,1,2.54,2.62A11.84,11.84,0,0,1,118,24.5a13.35,13.35,0,0,1-2,6.66,9,9,0,0,1-2.42,2.58,6.45,6.45,0,0,1-3.42,1.18,6.23,6.23,0,0,1-3.51-1,7.79,7.79,0,0,1-2.45-2.63A13.52,13.52,0,0,1,102.47,24.5Zm.1,0a10.84,10.84,0,0,0,2.09,6.4,7.29,7.29,0,0,0,5.44,3.18,6.64,6.64,0,0,0,5.57-3.1,11,11,0,0,0,1.74-6.48,12.39,12.39,0,0,0-2-6.31A6.69,6.69,0,0,0,110.1,15a7,7,0,0,0-5.43,3.08A10.87,10.87,0,0,0,102.57,24.5Z" transform="translate(-10.04 -13.97)"/><path class="a" d="M88.09,46.9" transform="translate(-10.04 -13.97)"/><path class="a" d="M110.32,34.48" transform="translate(-10.04 -13.97)"/><path d="M110.1,14.55l-3.4.49a32.22,32.22,0,0,0-3.38.57l-3.33.77-.83.2-.81.28-1.62.54A48.67,48.67,0,0,0,90.44,20c-1,.58-2,1.14-3,1.71l-.74.42-.69.5-1.38,1a37.19,37.19,0,0,0-9.42,9.79,28.73,28.73,0,0,0-4.81,12.64A8.47,8.47,0,0,0,78.32,55a8.53,8.53,0,0,0,6.07-1.85,8.34,8.34,0,0,0,2.08-2.46,9.53,9.53,0,0,0,1-3.1,8,8,0,0,1,1.61-3.27l1.14-1.33c.41-.41.82-.83,1.24-1.23a25,25,0,0,1,5.72-4,37.44,37.44,0,0,1,13.39-3.26l0,.1c-4.52.72-9.06,1.71-13,3.86a23.67,23.67,0,0,0-5.41,4c-.4.39-.77.82-1.17,1.22L89.9,44.9a7.13,7.13,0,0,0-1.39,2.86,9.37,9.37,0,0,1-10.27,8.13A9.27,9.27,0,0,1,72,52.65,9.14,9.14,0,0,1,69.9,46,33,33,0,0,1,75,33.22,40,40,0,0,1,84.18,23l1.4-1,.7-.51L87,21c1-.59,2-1.18,3-1.75a48.79,48.79,0,0,1,6.45-2.54l1.66-.52.83-.25.85-.17,3.4-.65a24.5,24.5,0,0,1,3.43-.39l3.44-.25Z" transform="translate(-10.04 -13.97)"/><path d="M97.48,30.58c-1,.29-1.89.5-2.83.73l-1.38.4a10.69,10.69,0,0,0-1.36.42c-.9.31-1.81.57-2.68.94a18.23,18.23,0,0,0-7.12,4.63,16.16,16.16,0,0,0-3.29,4.72l-.12,0a16.42,16.42,0,0,1,2.94-5.09,20.67,20.67,0,0,1,4.47-3.92,18.58,18.58,0,0,1,5.45-2.45,22.66,22.66,0,0,1,3-.48,24.51,24.51,0,0,1,3,0Z" transform="translate(-10.04 -13.97)"/><path d="M89.22,28.06c-1.15.85-2.33,1.52-3.45,2.29s-2.32,1.4-3.42,2.22a23.9,23.9,0,0,0-3.08,2.71,19.54,19.54,0,0,0-2.61,3.19l-.12-.06a22.27,22.27,0,0,1,5.17-6.62,16.3,16.3,0,0,1,3.43-2.52,12.8,12.8,0,0,1,4-1.33Z" transform="translate(-10.04 -13.97)"/></svg>