<svg xmlns="http://www.w3.org/2000/svg" viewBox="0 0 30.89 26.74"><defs><style>.a{fill:none;stroke:#000;stroke-miterlimit:10;}</style></defs><title>sausage-n-bacon_6</title><path class="a" d="M.59,20.44a.43.43,0,0,0,.05.23c0,.11,0,.15,0,.15s.11.11.06.23,0,.15.06.17.08.11.07.2,0,.1.08.19.11.09.09.19.11.15.09.2.1.14.11.22,0,.21.11.17.07,0,.11.16.1.19.13.22.11.14.13.2.11.2.13.17a.72.72,0,0,0,.14.17s.18.14.16.19.17.17.15.18,0,.19.16.17.19.12.17.18.13.13.17.16.1.12.18.15.11.08.19.17a1.1,1.1,0,0,1,.18.14c0,.09.13.08.2.15a.7.7,0,0,1,.19.14c.1.07.11.11.21.14s.15.11.21.13a.25.25,0,0,0,.21.12l.21.13a1.07,1.07,0,0,0,.22.1L5,25.7a.39.39,0,0,0,.22.06c.16.12.3.1.46.16a3.59,3.59,0,0,1,.48.14,1.37,1.37,0,0,0,.48.1l.49.06c.16,0,.34,0,.5,0s.34,0,.51,0a1.11,1.11,0,0,1,.51-.07A3.87,3.87,0,0,0,9.28,26c.2-.07.39-.12.59-.17s.38-.1.56-.21.36-.15.53-.24a2.26,2.26,0,0,0,.51-.27c.17-.09.33-.19.49-.29l.46-.32c.14-.15.3-.16.43-.32a2.55,2.55,0,0,0,.41-.34l.38-.35a.84.84,0,0,0,.35-.35c.1-.19.23-.2.33-.34a1.72,1.72,0,0,1,.3-.34,4,4,0,0,0,.28-.32.58.58,0,0,0,.25-.31c.07-.15.16-.16.22-.29s.15-.11.2-.27.12-.14.17-.23a1,1,0,0,1,.14-.2.19.19,0,0,1,.15-.14,1.83,1.83,0,0,1,.25-.15c.09-.12.23-.06.35-.16s.1-.09.16-.06a.37.37,0,0,0,.16-.07c.07,0,.12-.07.18-.07s.12,0,.19-.06a.29.29,0,0,1,.2,0c.07,0,.13-.08.2-.09l.22-.07.23-.07c.08.05.16,0,.23,0s.16-.07.24-.1a2.27,2.27,0,0,1,.51-.14c.17,0,.35-.1.53-.14a2.11,2.11,0,0,1,.56-.15,4,4,0,0,0,.57-.14A3.63,3.63,0,0,1,21.4,19c.2,0,.39-.12.6-.14a3.26,3.26,0,0,0,.6-.14,3.36,3.36,0,0,1,.61-.14,6,6,0,0,0,.61-.13,4.42,4.42,0,0,1,.61-.13,1.73,1.73,0,0,0,.6-.12,2.94,2.94,0,0,0,.59-.12c.19-.06.38-.06.57-.11a5.3,5.3,0,0,1,.55-.1,1.22,1.22,0,0,1,.53-.1l.5-.09a2.67,2.67,0,0,1,.48-.08,1.28,1.28,0,0,1,.43-.06,3.8,3.8,0,0,0,.4-.06h.19l.17,0s.14-.06.17,0a.15.15,0,0,0,.15,0c.09.07.14.06.19,0s.12,0,.16-.11.09-.08.13-.14a.25.25,0,0,0,.09-.15c.08,0,0-.16.05-.18s0-.2,0-.2,0-.12-.05-.3a2.71,2.71,0,0,0-.09-.55c-.08-.18-.08-.28-.06-.3a2.22,2.22,0,0,1-.08-.28,2.56,2.56,0,0,1-.16-.25.43.43,0,0,0-.2-.2.63.63,0,0,0-.18-.12,1.59,1.59,0,0,0-.2-.07.45.45,0,0,0-.22,0H28.9s0,0,0,0a.41.41,0,0,1-.15,0,2.36,2.36,0,0,1-.25,0c-.11-.09-.2,0-.33,0s-.26,0-.41,0a3.48,3.48,0,0,0-.47,0,.68.68,0,0,0-.54,0,4,4,0,0,1-.59,0,2.26,2.26,0,0,1-.63,0c-.22,0-.44,0-.67,0s-.47,0-.7,0-.47,0-.72,0a2.58,2.58,0,0,0-.73,0,6.06,6.06,0,0,0-.73,0,2.56,2.56,0,0,1-.73,0,2.49,2.49,0,0,1-.72,0c-.23,0-.48-.06-.7,0s-.45,0-.67,0-.43,0-.63,0a1.09,1.09,0,0,0-.59,0,3.38,3.38,0,0,0-.54,0,.77.77,0,0,0-.47,0,1.11,1.11,0,0,1-.41,0,.64.64,0,0,0-.33,0c-.1,0-.19-.06-.25,0s-.11.06-.15,0-.06,0-.06,0-.08.06-.2.05-.29,0-.43.09a.64.64,0,0,1-.35,0s0,0,0,0h-.14c-.06,0-.15-.08-.23,0s-.2,0-.3,0-.25,0-.38,0-.28,0-.43,0a2,2,0,0,0-.49,0,3.17,3.17,0,0,0-.53,0,5.62,5.62,0,0,0-.57,0,2.89,2.89,0,0,1-.59,0,1.84,1.84,0,0,1-.62,0,3.28,3.28,0,0,1-.63,0,4.36,4.36,0,0,1-.63,0,1.92,1.92,0,0,1-.63,0,1.44,1.44,0,0,1-.62,0c-.21,0-.41,0-.6.06a3.43,3.43,0,0,0-.57.06c-.18.09-.38,0-.54.07s-.34,0-.49.07a2.88,2.88,0,0,1-.49.11,2,2,0,0,1-.24.05.49.49,0,0,0-.24.08.75.75,0,0,0-.24.08c-.07.06-.16,0-.23.1A.62.62,0,0,0,4,15c-.07.07-.15.06-.22.13a.51.51,0,0,0-.22.11.29.29,0,0,0-.22.12,1.23,1.23,0,0,0-.41.26c-.15,0-.26.26-.39.29a1.71,1.71,0,0,0-.18.2c-.06.06-.12.12-.19.12a1.49,1.49,0,0,1-.17.18,1.21,1.21,0,0,1-.16.16.75.75,0,0,0-.15.2.31.31,0,0,1-.16.16.65.65,0,0,1-.13.23c-.06.08-.06.17-.14.15s-.1.14-.11.21a.58.58,0,0,1-.12.19s-.09.14-.1.19,0,.19-.09.24-.08.09-.08.19-.16.19-.06.24-.13.19-.06.22,0,.06,0,.24,0,.12,0,.24,0,.2,0,.22-.07.15,0,.28,0,.16,0,.2a.3.3,0,0,1,0,.23C.52,20.3.62,20.34.59,20.44Z"/><path d="M1.23,19.35l0,0a.37.37,0,0,0-.13.17s0,0,.07-.11a.64.64,0,0,1,.12-.12l.09-.05-.25.65a.46.46,0,0,1,0-.33.37.37,0,0,1,.1-.2l.12-.1c.1-.06.1-.05.11-.05h0l-.06,0,0,0-.07.34a.62.62,0,0,1,0-.23.51.51,0,0,1,.21-.28.38.38,0,0,1,.11-.06l0,0-.22.28A.57.57,0,0,1,1.6,19a.7.7,0,0,1,.14-.08h0l-.06,0a.44.44,0,0,0-.1.08.43.43,0,0,0-.14.27.44.44,0,0,0,0,.28.38.38,0,0,0,.05.08l.11.11L2,18.89c-.21,0-.21.05-.24.06h0l.41-.13a.41.41,0,0,0-.32.08c-.16.13-.15.19-.15.18a.42.42,0,0,1,.05-.1l.05.54a.52.52,0,0,1-.11-.42.5.5,0,0,1,.13-.26A.62.62,0,0,1,2,18.72l.11,0,0,0h.22l-.48.24A1.88,1.88,0,0,1,2,18.72a.62.62,0,0,1,.24-.14h0s0,0,0,0l.23.83L2,19.1l0-.35,0,0,0,0,0,0v0l0,0,0,0,0,0,.08-.07,0,0,.15-.11.07,0s.08,0,0,0a.5.5,0,0,0-.18.2,1.08,1.08,0,0,1,.08-.13.58.58,0,0,1,.18-.16l.16-.12-.08.07-.05,0s-.06,0,0,0l0-.06a.52.52,0,0,1,.28-.13.41.41,0,0,1,.26,0l-.43,0s-.05,0,0,0A.72.72,0,0,1,3.06,18l-.36.58,0-.08a.78.78,0,0,1,0-.09.55.55,0,0,1,0-.16A.49.49,0,0,1,3,18a.45.45,0,0,1,.2,0l0,0H3.16a.41.41,0,0,0-.19.18c0,.05,0,0,0,0l.25-.28h0s0,0,0,0a1.19,1.19,0,0,1,.23-.16l-.19.2a.55.55,0,0,1,.37-.3.3.3,0,0,1,.12,0h0l-.11,0h0a.47.47,0,0,0-.11.1.45.45,0,0,0-.09.34l.14-.39a.74.74,0,0,1,.16-.12l.1,0s-.07,0-.23.22,0,.24,0,.27l0-.33a.61.61,0,0,1,.32-.25.4.4,0,0,1,.13,0H4l-.08,0a.55.55,0,0,0-.15.13.41.41,0,0,0-.09.23.61.61,0,0,0,0,.14l.09-.39h0s-.05,0,.13-.17a.43.43,0,0,1,.23-.09.44.44,0,0,1,.26,0,.41.41,0,0,1,.15.13.23.23,0,0,1,0,.07l-.12-.13A.41.41,0,0,0,4,17.41a.5.5,0,0,0-.12.08s0,0,0,0a.54.54,0,0,1,.45-.17l.31.7a.47.47,0,0,0,0-.1.32.32,0,0,0,0-.13.45.45,0,0,0-.14-.36.4.4,0,0,0-.32-.1h0l-.06,0h0l0,0a.32.32,0,0,0-.07.1.41.41,0,0,0,0,.19.42.42,0,0,0,.15.32l.57-.65a.39.39,0,0,0-.31-.1.38.38,0,0,0-.17.08l0,0v0l0,0a.19.19,0,0,0,0,.07.4.4,0,0,0,.05.32.43.43,0,0,0,.21.17.4.4,0,0,0,.34,0l.2-.58a.5.5,0,0,0-.1-.13.47.47,0,0,0-.3-.1.45.45,0,0,0-.23.09h0l.1-.08a.45.45,0,0,1,.46-.05l-.6.44a.43.43,0,0,1,.23-.44l.09,0,.08,0h0l-.06,0-.06,0a.37.37,0,0,0-.13.17L5,17.05c-.18,0-.19,0-.22,0h0s0,0-.1.15L5.08,17a.32.32,0,0,0-.24.05s0,0,.16-.1l-.06,0v0s0,0,0,0a.55.55,0,0,1,.24-.13h.12L5,17a.59.59,0,0,1,.37-.2h0a.29.29,0,0,0-.19.08l-.06.06a.53.53,0,0,1,.27-.17s-.07,0-.11.07l.07-.06,0,0s-.05.07,0,0a.48.48,0,0,1,.32-.15h.14l.14,0a.35.35,0,0,0-.18,0,.39.39,0,0,0-.2.06l0,0a.56.56,0,0,1,.21-.08.5.5,0,0,1,.29.07L6,16.65H5.89a.41.41,0,0,0-.24.08c-.07.08-.06.05,0,0A.44.44,0,0,1,6,16.6l.33.56-.48-.55h0l.08,0a.44.44,0,0,1,.37,0,.39.39,0,0,0-.26,0l.08,0h.15a.44.44,0,0,0-.18.05s0,0,0,0l.11-.06.54.17a.36.36,0,0,0-.25-.19.28.28,0,0,0-.12,0l-.06,0-.2.22c.09-.17.09-.12.1-.15l0,0,0,0,.1-.05a.51.51,0,0,1,.42,0l-.17-.05.18,0H7s0,0,0,0H7l-.17.14a.46.46,0,0,1,.44-.19.39.39,0,0,1,.18.06.26.26,0,0,1,.1.07.4.4,0,0,1,.12.32l-.59-.35a.44.44,0,0,1,.26-.07l-.11,0a.4.4,0,0,0-.22.27l.28-.3.06,0a.48.48,0,0,1,.18,0,.41.41,0,0,1,.23.07l-.34,0a.5.5,0,0,1,.29,0,.3.3,0,0,0-.15,0h0a.49.49,0,0,1,.17-.06h.15s0,0,.2.06l-.09.67H8A.42.42,0,0,0,8.09,17s0,0,.07-.1l0-.24L8,16.4c-.27-.06-.14,0-.18,0h.15s.12-.05.32.19l-.14-.13a.32.32,0,0,0-.16,0s0,0,0,0l.35.05a.21.21,0,0,0-.15-.05.19.19,0,0,0-.13,0,.45.45,0,0,1,.34,0l.26.33a.27.27,0,0,0-.06-.17.36.36,0,0,0-.27-.15c-.11,0-.09,0-.09,0l.08,0a.4.4,0,0,1,.34.06l.13.15a.37.37,0,0,0-.19-.18l-.15,0-.06,0h0l0,0h.08a.4.4,0,0,1,.11,0,.44.44,0,0,1,.23.15.29.29,0,0,1,.05.14.37.37,0,0,1,0,.23l-.5-.47a.39.39,0,0,1,.28,0l.06,0,0,0H8.66l.09,0,.05,0c.17.05.09,0,.11,0l-.07,0a.25.25,0,0,0-.21.12l-.05.11a.38.38,0,0,1,.23-.28.41.41,0,0,1,.33,0l0,0-.11,0s-.19,0-.14,0l.05,0a.39.39,0,0,1,.25,0s-.16,0-.2,0v0l.08-.05a.43.43,0,0,1,.31,0h0l-.17.05c.05-.06.29-.06.26-.05h0l.21,0a.25.25,0,0,0-.18,0l.14,0a.37.37,0,0,1,.26.08l0,.05a.21.21,0,0,0-.17-.08.26.26,0,0,0-.21.08.24.24,0,0,0-.08.13l.58-.14a.33.33,0,0,0-.28-.11h0a.86.86,0,0,1,.17,0l-.29.48a.38.38,0,0,1,0-.16.35.35,0,0,1,.1-.23A.25.25,0,0,1,10,16.3h.26l-.32.14a.37.37,0,0,1,.22-.16.42.42,0,0,1,.3,0l0,0a.27.27,0,0,0-.27,0l.3.57a.32.32,0,0,0,.19-.36.34.34,0,0,0-.21-.24h.1l.18.12a.27.27,0,0,0-.18-.1c-.06,0-.07,0-.07,0h.1a.37.37,0,0,1,.25.08h-.4a.59.59,0,0,1,.2-.08.35.35,0,0,1,.3.11.27.27,0,0,0-.21-.08.33.33,0,0,0-.14,0s0,0,0,0l.41,0a.52.52,0,0,0-.13-.05h.16l.25.29s0,0,0-.1-.2-.2-.29-.16l-.09,0,.07,0a.48.48,0,0,1,.2,0l.17.05c-.2-.09-.22,0-.23,0s0,0,0,0l.08,0a.24.24,0,0,1,.15,0,.33.33,0,0,1,.28.26l-.46-.2a.4.4,0,0,1,.35,0l.07,0h0l-.07,0a.21.21,0,0,0-.11,0,.24.24,0,0,0-.18.11.3.3,0,0,0,0,.32h0l0-.11a.33.33,0,0,1,.13-.28l.06,0s0,0,0,0h.22a.31.31,0,0,1,.15,0l-.15,0h0a.18.18,0,0,0-.1.06.32.32,0,0,0-.06.13c-.06.09.06.33.16.35l.23-.56s.08,0-.06,0a.16.16,0,0,0-.14.06h0l.07-.08.09,0a.7.7,0,0,1,.21,0,.31.31,0,0,1,.13.06l.05,0,0,0s-.21-.07-.28,0a.31.31,0,0,0-.15.24v.06l0-.21a.38.38,0,0,1,.17-.13.3.3,0,0,1,.31.06s0,0,0,0a.18.18,0,0,0-.17,0l-.07.05a.35.35,0,0,1,.26-.08h0l-.08,0-.06,0a.3.3,0,0,0-.13.32l.21-.36a.61.61,0,0,1,.2,0h0a.27.27,0,0,0-.16.08l.13-.08a.48.48,0,0,1,.2,0l.06,0a.08.08,0,0,0-.07,0h-.06c.2,0,.2,0,.22,0l0,0h0s-.18,0-.19.06l.22-.11H13a.32.32,0,0,1,.29.19l-.42-.12a.41.41,0,0,1,.23-.07.35.35,0,0,1,.3.1l-.1-.07.11.05s-.19,0-.2,0l0,0,.47.07c-.12-.2-.21-.15-.21-.16h0s0,0,.11,0h-.06c.13,0,.21,0,.13,0l.22,0c-.17-.08-.19,0-.21,0h0l.05,0,.07,0h.1a.29.29,0,0,1,.15.11c.09.23,0,.21,0,.24l0,.05-.31.14h.06s.13,0,.17-.07.15-.23.06-.32,0,0,0-.06l-.07-.05,0,0H14l0,0h0s0,0-.14,0,.14-.06.15,0h.06l.06,0-.31.35a.27.27,0,0,1,0-.26.26.26,0,0,1,.12-.09l0,0h.19s-.05-.07-.2.16l.24-.17c-.12,0-.08,0-.06,0a.34.34,0,0,1,.15,0l-.13,0a.25.25,0,0,1,.23,0l.07,0s.06,0,0,0l-.21.11a.35.35,0,0,1,.24-.14.34.34,0,0,1,.16,0s.09,0,0,0l-.18,0a.3.3,0,0,1,.2-.05.23.23,0,0,1,.14.06s0,0-.1,0h.11s.12,0,0,0-.11,0-.11,0l0,0a.38.38,0,0,1,.28-.11.33.33,0,0,1,.14,0l.07,0,0,.05,0,.06,0,.06a.24.24,0,0,1,0,.17l-.12-.36.08,0h0a.22.22,0,0,0-.18.05l.07,0a.38.38,0,0,1,.2,0h.14a.19.19,0,0,1,.08,0,.26.26,0,0,1,.16.07l-.07-.05a.2.2,0,0,0-.1,0s.12,0,.16,0l.09,0a.13.13,0,0,0-.12,0l0,0a.32.32,0,0,1,.14,0,.39.39,0,0,1,.18,0l-.06,0,.11,0a.2.2,0,0,0-.15,0l0,0,.36.06c-.09-.14-.16-.11-.17-.12h0a.4.4,0,0,1,.2.05l.11.06,0,.05v0a.23.23,0,0,0-.18-.06c-.09,0,0,0,0,0l.24-.05h0s0,0-.11.06l.17-.07.12,0,.07,0c-.1,0-.11,0-.09,0s0-.07.23,0h-.15a.33.33,0,0,1,.19,0l.07,0h.28l0,0a.27.27,0,0,1,.22,0s.08,0,0,0h.05l.1,0h0l.16,0h0l.16,0s0,0,0,0-.05,0,0,0l.17,0c-.09,0,0,0,0,0a.66.66,0,0,1,.15,0l-.15,0a.28.28,0,0,1,.19,0h0a.34.34,0,0,1,.23,0h-.07a.45.45,0,0,1,.28,0h0a.4.4,0,0,1,.13,0h.11a.23.23,0,0,1,.18.06l-.05,0h.16l-.07,0,.12,0a.24.24,0,0,1,.18,0h.22l0,0,.17,0,.08,0h0l-.07,0,.09,0,.09,0a.3.3,0,0,1,.22,0l-.06,0h.08a.15.15,0,0,1,.1,0,.19.19,0,0,1,.1.12l-.2-.11a.29.29,0,0,1,.18,0l0,0,.1,0h.09a.34.34,0,0,1,.16,0h-.05a1.16,1.16,0,0,0,.19,0h.07a.42.42,0,0,1,.11,0l.09,0c-.05,0,0,0,.1,0h-.13c.07,0,.17,0,.16,0h0a0,0,0,0,0,0,0l-.06,0a.23.23,0,0,1,.14,0h0a.32.32,0,0,1,.21,0l.07,0h0c-.05,0-.11.08-.1.1a.11.11,0,0,0,0,.08l0-.16.08-.05a.25.25,0,0,1,.15,0h0l.12,0h.05l0,0h0s.05,0-.1,0h0l0,0h.14l0,0,.38-.36-.24.34s0,0,.12,0h.22s.11,0,.09,0l.08,0s0,0,.07,0a.22.22,0,0,1,.15,0h-.08a.28.28,0,0,1,.14,0,.27.27,0,0,1,.11,0h-.05l.1,0a.18.18,0,0,1,.19.08l-.06-.05h0a.25.25,0,0,1,.12,0c.05,0,.06.05.08.06l0,0s.09,0,.19,0h-.06a.27.27,0,0,1,.14,0h.16s.05.06,0,.08l-.08-.1H24s.05,0,.1.07l-.07,0h.14a.08.08,0,0,1,.05,0s.09.09.07.11l-.06-.09s0,0,0,0,.12,0,.14,0h0s.05,0,.16,0h-.08l.2-.05h0a.29.29,0,0,1,.24,0h0a.2.2,0,0,1,.12,0s0,0,0,0h0s.09,0,.18,0h0l.13,0a.24.24,0,0,1,.21,0H25.5a.21.21,0,0,1,.22.1l0,0L26,17h.15c.05,0,.09,0,.19,0l0,0h.27a.28.28,0,0,1,.17,0c.05,0,.11,0,.09,0h.07c0,.08.12,0,.24,0h0a.23.23,0,0,1,.28,0h0a.33.33,0,0,1,.26,0h0a.24.24,0,0,1,.12,0h.05s.05,0,0,0l0,0s.11,0,.18,0h.23s.06,0,.08,0h0s0,0,0,0h.05a.15.15,0,0,1,.11,0h0a.24.24,0,0,1,.23,0h0a.19.19,0,0,1,.15,0h0s.08,0,.05,0,0,0,0,0h0a.17.17,0,0,0-.14,0h0c-.07,0-.16-.05-.22,0h0s-.06,0-.09,0h-.05s0,0-.06,0h0c0,.05-.05,0-.08,0h-.08l-.15,0h0c-.06,0-.13,0-.2-.05l0,0c0,.08,0,0-.06,0h-.05a.14.14,0,0,0-.09,0h0a.27.27,0,0,0-.23,0h0c0-.05-.14,0-.2,0h0l-.14.06a.15.15,0,0,1-.17-.08h.07a.08.08,0,0,1-.1.06H26.7s-.11,0-.12,0h-.94v0s-.08-.05-.1,0l-.05,0v0a.25.25,0,0,0-.1,0c-.07,0-.12,0-.18,0h0a1.71,1.71,0,0,1-.18.05h0a.15.15,0,0,1-.16,0h-.09a.13.13,0,0,0-.12,0h0l-.11,0h-.08a.41.41,0,0,1-.18,0h0a.24.24,0,0,1-.12,0l-.06-.09s0,.08.05.07,0,0,0,0H24L23.91,17c0,.06,0,0,0,0h-.13l-.08-.1a.08.08,0,0,0,0,.08h-.05l-.06,0,0,0h0a1.72,1.72,0,0,1-.2,0h0v0h0s0,0,0,0a.2.2,0,0,1-.17,0L23.16,17s0,0,0,0l-.07,0h-.05L23,17s0,0,0,0l0,0-.05,0h-.15l.08,0a.32.32,0,0,1-.29.05h-.16a.44.44,0,0,1-.25,0h.15a.16.16,0,0,1-.11.05H22s0,0,0,0-.1,0-.12,0h0l0,0-.13,0h0l0,0,0-.17a.28.28,0,0,1,0,.09s-.06.11-.11.1H21.4c-.1,0-.09,0-.07,0l.56,0-.63.05a.14.14,0,0,1-.11,0,.15.15,0,0,1-.07,0s.05,0,.1,0L21,17s0,0-.1,0L21,17l-.08,0h-.12a1,1,0,0,1-.2,0h-.16c-.14,0-.19,0-.16,0l-.2-.12a.13.13,0,0,0,.07.1s0,0,.06,0h0a.47.47,0,0,1-.12,0L20,17s0,0,0,0l-.12,0L20,17c-.13.07-.13,0-.17,0l-.07,0-.11,0,.16,0a.34.34,0,0,1-.19.07h-.07a.64.64,0,0,1-.27,0c-.06,0-.07,0,0,0s0,0-.06,0l0,0h0c-.06,0-.05,0-.24,0h0l0,0h0a.31.31,0,0,1-.19,0H18.5l0,0h-.12a.33.33,0,0,1-.15,0s-.06,0,0,0l-.15,0h0a.25.25,0,0,1-.22,0L18,17a.43.43,0,0,1-.2,0,.35.35,0,0,1-.15-.08l.16,0a.27.27,0,0,1-.14,0h0l-.24,0h.05a.42.42,0,0,1-.11,0s0,0,.09,0h0a.52.52,0,0,1-.32,0H17a.22.22,0,0,1-.13,0H16.7c.14,0,.11,0,.09,0a.28.28,0,0,1-.23,0l-.07,0h0l.17-.08c-.14.12-.13.07-.18.09h-.07l-.15,0,.25-.05a.47.47,0,0,1-.19.12A.25.25,0,0,1,16,16.9a.41.41,0,0,1-.06-.1l.08.1c.07,0,.08,0,.07,0H16s-.09,0-.18-.12l.36.05a.3.3,0,0,1-.08.07.31.31,0,0,1-.23,0h0l-.07,0c-.05,0,0,0,0,0h0l0,0a.33.33,0,0,1-.38,0l.08,0s.14,0,.06,0a.31.31,0,0,1-.2,0l-.07,0a.15.15,0,0,0,.09,0H15.4l.07,0a.57.57,0,0,1-.18,0h0l.08-.05a.34.34,0,0,1-.26.07l-.07,0-.07,0-.12-.36a.23.23,0,0,0,0,.16s0,0,0,.06l0,.05,0,0,0,0H15a.13.13,0,0,0,.1,0l0,0a.31.31,0,0,1-.24.08c-.15,0-.12,0-.12,0l.11,0a.36.36,0,0,1-.23-.07.15.15,0,0,0,.08,0,.3.3,0,0,0,.12,0l-.18,0-.09,0a.13.13,0,0,0,.1,0c.1,0,.12-.06.12-.06l-.2.11a.65.65,0,0,1-.16,0h0a.23.23,0,0,0,.16,0l-.13,0h.05a.29.29,0,0,1-.16,0l.24-.16c-.16.25-.26.15-.28.18h-.12s0,0,.06,0h0a.28.28,0,0,0,.12-.1.23.23,0,0,0,0-.24l-.31.35h0s.16,0,.12,0-.18,0-.21,0H14l-.13,0h-.09l-.07,0-.08-.05,0-.06c-.09-.09,0-.33.06-.33a.28.28,0,0,1,.18-.06h.07l-.31.14v0s-.06,0,0,.22a.31.31,0,0,0,.14.1h.1l.06,0h0l-.05,0s0,.06-.24,0l.23,0a.68.68,0,0,1-.27,0h-.13a.29.29,0,0,1-.26-.19l.46.07a.28.28,0,0,1-.08.09.35.35,0,0,1-.31,0l-.08,0-.11-.06a.14.14,0,0,0,.12,0h0l-.41-.12c0,.11.19.16.19.14s0,0,0,0l-.15,0,.21-.12a.39.39,0,0,1-.38.15.32.32,0,0,1-.13-.05h0s0,0,.19,0h-.06a.23.23,0,0,1-.14,0h0c.07,0,.08,0,.07,0l.13-.08a.36.36,0,0,1-.23.11h-.11s0,0,0,0l.21-.35a.3.3,0,0,1-.13.32c-.06,0,0,0-.07,0h-.16s0,0,.13-.05l-.08,0a.38.38,0,0,1-.33,0,.28.28,0,0,1-.09-.07.27.27,0,0,0,.28.05c.13-.06.11-.09.13-.1l0-.21a.28.28,0,0,1,0,.08s0,.19-.16.24-.31,0-.28,0l0,0s0,0,0,0l0,0H12l.16-.1-.06.05a.28.28,0,0,1-.2.1.46.46,0,0,1-.21,0l.23-.56a.34.34,0,0,1,.17.35.5.5,0,0,1-.07.13l-.1.07h0l0,0h-.26l-.14-.05.08,0h0l.05,0,0,0a.33.33,0,0,0,.13-.28l0-.1a.3.3,0,0,1,0,.32.27.27,0,0,1-.19.11.17.17,0,0,1-.1,0l-.08,0h0s.06,0,.19,0l-.46-.2a.29.29,0,0,0,.25.23c.08,0,.1,0,.11,0s0,0,0,0l-.06,0a.35.35,0,0,1-.32,0l.18.05h0l0,0a.6.6,0,0,1-.11,0c-.1,0-.31-.11-.31-.18a.31.31,0,0,1-.05-.15L11,17h-.07s-.08,0-.21-.07l.42,0-.1.08a.44.44,0,0,1-.18.06.39.39,0,0,1-.25-.1c-.08-.08.08.1.23.06s.09,0,.11,0H10.5a.34.34,0,0,0,.18.07s0,0,0,0a.46.46,0,0,1-.15,0,.44.44,0,0,1-.25-.14l.19.11h-.12l-.06,0a.32.32,0,0,1-.21-.23.33.33,0,0,1,.19-.37l.29.58a.38.38,0,0,1-.37,0l0,0a.25.25,0,0,0,.19,0c.1,0,.13-.08.14-.1l-.32.14h0a.32.32,0,0,0,.16-.09.33.33,0,0,0,.1-.22.41.41,0,0,0,0-.16l-.29.49H10L10,17a.38.38,0,0,1-.32-.12l.58-.14a.37.37,0,0,1-.39.3.38.38,0,0,1-.3-.15l.05.05a.32.32,0,0,0,.18.06h.05L9.7,17a.42.42,0,0,1-.24,0l.2,0-.14,0h-.1c-.06,0,.15,0,.18,0L9.42,17l-.16,0h.11l.06,0a.43.43,0,0,1-.35.08c-.08,0,0,0,.08,0l0,0s-.14,0-.16,0a.36.36,0,0,1-.16,0l0,0s.05.06.25,0a.35.35,0,0,0,.19-.22h0l-.06.13a.46.46,0,0,1-.4.21.65.65,0,0,1-.17,0s-.13-.05,0,0H8.8l-.15,0a.32.32,0,0,1-.13,0l-.08,0h.05a.34.34,0,0,0,.26,0l-.5-.47a.43.43,0,0,0,0,.23.33.33,0,0,0,.06.13.38.38,0,0,0,.23.15.33.33,0,0,0,.1,0h0l0,0h0l-.06,0a.62.62,0,0,1-.14,0,.47.47,0,0,1-.19,0,.4.4,0,0,1-.22-.22l.12.16c.18.1.25,0,.26,0s0,0,0,0a.66.66,0,0,1-.17,0A.37.37,0,0,1,8,17a.49.49,0,0,1-.08-.22l.27.34c.07,0,.22,0,.15,0a.41.41,0,0,1-.22,0A.5.5,0,0,1,7.87,17l.35,0a.75.75,0,0,1-.15,0,.53.53,0,0,1-.3-.05l-.14-.13c.18.22.23.14.25.16h0s.09,0-.19,0l-.21-.26,0-.25c0-.08.06-.08.07-.09a.34.34,0,0,1,.14-.09h0l-.09.67c.18.09.13,0,.17.06h0a.54.54,0,0,1-.3,0c-.06,0,.06,0,.15,0l-.35,0a.34.34,0,0,0,.15,0h.09l-.11,0,.28-.3a.42.42,0,0,1-.25.3.32.32,0,0,1-.16,0s0,0,.15-.05l-.59-.35a.37.37,0,0,0,.1.28l.07.05.1,0A.31.31,0,0,0,7.43,17l-.17.13-.12.05H7a.34.34,0,0,1-.11,0H6.85l-.27,0L6.4,17.2a.36.36,0,0,0,.28,0l0,0h0l0,0s0,0,.09-.14l-.2.22-.16.06a.61.61,0,0,1-.18,0A.43.43,0,0,1,6,17.09l.54.17h0l0,0a.41.41,0,0,1-.18.06h0l0,0a.48.48,0,0,1-.39,0c.18.08.22,0,.24,0H6.08l-.48-.54.33.55a.33.33,0,0,0,.24-.06c.08-.07.09-.08,0,0a.45.45,0,0,1-.32.1l-.14,0-.11-.05a.4.4,0,0,0,.26.06A.57.57,0,0,0,6,17.38l0,0a.43.43,0,0,1-.27.09.5.5,0,0,1-.25-.07l.14,0h0s.27-.09.28-.13,0,.05-.06.06l-.08.06.07-.05a.58.58,0,0,1-.25.14.38.38,0,0,0,.14-.1l-.06.06a.5.5,0,0,1-.28.11h0a.3.3,0,0,0,.21-.12l-.33.16s0,0,0,0a.39.39,0,0,0,.18-.1l0,.05-.07.06-.06,0c.07,0,.06,0,0,0a.54.54,0,0,1-.4.1l.46-.26c-.12.23-.12.16-.17.22l-.1.06a.51.51,0,0,1-.4.05l.51-.25a.4.4,0,0,1-.13.18l-.07,0-.07,0H4.88l.06,0a.41.41,0,0,0,.21-.41l-.6.44a.38.38,0,0,0,.39,0l0,0s0,0-.07.06a.4.4,0,0,1-.26.11.46.46,0,0,1-.32-.1.36.36,0,0,1-.11-.15L4,17.41l.4-.23a.49.49,0,0,1,.36,0,.51.51,0,0,1,.2.17.5.5,0,0,1,.06.33l0,.08,0,.06,0,.06a.57.57,0,0,1-.11.11.41.41,0,0,1-.25.11A.49.49,0,0,1,4.17,18l.57-.65a.47.47,0,0,1,.16.33.46.46,0,0,1-.05.2.31.31,0,0,1-.08.12L4.7,18l-.08,0-.08.05-.1,0H4.37a.46.46,0,0,1-.32-.11.43.43,0,0,1-.15-.36.35.35,0,0,1,0-.14l.06-.1.3.7a.33.33,0,0,0,.28-.1s0,0,0,0a.51.51,0,0,1-.16.12.48.48,0,0,1-.47-.06L3.8,18l0,0s0,0,.14.11a.44.44,0,0,0,.46-.05c.17-.17.08-.1.09-.1a.85.85,0,0,1-.09.15l.09-.4a.38.38,0,0,1,0,.15.48.48,0,0,1-.09.24.37.37,0,0,1-.16.13.16.16,0,0,1-.09,0l-.08,0h0a.4.4,0,0,0,.2-.16l0-.32a.49.49,0,0,1,0,.31c-.17.27-.27.23-.27.25s0,0,0,0h0L4.26,18a.45.45,0,0,1-.09.34.44.44,0,0,1-.11.1H4l-.11.05H3.84a.36.36,0,0,0,.22-.19L4.2,18l-.33.51s0,0,0,0l-.1.08-.15.1.25-.29a.61.61,0,0,1-.06.13.5.5,0,0,1-.26.24l-.11,0H3.34a.64.64,0,0,1-.31,0h0a.68.68,0,0,0,.19,0,.51.51,0,0,0,.31-.3.55.55,0,0,0,0-.16v-.06s0,0,0,0l-.36.58s.09,0,.11-.05a.5.5,0,0,1-.16.13l-.42,0a.44.44,0,0,0,.22,0A.52.52,0,0,0,3.24,19l0-.05-.1.11L3,19.12l.08-.05s0,0,.06-.05.06-.11,0-.06a.68.68,0,0,1-.24.26c-.09,0-.05,0-.05,0h0a0,0,0,0,0,0,0l0,0h0l0,0v0l0,0,0-.35-.38-.35.23.83-.12.09-.15.07a.56.56,0,0,0,.14-.09l0,0-.47.24a.25.25,0,0,0,.14,0h.05a.39.39,0,0,0,.09-.07.4.4,0,0,0,.1-.22.48.48,0,0,0-.09-.37l.05.54s0,0,0,0a.49.49,0,0,1-.19.24.52.52,0,0,1-.38.09l.41-.13-.12.1a.62.62,0,0,1-.37.11l.31-.9a.43.43,0,0,1,.11.12.18.18,0,0,1,.06.08.68.68,0,0,1,0,.29.43.43,0,0,1-.14.27c-.06.06-.11.09-.11.08s-.07,0-.08,0h0l.05,0a.27.27,0,0,0,.13-.17l-.22.28L2,20s0,0,0,0a.44.44,0,0,0,.18-.26.48.48,0,0,0,0-.18l-.08.33a.52.52,0,0,1-.17.21.83.83,0,0,1-.16.09l-.06,0,.09,0a.84.84,0,0,0,.1-.1A.47.47,0,0,0,2,19.53l-.26.65s0,0,.06,0a.74.74,0,0,0,.11-.1C2,20,2,19.9,2,20a.65.65,0,0,1-.15.2l-.07.05Z"/><path d="M15.45,21.39a4,4,0,0,1,.52-.9c.08-.13.19-.23.27-.35l.17-.17.1-.11s0-.08,0,.13v-.11c.05-.05.09-.11.15-.16v.05c0-.07.11-.27.2-.29h0l0,.11c0-.06,0-.13,0-.19s0-.12,0-.17l0,.09a.66.66,0,0,1,0-.11.54.54,0,0,1,0-.25v.22a.91.91,0,0,1-.07-.14.5.5,0,0,1,0-.13.46.46,0,0,1,.07-.27l0,.44a.5.5,0,0,1-.16-.27.75.75,0,0,1,0-.12s0,0,0,.12a.34.34,0,0,0,.22.22l.57.12-.84-.54,0,0h0s0,0,0-.08,0-.13,0-.12,0,0,0,.14a.45.45,0,0,0,.37.22l-.42-.25a.06.06,0,0,0,0,0s0,0,0,0a1.77,1.77,0,0,1-.14-.21l.1.16c-.08-.09-.08-.1-.1-.11s0,0,0,0,.06.05,0,0a.44.44,0,0,1-.18-.18,1,1,0,0,1-.08-.18s0,0,0,.07l.15.16A1.22,1.22,0,0,1,16,18L16,17.66A.5.5,0,0,0,16,18a.66.66,0,0,0,.15.15s0,0,0,0A.5.5,0,0,1,16,18l-.15-.28c0,.19.09.17.09.18v0l0,0a.77.77,0,0,1-.12-.2v-.06a.42.42,0,0,0,.25.29.24.24,0,0,0,.21,0h-.12a.52.52,0,0,1-.38-.21s0,0,0,0a.2.2,0,0,0,.11.06h0a.19.19,0,0,0,.07-.06h0a.81.81,0,0,1-.29-.19l.46,0a.41.41,0,0,1-.37,0,.36.36,0,0,1-.14-.09s0-.05,0,0l.3,0a.39.39,0,0,1-.36-.05.4.4,0,0,1-.14-.16c0-.06,0,0,.06,0a.18.18,0,0,0,.1,0h0a.26.26,0,0,1-.24-.07.42.42,0,0,1-.08-.12l.11,0s-.16,0-.15-.07,0,0,0,0,.09,0,.08,0l-.09,0v0l0,0a.2.2,0,0,1,.07,0s0,0,0,0-.06-.05-.07,0h.12c.05,0,.16,0,0-.05h0a.31.31,0,0,1,.25,0c.07,0,.17.13.17.11s0,0,0,0a.22.22,0,0,0-.21,0l.3,0c.1.05.11.07.11.05s0,0-.08-.05a.36.36,0,0,0-.3,0l.45,0s0,0-.06,0h0a1.71,1.71,0,0,1,.3.09h0a.74.74,0,0,1,.23.14s.06.08.05.05a.48.48,0,0,0-.32-.17h-.12a.56.56,0,0,1,.38,0,.65.65,0,0,1,.35.43l0-.07a.5.5,0,0,0-.09-.16s0,0,0,0l0,0a.6.6,0,0,1,.18.32l-.15-.28c-.08-.07-.1-.07-.1-.07l.08,0a.53.53,0,0,1,.21.2.67.67,0,0,1,.08.37L17,17.46s0,0-.06,0l.15.16a.48.48,0,0,1,.09.23s0,0-.05-.1a.53.53,0,0,0-.15-.15s0,0,0,0a.76.76,0,0,1,.16.17s.05.08,0,0l.11.16s0,0-.06-.06l0,.05a.64.64,0,0,1,.06.11l-.42-.25a.57.57,0,0,1,.46.27.75.75,0,0,1,.06.24c0,.08,0,.12,0,.08s0,0,0,0v.27l-.27-.42a.44.44,0,0,1,.26.26.65.65,0,0,1,0,.17s0,0,0,0a.15.15,0,0,0-.05-.08l0,.44a.27.27,0,0,0,0-.15s0,0,0,0v.33c0-.09,0,0-.06.12l0,.09-.06.07s0,0,0,.06l0,.1h0c0,.1.06.05.09.13v0a1.07,1.07,0,0,1,0,.25l0-.12a.73.73,0,0,1-.1.36.42.42,0,0,0,0,.1l-.13.25a2,2,0,0,1-.39.42,1.58,1.58,0,0,1-1.08.39Z"/><path class="a" d="M13.61,9A41.29,41.29,0,0,0,22,8.3a8.54,8.54,0,0,0,4.46-1.84c1.18-1.11,1.68-3.12.66-4.39A3.48,3.48,0,0,0,24.25,1a13.39,13.39,0,0,0-3.11.67,22.1,22.1,0,0,1-12.48.22c-1.6-.5-3.6-1.42-5.21-.42A2.05,2.05,0,0,0,2.9,4.81C5.33,7.77,10,8.92,13.61,9Z"/><path class="a" d="M27.48,2.81A2.52,2.52,0,0,0,29.13.67"/><path class="a" d="M27.84,4.45A3.43,3.43,0,0,1,30,5.34"/><path class="a" d="M21.22,1.53a4.42,4.42,0,0,1,1.36,2.74"/><path class="a" d="M15.06,2.65a3.52,3.52,0,0,1,.54,3.24"/><path class="a" d="M8.42,1.73a3.29,3.29,0,0,1,.13,3.42"/><path class="a" d="M3,1.6A2,2,0,0,1,1.23.12"/><path d="M2.2,3.12a.3.3,0,0,1-.26.06c-.11,0-.18-.08-.22-.06s0,.07.05.08,0,0,0,.09,0,.22-.15.24a1,1,0,0,1-.54-.11L1,3.35a.71.71,0,0,1,0-.58c.05-.14.24-.13.41-.18a.93.93,0,0,1,.31,0,.45.45,0,0,1,.37.19c.1.18,0,.21.11.27Z"/></svg>