<svg xmlns="http://www.w3.org/2000/svg" viewBox="0 0 670.35 427.76"><defs><style>.a{fill:#ff6529;}.b{fill:#386e93;}.c{fill:#ffcc4d;}.d{fill:#42210b;stroke:#42210b;stroke-miterlimit:10;stroke-width:3px;}</style></defs><title>favourite-recipe-04</title><path class="a" d="M652.91,411c-15.74-5.81,3.17,7-2.75,0,8.12,6-10.65.82-8,0-9.45,9.5-10.73,1.81-5.8.25-9.51,7.52-7.86,9.21-3.33,8.15.25-1.06-.94-4.88-3.61-8.4-2.85-2.3-6.73-3.91-3.88-3.78-13.42.13,12.46,2-4.14,6.63,2.12-4.53-5.89,1-9.06-2.85-1.59-2.82-3.22-5.71-4.9-6.73s-3.38-.18-5.13,4.45c-3.5-5.5-7.16-3.22-11,2.28-3.8.56-7.74-2.52-11.82,0-4.08-9-8.3-4.15-12.64,0-6.36-.19-13,4.92-19.86,0-6.88,9-14,7.09-21.33,0-7.33,5.58-14.88-5.22-22.61,0-7.73,7.79-15.65-5.07-23.73,0-8.08-7.63-16.32,5.79-24.68,0-8.37,6.38-16.86,5-25.46,0-8.59-2.69-17.29,4.18-26.06,0-8.77,11.12-17.61,3.85-26.5,0-8.89.52-17.82,8-26.77,0-8.94,5.11-17.91-10.35-26.86,0-8.95,11-17.89-14.31-26.78,0-8.9-6.29-17.76,2.68-26.54,0-8.79-9.78-17.51,1.71-26.13,0-8.62,5.62-17.14-4.61-25.54,0-8.39-10.37-16.66,7.37-24.78,0-8.11-.74-16.07,11.85-23.85,0-7.78-1.84-15.37-16.44-22.75,0-7.39.8-14.56,9.1-21.49,0-6.93-3.93-13.62,3.68-20,0-3.81,2.18-7.53-8.95-11.15-3.37-3.62-3.89-7.14-5.18-10.55,3.37-3.41-9.64-6.72-6.59-9.91,5.67-3.19,16.71-6.27,1.54-9.23-5.67-1.49,5.93-2.94,6.08-4.36,5s-.7-3.35-4.17-2.3c-11.31-2.65-1.46.33-7.78-2.72-1.27,8.1,3.36,2.61-7,6.92-3.86,5.51-13.48-5.63-6.18-6.92,1.68-2.09-10,4-5.33,8.67,2.84,1.52-14,2.24-2.33,1.13,3.9-1.11-8.9-4-2.1-9.8,1.62-4.52,8.76,5.31-6.07,0,2.73,5.69-4.92,5.3-2.09,0,.8,3.8-7.51,4.38,0-2.91,11.18-5.69-8.65-8.26,0-8.33-15.11-3.54,1.45-4.09,0-1.21-12.77-4.6,4.47-10.31,0-11.93,10-7.51-5.83-12.16,0-11.33-5.46-3.45-2.81-7.13,0-6-11.46-1.78-4.42-1.84,0-8.92-10.62-4.09-2-8.7,0-12-2.78-1.35,8.42-5.63,0-10.43,9.37-4.8-11.28-10.1,0-13.49,13.51-5.83-15.59-7.81,0-10.63-19.64-2.82-2.31-6.48,0-15.68,4.77-8.61-1.32-11.53,0-14.35,11.12-2.81-.9-5.53,0-13.72-2-8,7.4-12.36,0-16.19-15.7-3.82-4-7.12,0-13,2.56-7.05-8.92-14.49,0-20.18,8.25-5.68-.74-9.61,0-9.62-10.21,2.17,9.88-9,0-18.86-2.5-9.85-7.39-18.37,0-10.88,16.48-5.81-2.19-9.4,0-13.38,7.38-4,8-8.35,0-15.71,8-3.48,13.53-6.5,0-10.62,14.18-4.12-11.57-9.33,0-17.2,4.09-8.23,4.33-11.77,0-14.72,5.44-3-12.08-5.32,0-11.23-16.53-12.11,0-13.85,0-13.45.25.4,6,3,0-.58,9.57.79,4.61-2.47,0-5.93-3.68-3.46-5.78-7.12,0-7.13-1.4-.07,6.21-1.1,0-3.17-11-2.08,6.79-5.2,0-9.46,7.12-.39-5.08-10.53,0-10.13,8.2-1.06,7.08-10.51,0-12.34-.67.2,1.36-3.69,0-5.1.14.85,0-15.33,0-11.18,5.4,3.56,11,5.51,0,5.1-4-.42-3.64-3.18,0-9,.1,3.6.94.91,2.75,0,.9-17.59,2-13,3.36-7.87.66-.1,1.38,3.83,2.14,6.81s1.69,5,2.46,1.06c1.74-2.74,3.67-4.27,5.8,0,2.12-4.34,4.44-1.35,6.94,0,2.49-.79,5.7,7.49,8,2.8,1.43-6.72,2.89-7.38,4.4-6.38S55.84,16.1,57.44,16c3.18,4.37,6.53,1.33,10-1s7.16-4.28,11,1c7.6-2.57,15.78,7,24.47,0,8.68-1.25,17.87-.69,27.5,0,9.62,1.19,19.68,5,30.1,0,10.43,4.39,21.21-14.86,32.28,0,11.07,1.94,22.44-1,34,0,11.58,9.39,23.37-.38,35.31,0,11.94,15.18,24-2.27,36.19,0,12.16-4,24.39-7,36.62,0,12.23-12.34,24.46,2.7,36.62,0,12.16,1,24.24,6.39,36.18,0,12,8,23.74,13.68,35.32,0,11.58-4,22.94,11.86,34,0,11.07,9.17,21.85,11.48,32.27,0,10.43,1.72,20.49-6.12,30.11,0,9.63,7.22,18.82-.46,27.5,0a25.47,25.47,0,0,0,12.64,1.86c4.08-.33,8-1.27,11.82-1.86,3.8,7.85,7.46,2.44,11,5.08,3.5,16.62,6.85-11.26,10-5.08C614,8.73,615.52,7.38,617,8.34s3,4.23,4.41,6.19c0,6.61,5.52-6.38,8,1.49,4,7.5-1.12,7.21,3.61,5.89-4.45-1.33,8.38-3.68,3.33-.34,6.39-.6,3.74,2.44,5.8-5.55,3.37,3.2,5.12-6.76,8,0,7.38,9.39-5.71,11.22,2.05,9.79-3.61-1.44-.1-6.13.7-9.79,5.1-5.61-2.43-5.5,0-3.55,1.89,1.95,5,5.74,0,7.49-2.55-4.79.23-2.15,0,1.76-3.15,3.91,2.31,9.1,0,9.42-1.89-5.25,3.56-2.37,0,1.85,1.35,4.22,1.3,9.78,0,9.9.75,5.1,1.31,10,0,11.85.39,1.88,1.05.75,0-6.16.12,10.32-4.68,9.69,0,10.78-1.08-6,8.73-4.23,0-.36-2.66,3.87,2.63,9.85,0,12.34-4,3-10.39,3.37,0,5.7-9,2.33-.87,6.64,0,17.56-4.09,3.31-4.31,2.46,0,4.44-6.06,2-9,6.8,0,21.46-1-.78,4.09,4.76,0,11.22-.5,6.45,5.35,13.82,0,16.69,19.54-6.37,3.48,0,0,8.45,6.78,8.44-7.42,18.95,0,20.83,8.44,9.25-3,15.54,0,20.12-19.31,4.59-2,7.46,0,9.9,0,1-3.06,3.58,0,8.36-5.48,4.79-9.46,11.81,0,21.79-5.66,12,.62,20.51,0,25.44-9.51,4.92-1.36,6.31,0,4.21-.78,9.1,2.39,12.7,0,15.79,18.24,3.09-6.82,5.66,0,12.72-6,5.3,4.16,7.39,0,10.45-19.45,3.06-6.27,7.09,0,16.29,3.12,3.32,10.76,6.56,0,9.54-8.72,3-18.75,5.71,0,8-3.35.83-5,4.77,0,7.38-.83,2.61,7.85,3.9,0-.56-10,.09-3.06,3.75,0,7.72,10.64,4,7.55,8.24,0,9.54,4.84-.61-3.26,3.75,0,6.58-18.85,2.84,11.06,4.17,0-2.5,1.56-4.23,7.93,4.88,0,8.45,2,4.74-9.56,7.37,0,9.23,10.23,10,15.61,12,0,10.39,14.16,2.44,7.71-1.44,0,3,3.62,3.41-10.88,2.45,0,8.51-3.14,8.62,8.54-5,0,7.83C657.12,417.63,646.42,415.61,652.91,411Z"/><path class="b" d="M68.49,427.76c-3.37,0-5-3.41-6.77-8.36a5.14,5.14,0,0,1-.82.38,5.06,5.06,0,0,1-4.9-.94,5.83,5.83,0,0,1-1.47-1.62l-.49.14-.91-.21c-1.6-.38-2.74-.63-3.55-.8a3.45,3.45,0,0,1-.64,1.56,3.89,3.89,0,0,1-2.89,1.56,18.24,18.24,0,0,0-4.77,1.39,6.92,6.92,0,0,1-7.6,1.6,9.92,9.92,0,0,1-2.39-1.28.49.49,0,0,1,0,.11c-1.49,4.14-10.68,3.51-10.77,3.49l-3-.6.14-3a3.18,3.18,0,0,1,1.47-2.66q-.21-.28-.39-.57a5.13,5.13,0,0,1-5.94-.49l-.18-.17a4.42,4.42,0,0,1-3.51-2c-2-3,.36-6.34,2.19-8.35l-1-2.09,2.25.81.06-.07.38-.36.47-.25.51-.26c-.45-.23-.9-.44-1.19-.58a6.94,6.94,0,0,1-3-2.18c-2.93-1-4.42-2.2-4.63-4.26a3.77,3.77,0,0,1,1.58-3.47c.11-2.34,1.66-4.23,3.2-5.71l-2.19-.79L13,383.85c1.58-1.19,2-2,2-2.29,0-.5-.82-1.37-2.44-2.6a5.22,5.22,0,0,1-2.28-3.18,7.14,7.14,0,0,1-1.85-4.35,4.37,4.37,0,0,1-2.89-2.9c-.77-2.62,1.21-4.36,2.65-5.63.47-.42,1-.87,1.5-1.38a7.49,7.49,0,0,1-3.13-4.41c-.84-3.75,1.94-6.64,4-8.75.2-.21.41-.42.61-.64,0-1.8,1.24-3.12,2.25-4.21a11.24,11.24,0,0,0,1.31-1.57,6.07,6.07,0,0,0-1.33-1l-5.63-3.2,5.77-2.95.1-.06c-.46-.49-1.09-1.07-1.53-1.47-2-1.85-4.56-4.15-3.83-7.36.63-2.78,3.32-4,5-4.58l-.86-.37c-2.63-1.13-5.6-2.41-5.52-5.39-2.32-.87-3.76-2.06-4.33-3.9-1-3.31,1.6-5.69,4.12-8,2-1.8,4.45-4,5-6.42l.12-.44.22-.4c2.22-4,1.36-5.92.45-7.93-.73-1.58-1.71-3.75-.56-6.21l.7-1.5,1.61-.41c.45-.11.83-.22,1.15-.32-1.56-2-4.07-5.24-3.82-9.76-.9-4.49.82-8.1,2-10.52a14.41,14.41,0,0,0,.92-2.18,3.4,3.4,0,0,0-.64-.44c-5.45-1.37-9.23-3-10-6.41s2.09-6,4.67-8.18a23.89,23.89,0,0,0,3.45-3.32c.33-1.55-.61-3.62-1.6-5.81-1.82-4-4.86-10.77,2.85-15.72,1.77-1.23,2-1.94,2-2s-.22-.42-1-1c-1.63.18-3.65,0-4.85-1.82-1.64-2.5,0-4.85,1.66-7.12,3.63-5.09,4.82-8.06,1.71-11.16l-.69-.68-.23-.94c-.7-2.76-1.63-5.49-2.37-7.69-1.7-5-2.72-8.05.19-9.84,2.3-1.42,4.45-.09,6.41,1.72a18.56,18.56,0,0,0,1.9-.94c-.53-.44-1.2-.93-1.68-1.27-2.24-1.63-6.41-4.65-4.13-8.79l.5-.9.91-.49c2.38-1.28,3.81-2.56,3.93-3.5.06-.48-.1-2.38-4.64-6.55l-4-3.64L13.66,149a54,54,0,0,0,4.95-2.37A32.7,32.7,0,0,0,14,144.93L2.77,141.5l11.3-3.28.75-.23c-.3-.28-.61-.55-.88-.78-2.54-2.2-5.7-5-5.46-8.93.13-2.29,1.41-4.38,3.81-6.22,3.66-7.55,2.5-8.33.79-9.5l-4.74-3.24,2.29-1.24c-1.75-1.32-3.63-3.19-3.41-6a6.18,6.18,0,0,1,2-3.91C6,95.28,2.78,91,4.83,86.67a7.42,7.42,0,0,1,2.38-2.8L0,79.65l12.28,1c-2.49-2.39-5.35-5.84-4-9.32a4.78,4.78,0,0,1,1.08-1.65A4.25,4.25,0,0,1,7.94,67.3c-.65-3,1.83-4.73,3.64-6l.47-.33-8.2-5.14,9.06-.5-.56-.93c-1.46-2.38-3-4.84-1.47-7.3a4.36,4.36,0,0,1,4-2c1.12-.19,2.35-.69,2.42-1.95A3.68,3.68,0,0,0,14.4,39.7a3.61,3.61,0,0,1-1.89-1c-1.56-1.51-1.08-3.4-.79-4.53,0-.17.11-.42.17-.68l-1-6.34a5.3,5.3,0,0,1-1.62-1.93c-1.49-3,.05-6.62,2.83-11.08l2.56-4.13C15.17,2.85,16,.34,19.08,0c3.26-.34,4.27,2.66,5.23,6.33a15.14,15.14,0,0,1,1.58,4.39,5.32,5.32,0,0,1,3.19-.88,5.11,5.11,0,0,1,2.69.94,5.56,5.56,0,0,1,1-.36c2.63-.7,4.82.78,6.27,1.76l.42.28a7.92,7.92,0,0,1,4.4,2.65C44.72,12,46,9.8,48.09,8.92a5,5,0,0,1,4.76.6,14,14,0,0,1,2.3,2.07c.26.28.63.67.9.91l1.25-.06L58.4,14c.5.68.78.79.78.79.54.08,2.4-1.19,3.38-1.86.37-.26.75-.51,1.13-.76,2.44-1.61,8.59-5.65,14.19,0,3.38-.39,6.62.63,9.54,1.56,5,1.59,8,2.35,11.41-.42l.75-.6,1-.14c8.81-1.27,18-.76,28.25,0l.17,0c2.25.28,4.52.69,6.71,1.09,7.4,1.34,14.39,2.61,21.46-.77l1.42-.68,1.45.61c2.58,1.08,5.49-.18,10-2.4,5.92-2.92,14.76-7.29,22.84,2.38,5.28.73,10.71.37,16.43,0a102.32,102.32,0,0,1,16-.23l1.07.09.83.68c6.17,5,12.49,3.32,19.81,1.38,4.3-1.14,8.76-2.31,13.42-2.16l1.63.05,1,1.28c5.52,7,10.09,5.51,18.33,2,4.48-1.91,9.52-4.07,14.81-3.41,11.6-3.79,23.91-6.74,36.39-.66,8.38-6.81,17-3.81,24-1.36,4.44,1.56,8.63,3,12.44,2.19l.52-.12.53,0c3.47.28,6.91.91,10.24,1.51,8.42,1.52,16.39,3,24-1.11l1.85-1,1.75,1.16c13.24,8.85,21.62,11.38,30.7.65l.62-.73.91-.31c6.05-2.08,11.77.07,16.82,2,7,2.63,11.17,3.88,15.78-1l2.25-2.41,2.54,2.1c11.11,9.2,19.32,9.3,27.45.34l1.28-1.41,1.88.31c3.63.6,7.37-.2,11.33-1.05,6.18-1.33,13.2-2.83,20.09,1.55l.22.15c4.91,3.69,9.7,2.41,15.25.93,3.32-.89,6.75-1.8,10.34-1.62l.63,0,.58.26a22.1,22.1,0,0,0,11,1.57,75.76,75.76,0,0,0,7.5-1.12c1.37-.25,2.73-.5,4.07-.7l2.56-.4,1.12,2.33c1.29,2.66,1.7,2.62,3.4,2.43a8.39,8.39,0,0,1,6.51,1.38l.7.52c1.3-3.34,2.45-6,4.65-6.92,1.19-4.09,2.57-6.14,4.6-7a4.8,4.8,0,0,1,4.51.46c1.69,1.07,2.89,3.07,4.05,5,.16.28.33.55.49.82a6,6,0,0,1,5.08-1.14c1.9.53,3.3,2.07,4.16,4.57a21.16,21.16,0,0,1,.94,2c.31-.07.65-.13,1-.18a8.14,8.14,0,0,1,3.81.18c.1-.46.22-1,.37-1.53l1.48-5.76,3.31,3.14c1-1.1,2.75-2.81,5.29-2.34l.32.07A4.12,4.12,0,0,1,651,7.78a5,5,0,0,1,4.91,2.73,5,5,0,0,1,.43,3.06,6.85,6.85,0,0,1,.83,4.92,6.07,6.07,0,0,1-2.59,3.63l0,.93-.39.48L662.92,27l-7.38,1.37a6.9,6.9,0,0,1-.7,5.21c.78,3.32,1.11,7.79-.11,10.32a42,42,0,0,1,.56,8.29A4.15,4.15,0,0,1,658,54.81c.58,1.64.39,3.92-3.08,6.12l.55,3-1.33-.31c.11.44.24.87.35,1.26.77,2.66,1.82,6.29-1,9l-.09.08,12.56,2.82-14,3.64a9,9,0,0,0-1.46.48c.2.63.63,1.61,1,2.38a33,33,0,0,1,3.11,11l.14,1.84-.54.44,6.49,3-8.49,2.78c-2.58.84-2.95,1.86-3.09,2.24-.52,1.4-.55,5.08,5,14.06l10.19,16.54-8.28-6.45a13.6,13.6,0,0,1-1.42,4,24.08,24.08,0,0,0,1.12,5.51,30.86,30.86,0,0,1,1.05,4.75c4.1-1.11,5.7-.89,6.89,1.23,1.57,2.77-.76,4.8-2.82,6.59a32.18,32.18,0,0,0-5.65,5.88c3,5.62.24,11.54-1.45,15.24-.35.76-.82,1.78-1.09,2.54l.36.09.7.78c6.79,7.43,3.53,14,1.59,17.86A13.9,13.9,0,0,0,654,196l2.64,4.07-4.82,1.15c-1.59.38-2.82.72-3.77,1l.58.25c2.24.95,4,1.71,5.07,3l.84,1,0,1.31a5.56,5.56,0,0,1-.8,2.53c-.58,1.11-1,1.91.25,3.86l1.62,2.54-2.27,2c-2.91,2.54-4.37,4.95-4.49,7.38-.13,2.76,1.46,5.92,4.73,9.37l1.64,1.73-1,2.17c-3.33,7.08-1.92,12.51-.68,17.3,0,.13.07.26.1.38l2.1-3.25-1.2,14a33.14,33.14,0,0,0,.49,8.84,22.11,22.11,0,0,1,.42,4c3.07.78,5.34,2,5.81,4.46.62,3.23-2.32,5-4.68,6.43a20.7,20.7,0,0,0-3,2.07h0l2.55,2.64-2.76,2.43a4.57,4.57,0,0,0-.69.71c.19.29.54.7.77,1,.95,1.11,2.38,2.8,2.1,5.12a5.49,5.49,0,0,1-2.42,3.83l-.68.51-.85.13a38.9,38.9,0,0,0-6.47,1.43c.65.69,1.54,1.53,2.27,2.22a46.06,46.06,0,0,1,6.37,6.95c.48.47,1.13,1,1.77,1.53,2.32,1.9,5.2,4.25,4.46,7.73s-4.38,4.87-7.9,5.86l-1.78.6-.89.3,2.05.27,18.88,2.29L652,343.65l.74.42c2.1,1.19,6.46,3.67,4.71,7.31a3.73,3.73,0,0,1-1.67,1.71c2.81,1.47,5.92,3.9,5.57,7.58-.14,1.53-1,3.95-4.69,5.66a8.9,8.9,0,0,1,1.63,3.86,9,9,0,0,1,0,2.5l.68.6-.8.12a8.92,8.92,0,0,1-3.5,5.37,8.29,8.29,0,0,1-2,4.14l.73.71c1.88,1.85,3.58,3.4,5.07,4.76,4.4,4,6.83,6.24,5.42,9.39a4,4,0,0,1-2.07,2.1c-.72.79-1.88,1.17-4.56,1a14.43,14.43,0,0,0-2.32.63,5,5,0,0,1-2.69,3.24c.12.08.26.15.4.23l2.61,1.45-.09.26a3.24,3.24,0,0,1,1.53,1.06,3.44,3.44,0,0,1,1,2l.75.28-.75.52c-.15,1.38-1,3-2.29,5a3.65,3.65,0,0,1,.07,1.42l-.39,2.69-2.77.34a7.19,7.19,0,0,1-4.84-1.78l-1.75-.72.28-.42a26.34,26.34,0,0,1-5.51-1.47,15,15,0,0,1-5.82,3.4,5.14,5.14,0,0,1-.11,1.21l-.49,2.12-2.12.5c-4.79,1.12-6.72-.56-7.49-2.16s-.5-3.28.62-5.06a27.68,27.68,0,0,1-4.62,1.63l-7.34,2.05,1.55-3.31a8.11,8.11,0,0,1-6.92-2.74l-.19-.23-.15-.27a45.5,45.5,0,0,0-2.87-4.65,15.08,15.08,0,0,0-.84,1.89l-2.47,6.54-3.75-5.9c-.83-1.3-1.35-1.53-1.39-1.55s-1.2.27-3.74,3.94l-.86,1.26-1.51.22a15.48,15.48,0,0,1-5.79-.51c-2.25-.5-3.48-.73-4.7,0l-3.39,2.1-1.64-3.64c-1.2-2.66-2-3.06-2-3.06-.76.07-3,2.23-4.2,3.39l-1.85,1.78-1.46-.05a22.61,22.61,0,0,0-5.66,1c-3.84,1-8.47,2.13-13.31,0-3,3.1-6.23,4.8-9.7,5.06-4.14.32-8.38-1.4-12.89-5.23-4.36,1.82-8.65.28-11.94-.89-3.62-1.3-5.82-2-8-.66-5.69,5.45-11.68,3-16.06,1.18-3.68-1.51-5.87-2.31-8-1l-2.29,1.44-2-1.86c-2.34-2.22-4.34-1.7-9,.22-3.53,1.45-8.2,3.36-13,1.34-8,5.18-16.94,4.89-27.07-.86-3-.83-6.39-.16-9.93.55-4.19.84-8.86,1.78-13.71.34-8.67,9-18,4.41-24.87,1-1.13-.56-2.2-1.09-3.27-1.57a38.65,38.65,0,0,0-6.66,1.61c-5.83,1.75-13,3.9-20.05-1.13-4.69,1.49-9.13-.5-12.8-2.15-5.62-2.52-7.86-3.09-10.87.39-6.29,7.7-13.31,2.71-17.5-.28-2.16-1.54-4.62-3.28-6.05-3-.85.17-1.88,1.17-2.91,2.83l-2,3.16-3-2.15c-3.53-2.5-6.93-1.76-12.18-.36-4,1.08-8.6,2.31-13.35.85l-.94-.28-.65-.73c-3.66-4.07-6.59-3.18-12.35-1-3.15,1.22-6.69,2.57-10.44,2.26-5.42,2.87-10.72,1.27-15,0s-6.91-2-9.54-.53l-2.57,1.41-1.84-2.27c-2.37-2.94-3.79-2.59-8.84.14-3.69,2-9.14,5-14.45,1.15a19.44,19.44,0,0,0-5.8,2.2c-5,2.48-12.46,6.17-19-2.7a28.54,28.54,0,0,1-6.69-4c-2.32-1.68-4.95-3.57-6.43-3.18-.6.16-2.2,1-4.26,5.61l-.82,1.83-2,.21a22.17,22.17,0,0,0-5.71,1.87c-4.84,2-12.08,5.09-18.42-2.57-2-.86-4.06-.34-7.16.54s-7,2-10.87.44c-3.16.48-5.75-2.13-7.27-3.65-.29-.29-.69-.69-1-1l-2.08,3.2L89.59,410a6.84,6.84,0,0,0-2.28-1.87c-.26.19-1.2,1-2.46,4.16L81.41,421l-3.11-8.77c-.29-.82-.55-1.47-.78-2a43.64,43.64,0,0,0-2.41,7.24c-1,5.07-2.27,10-6.24,10.28ZM22,424.71Zm39.64-24.87,4,9.85c.61,1.48,1.21,3.24,1.79,4.93.19.57.43,1.25.67,1.94,0-.17.07-.34.1-.53l0-.22c2.15-8.25,4.51-13.79,9-14a5.52,5.52,0,0,1,4.4,2A7.69,7.69,0,0,1,86,401.25,7.83,7.83,0,0,1,92.26,403a5,5,0,0,1,1.56-.41c3-.33,5.17,1.84,6.9,3.58.43.42,1.06,1.05,1.52,1.42l1.07-.61,1.73,1c1.79,1,3.81.52,7-.38,3.69-1.05,8.27-2.36,13.08.37l.62.35.43.57c3.05,4,5.33,3.26,10.65,1a35.76,35.76,0,0,1,5.68-2c2.28-4.47,4.86-7,8-7.81,4.7-1.25,8.76,1.69,12.34,4.28,2,1.42,4,2.88,5.58,3.26l1.35.32.77,1.16c3.16,4.82,5.11,4.16,10.78,1.35,3.09-1.53,6.6-3.27,10.46-2.91l1.17.11.87.78c1.73,1.57,3.16,1.16,7.52-1.21,3.83-2.08,10-5.41,15.77-.35,4.41-1.36,8.61-.09,12.38,1.05,4.52,1.36,7.43,2.1,10.38.17l1.19-.77,1.4.27c2.31.45,5.06-.61,8-1.73,5.3-2,12.49-4.81,19.3,2,2.64.5,5.59-.29,8.7-1.12,4.37-1.17,9.65-2.58,15-.28a10,10,0,0,1,5.47-3.31c4.41-.88,8.17,1.8,11.49,4.16,5.37,3.82,6.27,3.7,8.08,1.48,6.75-7.81,14.18-4.48,19.1-2.27,3.91,1.75,6.43,2.76,8.74,1.45l2.19-1.25,1.88,1.68c4.48,4,8.68,3,15.15,1.07a40.14,40.14,0,0,1,9.07-2l.83,0,.77.33c1.49.65,2.95,1.37,4.38,2.07,8.12,4,12.6,5.79,18-1l1.73-2.2,2.52,1.2c3.66,1.75,7.46,1,11.87.1,4.17-.84,8.9-1.79,13.74-.27l.37.11.34.2c8.6,5,15.26,5.06,21.58.24l2-1.54,2.09,1.45c2.33,1.61,4.67.77,8.6-.84s9.3-3.81,14.54-.38c4.44-1.6,8.62.13,12.09,1.55,4.62,1.91,6.44,2.37,8.71.08l.24-.24.28-.2c5.31-3.58,10.42-1.75,14.52-.28s5.95,1.91,7.93.4l2.4-1.82,2.16,2.09c3.68,3.56,6.86,5.25,9.45,5.06,2.18-.16,4.42-1.73,6.65-4.67l2.06-2.7,2.76,2c3.06,2.18,5.93,1.61,10.37.5a32.84,32.84,0,0,1,6-1.12c2.87-2.78,6.11-5.81,10.2-5,2.12.41,3.94,1.78,5.51,4.17a15.68,15.68,0,0,1,6.44.45c.69.15,1.36.3,2,.38,2-2.66,4.9-5.45,8.47-5.45h.13a7,7,0,0,1,3.26.89,6.54,6.54,0,0,1,3-2.27,5.61,5.61,0,0,1,4.8.61c2.35,1.44,4.09,4.39,5.88,7.58a8.58,8.58,0,0,0,3-.12,3.65,3.65,0,0,1-.12-1.74c.5-3.07,3.29-3.24,6.89-3.28a6.14,6.14,0,0,1,.75,0l0,1.76a15.77,15.77,0,0,1,2.25,1.05,2.78,2.78,0,0,0-.81-1.37c.17.14.78.53,1.22.81,1,.63,2.16,1.4,3.29,2.31l.33.27.26.34.36.49a8.24,8.24,0,0,1,2.73-1.46l6-1.91-13.06-15.42,17.13,12.59a5.4,5.4,0,0,1,2.77-3.29l-1.1-1,4.07-2.36c.53-.3,1.12-.61,1.75-.89l.36-2.58,2.1.21c-1.21-1.1-2.63-2.41-4.17-3.89-2-.45-4.68-1.36-5.45-3.92-.81-2.72,1.16-4.65,2.47-5.93a11.56,11.56,0,0,0,1.36-1.48l-.53-1.27a15.6,15.6,0,0,1-2.42-.2c-3.51-.7-3.63-3.4-3.61-3.94.06-2.78,2.47-3.85,5.76-4.52a11.73,11.73,0,0,1,2.07-4c.16-.22.32-.42.43-.59a2.71,2.71,0,0,0-.26,1.61,4.5,4.5,0,0,1,1.76-1l-.46-3.14a13.14,13.14,0,0,0,3.25-.93,18,18,0,0,0-3.88-1.88l-.94-.35-.61-.79a26.94,26.94,0,0,0-2.25-2.39c-2.15-2.1-4.59-4.49-3.35-7.57a4.39,4.39,0,0,1,1.8-2.12,6.63,6.63,0,0,1-.06-1.9c0-.06,0-.11,0-.16-4.8-1-7.21-2.37-7.49-5.18-.43-4.14,4.17-5.69,11.12-8l2-.69a20.5,20.5,0,0,0,2-.63c-.34-.3-.7-.59-1-.82a27.26,27.26,0,0,1-2.6-2.32l-.34-.43a39.91,39.91,0,0,0-5.57-6.06c-3.17-3-6.15-5.79-5-9.44.94-3,4.33-4.55,9.56-5.62-1.23-1.76-2.56-4.66-.4-7.95a5.92,5.92,0,0,1-.33-2.86c.35-2.71,2.36-4.54,4.49-6l-.42-.07-5.75-1,3.57-4.62c.3-.39.19-1.28-.15-3.37a46,46,0,0,1-.68-5.92l-.45-.09a4.81,4.81,0,0,1-4-4c-.36-2.83,1.87-4.91,4.41-6.48-.15-.84-.41-1.85-.68-2.89-1.21-4.65-3-11.5.19-19.88-3.58-4.31-5.29-8.6-5.09-12.78.17-3.72,1.79-7.16,4.91-10.44a9.39,9.39,0,0,1-.16-6.09l-.7-.31c-3.63-1.54-7.74-3.3-7.4-7.24.27-3.2,3.42-5,8.56-6.46a16.53,16.53,0,0,1,1.88-5.15c1.83-3.68,2.77-6,.06-9.37a5.8,5.8,0,0,1-3.13-2.85c-1.35-2.82,0-5.75,1.4-8.84,2-4.32,3.12-7.35,1-10l-1.3-1.61.79-1.91a19.81,19.81,0,0,1,3.61-5.48l-2-4.73c.61-.33.63-1.16-.5-5.19a25,25,0,0,1-1.34-8.68l.07-.87.46-.73c1.87-2.95.95-5.48-.07-7.35a5.49,5.49,0,0,1-.37-.85c-5.22-8.65-6.86-14.84-5.18-19.45a9.39,9.39,0,0,1,2.2-3.43,3.52,3.52,0,0,1-.24-1c-.28-2.3,1.36-3.55,2.81-4.65l.09-.07a29.08,29.08,0,0,0-2.32-7c-1.16-2.68-2.27-5.22-1.26-7.82a4,4,0,0,1-1.82-2.92c-.35-3,2.25-4.24,4.16-5.18.71-.35,1.49-.73,2.19-1.16-.09-.58-.36-1.48-.54-2.13a17.71,17.71,0,0,1-1-5.56,4,4,0,0,1-.9-1.2,4.65,4.65,0,0,1,.31-4.21c.53-1.11,1.41-3,1.36-7.27l.67-.06c-.12-1.4-.33-3.13-.63-5.17l-.54-3.65,1.49-.14a18.14,18.14,0,0,0-.83-5.55l-.58-1.85.42-.5a9.32,9.32,0,0,1-.39-2.06,3.19,3.19,0,0,1-2.55-2,3.49,3.49,0,0,1,.69-3.89,13.61,13.61,0,0,1,.94-4.62,8.8,8.8,0,0,0-.53-.74A7.63,7.63,0,0,1,643.05,20c-.06.31-.1.58-.14.81s-.09.55-.18.89l1.06.32-1.25.35c-.51,1.46-1.7,3.11-4.81,2.74a11.8,11.8,0,0,0-2.86,0l-2.91.27c-.66.2-1,.35-1.26.44a3.68,3.68,0,0,1-3.23,0l-6.49.61,4.64-3.08a3.72,3.72,0,0,1,.12-1.87c.09-.32,0-1.48-1.17-3.63l-.1.09c-1.23,1.07-3.29,2.88-5.8,1.75a4.6,4.6,0,0,1-2.54-3.94c-.35-.55-.7-1.13-1-1.7l-.31-.51c-.25.81-.53,1.89-.84,3.29l-2.08,9.51-2.25-4.38v0c-1.66,4.29-3.25,8.32-7,8-3.09-.25-4.38-3.39-5.08-6.13l-.67.06c-2.15.24-5.91.66-9.13-4l-1.52.28A82.62,82.62,0,0,1,578,21.37a28.86,28.86,0,0,1-13.67-1.87h0a30.94,30.94,0,0,0-7.56,1.41c-6,1.61-13.54,3.62-21.14-2-4.44-2.76-9.23-1.73-14.76-.55-3.86.83-7.83,1.68-12,1.35-9.77,9.79-21,10.09-33.42.91-7.31,5.77-14.83,2.94-21,.62-4-1.51-7.8-2.93-11.24-2.14-13.7,15.29-28.62,6.83-37.55.95-9.1,4.06-18,2.45-26.64.89-3.14-.57-6.11-1.11-9.08-1.38-5.54,1-10.71-.78-15.71-2.53-7.91-2.77-13-4.18-18.62,1.46l-1.9,1.91-2.34-1.34c-11.05-6.38-22.28-3.5-33.77.29l-.86.28-.88-.16c-3.55-.67-7.52,1-11.72,2.82-7.08,3-16.66,7.1-25.45-2.75a48.12,48.12,0,0,0-9.89,1.92c-7.74,2.05-16.47,4.37-25.12-2a105.81,105.81,0,0,0-13.91.31c-6.33.42-12.87.86-19.39-.28l-1.37-.24-.84-1.11c-4.62-6.21-8.14-4.85-15-1.44-4.31,2.12-9.12,4.5-14.26,3.1-8.65,3.61-17,2.09-24.4.74-2.16-.39-4.2-.76-6.22-1-9.45-.68-17.94-1.15-25.78-.14-6.26,4.47-12.5,2.49-17.1,1-3-.94-5.54-1.75-7.62-1.05l-2.45.83-1.51-2.09c-1.8-2.49-2.55-2.5-6.2-.11l-1,.7c-2.71,1.86-8.19,5.59-12.87.5a9.1,9.1,0,0,1-3-2.22c-.19.65-.41,1.5-.64,2.6l-.1.43-.19.4a5.51,5.51,0,0,1-4.09,3.34c-2.84.43-4.83-1.67-6.3-3.21l-.79-.81-.33.11-1.3-.7A19.57,19.57,0,0,1,35.08,18l-.44-.3L31.58,24l-2.8-5.64c-.5,1.51-1.56,3.31-3.87,3.38a3.56,3.56,0,0,1-1.21-.14,3.73,3.73,0,0,1,1,3.9c-.74,2.48-3.07,3.08-6.09,3.16v.75c0,.29,0,.59,0,.89a7.12,7.12,0,0,1,.32,3.82,10.35,10.35,0,0,1,5.36,9.48,8.78,8.78,0,0,1-5.65,7.67c1.5,2.46,3.11,5.4,1.66,8.17-.07.13-.15.26-.24.4a5.31,5.31,0,0,1,.1.84,6.18,6.18,0,0,1-2.45,4.8c1.52.69,3.34,2,3.33,4.32,0,3.17-3.18,4.21-4.53,4.65l-.23.08a3.47,3.47,0,0,0-1.05-6.65l-.12,5.38a12.83,12.83,0,0,0,2.22,2.57l.7.53c3.78,2.81,7,5.23,5.75,8.67a4.25,4.25,0,0,1-2.64,2.54l-.28,1.65-2.39.5a7.43,7.43,0,0,1-4.4-1.17,6.86,6.86,0,0,0-2.82,1.07c.11.46.88,2.36,5.89,6L21.79,99l-5.2,2.55a14.13,14.13,0,0,0-1.71,1l.95.67c1.75,1.22,3.94,2.75,3.79,5.47,0,.12,0,.25,0,.38,4,4.8,1.56,10.94-1.4,16.89l-.4.82-.76.52a4.61,4.61,0,0,0-1.54,1.42c.22.77,2.12,2.42,3.05,3.23,2.36,2,5,4.37,4.29,7.71a4.58,4.58,0,0,1-.37,1.08c2.46,1.35,4.17,3.07,4.31,5.5.18,3.21-2.49,5.36-5.79,7.1,2.07,2.55,3.7,5.61,3.29,8.88a10.26,10.26,0,0,1-4.44,6.85l.4.29c2.39,1.73,5.68,4.11,5.13,7.85s-4.8,5.86-9,7.33c.59,1.78,1.24,3.8,1.81,5.9,6.06,6.82,2,14.11-.72,18.15,1.29.92,4.6,3.32,4.57,7.31,0,2.8-1.71,5.38-5,7.66l-.1.06c-2.37,1.51-2.4,2.3-.29,7,1.45,3.2,3.25,7.19,1.7,11.45l-.15.39-.23.35a26,26,0,0,1-5,5.16c-.42.36-.95.81-1.41,1.23a32.49,32.49,0,0,0,4.36,1.33l.4.09.37.2c7.14,3.68,4.45,9.32,3.16,12-1,2.09-1.94,4.08-1.36,6.41l.15.6-.07.62c-.21,1.93.8,3.38,2.37,5.38,1.37,1.74,3.08,3.92,2.14,6.66a6.45,6.45,0,0,1-4,3.7c1.13,2.54,2.64,6.88-.74,13.27-1.23,4.18-4.55,7.2-7,9.43l-.62.57c1,.26,2.58.57,4.85.9l21.35,3.07-17.67,3.19c1.71,1.13,3,2.61,3,4.76,0,3.78-4.22,5.6-5.81,6.28l-.13.06.44.4c2.11,1.92,4.73,4.31,4.28,7.69a5.62,5.62,0,0,1-.69,2,6.61,6.61,0,0,1,1.35,3.06,7.59,7.59,0,0,1-1.89,5.88l.21.1-1.94,3.27a18.11,18.11,0,0,1-2.53,3.06,17.86,17.86,0,0,0-2.06,2.41,9.66,9.66,0,0,0,2.84,1.5l4,1.52L18,362.24a22.75,22.75,0,0,1-2.71,3.5,5.66,5.66,0,0,1,1,.32l28.46,11.43L18.58,373.4l12.13,7.66-9-1.27a7.82,7.82,0,0,1,.21,1.78,8.73,8.73,0,0,1-2.63,6c-.05,2.13-1.78,3.64-3.33,5-.36.31-.89.77-1.34,1.21a6.54,6.54,0,0,1,2.77,1.54,4.3,4.3,0,0,1,1,1.72l25.81,6.06-22.39.18a5.21,5.21,0,0,1,.2,1.33,5.62,5.62,0,0,1-1.56,3.89l.08,0a4.81,4.81,0,0,1,5.7-1.89,5.45,5.45,0,0,1,2.64,2c2-1.31,4.57-2.27,6.47-.63a3.67,3.67,0,0,1,.3,5.23l-.83,1-.66.12A4.29,4.29,0,0,0,36.27,416l0,0,.58-.83.94-.39a39.44,39.44,0,0,1,4.61-1.63,22.55,22.55,0,0,1,.27-2.6l.73-4.66,4.25,2.05a14.53,14.53,0,0,1,2.54,1.46q1.42.29,3.69.81a5.43,5.43,0,0,1,4.9,1c.08-.3.17-.62.26-1Zm-13.44,9.23c.22,0,.44,0,.64,0a3.08,3.08,0,0,0-1.09,0Zm-34.4-5.73ZM653.28,293.23Zm-637.65-82,2.7.92a3.43,3.43,0,0,0-.86-3.56c-.33.48-.64.91-.91,1.29S15.87,210.85,15.63,211.23Zm-.22-.07.12,0a3,3,0,0,0-.32-1.88Zm633.17-1ZM12.54,87.39h0a3.31,3.31,0,0,0,.6.49A4.86,4.86,0,0,1,12.54,87.39Zm641.93-29ZM15.13,55.19Zm4.8-36.32,1.5.92a7.88,7.88,0,0,1-.69-1.32Zm2.17-2.62ZM623.1,15Z"/><path class="c" d="M466.11,390.11c-25.94.27-45.94-13.73-63.94-32.73-3-3-8-4-11.63-5.48l-7.4-3.42L344,330.64,278.39,370l-7.32,4.31c-16.9,10.06-34.9,17.06-52.9,23.06-2-7-5-15-3-22a60.27,60.27,0,0,1,7.18-13.79c1.43-2.17,2.89-4.32,4.3-6.5,5.52-6.71,8.52-14.71,6.52-23.71-6-19-7-36-3-56,2-12-5-25-14.87-33.57-1.5-1.42-3.08-2.81-4.69-4.24L185,215.29c-2.12-1.87-4.23-3.72-6.29-5.61-12.53-14.3-21.53-33.3-39.53-41.3,33-5,67-4,99.64-12.28l7.16-1.46,27.4-5.58,23.28-54.79c1.11-2.59,2.21-5.2,3.32-7.81,9.2-20.08,30.2-33.08,32.2-56.08,10,12.5,17.66,26.56,24.5,41.05,1.37,2.89,2.71,5.81,4,8.73,2.48,4.22,4.48,9.22,6.48,13.22,11,18,28,31,41,45,10,11,34,8,53.17,9.81q4.47.23,8.86.74c20.5,2.32,40,8.45,61,8.45-9,22-32,32-47.79,47-2,2-4,4.07-5.95,6.14-5.26,5.82-10.26,10.82-13.26,17.82-5,11-13,21-15,32-3,15-4,30-.2,44.66.49,2.43,1,4.92,1.62,7.43l1.91,8.27a531.71,531.71,0,0,1,11.14,60.4C465.12,386.87,466.11,390.11,466.11,390.11Z"/><path class="d" d="M61.47,141.22,65,143.49q4.83,3.1,8.71,5.24c2.59,1.42,8.81,4.51,18.36,9.64-.43-1.25-1.47-4-3.07-8.17-2.09-5.46-3.31-8.95-3.73-10.43a36.26,36.26,0,0,1-1.71-10.33,13.64,13.64,0,0,1,1.71-6.52,15.26,15.26,0,0,1,4.6-4.84,9.29,9.29,0,0,1,4.18-1.84,2.42,2.42,0,0,1,2.43.83,1.9,1.9,0,0,1,.16,1.71,3.06,3.06,0,0,1-1.24,1.63,6.45,6.45,0,0,1-1.74.78c-1.48.47-2.37.77-2.65.89a10.06,10.06,0,0,0-1.51.89,6.15,6.15,0,0,0-2.41,3.1c-.73,2.16-.44,6.05,1,11.61s4.3,14,8.91,25.19q1,2.44,2,4.89c-6-2.61-10.18-4.42-12.55-5.59-3.2-1.55-7.11-3.6-11.77-6.1q-5.61-3-11.31-5.95c1.3,2.48,3.21,6.9,5.83,13.21s4.17,9.91,4.51,10.91a26.57,26.57,0,0,1,1.6,8,14.28,14.28,0,0,1-1.12,5.88,14.63,14.63,0,0,1-3.4,4.72,13.27,13.27,0,0,1-5.61,3.42,3.12,3.12,0,0,1-3.27-.56,1.61,1.61,0,0,1-.39-1.42,2.64,2.64,0,0,1,.84-1.62,4.77,4.77,0,0,1,2.81-1.16,8.61,8.61,0,0,0,4.94-1.92,7.86,7.86,0,0,0,2.25-4.47c.48-2.86-.38-7.1-2.52-12.79A261.51,261.51,0,0,0,58.6,147.52,45.72,45.72,0,0,0,54.43,152a30.89,30.89,0,0,0-4.33,6.48,11.15,11.15,0,0,0-1.21,5.53,6.26,6.26,0,0,0,3.5,5.49,6.78,6.78,0,0,0,2.11.56,3.76,3.76,0,0,1,2,.71,1.73,1.73,0,0,1,.39,1.55,3.17,3.17,0,0,1-1,1.74,3.74,3.74,0,0,1-3,1,6.1,6.1,0,0,1-3.71-2.15,10.76,10.76,0,0,1-3.16-7.75A18.47,18.47,0,0,1,48.8,156c1.17-2,3.88-5.34,8.24-9.91Q59.46,143.6,61.47,141.22Z"/><path class="d" d="M127.3,111.51q2.67-1.53,5.34-3,1.14,6.21,2.39,12.37c1.43,7.18,2.46,11.15,2.94,12a1.26,1.26,0,0,0,.82.67,1.13,1.13,0,0,0,.87-.11,3.45,3.45,0,0,0,1.15-1.25,56,56,0,0,0,2.49-6l1.79.46c-2.48,6.81-4.67,10.85-6.86,12.15a3.16,3.16,0,0,1-2.31.4,3.09,3.09,0,0,1-2-1.57,17.84,17.84,0,0,1-1.69-4.53,38.67,38.67,0,0,1-4.43,9.91,14.64,14.64,0,0,1-4.19,4.77,3.06,3.06,0,0,1-2.29.57,3.36,3.36,0,0,1-2.06-1.63,12.35,12.35,0,0,1-1.28-2.6c-.5-1.4-1.34-4.31-2.47-8.75-1.43-5.63-2.4-8.93-3-9.85-.35-.54-.76-.65-1.24-.34a5.17,5.17,0,0,0-1.43,1.68,30.56,30.56,0,0,0-2.11,5.07l-2.23.06a46.89,46.89,0,0,1,4.4-9.37,13.14,13.14,0,0,1,3.47-3.73,2.16,2.16,0,0,1,3.28.85c.84,1.34,2,5.18,3.56,11.47,1.45,5.64,2.43,8.77,2.85,9.43a1.63,1.63,0,0,0,1.13.74,1.72,1.72,0,0,0,1.29-.22c1.28-.81,2.54-2.85,3.85-6.12a15.35,15.35,0,0,0,1.07-9Q128.78,118.77,127.3,111.51Z"/><path class="d" d="M154.31,90.4q2.67-2.4,5.38-4.79c.37,3.34.77,6.67,1.18,10,2.67-1.23,5.34-2.44,8-3.61.12.83.23,1.66.35,2.5q-4,1.76-8,3.6.73,6,1.58,11.92a26.61,26.61,0,0,0,1.57,7.2,1.69,1.69,0,0,0,1,1,1.87,1.87,0,0,0,1.32-.18,10.24,10.24,0,0,0,2.93-2.77,60.3,60.3,0,0,0,4.34-6.14l2,.82c-3.89,5.82-6.42,9.57-7.84,11.18a13.44,13.44,0,0,1-3.72,3.2,3.08,3.08,0,0,1-2.5.21,4.41,4.41,0,0,1-2.12-2.31,28.31,28.31,0,0,1-2-7.42q-1.15-7-2.17-14.09c-2.06,1-4.12,2-6.16,3-.14-.83-.27-1.67-.41-2.51,2.07-1,4.14-2,6.21-3Q154.82,94.32,154.31,90.4Z"/><path class="d" d="M189.7,75.59q2.85-2.15,5.75-4.26.11,5,.28,10c2.75-1,5.5-1.93,8.27-2.85,0,.84.08,1.68.13,2.52-2.75.92-5.49,1.86-8.22,2.84.13,4,.31,8,.51,12a27.19,27.19,0,0,0,.92,7.31,1.67,1.67,0,0,0,.9,1.09,1.84,1.84,0,0,0,1.32-.05,10.47,10.47,0,0,0,3.14-2.48,59.4,59.4,0,0,0,4.83-5.7l1.95,1c-4.37,5.43-7.19,8.92-8.74,10.39a13.08,13.08,0,0,1-4,2.83,3,3,0,0,1-2.49,0,4.33,4.33,0,0,1-1.89-2.49,28,28,0,0,1-1.3-7.57q-.53-7.08-.91-14.21-3.19,1.2-6.37,2.44l-.18-2.53c2.13-.84,4.27-1.65,6.41-2.45Q189.85,79.53,189.7,75.59Z"/><path class="d" d="M217.87,79.15,216.13,78c.82-.85,1.65-1.69,2.48-2.52a52.52,52.52,0,0,1,5.27-4.87,5.21,5.21,0,0,1,1.76-.91,2.38,2.38,0,0,1,1.85.35A28.54,28.54,0,0,1,236,78.42,34.22,34.22,0,0,1,241.38,90c.12.51.28,1.29.49,2.35,2.65-8,3.7-13.94,2.77-18a11.58,11.58,0,0,0-1.45-3.21,13.13,13.13,0,0,1-1.5-3.17,2,2,0,0,1,.39-1.77,2.93,2.93,0,0,1,1.77-1.07,3.19,3.19,0,0,1,2.52.39,3.62,3.62,0,0,1,1.44,2.39,34.2,34.2,0,0,1,0,11.25,76.6,76.6,0,0,1-4,15.45,68.29,68.29,0,0,1-5.91,13.1,30,30,0,0,1-6,7.11,18.27,18.27,0,0,1-6.2,3.51,6.86,6.86,0,0,1-3.82.32,2.39,2.39,0,0,1-1.82-1.52,2.09,2.09,0,0,1,.4-2,4.3,4.3,0,0,1,2.32-1.51,18.34,18.34,0,0,1,3.52-.61,21,21,0,0,0,3.27-.48,9.13,9.13,0,0,0,4.25-3,20.29,20.29,0,0,0,4-7,12.56,12.56,0,0,0,.37-7,48,48,0,0,0-4.43-10.64q-3.27-6-7.17-8.62a4.37,4.37,0,0,0-3.66-.87C221.53,75.73,219.86,77,217.87,79.15Z"/><path class="d" d="M268.84,57.78c-.35-.68-.7-1.37-1.06-2.05a22.15,22.15,0,0,0,4-4.71,5.07,5.07,0,0,0,.66-3,4.84,4.84,0,0,0-1.36-2.12,4.12,4.12,0,0,1-1.16-2.14,2.79,2.79,0,0,1,.7-2.4,4,4,0,0,1,2.53-1.25,4.11,4.11,0,0,1,3,.61,3.35,3.35,0,0,1,1.48,2.47,10.25,10.25,0,0,1-1.53,6.26C274.82,51.71,272.37,54.48,268.84,57.78Z"/><path class="d" d="M307.68,56.1a11.39,11.39,0,0,1,5.83.85c1.39.72,2.1,1.59,2.15,2.62a2,2,0,0,1-.77,1.64,3.28,3.28,0,0,1-2,.79,3.11,3.11,0,0,1-1.37-.22,7.19,7.19,0,0,1-1.75-1.35,5.61,5.61,0,0,0-4.17-2,4.62,4.62,0,0,0-2.94,1.3,3.29,3.29,0,0,0-1.09,2.77,5,5,0,0,0,1,2.64A26.43,26.43,0,0,0,307,69.12c3.19,2.47,4.81,4.94,5,7.35S311,81.05,308.8,83A15,15,0,0,1,300,86.42c-3.08.28-5.42,0-7-1a4.94,4.94,0,0,1-2.72-3.81,2.56,2.56,0,0,1,.64-2.07,3.11,3.11,0,0,1,2.06-1,3,3,0,0,1,2,.43,1.86,1.86,0,0,1,.94,1.4,7.31,7.31,0,0,1,0,.89c0,.3,0,.55.05.75a2.3,2.3,0,0,0,1.28,1.8,4.75,4.75,0,0,0,2.95.52,10.51,10.51,0,0,0,3.65-.94,5.45,5.45,0,0,0,2.36-2.1,4.39,4.39,0,0,0,.72-2.6,4.21,4.21,0,0,0-1-2.39,30.94,30.94,0,0,0-4.18-3.75c-3-2.4-4.66-4.79-4.89-7.21a7.19,7.19,0,0,1,2.74-6.13A13.18,13.18,0,0,1,307.68,56.1Z"/><path class="d" d="M414.82,51.19l-.42.79a25.65,25.65,0,0,0-6,.65,37.55,37.55,0,0,0-6.65,2.66c-7.48,3.63-13.7,6.49-18.87,8.45a21.36,21.36,0,0,1,3,5.22,100.63,100.63,0,0,1,3.38,12.83c1.31,6,2.82,10.08,4.62,12.39a9.73,9.73,0,0,0,5.93,4A4.32,4.32,0,0,0,404.6,96a6.12,6.12,0,0,1,1.59-1.93,2.45,2.45,0,0,1,1.63-.24,2.31,2.31,0,0,1,1.46.86,1.74,1.74,0,0,1,.38,1.45c-.27,1.34-1.43,2.45-3.45,3.36a12,12,0,0,1-7.12.65,15.34,15.34,0,0,1-6.46-2.72,18.39,18.39,0,0,1-5.14-6,48.92,48.92,0,0,1-4.15-11.54,70,70,0,0,0-3.08-10,28.25,28.25,0,0,0-3.62-5.88q-2.88,6.66-5.63,13.36a57.45,57.45,0,0,0-2.13,5.85,14.4,14.4,0,0,0,4.68,1.44c.34,0,.83.06,1.45.08-.22.55-.45,1.1-.68,1.65l-1-.07c-.85-.08-2.06-.28-3.63-.58a38.46,38.46,0,0,0-4.06-.59,62.47,62.47,0,0,0-10.3.41L355.7,84a13.08,13.08,0,0,0,5.37-1.47,7.75,7.75,0,0,0,2.68-3.42c1.68-3.58,3.94-9,6.93-16.14q3.21-7.66,6.62-15.28c-5.66-.29-10.21.4-13.59,1.94-2.62,1.18-3.95,2.61-4,4.27a4.09,4.09,0,0,0,.89,2.31,3.65,3.65,0,0,1,.81,2,2.09,2.09,0,0,1-.93,1.57,3,3,0,0,1-2,.58,3.12,3.12,0,0,1-2.23-1.18,3.92,3.92,0,0,1-.87-2.85c.16-3.16,2.23-5.93,6.34-8.22s11.11-3.08,20.93-2l2.78.32a62.16,62.16,0,0,0-3.88,6.67c-1.51,3.31-3,6.63-4.44,10a42,42,0,0,0,7.51-2.44q4.37-1.8,8.55-3.83c5.12-2.5,8.12-4,8.88-4.54a.94.94,0,0,0,.39-.53c0-.18-.23-.39-.79-.63a31,31,0,0,0-4.87-1l.84-1.81c3.6.81,6.56,1.44,8.89,1.83S411.65,50.87,414.82,51.19Z"/><path class="d" d="M420.9,72.34l-1.54-1.52A29.26,29.26,0,0,1,428,67.24a14.09,14.09,0,0,1,6.11-.18,3.65,3.65,0,0,1,1.9,1,1.47,1.47,0,0,1,.37,1.43c-.16.65-1.74,3.14-4.65,7.51-4.75,7.17-7.2,11.61-7.58,13.23a1.18,1.18,0,0,0,.08.85.79.79,0,0,0,.51.45c.82.19,3.24-.69,7.35-2.56.4.54.79,1.09,1.19,1.64a58.57,58.57,0,0,1-9.05,3.57,9.93,9.93,0,0,1-4.22.29,3.1,3.1,0,0,1-2-1.2,2.75,2.75,0,0,1-.34-2.21c.62-2.78,4-9.19,10.54-19a4.18,4.18,0,0,0,.61-1.3c.1-.44-.09-.72-.58-.83a4.12,4.12,0,0,0-2,.11A34.52,34.52,0,0,0,420.9,72.34Zm21.49-18.17a3.43,3.43,0,0,1,2,1.24,2.2,2.2,0,0,1,.38,2,3.44,3.44,0,0,1-2,2.22,4.41,4.41,0,0,1-3.15.37,3.28,3.28,0,0,1-1.91-1.22,2.36,2.36,0,0,1-.39-2,3.32,3.32,0,0,1,1.86-2.24A4.48,4.48,0,0,1,442.39,54.17Z"/><path class="d" d="M463.87,70.2q3.56,0,7.14.17-3,4-6,8.09c2.77.92,5.52,1.86,8.27,2.84l-1.45,2.06c-2.73-1-5.48-1.9-8.23-2.81q-3.52,4.88-7,9.78a27.34,27.34,0,0,0-3.77,6.33,1.69,1.69,0,0,0,0,1.41,1.8,1.8,0,0,0,1.07.77,9.9,9.9,0,0,0,4,0,58.17,58.17,0,0,0,7.31-1.52l.93,2c-6.8,1.59-11.16,2.61-13.28,2.82a13.18,13.18,0,0,1-4.85-.19,3,3,0,0,1-1.94-1.56,4.44,4.44,0,0,1,.05-3.12,28.65,28.65,0,0,1,3.63-6.77q3.93-5.91,8-11.77-3.24-1-6.49-2l1.42-2.11c2.18.65,4.36,1.31,6.53,2C460.82,74.46,462.34,72.33,463.87,70.2Z"/><path class="d" d="M499.25,112.43l-.06,2.15c-7.6,1.19-13.29,1.08-17.29-.57a5.91,5.91,0,0,1-3.86-3.84,8.81,8.81,0,0,1,.51-5.58,20.88,20.88,0,0,1,7.29-9,24.15,24.15,0,0,1,11.26-4.81,16.69,16.69,0,0,1,9.22,1.47,9.53,9.53,0,0,1,3.95,2.87,2.75,2.75,0,0,1,.47,2.8,2.11,2.11,0,0,1-1.5,1.2,3.77,3.77,0,0,1-2.43-.4,9.67,9.67,0,0,1-3-2.57,9.55,9.55,0,0,0-3.2-2.7,6.81,6.81,0,0,0-4.39-.24c-1.65.39-3.61,1.7-5.85,3.92a22.25,22.25,0,0,0-5,7.42,7.63,7.63,0,0,0-.53,5.2,3.67,3.67,0,0,0,2.27,2.44C490,113.36,494,113.42,499.25,112.43Z"/><path class="d" d="M541.76,135.4,542,137a39.25,39.25,0,0,1-9.45.74,10.32,10.32,0,0,1-4.49-1,2.92,2.92,0,0,1-1.49-2,4.33,4.33,0,0,1,.72-3,17.07,17.07,0,0,1,2.55-3.13c1.26-1.29,4.22-3.92,9-7.79a30.09,30.09,0,0,0,3.75-3.55c.37-.63.14-1.19-.7-1.68a9.89,9.89,0,0,0-4.61-1,23.33,23.33,0,0,0-8.23,1.18,13.83,13.83,0,0,0-5.31,3.74q-4.28,4.48-8.45,9-2.64-1.4-5.29-2.75c2.94-3,5.33-5.4,7.12-7.32q7.71-8.35,15.71-16.5a23.16,23.16,0,0,1,8.54-6,19.56,19.56,0,0,1,9.23-.81,23.44,23.44,0,0,1,9.11,3.1,5.58,5.58,0,0,1,2.25,2.23,2.13,2.13,0,0,1,0,2.16,2,2,0,0,1-1.8.82,5.52,5.52,0,0,1-2.92-1,27.78,27.78,0,0,1-2.3-1.59,50.66,50.66,0,0,0-4.38-3.08,4.56,4.56,0,0,0-3.55-.57c-1.17.31-2.93,1.6-5.25,3.9q-6.27,6.15-12.37,12.44a47.44,47.44,0,0,1,13.16-.85,13.52,13.52,0,0,1,5.8,1.4,4,4,0,0,1,1.86,2,2.68,2.68,0,0,1-.33,2.37,8,8,0,0,1-1.5,1.8c-1,1-3,2.58-6,4.91-4.07,3.25-6.51,5.33-7.39,6.19a12.66,12.66,0,0,0-2,2.5,1.27,1.27,0,0,0-.22.82.79.79,0,0,0,.44.57c.56.33,1.93.4,4.14.21C538.52,135.55,540,135.47,541.76,135.4Z"/><path class="d" d="M571.83,154.31c.06.68.13,1.35.2,2-8.64.13-14.77-1-18.68-3.66a5.78,5.78,0,0,1-2.72-3.84c-.24-1.47.31-3.22,1.64-5.23,2.7-4.06,6.88-7.12,12.67-9,6.54-2.18,12.33-1.46,17.11,2.09a7.82,7.82,0,0,1,3.09,3.83,3.92,3.92,0,0,1-.72,3.65,6.54,6.54,0,0,1-4.19,2.3A23.46,23.46,0,0,1,572,146c-1.77-.36-5.41-1.34-10.89-2.76a17.59,17.59,0,0,0-2.3,2.69,4.8,4.8,0,0,0-1.16,3.31,3.57,3.57,0,0,0,1.66,2.33,10.45,10.45,0,0,0,3.48,1.51A65.63,65.63,0,0,0,571.83,154.31Zm-9-12.63a38.93,38.93,0,0,0,11.45,1.66c2-.14,3.47-.72,4.24-1.76a3,3,0,0,0,.6-2.47,3.61,3.61,0,0,0-1.54-2.21,5.76,5.76,0,0,0-3.1-1.06,9.63,9.63,0,0,0-5,1.14A28.51,28.51,0,0,0,562.8,141.68Z"/><path class="d" d="M593.93,156.27l-.39-1.87A41.1,41.1,0,0,1,604,155.9a15.27,15.27,0,0,1,5.27,2.77,2.9,2.9,0,0,1,.9,1.2.89.89,0,0,1-.07.9,5.9,5.9,0,0,1-.89.67c-2,1.27-4,2.55-6,3.84a46.86,46.86,0,0,1,13.22,2.22,14.28,14.28,0,0,1,5.59,2.88,4,4,0,0,1,1.39,2.52,3,3,0,0,1-1,2.45,8.22,8.22,0,0,1-2,1.44c-1.37.73-4.51,2.18-9.36,4.42-4.54,2.09-7.3,3.73-8.35,4.84a1.85,1.85,0,0,0-.54.94.86.86,0,0,0,.28.75c.6.56,2,1,4.11,1.28,1.53.2,3,.47,4.46.8,0,.55-.07,1.09-.11,1.63a42,42,0,0,1-9.68-1.62,10.39,10.39,0,0,1-4.11-2,3.24,3.24,0,0,1-1.17-2.36,4.39,4.39,0,0,1,1.41-2.85c1.37-1.5,5.9-4.21,13.77-7.91a29.68,29.68,0,0,0,4.52-2.64c.49-.51.33-1.15-.47-1.9a10.57,10.57,0,0,0-4.33-2,24.08,24.08,0,0,0-8.46-.87,14,14,0,0,0-6,2.52q-5.22,3.38-10.38,6.83-2.34-2-4.71-4,4.6-2.85,8.63-5.59,5.63-3.76,11.34-7.43a5,5,0,0,0,.9-.71.8.8,0,0,0-.07-1.28,4.67,4.67,0,0,0-2-.76A24.45,24.45,0,0,0,593.93,156.27Z"/><path class="d" d="M84.23,311.6a2.54,2.54,0,0,1-1.45.4,3.25,3.25,0,0,1-.87-.1,13.27,13.27,0,0,0-2.14-.12,63.49,63.49,0,0,0-7.06.45,24.29,24.29,0,0,0-5.44,1,44,44,0,0,0-2,11.28q1-.15,2.07-.27,3.85-.4,7.2-1a27,27,0,0,1,4.48-.5c2.52,0,3.79.88,3.79,2.64a2.3,2.3,0,0,1-.74,1.28,4.44,4.44,0,0,1-1.58,1.16,14.77,14.77,0,0,1-3.14.67l-6.67.82a51.26,51.26,0,0,0-5.68.95.85.85,0,0,0-.41.46,20.23,20.23,0,0,0-.35,3q-.21,2.69-.21,4.95l.1,3.16c0,2-.91,2.94-2.74,2.94a4.15,4.15,0,0,1-2.65-1A3.37,3.37,0,0,1,57.53,341a81.68,81.68,0,0,1,.75-9.29q0-.27,2.59-18.4a3.83,3.83,0,0,0-.25-1.44,5.61,5.61,0,0,1-.38-1.72,2.72,2.72,0,0,1,1.06-1.88,3,3,0,0,1,2-1,4.94,4.94,0,0,1,1.24.15,9.33,9.33,0,0,0,1.92.19c.65,0,3.3-.26,8-.79a66.55,66.55,0,0,1,6.8-.5,7.69,7.69,0,0,1,3.67.73c.87.49,1.31.94,1.31,1.34a3.54,3.54,0,0,1-1.94,3.21Z"/><path class="d" d="M109.44,334.34Q102.89,343,96.79,343a5,5,0,0,1-3.86-1.77,6.42,6.42,0,0,1-1.62-4.51q0-6.58,5.88-14.05T109,315.19a3.86,3.86,0,0,1,4,3.06c1.91,0,2.87.74,2.87,2.19a22.76,22.76,0,0,1-.55,3.79,45.8,45.8,0,0,0-1,8.19,15.76,15.76,0,0,0,.44,4.48,14.51,14.51,0,0,0,.64,1.7,2.44,2.44,0,0,0,1.19.84,1.48,1.48,0,0,1,1,1.32,2.48,2.48,0,0,1-1.29,2.12,4.79,4.79,0,0,1-2.67.85Q109,343.73,109.44,334.34Zm-1.5-13.82q-2.5,0-6.53,5.56t-4,9.45c0,1.37.28,2.05.84,2.05q2.94,0,7.24-5.22t4.29-9.13a3.15,3.15,0,0,0-.56-2A1.57,1.57,0,0,0,107.94,320.52Z"/><path class="d" d="M132.61,342.43c0-1.09-.64-3.45-2-7.07q-4-10.74-4-15.29,0-4.08,3.21-4.08c2.1,0,3.14,1.24,3.14,3.73,0,1.59,0,2.73.11,3.4a36,36,0,0,0,.78,3.66,44.74,44.74,0,0,0,1.3,4.42q.38,1.08.9,2.79a9,9,0,0,0,.52,1.5q.15-.23,1-1.95.53-1.05,3.54-5.94a85.21,85.21,0,0,1,5.29-7.8,15.48,15.48,0,0,1,3.4-3.56,4.54,4.54,0,0,1,2.36-.65,2.89,2.89,0,0,1,2.13.84,2.85,2.85,0,0,1,.84,2.07c0,1-.7,1.91-2.1,2.84s-3.21,3.06-5.56,6.38A121,121,0,0,0,140,340.24q-2.29,4.31-4.11,4.31C134.8,344.55,133.72,343.85,132.61,342.43Z"/><path class="d" d="M185.12,330.06a20,20,0,0,1-6.34,9.82q-4.67,4-9.33,4a7.71,7.71,0,0,1-6.07-2.71,9.61,9.61,0,0,1-2.39-6.63,21.8,21.8,0,0,1,4.38-12.65q4.38-6.22,10.63-6.23a8.57,8.57,0,0,1,6.9,3.15,11.33,11.33,0,0,1,2.64,7.51,16.42,16.42,0,0,1-.42,3.71Zm-13-7.87a16.07,16.07,0,0,0-3.42,4.93,15.24,15.24,0,0,0-1.66,6.8,6.83,6.83,0,0,0,.76,3.41,2.26,2.26,0,0,0,2,1.34q3.09,0,6.42-3.66a11.87,11.87,0,0,0,3.34-8.22,7.6,7.6,0,0,0-1.08-4.22,3.42,3.42,0,0,0-3-1.65,4.91,4.91,0,0,0-3.31,1.27Z"/><path class="d" d="M213.67,333.57a23.27,23.27,0,0,1-5.55,6.92,10.09,10.09,0,0,1-6.38,2.57,5.59,5.59,0,0,1-3.88-2c-1.3-1.35-2-3.41-2-6.2a41.08,41.08,0,0,1,1.49-8.94,32.07,32.07,0,0,0,1.3-7.5,3.27,3.27,0,0,1,3.11-2.09,2.93,2.93,0,0,1,2.3,1,2.87,2.87,0,0,1,.86,1.93,15.39,15.39,0,0,1-1.24,5,49.46,49.46,0,0,0-1.56,5.49,27.91,27.91,0,0,0-.83,4.54c0,2.21.45,3.32,1.37,3.32q2.16,0,5.85-4.16a20.71,20.71,0,0,0,4.81-8.52,21.82,21.82,0,0,1,2-5.58,2.78,2.78,0,0,1,2.46-1.32c1.73,0,2.59,1,2.59,2.89a7.06,7.06,0,0,1-.42,1.7,31.26,31.26,0,0,0-1.47,9.93q0,6.48,2.19,7.75a1.22,1.22,0,0,1,.72,1c0,.6-.42,1.16-1.27,1.7a4.55,4.55,0,0,1-2.41.79c-1.31,0-2.32-.92-3-2.77A21.62,21.62,0,0,1,213.67,333.57Z"/><path class="d" d="M239.18,330.33l.42-.8a42.11,42.11,0,0,1,6.49-9.82c2.31-2.52,4.57-3.77,6.78-3.77a6.09,6.09,0,0,1,4.15,1.39,4.27,4.27,0,0,1,1.61,3.31,3.79,3.79,0,0,1-.55,2.06,1.72,1.72,0,0,1-1.52.86,4,4,0,0,1-2.82-1.27,2.5,2.5,0,0,0-1.42-.83q-1.86,0-6.25,5.81a26.78,26.78,0,0,0-5.28,13.05,4.54,4.54,0,0,1-1.22,2.92,3.76,3.76,0,0,1-2.56.84,2.54,2.54,0,0,1-2.44-2,20.21,20.21,0,0,1-.72-6.39c0-1.21,0-2.84.1-4.9s.25-4.32.57-7.12c.08-.74.14-1.31.17-1.72a18.89,18.89,0,0,1,.51-3.35,3.61,3.61,0,0,1,1.34-1.71,3.71,3.71,0,0,1,2.31-.79,2.58,2.58,0,0,1,2,.77,2.45,2.45,0,0,1,.7,1.69,21.8,21.8,0,0,1-1.12,4.86,21.4,21.4,0,0,0-.67,3C239.59,327.77,239.38,329.05,239.18,330.33Z"/><path class="d" d="M266.9,326.15v0c.54-3,.8-4.75.8-5.18a5.55,5.55,0,0,1,.81-3.09,2.54,2.54,0,0,1,2.25-1.24,4,4,0,0,1,2.64.8,2.31,2.31,0,0,1,1,1.79,19.28,19.28,0,0,1-.92,4.11l-.15.55a44.64,44.64,0,0,0-1.64,7.84c-.19,2-.28,3.66-.28,4.91a21.84,21.84,0,0,0,.52,4,4.8,4.8,0,0,1,.08.75c0,.38-.36.9-1.08,1.55a3.49,3.49,0,0,1-2.33,1q-3.29,0-3.29-5a54.58,54.58,0,0,1,1.2-10.31C266.62,327.79,266.77,326.94,266.9,326.15Zm12-20.47a4,4,0,0,1-1.59,3.1,4.64,4.64,0,0,1-2.77,1.33,3.51,3.51,0,0,1-2.65-1.25,3.71,3.71,0,0,1-1.16-2.49,3.88,3.88,0,0,1,1.15-2.9,4.57,4.57,0,0,1,3.29-1.1,3.74,3.74,0,0,1,2.7,1A3.11,3.11,0,0,1,278.93,305.68Z"/><path class="d" d="M295.75,322.46c-.15,0-.61,1.85-1.4,5.55a51.81,51.81,0,0,0-1.19,6.73,6.55,6.55,0,0,0,.44,2.85,1.5,1.5,0,0,0,1.43.81,7.4,7.4,0,0,0,2.68-.49,13.57,13.57,0,0,0,3.37-2.18,3.83,3.83,0,0,1,2.19-1.07,1.63,1.63,0,0,1,1.16.41,1.31,1.31,0,0,1,.44,1q0,2.19-3.54,5a11.93,11.93,0,0,1-7.47,2.78,6.37,6.37,0,0,1-5-1.95,8.11,8.11,0,0,1-1.73-5.57q0-3.36,2.52-13.43c-1.07.12-1.8.18-2.22.18h-.52a4.33,4.33,0,0,1-2.33-.75,2.61,2.61,0,0,1-1.18-2.39c0-1.39.78-2.09,2.36-2.09l5.33-.2q1.05-3,2.22-7.89c.46-2,1.52-3,3.16-3a2.79,2.79,0,0,1,2.14.83,2.66,2.66,0,0,1,.77,1.86c0,.26-.7,2.83-2.11,7.69,5.28-.46,8.17-.69,8.69-.7a2.7,2.7,0,0,1,1.74.39,2,2,0,0,1,.43,1.48q0,2.22-3.77,2.82Z"/><path class="d" d="M337.5,334.12c0,1.72-1.45,3.79-4.36,6.18a15,15,0,0,1-9.83,3.6,8.51,8.51,0,0,1-6.63-2.65q-2.42-2.65-2.41-7.38a20.43,20.43,0,0,1,4.93-13.08c3.28-4.07,6.8-6.1,10.53-6.1a5.93,5.93,0,0,1,6.18,6q0,4.33-4.16,8.25a22.53,22.53,0,0,1-10.66,5.42.85.85,0,0,0-.75.9,3.22,3.22,0,0,0,1.06,2.27,3.76,3.76,0,0,0,2.83,1.09q5,0,9.93-5.16a2.66,2.66,0,0,1,1.85-1C337,332.44,337.5,333,337.5,334.12Zm-16.71-4.41a15.12,15.12,0,0,0,6.94-3.36c2-1.71,3-3.27,3-4.66a2.13,2.13,0,0,0-.46-1.38,1.45,1.45,0,0,0-1.19-.56q-2.16,0-4.8,3.18A16.67,16.67,0,0,0,320.79,329.71Z"/><path class="d" d="M377.77,312.67l-.33-.57a4.06,4.06,0,0,1-.79-1.84,2.52,2.52,0,0,1,1.22-2.08,3.87,3.87,0,0,1,2.21-.88,11,11,0,0,1,1.15.07,8.24,8.24,0,0,0,.84.1,79.51,79.51,0,0,1,10.31-1.15c3.71,0,6.63.88,8.78,2.63a8.07,8.07,0,0,1,3.23,6.49,10,10,0,0,1-3.18,7,23.86,23.86,0,0,1-8.5,5.43,124.9,124.9,0,0,0,13.45,9.86,2.85,2.85,0,0,1,1.61,2.49,2.73,2.73,0,0,1-1.13,2,3.29,3.29,0,0,1-2.13,1,6.1,6.1,0,0,1-3.29-1.24c-1.22-.83-3-2.14-5.2-3.92s-3.54-2.85-3.89-3.2a70.94,70.94,0,0,0-6.82-5.26,2.32,2.32,0,0,1-2.64-2.61,2.6,2.6,0,0,1,1.17-2.11,4.37,4.37,0,0,1,2.67-.88,3.94,3.94,0,0,1,.92.12,2.58,2.58,0,0,0,.67.15c1.06,0,3-.88,5.9-2.66s4.31-3.83,4.31-6.15a3.6,3.6,0,0,0-1.8-3,8,8,0,0,0-4.6-1.25,30.13,30.13,0,0,0-5.34.4,11,11,0,0,0-2.22.56,2.41,2.41,0,0,0-.44.79,45.62,45.62,0,0,0-1.1,5.12q-.84,4.49-1.53,9.86a67.16,67.16,0,0,0-.7,7.9,15.28,15.28,0,0,0,.25,2.92,13.25,13.25,0,0,1,.22,2.24,2.87,2.87,0,0,1-1.05,1.93,3.26,3.26,0,0,1-2.31,1q-3.46,0-3.46-4.78a96,96,0,0,1,.86-10.88q.86-7,2-12.3c.12-.57.22-1.08.3-1.52C377.53,313.87,377.65,313.27,377.77,312.67Z"/><path class="d" d="M438.84,334.12c0,1.72-1.45,3.79-4.36,6.18a15,15,0,0,1-9.84,3.6,8.5,8.5,0,0,1-6.62-2.65,10.57,10.57,0,0,1-2.42-7.38,20.45,20.45,0,0,1,4.94-13.08q4.92-6.1,10.53-6.1a5.93,5.93,0,0,1,6.18,6q0,4.33-4.16,8.25a22.58,22.58,0,0,1-10.66,5.42.85.85,0,0,0-.75.9,3.22,3.22,0,0,0,1.06,2.27,3.76,3.76,0,0,0,2.83,1.09q5,0,9.93-5.16a2.66,2.66,0,0,1,1.84-1C438.34,332.44,438.84,333,438.84,334.12Zm-16.71-4.41a15.09,15.09,0,0,0,6.93-3.36c2-1.71,3-3.27,3-4.66a2.08,2.08,0,0,0-.47-1.38,1.43,1.43,0,0,0-1.18-.56c-1.44,0-3.05,1.06-4.8,3.18A16.55,16.55,0,0,0,422.13,329.71Z"/><path class="d" d="M456.13,344.05c-2.74,0-4.82-.74-6.25-2.24a8.63,8.63,0,0,1-2.14-6.23q0-6.27,5.11-13.57t10-7.29a4.85,4.85,0,0,1,4,2.35,8.37,8.37,0,0,1,1.67,4.89c0,1.6-.3,2.67-.89,3.23a2.54,2.54,0,0,1-1.7.83q-2.42,0-2.81-3.33c-.2-1.63-.61-2.45-1.22-2.45q-1.95,0-5.14,5.53t-3.18,9.69q0,3.36,3.63,3.36a14.11,14.11,0,0,0,8.1-2.84,6,6,0,0,1,3-1.37,1.21,1.21,0,0,1,1.37,1.37c0,1.28-1.46,2.94-4.39,5A15.85,15.85,0,0,1,456.13,344.05Z"/><path class="d" d="M482.12,326.15v0c.53-3,.8-4.75.8-5.18a5.55,5.55,0,0,1,.8-3.09,2.55,2.55,0,0,1,2.26-1.24,4,4,0,0,1,2.64.8,2.3,2.3,0,0,1,.94,1.79,18.65,18.65,0,0,1-.92,4.11l-.15.55a44.64,44.64,0,0,0-1.64,7.84c-.18,2-.27,3.66-.27,4.91a21,21,0,0,0,.52,4,4.63,4.63,0,0,1,.07.75c0,.38-.36.9-1.08,1.55a3.47,3.47,0,0,1-2.33,1q-3.28,0-3.29-5a54.58,54.58,0,0,1,1.2-10.31C481.84,327.79,482,326.94,482.12,326.15Zm12-20.47a4,4,0,0,1-1.6,3.1,4.62,4.62,0,0,1-2.76,1.33,3.49,3.49,0,0,1-2.65-1.25,3.66,3.66,0,0,1-1.16-2.49,3.87,3.87,0,0,1,1.14-2.9,4.59,4.59,0,0,1,3.29-1.1,3.74,3.74,0,0,1,2.7,1A3.12,3.12,0,0,1,494.15,305.68Z"/><path class="d" d="M506.58,340.91a50.06,50.06,0,0,0-.84,5.28l-1.2,9.79a5.93,5.93,0,0,1-1.16,3.31,2.73,2.73,0,0,1-2.1.92,3.31,3.31,0,0,1-2.13-.83,2.42,2.42,0,0,1-1-1.86,20.78,20.78,0,0,1,.62-4.65,138.21,138.21,0,0,0,4.06-30.76v-.5a33.76,33.76,0,0,1,.19-4.44,3.34,3.34,0,0,1,3.57-2.8c1.81,0,2.72,1.38,2.72,4.16a44.79,44.79,0,0,1-.62,5.75l-.25,1.72a29,29,0,0,1,6.75-7.86q3.9-3.12,7-3.12a6.41,6.41,0,0,1,4.75,2,6.85,6.85,0,0,1,2,5q0,8-6.24,14.63t-12.34,6.59Q507.41,343.23,506.58,340.91Zm14.62-20.24q-3,0-7.88,5.92t-4.84,9.32a1.94,1.94,0,0,0,.86,1.55,3.1,3.1,0,0,0,2,.69q3.17,0,7.26-5t4.1-9.6a4,4,0,0,0-.48-2.23A1.29,1.29,0,0,0,521.2,320.67Z"/><path class="d" d="M541.26,326.15v0c.53-3,.8-4.75.8-5.18a5.55,5.55,0,0,1,.81-3.09,2.54,2.54,0,0,1,2.25-1.24,4,4,0,0,1,2.64.8,2.34,2.34,0,0,1,1,1.79,18.89,18.89,0,0,1-.93,4.11l-.15.55a44.64,44.64,0,0,0-1.64,7.84c-.18,2-.27,3.66-.27,4.91a21,21,0,0,0,.52,4,4.63,4.63,0,0,1,.07.75c0,.38-.36.9-1.08,1.55a3.47,3.47,0,0,1-2.33,1q-3.28,0-3.28-5a54.47,54.47,0,0,1,1.19-10.31C541,327.79,541.13,326.94,541.26,326.15Zm12-20.47a3.94,3.94,0,0,1-1.6,3.1,4.62,4.62,0,0,1-2.76,1.33,3.49,3.49,0,0,1-2.65-1.25,3.71,3.71,0,0,1-1.16-2.49,3.84,3.84,0,0,1,1.15-2.9,4.55,4.55,0,0,1,3.28-1.1,3.74,3.74,0,0,1,2.7,1A3.12,3.12,0,0,1,553.29,305.68Z"/><path class="d" d="M582.24,334.12c0,1.72-1.46,3.79-4.36,6.18a15.06,15.06,0,0,1-9.84,3.6,8.5,8.5,0,0,1-6.62-2.65,10.57,10.57,0,0,1-2.42-7.38,20.49,20.49,0,0,1,4.93-13.08q4.94-6.1,10.54-6.1a5.92,5.92,0,0,1,6.17,6q0,4.33-4.16,8.25a22.49,22.49,0,0,1-10.65,5.42.85.85,0,0,0-.75.9,3.22,3.22,0,0,0,1.06,2.27A3.72,3.72,0,0,0,569,338.6q5,0,9.94-5.16a2.64,2.64,0,0,1,1.84-1C581.74,332.44,582.24,333,582.24,334.12Zm-16.71-4.41a15.09,15.09,0,0,0,6.93-3.36c2-1.71,3-3.27,3-4.66a2.07,2.07,0,0,0-.46-1.38,1.44,1.44,0,0,0-1.18-.56c-1.44,0-3.05,1.06-4.81,3.18A16.53,16.53,0,0,0,565.53,329.71Z"/><path class="d" d="M603.91,336.36q-.09-1.35-4.28-3.29c-3.42-1.65-5.6-3.06-6.55-4.25a6,6,0,0,1-1.42-3.87q0-4.41,4.94-7.71t9.23-3.3c2.81,0,4.21,1.23,4.21,3.67a2.23,2.23,0,0,1-1,1.74,2.85,2.85,0,0,1-1.63.77,2.77,2.77,0,0,1-1-.35,2.74,2.74,0,0,0-1.07-.35,10.07,10.07,0,0,0-4.88,1.5c-1.78,1-2.67,2.16-2.67,3.48a2.62,2.62,0,0,0,.95,1.88,15.75,15.75,0,0,0,3.86,2.28q4.3,2,5.68,3.69a5.55,5.55,0,0,1,1.37,3.63q0,3.64-4.92,6.07a24.47,24.47,0,0,1-11,2.42c-3,0-4.5-1.08-4.5-3.26a2.66,2.66,0,0,1,.94-2,3.13,3.13,0,0,1,2.12-.85,5.23,5.23,0,0,1,1.47.35,5.26,5.26,0,0,0,1.84.38,17.51,17.51,0,0,0,4.91-.75A6.43,6.43,0,0,0,603.91,336.36Z"/><path class="d" d="M232.56,211.14a15.2,15.2,0,0,1-4.84,7.51,11,11,0,0,1-7.14,3,5.89,5.89,0,0,1-4.64-2.06,7.39,7.39,0,0,1-1.83-5.08,16.68,16.68,0,0,1,3.35-9.67q3.36-4.75,8.13-4.76a6.56,6.56,0,0,1,5.28,2.41,8.69,8.69,0,0,1,2,5.74,12.32,12.32,0,0,1-.33,2.84Zm-9.9-6a12.26,12.26,0,0,0-2.61,3.77,11.68,11.68,0,0,0-1.27,5.2,5.25,5.25,0,0,0,.58,2.61,1.74,1.74,0,0,0,1.53,1c1.57,0,3.21-.94,4.91-2.8a9.11,9.11,0,0,0,2.55-6.29,5.82,5.82,0,0,0-.82-3.23,2.64,2.64,0,0,0-2.32-1.26,3.75,3.75,0,0,0-2.53,1Z"/><path class="d" d="M257,218q-.92-1.71-1.33-6.4-.42-4.87-1.86-4.87T249,211.81a36.29,36.29,0,0,0-4.15,7.5,2.41,2.41,0,0,1-.64,1.2,1.33,1.33,0,0,1-.92.47c-1.93,0-2.89-.88-2.89-2.65a31.53,31.53,0,0,1,.57-4.07,58.24,58.24,0,0,0,.74-10.06,3.22,3.22,0,0,1,.78-1.91,2.15,2.15,0,0,1,1.66-1,2.42,2.42,0,0,1,1.69.55c.4.37.59,1.35.59,2.94a42.84,42.84,0,0,1-1.08,7q4.13-9.66,9.21-9.67,4.43,0,5.18,6.95t1.76,7.09a3.78,3.78,0,0,0,1-.19,3.47,3.47,0,0,1,1.09-.23c.61,0,.91.35.91,1.06a2.94,2.94,0,0,1-1.25,2.07,4.64,4.64,0,0,1-3.16,1.09A3.26,3.26,0,0,1,257,218Z"/><path class="d" d="M288.26,214.24q0,2-3.33,4.73a11.47,11.47,0,0,1-7.52,2.75,6.51,6.51,0,0,1-5.07-2,8.11,8.11,0,0,1-1.84-5.65,15.6,15.6,0,0,1,3.77-10q3.76-4.67,8.05-4.66A4.51,4.51,0,0,1,287,204q0,3.31-3.18,6.31a17.17,17.17,0,0,1-8.15,4.14.65.65,0,0,0-.57.69,2.49,2.49,0,0,0,.81,1.74,2.89,2.89,0,0,0,2.16.83c2.55,0,5.09-1.32,7.6-3.94a2,2,0,0,1,1.41-.77C287.88,213,288.26,213.39,288.26,214.24Zm-12.78-3.37a11.57,11.57,0,0,0,5.31-2.57c1.53-1.31,2.29-2.49,2.29-3.56a1.59,1.59,0,0,0-.35-1.06,1.15,1.15,0,0,0-.9-.43c-1.11,0-2.33.82-3.68,2.44A12.73,12.73,0,0,0,275.48,210.87Z"/><path class="d" d="M333.91,211.14a15.22,15.22,0,0,1-4.85,7.51,11,11,0,0,1-7.13,3,5.89,5.89,0,0,1-4.65-2.06,7.38,7.38,0,0,1-1.82-5.08,16.61,16.61,0,0,1,3.35-9.67q3.35-4.75,8.13-4.76a6.53,6.53,0,0,1,5.27,2.41,8.64,8.64,0,0,1,2,5.74,12.88,12.88,0,0,1-.32,2.84Zm-9.91-6a12.44,12.44,0,0,0-2.6,3.77,11.56,11.56,0,0,0-1.28,5.2,5.25,5.25,0,0,0,.58,2.61,1.75,1.75,0,0,0,1.53,1c1.58,0,3.22-.94,4.92-2.8a9.11,9.11,0,0,0,2.55-6.29,5.82,5.82,0,0,0-.83-3.23,2.61,2.61,0,0,0-2.31-1.26,3.78,3.78,0,0,0-2.54,1Z"/><path class="d" d="M347.55,211.1c-.11,1.13-.21,2.27-.32,3.41s-.15,2.17-.15,3.23a22.69,22.69,0,0,0,.26,3.36,2,2,0,0,1-.95,1.14,3,3,0,0,1-1.6.47c-1.74,0-2.61-1.1-2.61-3.31a65.94,65.94,0,0,1,.82-7,46.15,46.15,0,0,0,.57-5.92c0-.08-.08-.16-.23-.27-.87-.55-1.31-1.09-1.31-1.6s.49-1.37,1.47-2.15a2.2,2.2,0,0,0,.86-1.28c.11-.49.27-1.26.47-2.32.68-4,1.75-6.92,3.19-8.63a6.86,6.86,0,0,1,5.49-2.56,4.63,4.63,0,0,1,3.29,1.26,4.17,4.17,0,0,1,1.34,3.14,8.88,8.88,0,0,1-.77,3.47c-.52,1.2-1.19,1.8-2,1.8a1.33,1.33,0,0,1-.93-.35,1.19,1.19,0,0,1-.38-.93c0-.55.07-1.1.11-1.65,0-2-.41-3-1.24-3q-1.54,0-2.88,3.87a20.76,20.76,0,0,0-1.35,6.6c0,.19.12.29.37.29,2.62,0,4.48,0,5.57,0s1.62.39,1.62,1.26-.65,1.45-2,1.85a14.1,14.1,0,0,1-4.14.6,14.2,14.2,0,0,0-1.9.25c-.31,1.88-.53,3.53-.67,5Z"/><path class="d" d="M399.27,211.14a15.15,15.15,0,0,1-4.85,7.51,11,11,0,0,1-7.13,3,5.87,5.87,0,0,1-4.64-2.06,7.39,7.39,0,0,1-1.83-5.08,16.61,16.61,0,0,1,3.35-9.67q3.34-4.75,8.13-4.76a6.56,6.56,0,0,1,5.28,2.41,8.68,8.68,0,0,1,2,5.74,12.31,12.31,0,0,1-.32,2.84Zm-9.9-6a12.26,12.26,0,0,0-2.61,3.77,11.7,11.7,0,0,0-1.28,5.2,5.36,5.36,0,0,0,.58,2.61,1.75,1.75,0,0,0,1.54,1c1.57,0,3.21-.94,4.91-2.8a9.11,9.11,0,0,0,2.55-6.29,5.74,5.74,0,0,0-.83-3.23,2.61,2.61,0,0,0-2.31-1.26,3.75,3.75,0,0,0-2.53,1Z"/><path class="d" d="M421.1,213.82a17.84,17.84,0,0,1-4.23,5.3,7.77,7.77,0,0,1-4.89,2,4.24,4.24,0,0,1-3-1.55,6.54,6.54,0,0,1-1.49-4.74,31.2,31.2,0,0,1,1.14-6.83,24.8,24.8,0,0,0,1-5.74,2.51,2.51,0,0,1,2.38-1.6,2.26,2.26,0,0,1,1.76.74,2.22,2.22,0,0,1,.66,1.47,11.69,11.69,0,0,1-1,3.85,39.92,39.92,0,0,0-1.19,4.2,21.23,21.23,0,0,0-.63,3.47c0,1.69.35,2.54,1,2.54q1.66,0,4.48-3.18a15.93,15.93,0,0,0,3.68-6.52,16.51,16.51,0,0,1,1.52-4.26,2.11,2.11,0,0,1,1.88-1c1.32,0,2,.74,2,2.21a5.37,5.37,0,0,1-.32,1.29,24,24,0,0,0-1.12,7.6c0,3.3.56,5.28,1.67,5.92a.94.94,0,0,1,.55.8c0,.46-.32.89-1,1.3a3.44,3.44,0,0,1-1.84.61c-1,0-1.78-.71-2.32-2.13A16.34,16.34,0,0,1,421.1,213.82Z"/><path class="d" d="M440.61,211.35l.33-.61a32.24,32.24,0,0,1,5-7.52q2.66-2.88,5.19-2.88a4.63,4.63,0,0,1,3.17,1.07,3.23,3.23,0,0,1,1.22,2.53,2.94,2.94,0,0,1-.41,1.57,1.34,1.34,0,0,1-1.17.66,3.07,3.07,0,0,1-2.15-1,1.91,1.91,0,0,0-1.08-.63c-.95,0-2.55,1.48-4.78,4.43a20.45,20.45,0,0,0-4,10,3.54,3.54,0,0,1-.93,2.24,2.91,2.91,0,0,1-2,.64,1.94,1.94,0,0,1-1.87-1.5,15.32,15.32,0,0,1-.55-4.88c0-.93,0-2.18.07-3.75s.2-3.3.44-5.45c.06-.56.11-1,.13-1.31a15.32,15.32,0,0,1,.39-2.56,2.77,2.77,0,0,1,1-1.31,2.86,2.86,0,0,1,1.77-.61,2,2,0,0,1,1.57.59,1.92,1.92,0,0,1,.53,1.3,17,17,0,0,1-.86,3.71,16.68,16.68,0,0,0-.51,2.32Z"/></svg>