<?xml version="1.0" encoding="UTF-8" standalone="no" ?>
<!DOCTYPE svg PUBLIC "-//W3C//DTD SVG 1.1//EN" "http://www.w3.org/Graphics/SVG/1.1/DTD/svg11.dtd">
<svg xmlns="http://www.w3.org/2000/svg" xmlns:xlink="http://www.w3.org/1999/xlink" version="1.1" width="256" height="128" viewBox="0 0 256 128" xml:space="preserve">
<desc>Created with Fabric.js 5.3.0</desc>
<defs>
</defs>
<g transform="matrix(-1 0 0 1 128.4400846318 63.530556464)" id="lVSrO4Q6upBj4km_BW_wI"  >
<path style="stroke: rgb(0,0,0); stroke-width: 1; stroke-dasharray: none; stroke-linecap: butt; stroke-dashoffset: 0; stroke-linejoin: miter; stroke-miterlimit: 4; fill: rgb(255,255,255); fill-opacity: 0; fill-rule: nonzero; opacity: 1;"  transform=" translate(-125.6669386086, -62.7571476087)" d="M 251.33388 81.22329 C 251.33388 82.75465000000001 250.09247 83.99605000000001 248.56112 83.99605000000001 L 158.29622 83.99605000000001 C 156.21719000000002 83.99605000000001 154.21776 84.7955 152.71185 86.22889 L 113.98492999999999 123.09106 C 112.35060999999999 124.64668 110.18069 125.51429999999999 107.92437 125.51429999999999 L 54.98038 125.51429999999999 C 52.612779999999994 125.51429999999999 50.352759999999996 124.52548999999999 48.74594999999999 122.78659999999999 L 0.287399999999991 70.34449999999998 C -0.004390000000008998 70.02872999999998 -0.08157000000000902 69.57016999999998 0.090769999999991 69.17627999999998 C 0.26310999999999096 68.78238999999998 0.652269999999991 68.52786999999998 1.082219999999991 68.52786999999998 L 7.661529999999992 68.52786999999998 C 9.574329999999993 68.52786999999998 11.412499999999993 69.27014999999997 12.788929999999992 70.59840999999997 L 50.00701999999999 106.51379999999997 C 52.361369999999994 108.78574999999998 55.48194999999999 110.09246999999998 58.75268999999999 110.17600999999998 L 83.94946999999999 110.81953999999998 L 105.88631999999998 110.20235999999997 C 109.46116999999998 110.10177999999998 112.87233999999998 108.68189999999997 115.46273999999998 106.21623999999997 L 149.08583 74.21214999999998 C 152.9195 70.56307999999999 158.00954 68.52788999999999 163.30225 68.52788999999999 L 247.05986 68.52788999999999 C 249.42033999999998 68.52788999999999 251.33388 70.44143999999999 251.33388 72.80190999999999 z M 88.94513 110.36124 L 96.56693000000001 97.66157 L 88.96873000000001 102.89883 L 97.09442000000001 96.78267000000001 L 155.17926 1.4210854715202004e-14 L 158.19209 3.5225200000000143 L 98.36672000000002 95.82503000000001 L 138.35905000000002 65.72300000000001 L 182.54482000000002 32.464610000000015 L 184.31162 37.18127000000001 L 97.66847 96.90232 z" stroke-linecap="round" />
</g>
</svg>