<svg xmlns="http://www.w3.org/2000/svg" viewBox="0 0 485.07 157.96"><defs><style>.a{fill:#fbb03b;stroke-width:1.03px;}.a,.b{stroke:#000;stroke-miterlimit:10;}.b{fill:#f7931e;stroke-width:2px;}</style></defs><title>nuttys-blooper</title><path class="a" d="M480.11,323.14c-2.86-10.67-13.13-14.78-23.4-13.75,5.14,0,11.3,1,14.38,6.16s1,11.29-5.14,12.32c-3.08,0-3.08-5.14-4.1-5.14-7.19,2.06-11.3-8.21-17.46-5.13-1,0-1,5.13-3.08,6.16-3.08,0-6.16-5.13-9.24-5.13-11.29,1-20.53,10.26-32.85,3.08-4.11-2.06-6.16,5.13-10.27,3.08-3.08-2.06-6.16-5.14-9.24-4.11-1,1-1,4.11-2,5.13-13.35-12.32-29.77-24.64-49.28-18.48-24.64,8.22-50.31,21.56-74.95,9.24,13.35,2.06,22.59,13.35,35.94,13.35,1,0,2.05-2.05,1-3.08-6.16-6.16-14.37-2-21.56-6.16,4.11,3.08,10.27,8.21,16.43,6.16-6.16,0-11.29-3.08-16.43-5.13,7.19,2.05,17.46-1,21.56,7.18-13.34,4.11-22.58-12.32-37-11.29,13.35,3.08,26.7,7.19,40,3.08,16.43-6.16,33.88-13.35,50.31-8.21-17.45-6.16-34.91,3.08-51.33,8.21-13.35,4.11-25.67,0-38-3.08,7.19,2,15.4,4.11,21.56,8.21,4.11,3.08,10.27,6.16,12.32,3.08,5.13-8.21-12.32-5.13-18.48-7.18,4.11,4.1,9.24,5.13,15.4,5.13-6.16,0-11.29-2-16.43-5.13,6.16,3.08,17.46-2.06,21.56,7.18-14.37,3.08-23.61-11.29-37-12.32,24.64,12.32,50.31-1,74.95-9.24,7.19-2.05,13.35-2.05,20.53-1a30.61,30.61,0,0,1,17.46,12.32c2.05,4.1,2.05,9.24-2.06,12.32-3.08-6.16-6.16-4.11-12.32-2.06,0-1,3.08-3.08,0-4.1-2.05,0-4.1,2-6.16,1-8.21-7.18-20.53-8.21-29.77-6.16-3.08,0-11.29-2-16.43,0-2.05,1,1,3.08,0,3.08-3.08,0-6.16,2.06-9.24,1,1,2.05,2.06,4.11,1,5.13-1,5.14-6.16,1-9.24,0-17.45-7.18-34.91-15.4-54.41-15.4,17.45-1,32.85,7.19,50.3,8.22-33.88-9.24-68.78-10.27-103.69-1a26.33,26.33,0,0,1-15.4-1c-15.4-6.16-30.8-7.18-47.23-10.26,6.16-1,11.3,3.08,16.43,3.08-2.05,1-3.08-2.06-5.13-1,15.4,1,28.74,6.16,43.12,11.29-14.38-5.13-27.72-10.26-43.12-11.29,1,0,3.08,0,4.1,1-5.13,0-10.26-4.11-15.4-3.08,15.4,3.08,31.83,5.13,47.23,10.26,16.43,4.11,32.85-4.1,49.28-5.13,15.4-1,42.09-3.08,49.28,12.32-7.19-3.08-16.43-4.11-23.61-1-4.11,2.06-6.16-4.1-9.24-6.16-4.11-2-5.14,4.11-7.19,3.08-13.35-3.08-24.64-2.05-38-1,3.08-1,9.24,3.08,7.19,4.1-13.35,3.08-27.72-1-40-7.18,2.05,3.08,2.05,8.21-1,8.21-8.21,1-12.32-6.16-21.56-3.08-1,0-2-3.08-3.08-3.08-11.29,6.16-23.61,0-34.9-4.11-1,3.08-3.08,6.16-5.14,5.14-11.29-2.06-16.42,2.05-25.66,7.18-3.08,1-6.16-2.05-8.22-5.13A9,9,0,0,0,56.31,331c-6.16,2.05-9.24-3.08-13.94-4-.72-.24-1.41-.41-2.1-.62a20.93,20.93,0,0,1-2-.72,3.37,3.37,0,0,1-1.14-.74c-7.5-11.37-12.63-19.58-7.5-33.95,1-4.11-8.21-3.08-7.19-7.19,0-2.05,5.14-1,6.16-3.08,1-4.11-4.1-5.13-6.16-7.19,5.14-4.1,5.14-12.32,5.14-16.42,0-9.24-2.06-17.46,2.05-26.7-10.27-4.1-1-16.42-1-23.61,0-6.16-9.24-3.08-10.26,2.05-2.06,10.27-3.08,20.54-4.11,30.8,3.08-16.42-3.08-40,15-47.9a3.93,3.93,0,0,1,2.55-.81,36.17,36.17,0,0,0,23.26,6.95c.93-.05,1.87-.13,2.8-.24,7.69,3,14.88,4,22.07,3-7.19,1-14.38-1-22-4.49-.93,0-1.86-.07-2.78-.12-4.61-.28-9-1.17-12.23-5.66A4.94,4.94,0,0,1,45,184.13c4.28-.85,7.13,4,10.34,5a7.3,7.3,0,0,1,2,.87c11.3,15.65,31.84,9.49,47.24,7.44-12.32,2.05-29.78,7.19-37-5.13-4.11-7.19,4.1-8.22,9.24-7.19,5.13,2.05,8.21,7.19,14.37,9.24,1,0,3.08,1,4.11-1,0-2.05-1-7.18,2-6.16,18.48,1,34.91,5.14,53.39,8.22,6.16,1,13.34,2,19.5,4.1,11.3,1,21.56-1,32.86-1-13.35-3.08-28.75,2.05-41.07-5.14,0,1,1,2.06,2.05,3.08L161,193.37c13.35,6.16,26.7,2.06,41.07,5.14-24.64,2.05-54.41,2.05-73.92-13.35,5.13,0,7.19,8.21,13.35,4.11-2.06-2.06-2.06-8.22,0-7.19,7.18,2,9.24,12.32,18.48,13.35-3.08-3.08-9.24-9.24-3.08-11.3,4.1-2,6.16,5.14,9.24,6.16,3.08,0,5.13-4.1,7.18-3.08,8.22,1,13.35,0,21.56,0,2.06,0,5.14,4.11,7.19,4.11,10.27,0,19.51-1,29.77,0a3.75,3.75,0,0,0-3.08-1c19.51-2,39-1,57.5,6.16,11.29,4.11,23.61,1,34.9,1-10.26,0-20.53-3.08-30.8-4.11,7.19,7.19,16.43,2.06,24.64,4.11-14.37,0-31.82,3.08-42.09-10.27,11.29,16.43,31.83,8.22,47.23,10.27-6.16-2-13.35,0-19.51-2,2-1,5.13,1,7.19,1-5.14,0-10.27-4.1-13.35-1-2.05,1,3.08-2.06,3.08,1-2.05,0-3.08-1-5.13-2,9.24,1,19.5,3.08,28.74,3.08-22.58,3.08-46.2,1-64.68-14.37a3,3,0,0,1,2.06-4.11,124.17,124.17,0,0,0,14.37,10.27c-1-2.06-2.05-4.11-2.05-6.16a35.39,35.39,0,0,0,21.56,14.37c-6.16-1-16.43-11.29-9.24-12.32,10.26-1,22.58,2.05,32.85,7.19,2.05,0,3.08-2.06,4.11-3.08,7.18-1,13.34,7.18,20.53,2,1-1-1-4.11,1-4.11a353.71,353.71,0,0,0,108.82,7.19c9.24,0,18.48,7.19,28.75,5.13,2.05,0,3.08-1,2.05-3.08-4.1-5.13-10.26-4.1-16.42-3.08-4.11,1-5.14-6.16-9.24-7.18,1,10.26,15.4,16.42,24.64,11.29-1-1-3.08-1-4.11-2,0,1,1,1,1,2-6.16,2.05-10.27-2-15.4-3.08,2,1,5.13,2,7.18,4.11-2-1-4.1-1-5.13-3.08,4.11,1,8.21,3.08,12.32,3.08,1,0,1-2.06,1-3.08,1,0,2.05,1,3.08,2-8.22,5.13-22.59-1-24.64-10.27,5.13-1,5.13,7.19,9.24,6.16,6.16-1,13.34-3.08,16.42,5.14-10.26,4.1-19.5-3.08-29.77-4.11-19.51-2.05-40,3.08-59.55,0,2.06,4.11,7.19,2,10.27,2,17.45,4.11,34.91-7.18,52.36-1,8.21,2,20.53,8.21,24.64,2,3.08-5.13-9.24-4.11-14.37-4.11-3.08,0-5.14-5.13-8.22-7.18-3.08-1-1,2.05-1,3.08,5.13,8.21,15.4,13.34,24.64,8.21a5.34,5.34,0,0,0-4.11-2c0,1,1,1,1,2-5.14,1-9.24-1-13.35-2,5.13,2,11.29,1,16.43,2-9.24,5.13-23.62-1-24.64-11.29,6.16,0,6.16,11.29,11.29,7.18,5.13-3.08,15.4,2.06,13.35,4.11-8.22,7.19-19.51-2-29.78-4.11-12.32-1-23.61,3.08-35.93,3.08,18.48-2,35.93-4.1,53.39,2.06,4.1,2.05,12.32,3.08,12.32-1,0-7.19-10.27-3.08-15.4-4.11-3.08,0-5.14-4.1-8.22-7.18-3.08,6.16,4.11,9.24,7.19,10.26,4.11,2.06,13.35,7.19,15.4,0,0-1-2.05-2-3.08,0l1,1c-5.14,2.05-10.27-1-14.38-3.08,2.06,3.08,5.14,2,7.19,4.11-2.05-1-5.13-2.06-7.19-3.08l12.32,3.08c1,0,3.08-1,1-3.08,1,1,5.13,0,3.08,1-8.21,8.22-19.51,0-23.61-9.24,5.13,0,6.16,7.19,9.24,6.16,6.16,0,11.29-1,16.42,2.06v3.08c-10.26,4.1-20.53-4.11-29.77-4.11-28.75-1-59.55,10.27-85.21-8.21,25.66,18.48,57.49,7.18,86.24,8.21,8.21,1,26.69,9.24,26.69,2-1-7.18-17.45,1-22.59-10.26-1,10.26,13.35,13.34,20.54,13.34,2.05,0,3.08-2.05,1-4.1-3.08,6.16-10.26,0-15.4-1,0,2,2.06,2,3.08,3.08l-3.08-3.08c4.11,2,10.27,7.19,14.38,1,1,0,3.08,2,2.05,3.08-8.21,4.1-17.45-1-21.56-7.19-1-1-4.11-3.08-1-5.13,4.11,9.24,12.32,6.16,20.54,7.18,2.05,1,7.18,4.11,2.05,6.16a20.92,20.92,0,0,1-11.29,0c-17.46-9.24-34.91-4.1-53.39-4.1,17.45,2,34.91-6.16,52.36,3.08,4.11,2.05,12.32,3.08,13.35,0,1-7.19-9.24-5.14-14.38-5.14-4.1,1-5.13-6.16-10.26-7.18,1,10.26,15.4,16.42,24.64,11.29-2.06,1-2.06-5.13-4.11-1l1,1c-2.06,3.08-4.11,0-6.16,0,2.05,0,4.1,3.08,6.16,0a3.59,3.59,0,0,1-1-2,5.34,5.34,0,0,1,4.11,2c-9.24,6.16-21.56-2-24.64-11.29,5.13,0,5.13,8.21,9.24,7.18,6.16,0,15.4-2.05,15.4,4.11,0,4.11-8.22,2.05-12.32,2.05-6.16-1-10.27-5.13-16.43-6.16-19.51-2.05-39,9.24-58.52,1,19.51,4.11,39-3.08,58.52,0,9.24,1,22.59,10.27,29.77,2-8.21-6.16-19.5,0-25.66-10.26,1,11.29,15.4,15.4,23.61,12.32,1-1-1-3.08-2.05-3.08-3.08,6.16-10.27-1-14.38,0,3.08,3.08,8.22,2,12.32,4.1-4.1-2.05-10.26-1-13.34-5.13,5.13,0,13.34,7.19,15.4,1,1,0,3.08,1,2.05,2-8.21,6.16-21.56-2-23.61-11.29,6.16,10.26,18.48,3.08,24.64,10.26,3.08,4.11-8.22,3.08-12.32,3.08-5.14-1-10.27-5.13-15.4-5.13-32.86,1-65.71,6.16-97.54-6.16,31.83,10.27,63.66,9.24,96.51,6.16,9.24-1,22.59,10.27,29.77,2-3.08-1-5.13-4.1-8.21-4.1-8.21,4.1-11.29-2.06-17.45-6.16,2.05,9.24,14.37,16.42,23.61,12.32,3.08-1,0-2.06-1-3.08-4.1,4.1-10.26,1-15.4-1,3.08,5.13,8.22,3.08,12.32,5.13-4.1-2.05-9.24,0-12.32-5.13,4.11,2,9.24,4.11,14.38,3.08,0-1-1-1-1-2a5.34,5.34,0,0,1,4.11,2c-9.24,5.13-22.59-1-24.64-11.29,6.16,9.24,14.37,5.13,23.61,8.21,3.08,1,2.05,3.08,2.05,4.11-10.26,5.13-19.5-3.08-29.77-4.11-18.48-2.05-38,3.08-56.47,1,6.16,2,13.35,2,19.51,2-5.13,0-11.29-1-16.43-1,19.51,1,38-6.16,57.5-1,7.18,1,23.61,8.21,23.61,1,0-6.16-10.27,0-16.43-3.08-2.05-2.05-3.08-6.16-6.16-6.16s1,2.06,0,4.11c6.16,4.11,15.4,12.32,22.59,6.16,1-1,0-2-1-2-4.1,6.16-10.26-1-15.4,0,3.08,1,7.19,2,10.27,4.1-3.08-2.05-8.21-1-11.29-5.13,4.1,1,12.32,7.19,15.4,1,1,0,3.08,2,2.05,3.08-8.21,3.08-19.51-1-23.61-9.24,0-1-2.06-4.11,1-2.06,5.14,4.11,9.24,7.19,17.46,6.16,1,0,6.16,0,6.16,2.06,2.05,7.18-7.19,4.1-11.3,4.1-6.16-1-11.29-5.13-16.42-5.13-19.51-2.05-38,6.16-58.52,2-10.27-2-31.83-2-31.83-15.4,6.16,4.11,13.35,9.24,20.53,12.32-2.05-1-3.08-3.08-6.16-3.08,4.11,3.08,10.27,4.11,15.4,6.16-5.13-2-13.34-6.16-9.24-12.32,0-1,3.08,2.06,4.11,2.06,12.32,0,24.64,6.16,37,4.1,3.08,0,9.24-2,13.35-2,13.34,1,31.82,17.45,44.14,8.21-4.1-4.1-10.26-6.16-14.37-1,4.11-4.11,10.27-3.08,14.37,1-8.21,8.22-21.56,0-29.77-5.13,8.21,4.11,21.56,13.35,29.77,5.13-3.08-1-5.13-5.13-9.24-2,3.08,0,8.22,1,7.19,2-6.16,8.22-17.45,1-23.61-5.13-2.06-3.08-3.08-9.24,2.05-11.29,2.05,9.24,9.24,0,14.37,3.08,7.19,3.08,16.43,8.21,18.48,16.42,1,1-3.08,1-4.17,4.17a7.81,7.81,0,0,0,.13,1.54c7.46,41.95,8,86.31-.06,126.73,3.08-14.37,10.26-27.72,9.24-43.12-2.06,14.38-4.11,28.75-10.27,42.1v-2.06a3.77,3.77,0,0,1,1,3.08c8.21-22.58,5.13-45.17,8.21-67.76-4.11,3.08-2.05,8.22-2.05,11.3,1,19.5,1,38-7.19,56.46,4.11-14.37,9.24-27.72,10.27-42.09-1,14.37-5.14,28.75-10.27,42.09,9.24-19.5,6.16-41.06,6.16-62.62,0-6.16-2.05-13.35,1-19.51-5.14,18.48,1,35.93,1,54.41-1,9.24-6.16,18.48-8.21,27.72,5.13-13.34,10.27-28.74,10.27-43.12-1,15.4-7.19,27.72-9.24,43.12,5.13-19.5,8.21-38,6.16-58.52,2.05,20.54,0,39-7.19,58.52,5.13-14.37,9.24-27.72,10.27-42.09-1,14.37-5.14,28.75-10.27,42.09,2.05-9.24,8.21-18.48,7.19-27.72,0-24.64-4.11-49.28,2.05-73.92-3.08,2.06-3.08,5.14-3.08,7.19-5.13,31.83,7.19,64.68-6.16,94.45,5.13-14.37,10.27-27.72,10.27-43.12-1,15.4-6.16,28.75-9.24,43.12,8.21-21.56,5.13-44.14,8.21-66.73-6.16,22.59,2.05,45.17-9.24,66.73,5.13-13.34,9.24-27.72,10.27-42.09,0,14.37-5.14,28.75-10.27,42.09,10.27-23.61,7.19-48.25,5.13-72.89,0,24.64,6.16,49.28-5.13,72.89a115.23,115.23,0,0,0,10.27-41.06c0,14.37-6.16,27.72-10.27,41.06,10.27-21.56,7.19-45.17,5.13-67.76,3.08,22.59,4.11,46.2-5.13,67.76,5.13-13.34,10.27-26.69,10.27-41.06-2.06,6.16-2.06,12.32-2.06,18.48v-1c-3.08,7.19-5.13,15.4-8.21,23.61,11.29-21.56,4.11-44.14,8.21-66.73-1,22.59,1,45.17-8.21,66.73a3.75,3.75,0,0,0,1-3.08c0,1-1,1-1,2.06,6.16-13.35,8.21-27.72,10.27-42.1,1,15.4-6.16,28.75-9.24,43.12,12.32-30.8,0-63.65,5.13-96.5,1-2.06,1-4.11,3.08-5.14-8.21,26.7,1,53.39-2.05,81.11-1,7.19-8.22,12.32-6.16,20.53,2.05-14.37,10.26-27.72,9.24-43.12-1,15.4-5.14,28.75-10.27,43.12,9.24-19.5,7.19-39,8.21-59.54-1,20.53,0,40-7.18,59.54v-4.1c0,1-1,1-1,2.05,6.16-13.35,8.21-25.67,10.27-40,0,14.37-6.16,28.75-10.27,42.09,14.37-25.66,1-54.41,7.19-82.13-4.11,20.53,3.08,40,0,60.57-2.06,7.19-6.16,14.38-7.19,21.56,4.11-13.34,10.27-27.72,10.27-42.09-1,14.37-6.16,27.72-9.24,42.09,8.21-21.56,4.1-44.14,7.18-66.73-2.05,22.59,3.08,45.17-8.21,65.71,6.16-13.35,8.21-27.72,10.27-42.1,0,14.38-5.14,29.78-10.27,43.12,14.37-37,3.08-77,4.11-115l1,1c0-4.1,0-9.24,4.11-12.32,4.11,8.22-6.16,15.4-3.08,23.62a9.25,9.25,0,0,0,1-5.14c2.05,1,1,3.08,1,4.11,1,0,4.11-3.08,3.08-1-1,7.19-5.13,13.35-5.13,21.56,2.05-1,1-5.13,2.05-4.1,3.08,3.08-1,7.18-2.05,11.29-1,25.67,4.11,51.33-5.13,76-1-5.13,3.08-9.24,4.1-14.37-2,5.13-4.1,9.24-4.1,14.37,7.18-20.53,5.13-41.06,6.16-62.62,0-3.08,0-8.22,5.13-8.22-6.16,14.38-4.11,29.78-5.13,45.18,0,9.24-5.14,16.42-7.19,25.66,7.19-15.4,6.16-31.82,12.32-47.22A196,196,0,0,1,485.46,333c0-10.27,7.19-17.45,7.19-27.72,0,2.05-2.06,5.13-1,7.19a42,42,0,0,0-.25-5.79,1,1,0,0,0-1.15.14c-5.05,3.56-6.21,10.53-9.14,16A2.14,2.14,0,0,1,480.11,323.14Z" transform="translate(-13.71 -178.49)"/><path class="b" d="M83.45,260.53l-.35,2c-.85.07-1.59.11-2.22.11a31.15,31.15,0,0,1-3.3-.21c-2.21-.24-3.6-.36-4.19-.36a35,35,0,0,0-4.53.46,46.13,46.13,0,0,0,1.83-5.76,68.44,68.44,0,0,0,1.12-7.39q-4.11,0-12.74.18-9,13.63-13.12,17.14c-2.77,2.33-5.42,3.5-7.93,3.5a4.73,4.73,0,0,1-2.93-.76,2.37,2.37,0,0,1-1-1.95,2.1,2.1,0,0,1,.57-1.51,1.83,1.83,0,0,1,1.4-.6,7.57,7.57,0,0,1,1.34.17,15.7,15.7,0,0,0,2.81.5q2.35,0,5.2-2.67,4.64-4.36,13.7-18.29,10.26-15.75,16.62-22.92Q67.09,223,65,223.65a9,9,0,0,0-4.43,2.81,6.09,6.09,0,0,0-1.47,3.8,5.23,5.23,0,0,0,.46,1.79A6.43,6.43,0,0,1,60,234a1.89,1.89,0,0,1-.6,1.37,2,2,0,0,1-1.44.6A2.33,2.33,0,0,1,56,235a4.23,4.23,0,0,1-.72-2.69,9.93,9.93,0,0,1,1.32-4.9,11.19,11.19,0,0,1,3.78-4A18.86,18.86,0,0,1,66.57,221a49.66,49.66,0,0,1,6.68-.81,35,35,0,0,0,5.21-.66,8.16,8.16,0,0,0,3.17-1.8c-.71,2.89-1.21,5.4-1.52,7.56l-2.74,20.32-1.59,14.56a19.31,19.31,0,0,0,4.68.66A15.74,15.74,0,0,0,83.45,260.53ZM72.13,246.78a176.31,176.31,0,0,1,3.37-20.85Q71,231.86,70,233.39l-9,13.39c1.94.07,4.72.11,8.32.11C70.17,246.89,71.12,246.85,72.13,246.78Z" transform="translate(-13.71 -178.49)"/><path class="b" d="M130.42,219.75l1,4.11q1.36,5.63,2.71,9.84T141,253.21c.35-1.28,1.06-4.14,2.11-8.57q2-8.65,2.71-10.87a45.28,45.28,0,0,1,3.8-9.56,12.12,12.12,0,0,1,4.07-4.39,9.81,9.81,0,0,1,5.1-1.34,5.89,5.89,0,0,1,3.5.88,2.56,2.56,0,0,1,1.21,2.11,2.15,2.15,0,0,1-.65,1.55,2.07,2.07,0,0,1-1.53.66,3.79,3.79,0,0,1-1.47-.35c-1.18-.47-1.88-.74-2.11-.81a6.65,6.65,0,0,0-1.38-.14,4.17,4.17,0,0,0-2.95,1.16q-2.18,2-4.8,10.23T141.91,260l-1.2,5.24q-4-8.82-5.41-12.51-1.91-5-4.32-12.52L127.11,228q-.7,4.22-3.29,14.22t-3.07,11.51a27.52,27.52,0,0,1-3.47,7.28,12,12,0,0,1-4,3.69,10.2,10.2,0,0,1-4.83,1.16,9.2,9.2,0,0,1-5.42-1.48,3.24,3.24,0,0,1-1.61-2.77,1.83,1.83,0,0,1,.59-1.32,2,2,0,0,1,1.45-.58,3.66,3.66,0,0,1,2.35,1.16,6.42,6.42,0,0,0,4.11,2.07,5.78,5.78,0,0,0,3.94-1.79q2.88-2.75,5.56-11.5a247.24,247.24,0,0,0,6.22-26.86,29.53,29.53,0,0,0-4.71.71,20.84,20.84,0,0,0-5.82,2,9.43,9.43,0,0,0-3.59,3.34,8.22,8.22,0,0,0-1.24,4.31,8.76,8.76,0,0,0,.31,2.29,7.59,7.59,0,0,0,.92,1.89,4.32,4.32,0,0,1,.8,2,1.9,1.9,0,0,1-.61,1.44,2.1,2.1,0,0,1-1.53.6,2.72,2.72,0,0,1-2.28-1.39,7.48,7.48,0,0,1-.95-4.23,13.4,13.4,0,0,1,2.37-8,14.7,14.7,0,0,1,6.34-5q2.53-1,9.78-2A49.72,49.72,0,0,0,130.42,219.75Z" transform="translate(-13.71 -178.49)"/><path class="b" d="M178.53,233.42h5l-3.31,12.29c-1.94,7.13-2.92,11.2-2.92,12.18a1.47,1.47,0,0,0,.32,1,1,1,0,0,0,.7.35,2.64,2.64,0,0,0,1.41-.53,40.87,40.87,0,0,0,4.39-4.07l1.16,1.3q-7.06,7.35-10.4,7.34a2.5,2.5,0,0,1-1.92-.86,3.46,3.46,0,0,1-.79-2.44,21.85,21.85,0,0,1,.76-4.89,31,31,0,0,1-7.73,6.3,10.92,10.92,0,0,1-5.3,1.79,2.42,2.42,0,0,1-1.93-.81,3.87,3.87,0,0,1-.71-2.57,15.26,15.26,0,0,1,.32-3c.31-1.48,1.08-4.44,2.32-8.9q2.35-8.49,2.36-10.18c0-.65-.24-1-.71-1a3.67,3.67,0,0,0-1.72.65,26.91,26.91,0,0,0-3.73,3.14l-1.54-1.23a42.18,42.18,0,0,1,7.19-5.53,9.17,9.17,0,0,1,4-1.32,1.72,1.72,0,0,1,1.37.61,2.93,2.93,0,0,1,.53,1.92q0,2.43-2.54,11.94-2.25,8.55-2.25,9.75a1.84,1.84,0,0,0,.48,1.27,1.37,1.37,0,0,0,1,.52q2,0,5.58-3.25a15.26,15.26,0,0,0,4.74-7.4Z" transform="translate(-13.71 -178.49)"/><path class="b" d="M197.74,227.09l5.58-2.14-2.52,9.84h7.28l-.57,2.5h-7.28l-3.07,11.78a33.67,33.67,0,0,0-1.46,7.38,2,2,0,0,0,.4,1.37,1.47,1.47,0,0,0,1.11.42,7.79,7.79,0,0,0,3.34-1.3,44.13,44.13,0,0,0,5.63-3.9l1.33,1.62a90.09,90.09,0,0,1-10.3,7.1,10.19,10.19,0,0,1-4.18,1.3,2.51,2.51,0,0,1-2.06-.95,5,5,0,0,1-.75-3.09,34.64,34.64,0,0,1,1.33-7.74l3.58-14h-5.69l.63-2.5h5.7Z" transform="translate(-13.71 -178.49)"/><path class="b" d="M220.77,227.09l5.58-2.14-2.53,9.84h7.28l-.56,2.5h-7.29l-3.06,11.78a33.06,33.06,0,0,0-1.46,7.38,1.93,1.93,0,0,0,.4,1.37,1.47,1.47,0,0,0,1.11.42,7.79,7.79,0,0,0,3.34-1.3,44,44,0,0,0,5.62-3.9l1.34,1.62a91,91,0,0,1-10.3,7.1,10.23,10.23,0,0,1-4.18,1.3,2.49,2.49,0,0,1-2.06-.95,5,5,0,0,1-.76-3.09,34.8,34.8,0,0,1,1.34-7.74l3.58-14h-5.7l.64-2.5h5.7Z" transform="translate(-13.71 -178.49)"/><path class="b" d="M233.85,239.68,232.72,238l2.6-1.76a47.88,47.88,0,0,1,5.35-3.34,3.75,3.75,0,0,1,1.61-.42,1.86,1.86,0,0,1,1.41.84,33,33,0,0,1,5.2,10.52A42.15,42.15,0,0,1,251,256.71c0,.54,0,1.36-.07,2.46q5.94-10.94,5.94-17.38a14.38,14.38,0,0,0-.6-3.55,16.39,16.39,0,0,1-.63-3.52,2.31,2.31,0,0,1,.65-1.68,2.19,2.19,0,0,1,1.64-.67,2.38,2.38,0,0,1,2,.95,4.19,4.19,0,0,1,.76,2.7,40.16,40.16,0,0,1-2.07,11.31,72.86,72.86,0,0,1-6.53,14.55A58.84,58.84,0,0,1,244,273.45a25.55,25.55,0,0,1-7.1,5.41,15.11,15.11,0,0,1-6.49,1.64,5.83,5.83,0,0,1-3.49-.87,2.49,2.49,0,0,1-1.18-2.05,2.27,2.27,0,0,1,.91-1.81,3.71,3.71,0,0,1,2.46-.76,15.8,15.8,0,0,1,3.27.46,16.88,16.88,0,0,0,3,.49,7.68,7.68,0,0,0,4.53-1.79,19,19,0,0,0,5.19-5.87,14,14,0,0,0,1.91-6.88,58.82,58.82,0,0,0-1.42-11.73q-1.42-6.85-4-10.47a3.54,3.54,0,0,0-2.77-1.86Q237,237.36,233.85,239.68Z" transform="translate(-13.71 -178.49)"/><path class="b" d="M295,228.39l.42-1.72a51.72,51.72,0,0,0,8.65-1.41q-1.21,3.63-1.79,5.85L300.41,239q6.21,0,9.36-3.12a10.07,10.07,0,0,0,3.14-7.41,5.87,5.87,0,0,0-2.27-4.82q-2.26-1.81-6.76-1.82a25.68,25.68,0,0,0-12.13,3,23.59,23.59,0,0,0-9,7.9,17.59,17.59,0,0,0-3.22,9.77,7.91,7.91,0,0,0,.37,2.48,7,7,0,0,0,1.07,2.09,8.22,8.22,0,0,0,1.86,1.55,9.5,9.5,0,0,1,2,1.68,2.13,2.13,0,0,1,.38,1.28,1.75,1.75,0,0,1-.54,1.28,1.78,1.78,0,0,1-1.32.55q-2,0-4.06-2.92a12.23,12.23,0,0,1-2.06-7.22,21,21,0,0,1,3.54-11.45,25.29,25.29,0,0,1,10-8.89A30.53,30.53,0,0,1,305,219.57q6.33,0,9.61,2.5a7.43,7.43,0,0,1,3.29,6.09,9.72,9.72,0,0,1-2.22,6.2,13.81,13.81,0,0,1-6.71,4.31,12.66,12.66,0,0,1,4.89,1.67,8.33,8.33,0,0,1,2.76,3,8.6,8.6,0,0,1,1,4.11,12.84,12.84,0,0,1-2.23,7.19,16.91,16.91,0,0,1-6.57,5.62,19.57,19.57,0,0,1-9.06,2.23q-1.36,0-5.87-.28c-1.43-.07-2.93-.11-4.5-.11a31.82,31.82,0,0,0-6.36.57l.53-1.94q3.69-.21,5.25-1.77t2.94-6.88l5.2-20.43a9.48,9.48,0,0,0,.32-2,1.24,1.24,0,0,0-.44-.93,1.54,1.54,0,0,0-1.11-.41A2.92,2.92,0,0,0,295,228.39Zm4.83,12.68-1.79,7.07a58.89,58.89,0,0,1-2.63,8.45,10,10,0,0,1-1.92,3,23.72,23.72,0,0,0,5.45.77q6.15,0,9.29-3.8a13,13,0,0,0,3.15-8.48,6.7,6.7,0,0,0-1.18-4,6.09,6.09,0,0,0-3.09-2.34Q305.23,241.07,299.85,241.07Z" transform="translate(-13.71 -178.49)"/><path class="b" d="M336.4,253.6l1.19,1.27a35,35,0,0,1-6.48,5.64q-3.75,2.55-6.17,2.55a2.27,2.27,0,0,1-1.8-.83,3.37,3.37,0,0,1-.7-2.27q0-2.81,2.18-11.67l3.79-15.43a66.28,66.28,0,0,1,3.47-11.22,16.44,16.44,0,0,1,14.58-9.07,3.56,3.56,0,0,1,2.36.73,2.2,2.2,0,0,1,.87,1.75,2.35,2.35,0,0,1-.85,1.86,3.66,3.66,0,0,1-2.45.73,18.39,18.39,0,0,1-3-.35,18.75,18.75,0,0,0-3.11-.29,3.36,3.36,0,0,0-2.17.6,7.48,7.48,0,0,0-1.84,3.53q-.82,2.7-2.68,10.64L330.1,246.5q-2.61,11.07-2.6,11.57c0,.75.27,1.12.81,1.12a5,5,0,0,0,2.25-.91A35.63,35.63,0,0,0,336.4,253.6Z" transform="translate(-13.71 -178.49)"/><path class="b" d="M356.47,232.51a7.14,7.14,0,0,1,5.73,2.74c1.52,1.83,2.29,4.37,2.29,7.63a20.6,20.6,0,0,1-5.49,14q-5.47,6.21-11.6,6.2a7.9,7.9,0,0,1-6.06-2.46,9.41,9.41,0,0,1-2.31-6.71,23.93,23.93,0,0,1,4.22-13.64Q348.56,232.51,356.47,232.51Zm-3,2.63q-3,0-5.78,4.28c-1.86,2.84-2.8,6.78-2.8,11.79a13.06,13.06,0,0,0,1.73,7.21,3.86,3.86,0,0,0,3.37,1.93q3,0,5.38-3.65a21.17,21.17,0,0,0,3.09-11.78q0-5.28-1.42-7.53A4.16,4.16,0,0,0,353.48,235.14Z" transform="translate(-13.71 -178.49)"/><path class="b" d="M385.26,232.51a7.14,7.14,0,0,1,5.73,2.74q2.29,2.75,2.29,7.63a20.6,20.6,0,0,1-5.49,14q-5.48,6.21-11.6,6.2a7.9,7.9,0,0,1-6.06-2.46,9.41,9.41,0,0,1-2.3-6.71A23.92,23.92,0,0,1,372,240.28Q377.35,232.51,385.26,232.51Zm-3,2.63c-2,0-3.91,1.43-5.78,4.28s-2.79,6.78-2.79,11.79a13.06,13.06,0,0,0,1.72,7.21,3.86,3.86,0,0,0,3.37,1.93c2,0,3.77-1.22,5.38-3.65a21.09,21.09,0,0,0,3.1-11.78q0-5.28-1.43-7.53A4.16,4.16,0,0,0,382.27,235.14Z" transform="translate(-13.71 -178.49)"/><path class="b" d="M397.15,241.23l-1.38-1.41a24.87,24.87,0,0,1,6.37-5.66,11.42,11.42,0,0,1,5.48-1.83,2.07,2.07,0,0,1,1.39.44,1.59,1.59,0,0,1,.51,1.28,10.3,10.3,0,0,1-.23,2.1q-.23,1.07-1.42,5.08a59.14,59.14,0,0,1,7.35-6.65,11.31,11.31,0,0,1,6-2.14,3.64,3.64,0,0,1,3,1.69,8.62,8.62,0,0,1,1.23,5.09,27.91,27.91,0,0,1-5.31,16.17q-5.29,7.67-11.73,7.67a10.58,10.58,0,0,1-5.06-1.37l-3,11.6a7,7,0,0,0-.29,1.72,2,2,0,0,0,1,1.87q1.51.87,6.36,1.44l-.46,1.75q-5.65-.45-8.89-.45t-8.65.45l.46-1.75a6.36,6.36,0,0,0,3.88-1.48,9,9,0,0,0,1.95-4.25l6.37-26.69q1.78-7.46,1.79-8.29c0-.61-.29-.92-.88-.92Q401.51,236.69,397.15,241.23Zm7.12,16.59A8.1,8.1,0,0,0,410,260.6q4.2,0,7.39-6.58a29.47,29.47,0,0,0,3.17-12.83,4.52,4.52,0,0,0-.89-3,3,3,0,0,0-2.4-1,6.36,6.36,0,0,0-3.79,1.66,23.39,23.39,0,0,0-5,5.09,21.15,21.15,0,0,0-2.32,6.33Z" transform="translate(-13.71 -178.49)"/><path class="b" d="M446.72,253.25l1.16,1.55Q439.26,263,433.11,263a4.52,4.52,0,0,1-3.81-1.69c-.88-1.12-1.32-2.93-1.32-5.41a28.39,28.39,0,0,1,4.57-15q5.13-8.47,12.27-8.47a5.3,5.3,0,0,1,3.81,1.25,4.47,4.47,0,0,1,1.32,3.42,7.68,7.68,0,0,1-1.58,4.5,18.27,18.27,0,0,1-5.66,4.61q-2,1.16-8.72,4.18a22.28,22.28,0,0,0-.32,3.62,5.74,5.74,0,0,0,.79,3.48,2.79,2.79,0,0,0,2.31,1,7.5,7.5,0,0,0,3.16-.81A44.62,44.62,0,0,0,446.72,253.25Zm-12.31-5.1a27.65,27.65,0,0,0,8.51-5.45,6,6,0,0,0,1.93-4,3.5,3.5,0,0,0-.79-2.41,2.6,2.6,0,0,0-2.06-.89,4,4,0,0,0-2.53,1,9.77,9.77,0,0,0-2.77,3.94A35.66,35.66,0,0,0,434.41,248.15Z" transform="translate(-13.71 -178.49)"/><path class="b" d="M459.27,262.07H454l2.46-9.45q1.78-7,3.13-13.22a13.63,13.63,0,0,0,.31-1.94c0-.56-.25-.84-.77-.84a3.55,3.55,0,0,0-1.62.72,33.25,33.25,0,0,0-3.93,3.57l-1.09-1.23a26.93,26.93,0,0,1,6.73-5.43,12.13,12.13,0,0,1,5.15-1.81,1.55,1.55,0,0,1,1,.3,1,1,0,0,1,.37.75,16.36,16.36,0,0,1-.47,2.44l-1.53,6.32a44.89,44.89,0,0,1,8-9.59c1.43-1.27,2.63-1.91,3.59-1.91a2.42,2.42,0,0,1,1.76.69,2.21,2.21,0,0,1,0,3.21,10.24,10.24,0,0,1-3.43,1.58,15.16,15.16,0,0,0-4.23,2.11,20.31,20.31,0,0,0-3.58,3.77,20.59,20.59,0,0,0-2.73,4.41,75.69,75.69,0,0,0-2.36,8.73Z" transform="translate(-13.71 -178.49)"/><path d="M121.62,287.47a.45.45,0,0,0-.39-.45c-.48-.12-.72-.32-.72-.61a.94.94,0,0,1,.28-.64.86.86,0,0,1,.61-.31l1.23,0c.58,0,1.33,0,2.27-.12s1.63-.11,2.09-.11a5.5,5.5,0,0,1,3.9,1.36,4.71,4.71,0,0,1,1.47,3.6,6.08,6.08,0,0,1-2.1,4.47,12.81,12.81,0,0,1-6,2.95,6.89,6.89,0,0,0-2.08.75,2.28,2.28,0,0,1-1.2.49.74.74,0,0,1-.59-.35,1.05,1.05,0,0,1-.26-.57,1.92,1.92,0,0,1,.17-.46,3,3,0,0,0,.26-.8,11.54,11.54,0,0,0,.13-1.45c0-.69.14-1.81.32-3.35s.34-2.64.45-3.28A7.23,7.23,0,0,0,121.62,287.47Zm1.59-.59a63.75,63.75,0,0,0-1,8.87,2.68,2.68,0,0,0,.11.86.45.45,0,0,0,.27.06,15.36,15.36,0,0,0,3-.74,8.87,8.87,0,0,0,3.87-2.28,4.88,4.88,0,0,0,1.48-3.49,3.22,3.22,0,0,0-1.15-2.6,4.49,4.49,0,0,0-3-1,21.59,21.59,0,0,0-2.75.21Z" transform="translate(-13.71 -178.49)"/><path d="M138.65,298.51a2.49,2.49,0,0,1-2-.91,3.36,3.36,0,0,1-.78-2.26,7.83,7.83,0,0,1,1.52-4.47,4.4,4.4,0,0,1,3.66-2.2,2.81,2.81,0,0,1,2.28,1.08,4,4,0,0,1,.87,2.58,6.1,6.1,0,0,1-1.81,4.23A5.15,5.15,0,0,1,138.65,298.51Zm-1.22-3.4a2.56,2.56,0,0,0,.37,1.45,1.14,1.14,0,0,0,1,.57,3.69,3.69,0,0,0,2.63-1.44,4.65,4.65,0,0,0,1.31-3.2,2.82,2.82,0,0,0-.5-1.75,1.61,1.61,0,0,0-1.36-.67,2.9,2.9,0,0,0-2.43,1.73A6.55,6.55,0,0,0,137.43,295.11Z" transform="translate(-13.71 -178.49)"/><path d="M154.13,291.32a1.44,1.44,0,0,0-1,.59,16.35,16.35,0,0,0-1.65,2.68,17.12,17.12,0,0,1-1.89,3.19,1.22,1.22,0,0,1-.7.38c-.7,0-1-.33-1-1A7.72,7.72,0,0,1,148,296a31.28,31.28,0,0,0,.48-5.59,1.37,1.37,0,0,1,.29-.75c.19-.27.37-.41.54-.41a.74.74,0,0,1,.65.29,2.18,2.18,0,0,1,.19,1.13,25.08,25.08,0,0,1-.52,3.66,8.24,8.24,0,0,0-.18,1.16c0,.09,0,.14.07.14a10.23,10.23,0,0,0,1.22-2.1,13.53,13.53,0,0,1,1.93-3,2.46,2.46,0,0,1,1.82-.87,1.5,1.5,0,0,1,1.28.72,6.28,6.28,0,0,1,.73,2.63,15.45,15.45,0,0,0,.44,2.7c.13.36.34.53.63.53a1.71,1.71,0,0,0,.69-.19l.1,0c.25,0,.38.15.38.44a1.16,1.16,0,0,1-.52.83,1.86,1.86,0,0,1-1.25.43,1.32,1.32,0,0,1-1.15-.59,8.42,8.42,0,0,1-.65-3.17C155,292.18,154.66,291.32,154.13,291.32Z" transform="translate(-13.71 -178.49)"/><path d="M162.18,284.18c0-.06.13-.14.35-.23a1.39,1.39,0,0,1,.47-.15c.1,0,.28.14.55.41l.23.25a2.65,2.65,0,0,1,.61.91,1.45,1.45,0,0,1,.09.59,7.9,7.9,0,0,1-.52,2.25c-.35,1-.77,1.5-1.25,1.5a.71.71,0,0,1-.45-.16.51.51,0,0,1-.2-.41,1,1,0,0,1,.36-.75,2.4,2.4,0,0,0,.84-1.89c0-.29-.25-.66-.75-1.1a2.49,2.49,0,0,1-.28-.27,1.4,1.4,0,0,1-.06-.49A1.64,1.64,0,0,1,162.18,284.18Z" transform="translate(-13.71 -178.49)"/><path d="M171.7,289.21c.61,0,1.18-.11,1.71-.17a12.13,12.13,0,0,1,1.32-.09,1.81,1.81,0,0,1,.84.12.5.5,0,0,1,.18.43c0,.48-.33.74-1,.78-.85.05-1.63.12-2.34.22a3.93,3.93,0,0,0-1.16.23,17.72,17.72,0,0,0-.53,2.09,15.86,15.86,0,0,0-.45,2.6,2.26,2.26,0,0,0,.26,1.29.92.92,0,0,0,.76.32,3.86,3.86,0,0,0,2.1-1.14,1.46,1.46,0,0,1,.8-.46c.25,0,.38.13.38.4,0,.42-.41,1-1.22,1.64a3.89,3.89,0,0,1-2.49,1c-1.42,0-2.13-.84-2.13-2.51a14.2,14.2,0,0,1,.44-2.8,16.26,16.26,0,0,0,.43-2.27c0-.09-.07-.13-.21-.13l-.91.08c-.75,0-1.13-.3-1.13-.9a.46.46,0,0,1,.52-.51h1.81a.42.42,0,0,0,.33-.16,4.52,4.52,0,0,0,.41-1.12q.27-1,.48-1.89c.14-.61.42-.92.83-.92a.73.73,0,0,1,.59.26.82.82,0,0,1,.21.49,12.21,12.21,0,0,1-.32,1.26Z" transform="translate(-13.71 -178.49)"/><path d="M186.73,287.39a.87.87,0,0,1-.1-.44.53.53,0,0,1,.28-.54,5.87,5.87,0,0,1,1.71-.16c1.17,0,2.22-.05,3.15-.12s2.36-.25,4.29-.52a15.46,15.46,0,0,1,2.09-.15,7.23,7.23,0,0,1,.95.06,4.28,4.28,0,0,1,.65.12.56.56,0,0,1,.3.32,1,1,0,0,1,.11.4c0,.41-.14.62-.44.62s-.45,0-.79-.05-.8,0-1.38,0-1.32,0-2.17.12-1.33.23-1.42.42a23.15,23.15,0,0,0-.46,3.43c-.22,2.09-.32,3.65-.32,4.67a7.08,7.08,0,0,0,.22,1.65,1.9,1.9,0,0,1,0,.21,1.23,1.23,0,0,1-.21.7.62.62,0,0,1-.51.31A.91.91,0,0,1,192,298a5.73,5.73,0,0,1-.3-2.46,70.34,70.34,0,0,1,.73-7.48c0-.2,0-.3,0-.31,0-.2-.11-.3-.32-.3-.36,0-1,0-2,.13s-1.69.15-2.11.15A1.73,1.73,0,0,1,186.73,287.39Z" transform="translate(-13.71 -178.49)"/><path d="M203.13,294.58l.21-.43a14.39,14.39,0,0,1,1.1-2.15,13.31,13.31,0,0,1,1.1-1.49,6.43,6.43,0,0,1,1.1-1.08,3.6,3.6,0,0,1,.9-.52,2.22,2.22,0,0,1,.78-.14,1.72,1.72,0,0,1,1.25.46,1.44,1.44,0,0,1,.48,1.07.82.82,0,0,1-.17.5.63.63,0,0,1-.52.22.92.92,0,0,1-.68-.33.9.9,0,0,0-.66-.32c-.61,0-1.45.73-2.53,2.21a10.53,10.53,0,0,0-2,4.88,1.48,1.48,0,0,1-.33.9,1,1,0,0,1-.7.22c-.28,0-.49-.21-.62-.64a8.39,8.39,0,0,1-.19-2.16c0-.28,0-.88,0-1.82a23,23,0,0,1,.21-2.68q0-.16.09-.78a4.52,4.52,0,0,1,.15-.94,1.08,1.08,0,0,1,.38-.49.94.94,0,0,1,.62-.23.6.6,0,0,1,.49.2.71.71,0,0,1,.16.45,3.68,3.68,0,0,1-.18,1,8.26,8.26,0,0,0-.23,1,5.12,5.12,0,0,1-.1.63,16.08,16.08,0,0,0-.18,2v.56Z" transform="translate(-13.71 -178.49)"/><path d="M218.9,295a14.93,14.93,0,0,1-2.84,2,4.51,4.51,0,0,1-1.88.64,1.49,1.49,0,0,1-1.33-.72,3.08,3.08,0,0,1-.46-1.69,12.85,12.85,0,0,1,.55-3.35,10.67,10.67,0,0,1,.82-2.36,1,1,0,0,1,.85-.38.48.48,0,0,1,.41.29,1.46,1.46,0,0,1,.16.66,1.18,1.18,0,0,1-.21.57,8.73,8.73,0,0,0-.49.92l-.34,1.06a5.87,5.87,0,0,0-.32,1.82,4.5,4.5,0,0,0,.15.93c.09.42.3.64.6.64a3.18,3.18,0,0,0,1.19-.3,8.31,8.31,0,0,0,1.6-1,6.46,6.46,0,0,0,1.19-1.08,2.62,2.62,0,0,0,.44-.94,15.72,15.72,0,0,0,.18-2.29c0-1.17.32-1.76.85-1.76.32,0,.52.09.61.25a2.13,2.13,0,0,1,.14,1c0,.38,0,.87-.07,1.45-.07.73-.11,1.25-.13,1.56a31.41,31.41,0,0,1-.63,4.86,13.17,13.17,0,0,1-1.47,4.08,3,3,0,0,1-2.66,1.64,5.28,5.28,0,0,1-3.06-.91c-.9-.6-1.34-1.1-1.34-1.52a1.31,1.31,0,0,1,.13-.57c.09-.19.21-.28.35-.28a.32.32,0,0,1,.23.16,4,4,0,0,0,3.62,1.77c.85,0,1.56-.74,2.14-2.24a13.28,13.28,0,0,0,1-4.19C218.84,295.48,218.87,295.22,218.9,295Z" transform="translate(-13.71 -178.49)"/><path d="M233.2,287.39a1,1,0,0,1-.09-.44.53.53,0,0,1,.28-.54,5.87,5.87,0,0,1,1.71-.16c1.17,0,2.21-.05,3.14-.12s2.36-.25,4.3-.52a15.46,15.46,0,0,1,2.09-.15,7.23,7.23,0,0,1,1,.06,4.09,4.09,0,0,1,.64.12.54.54,0,0,1,.31.32,1.15,1.15,0,0,1,.11.4c0,.41-.14.62-.44.62s-.45,0-.79-.05-.8,0-1.38,0-1.32,0-2.17.12-1.33.23-1.42.42a23.15,23.15,0,0,0-.46,3.43c-.22,2.09-.33,3.65-.33,4.67a7.66,7.66,0,0,0,.22,1.65,1.08,1.08,0,0,1,0,.21,1.23,1.23,0,0,1-.21.7.62.62,0,0,1-.51.31.9.9,0,0,1-.76-.44,5.73,5.73,0,0,1-.3-2.46,72.24,72.24,0,0,1,.72-7.48c0-.2,0-.3,0-.31q0-.3-.33-.3c-.35,0-1,0-2,.13s-1.69.15-2.12.15A1.76,1.76,0,0,1,233.2,287.39Z" transform="translate(-13.71 -178.49)"/><path d="M249.45,295.44q3.27-6,5.38-6a1,1,0,0,1,.92.64,9.36,9.36,0,0,1,.57,2.85,7,7,0,0,0,1,3.39,1.62,1.62,0,0,1,.4.79.52.52,0,0,1-.27.42.91.91,0,0,1-.56.2,1.48,1.48,0,0,1-1.21-.77,5.88,5.88,0,0,1-.68-2.7,15.15,15.15,0,0,0-.31-2.39c-.12-.38-.3-.57-.56-.57q-.92,0-3.72,4.83a12,12,0,0,1-1.23,1.88,1,1,0,0,1-.72.45,1,1,0,0,1-.65-.23.73.73,0,0,1-.26-.56,6.4,6.4,0,0,1,.14-.95q1.08-5.58,1.7-11a3.91,3.91,0,0,1,.46-1.7c.2-.28.38-.42.52-.42a1,1,0,0,1,.69.31,1.16,1.16,0,0,1,.3.85,17.46,17.46,0,0,1-.79,4.44c-.26.93-.53,2.11-.82,3.55a21.34,21.34,0,0,0-.43,2.66.1.1,0,0,0,.1.11Z" transform="translate(-13.71 -178.49)"/><path d="M262.84,296.12a6.7,6.7,0,0,0,.19,1.51,1.38,1.38,0,0,1,0,.26c0,.11-.1.24-.29.41a1,1,0,0,1-.61.25c-.57,0-.86-.52-.86-1.57a31.38,31.38,0,0,1,.67-5.11,13.41,13.41,0,0,0,.23-1.5,2.12,2.12,0,0,1,.2-.95A.64.64,0,0,1,263,289a1,1,0,0,1,.71.22.62.62,0,0,1,.26.47,2.76,2.76,0,0,1-.12.7,31.38,31.38,0,0,0-.82,3.32A14.93,14.93,0,0,0,262.84,296.12Zm1.15-9.81c-.12,0-.21-.14-.28-.4a1.3,1.3,0,0,0-.1-.27,2.79,2.79,0,0,1-.23-1,1,1,0,0,1,.41-.71,1.36,1.36,0,0,1,.93-.37,1.12,1.12,0,0,1,.57.2c.21.13.32.26.32.38a3.66,3.66,0,0,1-.22,1,1.46,1.46,0,0,1-.68.93A1.85,1.85,0,0,1,264,286.31Z" transform="translate(-13.71 -178.49)"/><path d="M272.68,296.06c0-.38-.47-.81-1.41-1.3a13.7,13.7,0,0,1-2.41-1.46,1.62,1.62,0,0,1-.63-1.23,3.39,3.39,0,0,1,1.75-2.9,5.67,5.67,0,0,1,2.86-1.15,1.69,1.69,0,0,1,1,.25,1,1,0,0,1,.32.85.56.56,0,0,1-.24.46.66.66,0,0,1-.36.2,1.37,1.37,0,0,1-.38-.13,1.13,1.13,0,0,0-.37-.13,5.76,5.76,0,0,0-1.78.64c-.9.43-1.35.92-1.35,1.45a1.17,1.17,0,0,0,.48.9,8.72,8.72,0,0,0,1.7,1,6.51,6.51,0,0,1,1.59,1,1.69,1.69,0,0,1,.59,1.27c0,.9-.62,1.6-1.85,2.11a9.49,9.49,0,0,1-3.54.76c-.95,0-1.43-.33-1.43-1a.52.52,0,0,1,.32-.49,1.42,1.42,0,0,1,.65-.16,2.64,2.64,0,0,1,.5.09,2.62,2.62,0,0,0,.47.09,7.49,7.49,0,0,0,2.1-.33A2.29,2.29,0,0,0,272.68,296.06Z" transform="translate(-13.71 -178.49)"/><path d="M294.21,285.5c.05,0,.08.18.08.43a1.65,1.65,0,0,1-.08.57l.11.37a15,15,0,0,0,.58,1.7c.23.6.46,1.24.69,1.93a29.36,29.36,0,0,0,1.63,4,9.07,9.07,0,0,0,1.55,2.37,5.09,5.09,0,0,1,.55.6.68.68,0,0,1,.11.38.89.89,0,0,1-.26.65.83.83,0,0,1-.62.27q-1.12,0-2.72-3.54c-.43-.93-.69-1.4-.78-1.4a13.61,13.61,0,0,0-1.81.26,24,24,0,0,0-2.55.6,4.31,4.31,0,0,1-.83.2.73.73,0,0,1-.46-.22.13.13,0,0,0-.1,0c-.13,0-.41.38-.84,1.15-.7,1.26-1.15,2-1.33,2.25a.77.77,0,0,1-.61.36,1,1,0,0,1-.57-.27.8.8,0,0,1-.34-.57,1.56,1.56,0,0,1,.32-.76l1.29-1.93a55.08,55.08,0,0,0,2.94-4.83,41.46,41.46,0,0,1,2.4-4.24c.34-.43.6-.65.78-.65A1.12,1.12,0,0,1,294.21,285.5Zm.54,7c-.21-.46-.51-1.32-.91-2.57s-.71-2.14-.83-2.43c-.32.68-.82,1.65-1.49,2.9l-1.59,3a2.54,2.54,0,0,1,1-.23,8.38,8.38,0,0,0,1-.16C293.56,292.68,294.49,292.51,294.75,292.48Z" transform="translate(-13.71 -178.49)"/><path d="M306.68,289.21c.61,0,1.17-.11,1.71-.17a11.82,11.82,0,0,1,1.32-.09,1.81,1.81,0,0,1,.84.12.49.49,0,0,1,.17.43q0,.72-1,.78c-.85.05-1.63.12-2.35.22a3.91,3.91,0,0,0-1.15.23,15.58,15.58,0,0,0-.53,2.09,15.86,15.86,0,0,0-.45,2.6,2.27,2.27,0,0,0,.25,1.29.94.94,0,0,0,.77.32,3.89,3.89,0,0,0,2.1-1.14,1.43,1.43,0,0,1,.8-.46c.25,0,.38.13.38.4,0,.42-.41,1-1.22,1.64a3.89,3.89,0,0,1-2.49,1c-1.42,0-2.13-.84-2.13-2.51a14.2,14.2,0,0,1,.44-2.8,16.26,16.26,0,0,0,.43-2.27c0-.09-.07-.13-.21-.13l-.91.08c-.75,0-1.13-.3-1.13-.9a.45.45,0,0,1,.52-.51h1.81a.44.44,0,0,0,.33-.16,4.52,4.52,0,0,0,.41-1.12q.27-1,.48-1.89c.14-.61.42-.92.83-.92a.73.73,0,0,1,.59.26.82.82,0,0,1,.21.49,12.21,12.21,0,0,1-.32,1.26Z" transform="translate(-13.71 -178.49)"/><path d="M334.22,284.64a.84.84,0,0,1,.59.24.79.79,0,0,1,.25.61,21.07,21.07,0,0,1-.38,2.73,47.47,47.47,0,0,0-.67,5.51c-.13,1.95-.2,3.17-.2,3.66a1.21,1.21,0,0,1-.36.8,1,1,0,0,1-.64.39.77.77,0,0,1-.54-.23.75.75,0,0,1-.26-.58c0-.21.09-1,.28-2.24a19.31,19.31,0,0,0,.22-2.35,1,1,0,0,0-.12-.58.48.48,0,0,0-.41-.16c-.3,0-.87,0-1.73.1s-1.5.11-1.73.11-.85,0-1.83.12a9.38,9.38,0,0,0-1.63.19c-.1.06-.2.45-.31,1.16a17.34,17.34,0,0,0-.2,1.79,8.17,8.17,0,0,1-.28,2c-.15.53-.35.79-.6.79a1,1,0,0,1-.63-.4,1.16,1.16,0,0,1-.37-.8,5.84,5.84,0,0,1,.21-1.2c.19-.78.43-2.17.7-4.18s.51-4.09.71-6.25a.73.73,0,0,1,.23-.43.71.71,0,0,1,.47-.22c.57,0,.86.42.86,1.24a13.78,13.78,0,0,1-.31,2.35,12.56,12.56,0,0,0-.29,2.11.43.43,0,0,0,.18.39,1.63,1.63,0,0,0,.83.13c1,0,2.26-.08,3.88-.24s2.51-.38,2.63-.67a8.7,8.7,0,0,0,.39-2,25.65,25.65,0,0,0,.2-3.22.73.73,0,0,1,.27-.46A.81.81,0,0,1,334.22,284.64Z" transform="translate(-13.71 -178.49)"/><path d="M341.48,298.51a2.5,2.5,0,0,1-2-.91,3.36,3.36,0,0,1-.78-2.26,7.78,7.78,0,0,1,1.53-4.47,4.37,4.37,0,0,1,3.65-2.2,2.81,2.81,0,0,1,2.28,1.08,4,4,0,0,1,.87,2.58,6.13,6.13,0,0,1-1.8,4.23A5.19,5.19,0,0,1,341.48,298.51Zm-1.22-3.4a2.56,2.56,0,0,0,.37,1.45,1.14,1.14,0,0,0,1,.57,3.69,3.69,0,0,0,2.63-1.44,4.62,4.62,0,0,0,1.32-3.2,2.82,2.82,0,0,0-.51-1.75,1.61,1.61,0,0,0-1.36-.67,2.9,2.9,0,0,0-2.43,1.73A6.65,6.65,0,0,0,340.26,295.11Z" transform="translate(-13.71 -178.49)"/><path d="M357.62,291.12c-.55,0-1.72,1.63-3.5,4.84a17.56,17.56,0,0,1-1.06,1.78,1.48,1.48,0,0,1-.55.26,2.65,2.65,0,0,1-.66.11c-.39,0-.59-.77-.59-2.29a36,36,0,0,1,.55-4.68,12.68,12.68,0,0,0,.23-2c0-.39.18-.58.52-.58.65,0,1,.47,1,1.41a19,19,0,0,1-.33,2.58,25.36,25.36,0,0,0-.38,2.67,13.07,13.07,0,0,0,1.6-2.31,17.11,17.11,0,0,1,2.2-3.1,2.17,2.17,0,0,1,1.46-.65c.38,0,.68.25.91.76a12.38,12.38,0,0,1,.41,3.65,3.8,3.8,0,0,0,.13,1.07c.08.24.13.35.17.35.27,0,.87-.93,1.79-2.81a10.07,10.07,0,0,1,1.44-2.26,2.06,2.06,0,0,1,1.55-.77,1.09,1.09,0,0,1,1,.73,7.59,7.59,0,0,1,.46,2.18,21.47,21.47,0,0,0,.41,2.67,2.06,2.06,0,0,0,1,1.56c.33.15.5.34.5.55s-.14.41-.43.63a1.28,1.28,0,0,1-.77.33,1.55,1.55,0,0,1-1.26-.86,10.14,10.14,0,0,1-.83-3.73,13.83,13.83,0,0,0-.24-1.64q-.11-.48-.36-.48c-.24,0-.54.24-.87.7a27.48,27.48,0,0,0-1.63,2.86,16.74,16.74,0,0,1-1.33,2.24,1.25,1.25,0,0,1-.88.56,1,1,0,0,1-.68-.31,1.38,1.38,0,0,1-.37-.73,19.89,19.89,0,0,1-.17-2.09A8.69,8.69,0,0,0,357.62,291.12Z" transform="translate(-13.71 -178.49)"/><path d="M378.89,295.09c0,.6-.52,1.32-1.58,2.17a5.23,5.23,0,0,1-3.28,1.26,2.83,2.83,0,0,1-2.18-.83,3.34,3.34,0,0,1-.77-2.33,7.85,7.85,0,0,1,1.7-4.78,4.72,4.72,0,0,1,3.71-2.27,1.39,1.39,0,0,1,1.07.43,1.43,1.43,0,0,1,.42,1,3.56,3.56,0,0,1-1.33,2.59,16.55,16.55,0,0,1-3.55,2.43.71.71,0,0,0-.45.62,1.61,1.61,0,0,0,.42,1.17,1.65,1.65,0,0,0,1.25.44,5.49,5.49,0,0,0,3.85-2.09c.2-.2.34-.29.44-.29S378.89,294.8,378.89,295.09Zm-6.1-1.37q3.72-2.21,3.72-3.56c0-.35-.16-.52-.47-.52a2.71,2.71,0,0,0-1.83,1.18A6.86,6.86,0,0,0,372.79,293.72Z" transform="translate(-13.71 -178.49)"/><path d="M384.55,296.31a1.52,1.52,0,0,1-.44,1.23,1.27,1.27,0,0,1-.75.36c-.43,0-.65-.29-.65-.85a1.43,1.43,0,0,1,.32-.8c.21-.31.42-.46.65-.46a1.19,1.19,0,0,1,.55.19C384.44,296.11,384.55,296.22,384.55,296.31Zm0-2.61a4.54,4.54,0,0,1-.61-.07,1.44,1.44,0,0,1-.53-.18,13.28,13.28,0,0,1,.44-3.53,16.52,16.52,0,0,0,.45-2.93,2.21,2.21,0,0,1,.43-1.59,1.22,1.22,0,0,1,.72-.41.72.72,0,0,1,.45.18.53.53,0,0,1,.23.41c0,.13-.32,1.62-1,4.46a14.45,14.45,0,0,0-.42,2.73A2.16,2.16,0,0,1,384.55,293.7Z" transform="translate(-13.71 -178.49)"/></svg>