<svg xmlns="http://www.w3.org/2000/svg" xmlns:xlink="http://www.w3.org/1999/xlink" viewBox="0 0 512 91"><defs><style>.a{fill:#9cc421;}.b{fill:gray;}.b,.c,.d{stroke:gray;stroke-miterlimit:10;}.c,.d{fill:none;}.d{stroke-width:2px;}</style><symbol id="a" viewBox="0 0 97.49 43.72"><path class="a" d="M21.93,36.52a16.09,16.09,0,0,1-4,3.32l2.43-1.39C14.7,40,8.39,39.93,2.6,40.32c-.29,0-2.58,1.54-2.6,1.5.63,1.14,3.4.93,4.44,1,2.54.06,5.08-.09,7.61-.28,1.22-.08,2.44-.18,3.65-.29a20.33,20.33,0,0,1,5.12.67,63.27,63.27,0,0,0,10.37.85c10.2-.07,19.41-3.54,27.76-9.21l0,0A13.62,13.62,0,0,1,51.19,32L48.6,33.5c4.64.63,9.72.46,13.71-2.24a13.45,13.45,0,0,0,3.34-3l.61-.58c-.58,0-1.16,0-1.73,0a22.23,22.23,0,0,1-2.32-.24,16.87,16.87,0,0,1-5-1.48l-2.6,1.5c4.61.62,10.75.58,14.63-2.49a15.37,15.37,0,0,0,2.4-2.86l.42-.57c.78-.66.65-.87-.39-.64a13.9,13.9,0,0,0-2.43-.22,15.87,15.87,0,0,1-5.16-1.59l-2.59,1.5c4,.54,10,.85,13.35-2.13a22.58,22.58,0,0,0,3-4.18c.84-1.27.71-1-.71-1-.89,0-1.76-.05-2.64-.12a37.85,37.85,0,0,1-6-.89l-2.6,1.5c3.6.49,8.15.63,11.53-1,2.61-1.23,3.67-3.64,5.82-5.48.33-.28.66-.54,1-.8,1.79-1.32.09,0,0-.12s2.23-1,2.51-1.09a21.86,21.86,0,0,1,4-1A19.12,19.12,0,0,1,94.9,3.9c.73,0,1.93-1.68,2.59-1.5-14-3.95-28.68-3.17-41.8,3.42A83,83,0,0,0,30.74,25.18a128.79,128.79,0,0,0-8.81,11.34c.52-.73,2.08-.75,2.6-1.5A110.59,110.59,0,0,1,40.3,16.58c8.84-8,19.32-13.48,31.3-14.85A60.79,60.79,0,0,1,94.9,3.9l2.59-1.5C89.88,2,81.18,6.66,77.05,13l2.6-1.5a27.38,27.38,0,0,1-11.14.76c-.75-.1-1.9,1.67-2.6,1.5a37.36,37.36,0,0,0,5.56.86c.87.08,1.73.13,2.6.15H75c1.07-.28,1.24-.05.49.68-.33,1.42-2.35,3.4-3.19,4.52l2.6-1.5a27.59,27.59,0,0,1-10.78.65c-.58-.08-2.15,1.74-2.59,1.5A15,15,0,0,0,66,22a17.49,17.49,0,0,0,2.29.3l.85.05c1-.23,1.17,0,.39.64-.44,1.16-1.9,2.49-2.71,3.36l2.59-1.5A27.23,27.23,0,0,1,57.24,26c-.6-.08-2.12,1.74-2.6,1.5a16.71,16.71,0,0,0,4.62,1.42,21.43,21.43,0,0,0,2.26.27c.42,0,.84.05,1.26.05.94-.21,1.13-.11.58.29-.39,1.05-2.79,2.6-3.63,3.26l2.6-1.5A27.38,27.38,0,0,1,51.19,32c-.46-.06-2.31,1.72-2.59,1.5a12.11,12.11,0,0,0,4.73,2.11c1.33.31,3.64.13,1.49,1.41A30.75,30.75,0,0,1,51,38.85a45.45,45.45,0,0,1-17.24,3.37,62.23,62.23,0,0,1-9.93-.78,32,32,0,0,0-5.29-.77c-1.3,0-2.62.23-3.92.32-2.53.19-5.08.34-7.62.28-1.06,0-3.8.19-4.43-1L0,41.82c4.52-.3,9.05-.65,13.56-1.19a13.22,13.22,0,0,0,5.13-1.21A21,21,0,0,0,24.53,35C23.93,35.73,22.55,35.8,21.93,36.52Z"/><path class="a" d="M30.58,32.38c-2.76,2-5.14,4.44-7.95,6.36l2.6-1.5A206.59,206.59,0,0,1,44.2,21c10.7-7.85,23.33-15.23,37-15.65l2.59-1.5A41,41,0,0,0,71.91,7.08a138.67,138.67,0,0,0-21.8,11.57c-6.75,4.22-13.22,8.87-19.53,13.73.78-.6,1.81-.89,2.6-1.5C44,22.51,55.46,14.37,68.17,9.05c4.1-1.71,8.51-3.34,13-3.69.89-.07,1.72-1.47,2.59-1.5C73.07,4.19,63.2,9,54.13,14.3A152.48,152.48,0,0,0,30,31.88c-2.52,2.22-4.91,4.56-7.36,6.86a20,20,0,0,1,2.6-1.5c2.81-1.92,5.19-4.37,8-6.36C32.37,31.46,31.39,31.8,30.58,32.38Z"/></symbol></defs><title>nuttys-kitchen-logo-1</title><path class="b" d="M100.61,47.72l.85,3.43c.79,3.12,1.57,5.86,2.34,8.2s2.75,7.76,5.94,16.26c.3-1.07.91-3.46,1.83-7.15q1.75-7.2,2.34-9a36.83,36.83,0,0,1,3.29-8,10.28,10.28,0,0,1,3.53-3.66,8.76,8.76,0,0,1,4.41-1.12,5.25,5.25,0,0,1,3,.74,2.1,2.1,0,0,1,1.05,1.75,1.74,1.74,0,0,1-.56,1.29,1.85,1.85,0,0,1-1.33.56,3.57,3.57,0,0,1-1.27-.29c-1-.39-1.63-.62-1.83-.68a6.34,6.34,0,0,0-1.19-.11,3.7,3.7,0,0,0-2.56,1q-1.87,1.71-4.15,8.53t-5.77,21.82l-1,4.37q-3.47-7.35-4.68-10.43-1.65-4.12-3.75-10.43L97.75,54.6q-.61,3.52-2.85,11.85t-2.66,9.6a23,23,0,0,1-3,6.06,10.51,10.51,0,0,1-3.5,3.08,9.19,9.19,0,0,1-4.19,1,8.24,8.24,0,0,1-4.69-1.23,2.71,2.71,0,0,1-1.4-2.32,1.45,1.45,0,0,1,.52-1.1A1.76,1.76,0,0,1,77.23,81a3.18,3.18,0,0,1,2,1,5.63,5.63,0,0,0,3.56,1.72,5.1,5.1,0,0,0,3.41-1.49q2.49-2.28,4.81-9.58a199.83,199.83,0,0,0,5.39-22.38,26.25,26.25,0,0,0-4.08.58,18.38,18.38,0,0,0-5,1.66,8,8,0,0,0-3.11,2.78,6.63,6.63,0,0,0-1.08,3.59,6.74,6.74,0,0,0,.28,1.91,6.2,6.2,0,0,0,.79,1.58A3.49,3.49,0,0,1,84.9,64a1.59,1.59,0,0,1-.53,1.2,1.89,1.89,0,0,1-1.33.5,2.4,2.4,0,0,1-2-1.16A6.19,6.19,0,0,1,80.24,61a10.86,10.86,0,0,1,2.06-6.68,12.66,12.66,0,0,1,5.49-4.16,41,41,0,0,1,8.46-1.7A43.28,43.28,0,0,0,100.61,47.72Z" transform="translate(0 -8.5)"/><path class="b" d="M142.27,59.12h4.34l-2.87,10.23q-2.52,8.93-2.52,10.16a1.22,1.22,0,0,0,.27.85.84.84,0,0,0,.61.29,2.46,2.46,0,0,0,1.22-.44,35.47,35.47,0,0,0,3.8-3.4l1,1.08Q142,84,139.12,84a2.2,2.2,0,0,1-1.66-.72,2.83,2.83,0,0,1-.69-2,17.23,17.23,0,0,1,.66-4.07,26.67,26.67,0,0,1-6.69,5.25,9.77,9.77,0,0,1-4.59,1.49,2.16,2.16,0,0,1-1.68-.68,3.14,3.14,0,0,1-.6-2.14,12.32,12.32,0,0,1,.27-2.46c.26-1.23.93-3.71,2-7.42,1.36-4.72,2-7.54,2-8.48,0-.55-.21-.82-.61-.82a3.3,3.3,0,0,0-1.49.54,23.51,23.51,0,0,0-3.23,2.62l-1.34-1a36.33,36.33,0,0,1,6.23-4.62,8.22,8.22,0,0,1,3.45-1.1,1.5,1.5,0,0,1,1.19.52,2.37,2.37,0,0,1,.46,1.6q0,2-2.2,9.94a62.65,62.65,0,0,0-1.94,8.13,1.45,1.45,0,0,0,.41,1A1.18,1.18,0,0,0,130,80q1.71,0,4.84-2.71A12.65,12.65,0,0,0,139,71.16Z" transform="translate(0 -8.5)"/><path class="b" d="M158.9,53.84l4.84-1.78-2.19,8.2h6.3l-.48,2.08h-6.31l-2.66,9.82a26.88,26.88,0,0,0-1.26,6.14,1.57,1.57,0,0,0,.35,1.15,1.3,1.3,0,0,0,1,.35,6.88,6.88,0,0,0,2.89-1.09,37.51,37.51,0,0,0,4.87-3.25l1.16,1.35a78.55,78.55,0,0,1-8.92,5.92,9.05,9.05,0,0,1-3.63,1.08A2.18,2.18,0,0,1,153,83a4.1,4.1,0,0,1-.65-2.58A27.49,27.49,0,0,1,153.55,74l3.1-11.66h-4.94l.55-2.08h4.94Z" transform="translate(0 -8.5)"/><path class="b" d="M178.84,53.84l4.84-1.78-2.19,8.2h6.3l-.48,2.08H181l-2.66,9.82a26.88,26.88,0,0,0-1.26,6.14,1.57,1.57,0,0,0,.35,1.15,1.3,1.3,0,0,0,1,.35,6.88,6.88,0,0,0,2.89-1.09,37.51,37.51,0,0,0,4.87-3.25l1.16,1.35a78.55,78.55,0,0,1-8.92,5.92,9.05,9.05,0,0,1-3.63,1.08A2.18,2.18,0,0,1,173,83a4.1,4.1,0,0,1-.65-2.58A27.49,27.49,0,0,1,173.49,74l3.09-11.66h-4.93l.55-2.08h4.94Z" transform="translate(0 -8.5)"/><path class="b" d="M190.17,64.33l-1-1.38,2.26-1.46a41.61,41.61,0,0,1,4.62-2.78,3.34,3.34,0,0,1,1.4-.36,1.61,1.61,0,0,1,1.22.71,27.06,27.06,0,0,1,4.51,8.76A33.92,33.92,0,0,1,205,78.52c0,.45,0,1.14-.06,2q5.14-9.1,5.15-14.48a11.42,11.42,0,0,0-.52-3A13.54,13.54,0,0,1,209,60.2a1.88,1.88,0,0,1,.57-1.41,1.91,1.91,0,0,1,1.41-.55,2.12,2.12,0,0,1,1.72.79,3.41,3.41,0,0,1,.66,2.25,32.18,32.18,0,0,1-1.8,9.42A59.58,59.58,0,0,1,206,82.83a49.27,49.27,0,0,1-7,9.64A22.13,22.13,0,0,1,192.77,97a13.46,13.46,0,0,1-5.62,1.36,5.3,5.3,0,0,1-3-.71,2.07,2.07,0,0,1-1-1.72,1.88,1.88,0,0,1,.79-1.51,3.3,3.3,0,0,1,2.13-.63,14.84,14.84,0,0,1,2.83.38,14.63,14.63,0,0,0,2.62.41,6.77,6.77,0,0,0,3.92-1.49,15.68,15.68,0,0,0,4.49-4.89,11.2,11.2,0,0,0,1.66-5.73,47.54,47.54,0,0,0-1.23-9.78A22.49,22.49,0,0,0,196.83,64a3.06,3.06,0,0,0-2.4-1.55C193.44,62.4,192,63,190.17,64.33Z" transform="translate(0 -8.5)"/><path class="b" d="M222.59,56.1l-.52-1.88a15.85,15.85,0,0,0,3.33-3.47,4.84,4.84,0,0,0,.78-2.47,4.7,4.7,0,0,0-.73-2,4,4,0,0,1-.58-2,2.71,2.71,0,0,1,.73-2,2.49,2.49,0,0,1,1.86-.75,2.57,2.57,0,0,1,2,.87,3.2,3.2,0,0,1,.79,2.27,9.77,9.77,0,0,1-1.66,5.14A27.12,27.12,0,0,1,222.59,56.1Z" transform="translate(0 -8.5)"/><path class="b" d="M243.5,58.35a7.41,7.41,0,0,1,4.19,1,2.87,2.87,0,0,1,1.48,2.33,1.82,1.82,0,0,1-.63,1.38,2.12,2.12,0,0,1-1.51.59,2,2,0,0,1-1-.25,5.69,5.69,0,0,1-1.22-1.25c-1-1.27-2-1.9-2.95-1.9a3.12,3.12,0,0,0-2.21.92,3,3,0,0,0-1,2.3,4.87,4.87,0,0,0,.61,2.32,20.7,20.7,0,0,0,3.08,3.65q3.38,3.45,3.38,6.55A7,7,0,0,1,243,81.43,10.56,10.56,0,0,1,236,83.75a8.51,8.51,0,0,1-5.39-1.42,4.33,4.33,0,0,1-1.76-3.5,2.31,2.31,0,0,1,.67-1.7,2.22,2.22,0,0,1,1.64-.67,2.11,2.11,0,0,1,1.46.54,1.65,1.65,0,0,1,.61,1.28c0,.19,0,.44,0,.76s0,.47,0,.64a2,2,0,0,0,.85,1.64,3.45,3.45,0,0,0,2.25.68,7.18,7.18,0,0,0,2.88-.54A4.33,4.33,0,0,0,241,79.82a4.12,4.12,0,0,0,.7-2.18,3.93,3.93,0,0,0-.66-2.11,27.11,27.11,0,0,0-2.93-3.48C236,69.79,235,67.61,235,65.52a6.57,6.57,0,0,1,2.4-5A8.88,8.88,0,0,1,243.5,58.35Z" transform="translate(0 -8.5)"/><path class="b" d="M305.7,48.42l-.19.73a17,17,0,0,0-4.08,1.47,29.88,29.88,0,0,0-4.35,3.19,107.11,107.11,0,0,1-12.68,9.41,19.44,19.44,0,0,1,2.65,4.13q1.09,2.28,3.81,10.52,2.43,7.35,5,9.93A7.32,7.32,0,0,0,301,90.38a3.43,3.43,0,0,0,3.45-2.58,5.34,5.34,0,0,1,.94-1.88,1.85,1.85,0,0,1,1.22-.47,1.74,1.74,0,0,1,1.25.49,1.52,1.52,0,0,1,.51,1.15c0,1.18-.72,2.31-2.16,3.4a8.77,8.77,0,0,1-5.48,1.64,11.27,11.27,0,0,1-5.44-1.4,14.28,14.28,0,0,1-4.71-4.43A40.13,40.13,0,0,1,286.19,77,74.88,74.88,0,0,0,283,68.77a27,27,0,0,0-3.14-4.68L276.63,76q-1,3.6-1.22,5.16a10.07,10.07,0,0,0,3.72.85c.26,0,.63,0,1.12-.06l-.39,1.46-.76,0c-.67,0-1.62-.07-2.86-.2a30.93,30.93,0,0,0-3.19-.21,52.54,52.54,0,0,0-8,.94l.18-1.41A9.42,9.42,0,0,0,269.33,81a6.68,6.68,0,0,0,1.88-3.1q1.6-4.74,4.2-14.26l3.72-13.57q-6,.36-9.51,2.64-2.72,1.72-2.71,3.87a3.89,3.89,0,0,0,.75,1.93,3.38,3.38,0,0,1,.68,1.7,1.9,1.9,0,0,1-.6,1.39,2,2,0,0,1-1.42.6,2.12,2.12,0,0,1-1.68-.91,3.68,3.68,0,0,1-.74-2.4q0-4.07,4.21-7.34t14.64-3.26h2q-1.67,4.17-2.19,6l-2.42,8.89a26.38,26.38,0,0,0,5.25-2.8q3-2,5.78-4.21a60.42,60.42,0,0,0,5.79-5,.9.9,0,0,0,.21-.49c0-.16-.21-.3-.62-.43a19,19,0,0,0-3.52-.25l.4-1.64c2.6.24,4.73.35,6.39.35A55.88,55.88,0,0,0,305.7,48.42Z" transform="translate(0 -8.5)"/><path class="b" d="M305.91,65.15l-1.34-1a23.83,23.83,0,0,1,5.55-4.58,9.35,9.35,0,0,1,4.27-1.36,2.3,2.3,0,0,1,1.49.41,1.32,1.32,0,0,1,.52,1.11,52.57,52.57,0,0,1-2,7.21q-3.21,10.4-3.21,12.54a1.13,1.13,0,0,0,.21.69.58.58,0,0,0,.46.27q1,0,5-3.63l1.19,1.11A39.75,39.75,0,0,1,312,82.76a7,7,0,0,1-3.14,1,2.25,2.25,0,0,1-1.69-.64,2.5,2.5,0,0,1-.62-1.79q0-3.66,4.56-17.9a3.83,3.83,0,0,0,.22-1.2c0-.39-.18-.59-.55-.59a2.73,2.73,0,0,0-1.38.47A30.72,30.72,0,0,0,305.91,65.15Zm12-19.39a2.14,2.14,0,0,1,1.56.6,2.08,2.08,0,0,1,.61,1.53,3.23,3.23,0,0,1-.93,2.28,2.84,2.84,0,0,1-2.09,1,2.06,2.06,0,0,1-1.52-.62,2.18,2.18,0,0,1-.61-1.61,3.1,3.1,0,0,1,.88-2.24A2.79,2.79,0,0,1,317.87,45.76Z" transform="translate(0 -8.5)"/><path class="b" d="M328.41,53.84l4.83-1.78-2.19,8.2h6.31l-.49,2.08h-6.31l-2.65,9.82a26.51,26.51,0,0,0-1.27,6.14,1.61,1.61,0,0,0,.35,1.15,1.3,1.3,0,0,0,1,.35,6.88,6.88,0,0,0,2.89-1.09,36.84,36.84,0,0,0,4.87-3.25l1.16,1.35A78.55,78.55,0,0,1,328,82.73a9,9,0,0,1-3.62,1.08,2.17,2.17,0,0,1-1.78-.79,4,4,0,0,1-.66-2.58A28,28,0,0,1,323.05,74l3.1-11.66h-4.93l.54-2.08h4.94Z" transform="translate(0 -8.5)"/><path class="b" d="M356.54,76.63l.63,1.7q-7.25,5.49-12.23,5.48A4.27,4.27,0,0,1,341.09,82a8.12,8.12,0,0,1-1.21-4.6,20.54,20.54,0,0,1,2.56-9.52,20.69,20.69,0,0,1,6.21-7.5,10.91,10.91,0,0,1,6.45-2,5.91,5.91,0,0,1,3.41.82,2.4,2.4,0,0,1,1.16,2,2,2,0,0,1-.61,1.48,2.38,2.38,0,0,1-1.7.57,6.08,6.08,0,0,1-2.74-.94,6.25,6.25,0,0,0-2.89-1,4.53,4.53,0,0,0-3,1.3,12.42,12.42,0,0,0-2.82,5,22.27,22.27,0,0,0-1.34,7.52,7.12,7.12,0,0,0,1.13,4.3A2.67,2.67,0,0,0,348,80.62Q351.61,80.62,356.54,76.63Z" transform="translate(0 -8.5)"/><path class="b" d="M385.46,76.78l.79,1.09a26.7,26.7,0,0,1-5.76,4.74,6.93,6.93,0,0,1-3.32,1.2,2.06,2.06,0,0,1-1.71-.82,4,4,0,0,1-.66-2.55,17.29,17.29,0,0,1,.5-3.41q.51-2.23,2.85-9.62a28.42,28.42,0,0,0,1-4.25c0-.63-.34-.94-1-.94a6.38,6.38,0,0,0-3.21,1.23,18.88,18.88,0,0,0-4.76,4.32,13.13,13.13,0,0,0-2.11,5L365.67,83h-4.54q1.47-5.11,2.25-8.37l4.48-18.79a23,23,0,0,1,3.21-8,14.4,14.4,0,0,1,5.21-4.49,13.58,13.58,0,0,1,6.34-1.68,3.12,3.12,0,0,1,2.07.63,1.94,1.94,0,0,1,.77,1.57,1.77,1.77,0,0,1-.75,1.41,3.11,3.11,0,0,1-2,.61,15.27,15.27,0,0,1-1.89-.15,30.28,30.28,0,0,0-3.63-.37,2.81,2.81,0,0,0-2.28,1.08q-.88,1.09-1.83,5.13L369.65,66a38.59,38.59,0,0,1,7.9-6.17,8.51,8.51,0,0,1,4-1.5,2.34,2.34,0,0,1,2.53,2.55,8.4,8.4,0,0,1-.24,2q-.41,1.74-1.87,6.27-2,6.27-2.33,7.8a11.86,11.86,0,0,0-.35,2.72,1.21,1.21,0,0,0,.16.7.58.58,0,0,0,.51.24c.48,0,1.4-.56,2.73-1.67C383.47,78.34,384.38,77.62,385.46,76.78Z" transform="translate(0 -8.5)"/><path class="b" d="M404.39,75.64l1,1.29q-7.45,6.82-12.78,6.82a4,4,0,0,1-3.3-1.4,7.1,7.1,0,0,1-1.14-4.51,23,23,0,0,1,3.95-12.48q4.44-7.06,10.63-7.07a4.75,4.75,0,0,1,3.3,1,3.69,3.69,0,0,1,1.14,2.86,6.27,6.27,0,0,1-1.37,3.75,15.79,15.79,0,0,1-4.9,3.84c-1.18.64-3.69,1.81-7.55,3.49a17.89,17.89,0,0,0-.27,3,4.58,4.58,0,0,0,.68,2.9,2.45,2.45,0,0,0,2,.82,6.65,6.65,0,0,0,2.73-.67A39.74,39.74,0,0,0,404.39,75.64Zm-10.65-4.25a24.12,24.12,0,0,0,7.36-4.54,4.9,4.9,0,0,0,1.68-3.37,2.85,2.85,0,0,0-.69-2,2.32,2.32,0,0,0-1.78-.74,3.54,3.54,0,0,0-2.19.82,8.13,8.13,0,0,0-2.41,3.28A28.55,28.55,0,0,0,393.74,71.39Z" transform="translate(0 -8.5)"/><path class="b" d="M410.54,65.24l-1-1a31.93,31.93,0,0,1,6.22-4.77,9.11,9.11,0,0,1,4-1.17,1.68,1.68,0,0,1,1,.26.76.76,0,0,1,.36.61,5.12,5.12,0,0,1-.15.94L419.53,66a37.23,37.23,0,0,1,7.78-6.19,8.57,8.57,0,0,1,4.1-1.5,2.37,2.37,0,0,1,1.85.74,3,3,0,0,1,.67,2.11,9,9,0,0,1-.27,2q-.48,1.91-2.55,8.29-1.94,6-1.94,7.94a1.78,1.78,0,0,0,.18.9.58.58,0,0,0,.52.3c.59,0,1.51-.55,2.77-1.64.89-.78,1.79-1.51,2.68-2.17l.76,1.06a27.69,27.69,0,0,1-5.81,4.78,6.64,6.64,0,0,1-3.17,1.16,2.19,2.19,0,0,1-1.8-.8,4.3,4.3,0,0,1-.64-2.63q0-2.59,3.38-13a30,30,0,0,0,1-4.31c0-.61-.38-.91-1.13-.91a6.32,6.32,0,0,0-3.13,1.23A18.69,18.69,0,0,0,420,67.71a13.72,13.72,0,0,0-2,5L415.53,83H411q1.28-4.39,2.22-8.42l2.71-11.15a5.14,5.14,0,0,0,.15-1c0-.53-.2-.8-.61-.8a3,3,0,0,0-1.4.62A18.81,18.81,0,0,0,410.54,65.24Z" transform="translate(0 -8.5)"/><line class="b" y1="28.5" x2="512" y2="28.5"/><use width="97.49" height="43.72" transform="translate(415 42.5) scale(0.99 0.98)" xlink:href="#a"/><use width="97.49" height="43.72" transform="matrix(-0.99, 0, 0, 0.98, 97, 42.5)" xlink:href="#a"/><line class="c" x1="73" y1="90.5" x2="432" y2="90.5"/><path class="d" d="M144,27" transform="translate(0 -8.5)"/><path class="c" d="M216,36c14.77-36,57.23-36,72,0" transform="translate(0 -8.5)"/></svg>