<svg xmlns="http://www.w3.org/2000/svg" viewBox="0 0 356 356"><defs><style>.a{fill:none;stroke:#000;stroke-miterlimit:10;}</style></defs><title>parsley</title><path d="M230.2,246.7l-1.9-19.1h0l-23.8-20.1h0a101.8,101.8,0,0,0-18.3,1.3,22.26,22.26,0,0,0-4.4,1.3c-.6.4-1.6.6-1.4,1.4a5.55,5.55,0,0,1-.6,2.2,39.64,39.64,0,0,1-5.4,7.5c-4,4.6-8.4,9-12.8,13.3s-8.9,8.5-13.4,12.6l-.1.1H148a.7.7,0,0,1-.5-.4c-.1-.2-.2-.3-.3-.5a9.29,9.29,0,0,1-.5-1c-.3-.6-.5-1.3-.8-2-.5-1.3-.9-2.6-1.3-4-.8-2.7-1.6-5.3-2.3-8l.3.1c-3.9,1.8-7.8,3.5-11.8,5a62.14,62.14,0,0,1-6.1,2,23.22,23.22,0,0,1-6.4,1.1h-.2v-.2a4.17,4.17,0,0,1,.6-2.7c.4-.8.8-1.6,1.3-2.4,1-1.5,2-3,3.1-4.4,2.2-2.8,4.5-5.5,6.9-8.2,4.8-5.3,9.7-10.4,14.8-15.5l.4.5c-6.6,3.5-13.2,6.9-19.9,10.1-3.4,1.6-6.7,3.2-10.2,4.6-1.7.7-3.5,1.4-5.2,2a27.59,27.59,0,0,1-2.7.8,6.75,6.75,0,0,1-1.4.2,2.49,2.49,0,0,1-.8-.1,1.37,1.37,0,0,1-.8-.5l-.1-.1v-2.8c0-.3.1-.6.1-.9l.3-1.8.5-1.7a22.3,22.3,0,0,1,3.1-6.4,39.58,39.58,0,0,1,4.7-5.3,29,29,0,0,1,5.8-4.1l-.1.7a16.24,16.24,0,0,0-4.4-2.7,17.39,17.39,0,0,0-5.1-1.3,30.83,30.83,0,0,0-5.3-.3,21.12,21.12,0,0,0-2.6.2l-2.6.4h-.1a3.23,3.23,0,0,1-1.6-.3.78.78,0,0,1-.4-.4,1.42,1.42,0,0,1-.2-.6,1.27,1.27,0,0,1,.4-.9,8.75,8.75,0,0,1,2.2-2.1,52.5,52.5,0,0,1,4.9-3.3c3.4-2,6.8-3.9,10.3-5.8h0l7.1-2.7v.9c-4.1-1.6-8.2-3.3-12.2-5.2l-3-1.5a22.87,22.87,0,0,1-2.9-1.8,17.94,17.94,0,0,1-2.3-2.5,9.76,9.76,0,0,1-1.7-3l-.2-.5.5-.2a90.55,90.55,0,0,1,8.8-2.9,56.35,56.35,0,0,1,9.1-1.8,71.5,71.5,0,0,1,9.3.5c3.1.3,6.1.7,9.2,1.1l-.5.8c-2.1-3.2-4.2-6.5-6.5-9.6a10.63,10.63,0,0,0-.9-1.1l.2.3h.3c.1,0,.3-.1.3-.2s.1-.1.1-.2v-.1c0-.2,0,0,.1.2v.2c-.1,0,.1,0-.2.4-.5.2-.5,0-.6.1a.22.22,0,0,1-.2-.2c-.1-.1-.1-.1-.1-.2l-.1-.2-.2-.3c-.4-.9-.8-1.8-1.1-2.7a52.23,52.23,0,0,1-1.8-5.6,10.12,10.12,0,0,1-.4-3.1,1.43,1.43,0,0,1,.4-1,2.65,2.65,0,0,1,.6-.5,9.13,9.13,0,0,1,1.3-.8q2.7-1.35,5.4-2.4a33.32,33.32,0,0,1,5.6-1.8,15.16,15.16,0,0,1,6-.1l-.7.8c-.9-2.1-1.8-4.1-2.6-6.2-.4-1-.8-2.1-1.2-3.1s-.8-2.1-1.1-3.2a7.28,7.28,0,0,1,.2-3.6c.3-1.1.7-2.2,1.1-3.3a35.06,35.06,0,0,1,3.3-6l.4-.6.5.5c5.4,4.8,10.9,9.5,16.6,14,1.4,1.1,2.9,2.2,4.3,3.3.7.5,1.5,1,2.2,1.4a5.36,5.36,0,0,0,1.1.5l1.3.3,10.7,2-.7,1c-1-1.6-1.9-3.3-2.8-5-.4-.8-.9-1.7-1.3-2.6-.2-.4-.4-.9-.6-1.3a4.65,4.65,0,0,1-.3-.9,3,3,0,0,1,.2-1,9.17,9.17,0,0,1,1.7-2.5c.6-.7,1.3-1.4,2-2.1,1.4-1.3,2.8-2.6,4.3-3.8l.5-.4.4.4,3.5,3.6-1.2.5.1-7.1v-.9l.9.3,6.3,2.2-.9.5,4.5-18.3.2-.7.7.2,9.9,3-.9.6c.1-1.4.3-2.8.3-4.2,0-.7.1-1.4.1-2.1v-1a.6.6,0,0,0-.1-.4v-.2h0l.8-1.2a92.78,92.78,0,0,1,8.6,3.7,27.47,27.47,0,0,1,7.7,5.4c2.3,2.3,3.7,5.2,5.2,7.8.4.7.8,1.3,1.2,2a15.05,15.05,0,0,1,1.1,2.2l.9,2.2.8,2.2c1.9,5.9,3.3,12,4.6,18s2.5,12.1,3.5,18.2h-1.5c.6-3.6,1.2-7.3,1.6-11s.8-7.4,1-11.1a102.76,102.76,0,0,0,.1-11.1,56.06,56.06,0,0,0-1.4-10.9l-.1-.6.5-.3a11.23,11.23,0,0,0,2-1.8,11.35,11.35,0,0,0,1.5-2.3,20.29,20.29,0,0,0,1.1-2.6,27.59,27.59,0,0,0,.8-2.7l.2-.9.9.3a91.94,91.94,0,0,1,8.6,3.6,33.76,33.76,0,0,1,4.1,2.4,14.62,14.62,0,0,1,1.9,1.6,6.44,6.44,0,0,1,1.1,2.4,26.26,26.26,0,0,1,.6,4.8c0,1.6,0,3.1-.1,4.7a92.44,92.44,0,0,1-1.1,9.2l-1.4-.8c2-1.6,4-3.2,6.1-4.8,1-.8,2.1-1.6,3.1-2.3.5-.4,1.1-.7,1.6-1.1a10.42,10.42,0,0,1,1.8-1,20.24,20.24,0,0,1,4-.8l3.9-.3c2.6-.1,5.2-.2,7.8-.1h.8l.1.8.6,9.2-.8-.8,4.2.1-.8,1.2L281,99.3l-.9-1.8,1.9.6c4.1,1.3,8.2,2.6,12.2,4.3,1,.4,2,.9,3,1.4a27.5,27.5,0,0,1,2.8,1.9,50.25,50.25,0,0,1,4.9,4.3l-1.5.5c.2-2.6.5-5.3.8-7.9a57.06,57.06,0,0,1,1.4-7.9,4.18,4.18,0,0,1,.4-1,3.13,3.13,0,0,1,.5-1c.4-.6.8-1.2,1.2-1.7a26.47,26.47,0,0,1,2.9-2.9,59.12,59.12,0,0,1,6.3-4.9l1.1-.7.3,1.3L321,95.2l-.1-.3a33.76,33.76,0,0,1,4.1,8.3,39,39,0,0,1,1.9,9,91,91,0,0,1,.4,9.1q0,4.5-.3,9l-.6-.9,4.2,1.5-1.2.9a22.37,22.37,0,0,1,.4-5.8,8.63,8.63,0,0,1,1.1-2.9,5.92,5.92,0,0,1,2.4-2.3,8.19,8.19,0,0,1,3-.7,10.12,10.12,0,0,1,3,.2,22.59,22.59,0,0,1,5.6,1.7,10.76,10.76,0,0,1,4.7,3.8,6.33,6.33,0,0,1,.8,3.2,15.44,15.44,0,0,1-.4,3,31.57,31.57,0,0,1-2,5.4,48.2,48.2,0,0,1-2.7,5l-1.3-1.2c1.3-1,2.6-1.9,3.9-2.8a33.49,33.49,0,0,1,4.2-2.6l.6-.3a2.2,2.2,0,0,1,.8-.1,5.7,5.7,0,0,1,1.3.1l2.4.3c1.6.3,3.2.6,4.7,1s3.1.8,4.7,1.3a29.56,29.56,0,0,1,4.7,1.7,3,3,0,0,1,.7.5,2.65,2.65,0,0,1,.5.6,6.72,6.72,0,0,1,.6,1.2,22.5,22.5,0,0,1,.8,2.4c.4,1.6.8,3.1,1.1,4.7l-1.3-.6c3.9-2,7.7-4,11.6-6,1.9-1,3.9-2,5.9-2.9,1-.5,2-.9,3-1.4a10.93,10.93,0,0,1,1.7-.5l1.7-.3a97,97,0,0,1,13.2-.3c4.4.1,8.7.3,13.1.6l1.3.1-.5,1.2c-.9,2.2-1.9,4.2-3,6.3a26.06,26.06,0,0,1-2,3l-.6.7-.7.7a5.07,5.07,0,0,1-1.8.9c-2.2.8-4.4,1.4-6.6,2s-4.4,1.1-6.6,1.7l.1-1.8,7.1,2.1c2.4.7,4.8,1.4,7.1,2,.6.2,1.1.3,1.9.5a17.08,17.08,0,0,1,1.8.7,22.11,22.11,0,0,1,3.4,1.8c2.2,1.3,4.3,2.6,6.4,4l3.1,2.1-3.8-.4L415,163.8l.5-1.8c1.7.8,3.4,1.7,5.1,2.6s3.4,1.8,5,2.8a27.87,27.87,0,0,1,2.5,1.7,5.91,5.91,0,0,1,1.7,2.8,24.11,24.11,0,0,1,.9,5.9v1.3l-1.3-.4-12-3.7,1.2-.6a10.15,10.15,0,0,1-1.6,2.7,20.89,20.89,0,0,1-2,2.2,13,13,0,0,1-2.3,1.8,12.75,12.75,0,0,1-2.5,1.5l-.6-1.8a31.36,31.36,0,0,1,7.5,0,35.14,35.14,0,0,1,7.3,1.6,41.93,41.93,0,0,1,6.9,2.9,48.48,48.48,0,0,1,6.4,4l.7.5-.5.8c-1.3,1.9-2.6,3.8-4.1,5.6a29.56,29.56,0,0,1-2.4,2.6c-.2.2-.5.4-.7.6a5.55,5.55,0,0,1-.8.6c-.6.3-1.1.5-1.6.7-4.3,1.7-8.5,3.3-12.8,4.9l-.3-1.9c3.1.2,6.2.5,9.4.7,1.6.1,3.1.3,4.7.5l2.4.3.6.1c.2.1.5.1.7.2.5.1.8.4,1.2.5a61.59,61.59,0,0,1,8,5.3c2.5,1.9,5,3.8,7.5,5.8l2.5,2-3.2-.2-25.4-1.8,1.1-1.1.6,5-.2-.5,15.3,18.6.8.9-1.1.6a44.32,44.32,0,0,1-6.7,3c-1.2.4-2.3.8-3.6,1.1a10.06,10.06,0,0,1-3.9.2,8.5,8.5,0,0,1-1.9-.6,13,13,0,0,1-1.7-.8,32.39,32.39,0,0,1-3.2-1.7c-2.1-1.2-4.2-2.4-6.2-3.8l1.4-1.2c1,2.3,2.1,4.6,3.2,6.9.6,1.1,1.1,2.3,1.7,3.4l.4.8.1.2.1.3.2.6a7.79,7.79,0,0,1,.4,2.1,40.12,40.12,0,0,1-.3,7.8c-.3,2.6-.8,5.1-1.3,7.6l-.5,2.3-1.3-2-5.5-8.6,1.8-.4a7.82,7.82,0,0,1-1.1,2.8c-.4.8-1,1.6-1.5,2.4-1.1,1.5-2.2,2.9-3.3,4.3-2.3,2.7-4.8,5.4-7.4,7.9l-2,.8-.1-2.1c-.2-2.8-.4-5.7-.7-8.5l-.6-4.2a14.62,14.62,0,0,0-.5-2,3.55,3.55,0,0,0-.4-.9l-.5-.9a62.2,62.2,0,0,0-4.8-7c-1.7-2.3-3.5-4.5-5.3-6.7l1.7-.8c1,7.3,1.9,14.6,2.5,22a103,103,0,0,1,.4,11.1v1.4l-.1,1.4a16,16,0,0,1-.5,2.9A34.37,34.37,0,0,1,387,287a48.72,48.72,0,0,1-5.9,9.5,22.73,22.73,0,0,1-4.1,4.1,5.45,5.45,0,0,1-3,1.2c-1,0-1.9-.1-2.8-.1l-22.1-.9.3-1.8c3.7,1.1,7.4,2.2,11.1,3.5,1.8.6,3.7,1.3,5.5,2a24.33,24.33,0,0,1,2.8,1.4,24,24,0,0,1,2.3,2.1c2.6,3,4.9,6.1,7.2,9.2,1.1,1.6,2.3,3.1,3.4,4.7l1.7,2.4.8,1.2.4.6.2.3.1.2.1.1a.35.35,0,0,1,.1.2c-.2.1.5-.3-.4,1.1-1.3.3-.7,0-.9.1-.1-.1-.2-.1-.3-.2l1.6-.8a3.23,3.23,0,0,1-.3,1.7,3.78,3.78,0,0,1-.9,1.2,14.32,14.32,0,0,1-2.2,1.5,37.53,37.53,0,0,1-4.7,1.7,78.91,78.91,0,0,1-9.7,1.8H367l-.3-.2-12.6-7.3,1.1-1.4c2.1,2.2,4.1,4.3,6.1,6.5s4,4.4,5.9,6.8a28.4,28.4,0,0,1,2.7,3.8,14.34,14.34,0,0,1,1.5,4.4,31,31,0,0,1,.5,9.1l-.1,1.1-1.1-.3A156.44,156.44,0,0,1,351,350l-2.4-1.2c-.8-.4-1.6-.9-2.3-1.3s-1.5-1-2.2-1.5l-1.1-.9c-.3-.3-.6-.7-.9-1-2.3-2.7-4.4-5.5-6.6-8.2-8.4-11.2-16.6-22.5-24.7-33.9l1.5-.9c6.1,12.2,12.2,24.3,18,36.6,1.4,3.1,2.9,6.2,4.2,9.3a35.62,35.62,0,0,1,1.9,4.9,45,45,0,0,1,.8,5.1c.8,6.8,1.2,13.6,1.7,20.4l.1,1.5-1.3-.7a98.47,98.47,0,0,1-8.9-5.2,45.27,45.27,0,0,1-8-6.6,17.43,17.43,0,0,1-3.1-4.4c-.7-1.6-1.3-3.1-2-4.7-1.3-3.2-2.5-6.4-3.5-9.6l1.6-.2a30,30,0,0,1-.8,5.1,27.75,27.75,0,0,1-1.5,4.9,20.15,20.15,0,0,1-2.4,4.6,14.87,14.87,0,0,1-3.8,3.7l.4-.6-.9,4.9-.4,2.5c-.1.8-.2,1.7-.3,2.4l-.4,4.9-1.2-4.8-6-23.4.1.2-6.2-12.1,1.5-.4a86.93,86.93,0,0,1,.1,12.5,61.73,61.73,0,0,1-.8,6.2,22.58,22.58,0,0,1-2.1,6,14.19,14.19,0,0,1-4.3,4.8,30.32,30.32,0,0,1-5.5,3.2,50,50,0,0,1-11.9,3.8l-1.2.2.3-1.2,7.5-26.8,1,.8-10,5.5-1.4.8.4-1.6,6.7-26.1.6.8a72,72,0,0,1-8-.7,32.37,32.37,0,0,1-4-.9,16.67,16.67,0,0,1-2-.8,3.43,3.43,0,0,1-1.6-1.9h.3l.3-.3c.1-.2.4-.5.6-.8l.6-.9,1.3-1.9,2.5-3.9,5-7.7-.1.3a4.85,4.85,0,0,0,0-1.7,3.2,3.2,0,0,0-.5-1.3c-.2-.2-.6-.2-1.1-.1-.2.1-.5.2-.7.3l-.7.5.3-.7a7.79,7.79,0,0,1-.5,4.3,13.06,13.06,0,0,1-2.1,3.6,40.31,40.31,0,0,1-2.6,3.2,26.82,26.82,0,0,1-3,2.8l-.5.4-.4-.6-15.2-21.4,1.1-.2c-.7,3.5-1.3,6.9-2.1,10.3s-1.5,6.9-2.4,10.3a6.47,6.47,0,0,1-.4,1.3,6.94,6.94,0,0,1-.5,1.3,12.78,12.78,0,0,1-1.4,2.3c-1,1.5-2.1,2.9-3.1,4.3-2.1,2.8-4.3,5.6-6.4,8.4h0l-5.1,7.7-.5.8-.5-.8c-1.6-2.8-3.1-5.5-4.5-8.4-.7-1.4-1.4-2.9-2-4.3a35.7,35.7,0,0,1-1.6-4.6,5.07,5.07,0,0,1-.2-1.3,6.15,6.15,0,0,1,.1-1.3,20,20,0,0,1,.4-2.4,34.47,34.47,0,0,1,1.2-4.6c.9-3.1,1.8-6.1,2.9-9.1l.8.6c-2.4,1.9-4.8,3.7-7.4,5.4-1.3.9-2.5,1.7-3.9,2.5a32,32,0,0,1-4.3,1.7c-2.9,1-5.8,2-8.7,2.9l-8.7,2.7-1,.3.4-.9,5.8-15.7,1.5-3.9.7-2c.1-.3.3-.7.4-1s.3-.7.5-1a21.8,21.8,0,0,1,5.9-6.2l.5.8a43.13,43.13,0,0,1-10.3,4,44.17,44.17,0,0,1-10.9,1.6,66,66,0,0,1-10.9-1.1,97.32,97.32,0,0,1-10.7-2.4l-.9-.1.6-.5a168.65,168.65,0,0,1,15.3-11.4,97,97,0,0,1,16.7-9.2l1.1-.5,1.1-.4c.8-.2,1.5-.5,2.3-.7l2.4-.5c.8-.2,1.6-.2,2.4-.4,3.2-.4,6.3-.7,9.5-.9,6.4-.4,12.7-.5,19.1-.5l-.3.2.8-3.5.3.3-46,4.2h0l-24-3.2-.5-.1.4-.2L167,262h0l8.5-1.3-.1.2-14-10.1-.2-.1.2-.1,24.8-6h0Zm0,0-43.8-2h0l-24.8,6.1v-.2l14,10.1.3.2h-.3l-8.5,1.3h0l-12.8,6.9-.1-.3,24,3.1h0l46-4.4h.4l-.1.4-.8,3.5v.2h-.2c-6.3,0-12.7.1-19,.5-3.2.2-6.3.5-9.5.9a15.72,15.72,0,0,0-2.3.4l-2.3.5c-.8.2-1.5.5-2.2.7l-1.1.4-1.1.5a96.06,96.06,0,0,0-16.6,9.2,188.14,188.14,0,0,0-15.2,11.4l-.1-.7a100.39,100.39,0,0,0,10.6,2.3,65.75,65.75,0,0,0,10.8,1,43.29,43.29,0,0,0,10.7-1.6,48.57,48.57,0,0,0,10-4l.5.8a21,21,0,0,0-5.6,5.9,14.17,14.17,0,0,0-.8,1.8l-.7,2-1.4,3.9-5.8,15.7-.6-.7c2.9-.9,5.8-1.7,8.7-2.7s5.8-1.9,8.6-2.9a36.94,36.94,0,0,0,4.2-1.7c1.3-.7,2.5-1.6,3.8-2.4,2.5-1.7,4.9-3.6,7.3-5.4l1.4-1.1-.6,1.7c-1,3-2,6-2.8,9-.4,1.5-.8,3-1.1,4.6a9.92,9.92,0,0,0-.3,4.5,25.42,25.42,0,0,0,1.5,4.4c.6,1.4,1.3,2.9,2,4.3,1.4,2.8,2.9,5.6,4.5,8.3h-1l5.1-7.7h0c2.2-2.8,4.3-5.5,6.4-8.4,1-1.4,2.1-2.8,3.1-4.3a9.8,9.8,0,0,0,1.3-2.2,3.37,3.37,0,0,0,.4-1.2,5.64,5.64,0,0,1,.4-1.2c.9-3.4,1.6-6.8,2.3-10.2s1.4-6.9,2-10.3l.3-1.4.8,1.2,15.3,21.4-.9-.1a29.76,29.76,0,0,0,5.4-5.8,16.33,16.33,0,0,0,1.9-3.4,5.65,5.65,0,0,0,.4-3.6l-.1-.5.4-.2.9-.5a3,3,0,0,1,1-.4,4.3,4.3,0,0,1,1.2-.2,1.85,1.85,0,0,1,1.2.5,3.73,3.73,0,0,1,1,2.1,7.38,7.38,0,0,1,0,2.1v.1l-.1.1-5,7.8-2.5,3.9-1.3,1.9-.7,1a5.77,5.77,0,0,1-.8,1l.2-.6a2,2,0,0,0,.9,1,8.65,8.65,0,0,0,1.7.7,23.28,23.28,0,0,0,3.8.8,51.23,51.23,0,0,0,7.8.6h.9l-.2.8L265.8,354l-1-.8,10-5.5,1.5-.8-.5,1.6-7.4,26.8-.8-.9a51.72,51.72,0,0,0,11.5-3.8,33.46,33.46,0,0,0,5.2-3,13.31,13.31,0,0,0,3.9-4.3,21.78,21.78,0,0,0,1.9-5.6c.4-2,.6-4,.8-6a82.81,82.81,0,0,0-.1-12.2l-.3-3.9,1.8,3.5,6.2,12.1v.2l6.1,23.4-1.6.2c.1-1,.2-1.7.3-2.6l.4-2.5.9-4.9.1-.4.3-.2a11.17,11.17,0,0,0,3.3-3.2,24.06,24.06,0,0,0,2.2-4.2,36.44,36.44,0,0,0,1.4-4.7,39.67,39.67,0,0,0,.7-4.8l.3-4.1,1.3,3.9c1,3.2,2.2,6.4,3.5,9.5.6,1.6,1.3,3.1,2,4.7a17.48,17.48,0,0,0,2.8,3.9,47,47,0,0,0,7.7,6.3,76.05,76.05,0,0,0,8.7,5.1l-1.2.8c-.4-6.8-.9-13.6-1.7-20.3a35.81,35.81,0,0,0-.8-4.9,29.16,29.16,0,0,0-1.8-4.6c-1.3-3.1-2.8-6.2-4.2-9.3-5.8-12.3-11.9-24.4-18-36.6l1.5-.9c8.1,11.4,16.3,22.7,24.6,33.8,2.1,2.8,4.2,5.6,6.5,8.1l.9.9.9.8a15.34,15.34,0,0,0,2.1,1.4c.7.4,1.5.9,2.2,1.3s1.5.8,2.3,1.2a146.31,146.31,0,0,0,19.4,7.4l-1.2.8a31.12,31.12,0,0,0-.5-8.6,13.58,13.58,0,0,0-1.4-4,25.28,25.28,0,0,0-2.5-3.5c-1.9-2.3-3.8-4.5-5.8-6.7s-4-4.3-6.1-6.5l-4.5-4.6,5.6,3.2,12.6,7.2-.5-.1a74,74,0,0,0,9.4-1.7,23.17,23.17,0,0,0,4.4-1.6,5.67,5.67,0,0,0,1.8-1.2,1.88,1.88,0,0,0,.7-1.3l1.6-.8-.2-.2c-.2.1.4-.2-.9.1-.8,1.4-.1.9-.4,1,0,0,.1.1,0,.1h0l-.1-.1-.2-.3-.4-.6-.8-1.2-1.6-2.4c-1.1-1.6-2.2-3.2-3.4-4.7-2.3-3.1-4.6-6.2-7.1-9.1a17,17,0,0,0-1.9-1.9c-.7-.4-1.6-.8-2.4-1.2-1.8-.7-3.6-1.4-5.4-2-3.6-1.2-7.3-2.4-11-3.4l-7.4-2.1,7.7.3,22,.9,2.7.1a3.9,3.9,0,0,0,2-.9,18.53,18.53,0,0,0,3.7-3.7,50.63,50.63,0,0,0,5.7-9.2,30.68,30.68,0,0,0,2-5,10.86,10.86,0,0,0,.4-2.5l.1-1.3v-1.4a99.28,99.28,0,0,0-.4-10.9c-.6-7.3-1.5-14.6-2.5-21.9l-.5-3.3,2.1,2.5c1.9,2.2,3.7,4.4,5.4,6.7a75.72,75.72,0,0,1,4.9,7.2l.5,1a3.58,3.58,0,0,1,.4,1.1,17.42,17.42,0,0,1,.5,2.2c.3,1.4.5,2.9.7,4.3.3,2.9.6,5.7.8,8.6l-1.6-.6q3.75-3.75,7.2-7.8c1.1-1.4,2.2-2.7,3.2-4.1a13.52,13.52,0,0,0,2.2-4.3l.5-2.3,1.3,2,5.5,8.6-1.8.3c.5-2.5.9-5,1.2-7.4a37,37,0,0,0,.3-7.4,6.52,6.52,0,0,0-.3-1.6l-.1-.3-.1-.2-.1-.2-.5-.9c-.6-1.1-1.2-2.3-1.7-3.4-1.1-2.3-2.2-4.6-3.2-7l-1.3-3,2.8,1.8c2,1.3,4,2.5,6.1,3.7,1,.6,2.1,1.1,3.1,1.6a11.11,11.11,0,0,0,1.6.7c.3.1.5.2.8.3a6.37,6.37,0,0,1,.7.2,8.79,8.79,0,0,0,3.2-.2,20.74,20.74,0,0,0,3.3-1,52.38,52.38,0,0,0,6.4-2.9l-.3,1.5L422.8,221l-.2-.2v-.3l-.6-5-.2-1.2,1.2.1,25.4,1.8-.7,1.8c-2.4-1.9-4.9-3.9-7.4-5.7a64.13,64.13,0,0,0-7.7-5.1c-.3-.1-.7-.4-.9-.4s-.3-.1-.4-.1l-.5-.1-2.3-.3c-1.5-.2-3.1-.3-4.6-.5-3.1-.3-6.2-.5-9.3-.7l-4.6-.3,4.4-1.6c4.3-1.6,8.6-3.1,12.8-4.8a6.89,6.89,0,0,0,1.5-.7,2.09,2.09,0,0,0,.6-.4,2.65,2.65,0,0,0,.6-.5,17,17,0,0,0,2.2-2.4c1.4-1.7,2.8-3.6,4-5.4l.2,1.3a37,37,0,0,0-6.1-3.8,38.09,38.09,0,0,0-6.6-2.7,33.84,33.84,0,0,0-14.1-1.5l-4.6.4,4-2.2a17.61,17.61,0,0,0,2.3-1.4c.7-.5,1.4-1.1,2.1-1.7s1.2-1.2,1.8-1.9a17.28,17.28,0,0,0,1.3-2.1l.3-.9.8.3,12,3.7-1.2.9a18.35,18.35,0,0,0-.7-5.3,4.48,4.48,0,0,0-1.2-2,12.13,12.13,0,0,0-2.2-1.5c-1.6-1-3.2-1.9-4.9-2.8s-3.4-1.7-5.1-2.6l-4.9-2.4,5.4.6,15.5,1.6-.6,1.7c-2-1.4-4.1-2.7-6.2-3.9-1.1-.6-2.1-1.2-3.2-1.7a10.41,10.41,0,0,0-1.6-.6c-.5-.1-1.2-.3-1.8-.4-2.4-.6-4.8-1.3-7.2-2l-7.1-2.2-3.3-1,3.4-.8c2.2-.5,4.4-1.1,6.6-1.7s4.4-1.2,6.5-1.9a8.1,8.1,0,0,0,1.3-.6c.2-.1.3-.3.5-.5l.5-.6a25.34,25.34,0,0,0,1.8-2.7,66.25,66.25,0,0,0,2.9-6l.8,1.3c-4.3-.3-8.7-.5-13-.6a92.28,92.28,0,0,0-12.9.3,7.72,7.72,0,0,1-1.5.2,7.37,7.37,0,0,0-1.4.4c-1,.4-2,.9-2.9,1.3-2,.9-3.9,1.9-5.8,2.9-3.9,2-7.7,4-11.6,6l-1.1.6-.2-1.2a38.37,38.37,0,0,0-1.1-4.6,18.66,18.66,0,0,0-.7-2.2c-.1-.3-.3-.7-.4-1s-.2-.2-.2-.3a.77.77,0,0,0-.3-.2,35.36,35.36,0,0,0-4.3-1.6,34.47,34.47,0,0,0-4.6-1.2c-1.5-.4-3.1-.7-4.6-1a18.1,18.1,0,0,0-2.3-.3c-.4-.1-.7,0-1.1-.1a.37.37,0,0,0-.3.1c-.1.1-.3.1-.5.2a27.39,27.39,0,0,0-3.9,2.4c-1.3.9-2.6,1.8-3.8,2.8l-3.8,2.9,2.5-4.1a41.64,41.64,0,0,0,4.6-9.8c.4-1.7.6-3.5-.1-4.7a10,10,0,0,0-3.9-3.1,15,15,0,0,0-5.1-1.5,11.54,11.54,0,0,0-2.6-.1,6,6,0,0,0-2.4.5c-1.3.6-2.1,2.2-2.4,3.9a18.7,18.7,0,0,0-.4,5.3l.1,1.4-1.3-.4-4.2-1.5-.6-.2v-.7c.2-2.9.3-5.9.3-8.9a88.33,88.33,0,0,0-.4-8.9,36.6,36.6,0,0,0-1.8-8.6,31.34,31.34,0,0,0-3.8-7.8l-.1-.2v-.2l-2.7-11.4,1.4.5a71.56,71.56,0,0,0-6.1,4.8,34.37,34.37,0,0,0-2.7,2.7,14.31,14.31,0,0,0-1.1,1.5,3,3,0,0,0-.4.8,6.89,6.89,0,0,0-.3.8,60.14,60.14,0,0,0-1.4,7.6c-.3,2.6-.6,5.2-.8,7.8l-.1,1.9-1.4-1.4a61.42,61.42,0,0,0-4.7-4.2,23.26,23.26,0,0,0-2.6-1.7,23.94,23.94,0,0,0-2.8-1.3c-3.9-1.6-8-2.9-12-4.2l1-1.2,12.4,25.6.6,1.3h-1.4l-4.2-.1h-.8v-.8l-.6-9.2.8.8c-2.5,0-5.1,0-7.7.1-1.3.1-2.5.1-3.8.3a12.79,12.79,0,0,0-3.5.7,6,6,0,0,0-1.5.9c-.5.3-1,.7-1.6,1.1-1,.7-2.1,1.5-3.1,2.3l-6,4.8-1.8,1.4.4-2.2c.5-3,.9-6,1.1-9a33.81,33.81,0,0,0,.1-4.5,21.18,21.18,0,0,0-.5-4.4,3.85,3.85,0,0,0-.8-1.7l-.7-.7-.9-.7a36.42,36.42,0,0,0-3.9-2.3,78.59,78.59,0,0,0-8.4-3.6l1.1-.6a16.12,16.12,0,0,1-.9,2.9c-.4.9-.8,1.9-1.2,2.8a14.52,14.52,0,0,1-1.7,2.6,11.5,11.5,0,0,1-2.3,2.1l.3-.9a53.75,53.75,0,0,1,1.4,11.3,106.53,106.53,0,0,1-.2,11.3c-.2,3.7-.6,7.5-1,11.2s-1,7.4-1.6,11.1l-.8,4.4-.8-4.4c-1-6.1-2.2-12.1-3.5-18.2s-2.7-12.1-4.5-17.9l-.7-2.2-.8-2.1c-.3-.7-.7-1.3-1-2s-.8-1.3-1.2-2a35.69,35.69,0,0,0-5-7.6,28.14,28.14,0,0,0-7.4-5.2c-2.7-1.4-5.6-2.5-8.4-3.7l.8-1.2a2.19,2.19,0,0,0,.3.5l.1.3c0,.2.1.4.1.6v1.1a16.2,16.2,0,0,1-.1,2.2c-.1,1.4-.2,2.9-.3,4.3l-.1.9-.8-.2-9.9-3,.9-.5-4.5,18.3-.2.7-.7-.2-6.3-2.2.9-.6-.1,7.1v1.6l-1.1-1.2-3.5-3.6.9.1c-1.4,1.2-2.9,2.4-4.2,3.7-.7.7-1.3,1.3-1.9,2a9.12,9.12,0,0,0-1.5,2.1.76.76,0,0,0-.1.4,4.71,4.71,0,0,0,.2.5c.2.4.4.8.6,1.3.4.8.8,1.7,1.3,2.5.9,1.7,1.8,3.3,2.8,4.9l.7,1.2-1.4-.3-10.7-2.1-1.3-.3c-.5-.2-1-.4-1.4-.6-.8-.5-1.6-1-2.3-1.5-1.5-1.1-2.9-2.2-4.4-3.3-5.7-4.5-11.2-9.3-16.6-14.1l.9-.1a45.92,45.92,0,0,0-3.2,5.7,28.27,28.27,0,0,0-1.1,3.1,6.21,6.21,0,0,0-.2,3c.2,1,.7,2.1,1,3.1s.8,2.1,1.2,3.1c.8,2.1,1.7,4.1,2.6,6.2l.4,1-1.1-.2a17.59,17.59,0,0,0-5.6.1,37.38,37.38,0,0,0-5.4,1.7,40.89,40.89,0,0,0-5.2,2.3c-.4.2-.8.5-1.2.7-.2.1-.3.3-.5.4a.44.44,0,0,0-.1.3,13.57,13.57,0,0,0,.4,2.7c.5,1.8,1.1,3.7,1.8,5.5.3.9.7,1.8,1.1,2.7l.1.3.1.1h0a.35.35,0,0,0-.2-.1c-.1,0,0-.2-.6.1-.4.5-.2.4-.2.4v.1h0c0-.1-.1-.1-.1-.5v-.1c0-.1.1-.2.1-.3s.2-.2.4-.2h.2a.1.1,0,0,1,.1.1h.1l.1.1.2.2a10.59,10.59,0,0,1,1,1.2c2.3,3.2,4.4,6.4,6.5,9.7l.7,1-1.2-.2c-3-.5-6.1-.8-9.1-1.2a69.4,69.4,0,0,0-9.1-.5,45.12,45.12,0,0,0-8.9,1.7c-2.9.8-5.8,1.8-8.7,2.9l.3-.6a15.16,15.16,0,0,0,3.7,5.1,17.77,17.77,0,0,0,2.7,1.7c1,.5,1.9,1,2.9,1.5,4,1.9,8,3.6,12.1,5.1l1.2.5-1.2.5-7.1,2.7h0q-5.25,2.7-10.2,5.7a57.16,57.16,0,0,0-4.8,3.2,12.1,12.1,0,0,0-2,1.9l-.2.4c0,.1,0,.1.1.2a4.3,4.3,0,0,0,1.2.2H99l2.7-.4a31.38,31.38,0,0,1,8.1.1,24.37,24.37,0,0,1,5.3,1.4,15.34,15.34,0,0,1,4.7,2.9l.4.4-.5.3a31.68,31.68,0,0,0-5.6,4,27.94,27.94,0,0,0-4.6,5.1,25.07,25.07,0,0,0-3.1,6.1l-.5,1.7-.3,1.7c0,.3-.1.6-.1.9v.9l-.1,1.7-.1-.2a1.69,1.69,0,0,0,.9.2,5.85,5.85,0,0,0,1.3-.2,19.73,19.73,0,0,0,2.6-.7c1.7-.6,3.5-1.2,5.2-1.9,3.4-1.4,6.8-3,10.1-4.5,6.7-3.2,13.3-6.6,19.9-10l1.9-1-1.5,1.5c-5.1,5-10.1,10.1-14.8,15.4q-3.6,3.9-6.9,8.1c-1.1,1.4-2.1,2.8-3.1,4.3-.5.8-.9,1.5-1.3,2.3a3.62,3.62,0,0,0-.5,2.4l-.2-.2a21.84,21.84,0,0,0,6.2-1.1c2-.6,4.1-1.3,6.1-2,4-1.5,7.9-3.2,11.8-5l.2-.1.1.2c.7,2.7,1.4,5.4,2.2,8,.4,1.3.8,2.7,1.3,4,.2.7.5,1.3.7,1.9.1.3.3.6.4.9a2.1,2.1,0,0,0,.5.7h-.1c4.5-4.1,9-8.3,13.5-12.5s8.7-8.6,12.8-13.2a39,39,0,0,0,5.4-7.4,5.56,5.56,0,0,0,.6-2.1,1.27,1.27,0,0,1,.1-.6c.1-.2.3-.3.4-.5.3-.2.7-.4,1-.6a17.11,17.11,0,0,1,4.4-1.3,102.85,102.85,0,0,1,18.4-1.2h0l23.7,20.2h0Z" transform="translate(-96.2 -82.5)"/><path d="M227.3,198c-.8-1.8-1.7-3.6-2.6-5.4l-2.9-5.7c-1-2-2-4-2.9-6s-1.8-4.1-2.7-6.1v-.2c-.5-4-.9-8.1-1.5-12.1-.3-2-.6-4-1-6s-.7-4-1.1-6l-.3-1.4,1.1.9c2.3,2,4.6,3.9,6.9,5.9s4.5,4,6.8,6l.3.3v.4c.1,3,.2,6.1.3,9.2s0,6.1-.1,9.1l-.2,8.8C227.3,192.4,227.3,195.3,227.3,198Zm0-.2c-.1-3.2-.3-6.3-.5-9.3l-.7-8.9c-.2-2.9-.4-5.7-.5-8.6s-.2-5.7-.2-8.5l.3.7c-2.2-2.1-4.4-4.1-6.5-6.2s-4.3-4.2-6.4-6.3l.8-.4c.2,2,.5,4,.8,6.1s.6,4,1,6c.8,4,1.7,8,2.4,12l-.1-.2c.9,1.9,1.7,3.7,2.5,5.6s1.5,3.8,2.3,5.8l2.3,6C225.6,193.6,226.4,195.6,227.3,197.8Z" transform="translate(-96.2 -82.5)"/><path d="M238.6,241.2v-8.6c0-2.9.1-5.8.1-8.7l.1-8.7.2-8.7v-.3l.2-.2c3.4-4.1,6.9-8.2,10.4-12.2s7.1-8,10.7-12l.2-.2h.2c7.3,0,14.6,0,21.9-.2l11-.3,11-.4h1l-.4.9-6,13.8-6.1,13.8-.1.2-.2.2c-4,3.3-7.9,6.7-11.9,10l-12,9.8-12.1,9.7-12.2,9.6-.3.3-.2-.3Zm.2-.1,5.8,6.9H244l11.8-10.2,11.8-10.1,11.9-10,12-9.9-.3.4,6.3-13.7c2.1-4.5,4.2-9.1,6.4-13.6l.6.9h-11c-3.7,0-7.3.1-11,.1q-11,.15-21.9.6l.4-.2c-3.4,4.1-6.8,8.3-10.2,12.4s-6.9,8.2-10.4,12.2l.2-.5-.4,8.6-.5,8.6c-.2,2.9-.3,5.8-.5,8.7Z" transform="translate(-96.2 -82.5)"/><path d="M314.3,192.8c1.6-1.3,3.2-2.6,4.8-4l5-4.2c3.4-2.9,6.9-5.8,10.5-8.5l.2-.1h.2c3.3-.7,6.5-1.4,9.8-2l9.8-1.8c3.3-.6,6.5-1.4,9.8-2.1l9.7-2.4,3.5-.9-3.1,1.9c-2,1.3-4.1,2.6-6.1,3.8s-4.1,2.5-6.2,3.7c-4.1,2.5-8.2,5-12.4,7.4l-.1.1h-.1c-6,1.8-12.1,3.4-18,4.8l-8.8,2.1C319.8,191.3,317,192,314.3,192.8Zm.2-.1c3.1-.9,6.1-1.9,9-2.9l8.6-2.9c5.6-1.9,11.1-3.7,16.8-5.3l-.2.1c4.2-2.4,8.4-4.7,12.5-7.1,2.1-1.2,4.2-2.3,6.3-3.5s4.2-2.3,6.3-3.4l.4,1c-3.3.6-6.5,1.2-9.8,1.9s-6.5,1.4-9.7,2.2l-9.7,2.5c-3.2.9-6.5,1.6-9.7,2.3l.4-.2c-3.4,2.6-6.7,5-10.2,7.4l-5.4,3.8C318.2,190,316.3,191.3,314.5,192.7Z" transform="translate(-96.2 -82.5)"/><path d="M255.5,249.9l9.5-8.5c3.3-2.9,6.6-5.9,10.1-8.8s7.2-5.7,10.7-8.5,6.9-5.7,10.2-8.7l1.9-1.7-1.2,2.3c-1.6,3.1-3.1,6.2-4.8,9.3s-3.3,6.1-4.9,9.2l-.1.1-.1.1c-2.7,2.7-5.4,5.4-8.2,8s-5.6,5.3-8.4,7.8l-.3.2h-.3c-2.5-.1-5-.3-7.4-.5C260,250.2,257.7,250,255.5,249.9Zm.2,0c2.5,0,5-.2,7.3-.3s4.6-.3,6.8-.3l-.6.2c2.7-2.8,5.4-5.5,8.1-8.2s5.5-5.4,8.3-8l-.2.2c1.7-3,3.5-6,5.2-9s3.6-6,5.4-9l.7.6q-5.25,4.05-10.2,8.4c-3.3,2.9-6.4,5.8-9.7,8.5s-6.8,5.5-10.3,8.2Z" transform="translate(-96.2 -82.5)"/><path d="M301.6,237.1c2.6-1.6,5.2-3.3,7.9-5.1s5.5-3.7,8.4-5.5,6.1-3.6,9.1-5.2,5.9-3.4,8.7-5.2l.3-.2.2.4c.7,1.6,1.5,3.3,2.2,4.9s1.5,3.2,2.3,4.9l.3.8-.9.3c-3.2,1-6.5,2-9.8,3s-6.7,1.8-10,2.6l-9.7,2.2C307.6,235.6,304.6,236.4,301.6,237.1Zm.2,0c3.5-1,6.8-2.1,10-3.1l9.5-3.1c3.1-1,6.1-2,9.2-2.8s6.2-1.7,9.3-2.4l-.5,1.1-1.8-5.1c-.6-1.7-1.2-3.4-1.9-5.1l.5.2c-2.9,1.6-5.7,3.4-8.4,5.2s-5.3,3.5-8.1,5.1-5.7,3.2-8.7,4.8C308.1,233.5,305,235.2,301.8,237.1Z" transform="translate(-96.2 -82.5)"/><path d="M365.6,212.5l3.2-.6c1.1-.2,2.3-.4,3.5-.6s2.5-.4,3.7-.5l3.8-.3h.5l.2.4c.6,1.1,1.1,2.1,1.6,3.2a30.71,30.71,0,0,0,1.7,3.1c1.2,2,2.7,4,4.1,5.9l.7,1h-1.3c-2,0-4,0-6-.1l-3-.1c-1,0-2-.1-3-.2h-.4l-.3-.3c-1.7-1.8-3.4-3.7-4.9-5.6S366.9,214.1,365.6,212.5Zm.2.1c1.9,1.8,3.8,3.3,5.6,4.8s3.3,2.9,4.9,4.4l-.7-.3c1,.1,2,.1,3,.2l3,.3c2,.2,4,.4,6,.7l-.6,1c-1.1-2.1-2.2-4.2-3.5-6.2a19.41,19.41,0,0,0-2.1-2.9c-.7-1-1.5-1.9-2.2-2.9l.7.4c-1.1.2-2.2.3-3.3.4s-2.2.1-3.4.1h-7.4Z" transform="translate(-96.2 -82.5)"/><path d="M314.7,280.5c-1.6-.6-3.3-1.2-5-1.8l-5.4-1.9a95.55,95.55,0,0,1-11.1-4.5h-.1c-2.5-1.8-4.9-3.7-7.5-5.4s-5.1-3.4-7.8-4.9l-1.5-.9,1.7-.1c2.6-.1,5.2-.2,7.8-.2l7.8-.1h.4l.3.3c3.7,3.1,7.3,6.6,10.7,10l4.9,5Zm-.2-.1c-1.9-1.7-3.9-3.3-5.7-4.8l-5.6-4.4a122.9,122.9,0,0,1-10.2-8.7l.7.3-7.8-.3c-2.6-.1-5.2-.3-7.8-.5l.3-.9c2.5,1.8,5,3.6,7.6,5.2s5.3,3.1,7.9,4.7l-.1-.1a88.55,88.55,0,0,1,10,4.3l5.2,2.5C310.7,278.7,312.6,279.5,314.5,280.4Z" transform="translate(-96.2 -82.5)"/><path d="M267.9,272.8c-.7-.8-1.4-1.6-2.2-2.4l-2.4-2.2a25,25,0,0,1-2.2-2.4,25.6,25.6,0,0,1-2-2.6l1.3-.7.6,2.7a26.81,26.81,0,0,0,.7,2.7,32.81,32.81,0,0,0,2,5.2l-.2-.3a26.94,26.94,0,0,1,2.9,1.6c1,.6,1.9,1.1,2.9,1.7s1.9,1.1,2.9,1.7,1.9,1.2,2.8,1.9l-1.3,1.5c-.5-.7-1-1.4-1.4-2.1a15.92,15.92,0,0,1-1.3-2.2c-.4-.7-.9-1.5-1.3-2.2A10.49,10.49,0,0,1,267.9,272.8Zm.2-.2c.5.6,1.1,1.3,1.7,1.9l1.8,1.8,1.8,1.8a15.37,15.37,0,0,1,1.7,1.9l4,4.7-5.3-3.2a26.75,26.75,0,0,1-2.8-1.8c-.9-.6-1.8-1.3-2.8-1.9s-1.8-1.3-2.7-1.9-1.8-1.3-2.7-2l-.2-.2v-.2a53.62,53.62,0,0,0-1.4-5.4,20,20,0,0,0-1-2.6l-1.1-2.6-1.5-3.4,2.8,2.7c.8.8,1.5,1.6,2.2,2.4a24.76,24.76,0,0,1,1.9,2.6l1.8,2.8A11,11,0,0,0,268.1,272.6Z" transform="translate(-96.2 -82.5)"/><path d="M344.9,284.5c-1-2.1-2.1-4.5-3-7-.5-1.3-.9-2.5-1.3-3.9s-.6-2.7-.9-4l-.3-1.6,1.1,1a39.07,39.07,0,0,0,4.1,3c1.4.9,2.9,1.7,4.4,2.6s2.9,1.7,4.4,2.7,2.9,1.8,4.3,2.8l1.9,1.3-2.2.6a48.87,48.87,0,0,1-6.4,1.4C348.8,283.9,346.7,284.2,344.9,284.5Zm.1-.2c2.2-.9,4.2-1.7,6.1-2.4s3.8-1.4,5.7-1.9l-.3,1.9c-1.4-1-2.8-2-4.1-3s-2.7-2-4-3.1-2.6-2.2-4-3.2a38.65,38.65,0,0,0-4.3-2.7l.8-.6c.5,1.2,1,2.3,1.4,3.5s.8,2.4,1.1,3.6C343.9,278.8,344.4,281.4,345,284.3Z" transform="translate(-96.2 -82.5)"/><path d="M376.7,282.8c-.5-.6-.9-1.3-1.4-2s-.9-1.6-1.3-2.4a13.09,13.09,0,0,1-.9-2.8,10.67,10.67,0,0,0-.8-2.7l-.2-.4h.5a14.77,14.77,0,0,0,2.1-.1l2.1-.3.5-.1.2.7a15.46,15.46,0,0,1,.7,2.3c.2.8.4,1.5.6,2.3a35.49,35.49,0,0,1,.6,4.7v.6l-.4.1A18.48,18.48,0,0,1,376.7,282.8Zm.1-.2a22,22,0,0,0,1.9-1.2l-.4.7a25.89,25.89,0,0,1-1.4-4.5,18.46,18.46,0,0,1-.4-2.3c-.1-.8-.2-1.6-.3-2.3l.8.6a15.52,15.52,0,0,1-2.1-.4,14.92,14.92,0,0,0-2.1-.2l.3-.4a10.46,10.46,0,0,0,1.3,2.3,9.41,9.41,0,0,1,1.2,2.2c.3.8.5,1.6.8,2.5A17.75,17.75,0,0,0,376.8,282.6Z" transform="translate(-96.2 -82.5)"/><path d="M320.5,156.1a25.25,25.25,0,0,1,1-2.9A30,30,0,0,1,323,150a33.68,33.68,0,0,1,2.1-3.1,15.22,15.22,0,0,0,1.7-3l1.1-2.4-.4,2.7c-.2,1.1-.2,2.2-.3,3.3a30.62,30.62,0,0,1-.5,3.2c-.2,1.1-.4,2.1-.7,3.2s-.6,2.1-1,3.1l-.3.8-.6-.2A28.19,28.19,0,0,1,320.5,156.1Zm.1-.1c1.5.1,2.6,0,3.6,0l-.9.6a30.62,30.62,0,0,1,.5-3.2c.2-1.1.5-2.1.8-3.2s.6-2.1,1-3.1.8-2,1.2-3.1l.7.3a11.43,11.43,0,0,0-1.5,2.9,25.15,25.15,0,0,1-1.2,2.9,32.31,32.31,0,0,1-1.8,2.8C322.2,153.9,321.5,154.9,320.6,156Z" transform="translate(-96.2 -82.5)"/><path d="M178.7,433.5a274.88,274.88,0,0,1-.5-28.7,58.47,58.47,0,0,1,.7-7.2l.4-1.8.6-1.7c.4-1.1.8-2.3,1.3-3.4,1.7-4.5,3.6-8.9,5.4-13.3,3.8-8.8,7.8-17.5,11.7-26.2s7.7-17.5,11.4-26.3l.4-.8.4.8,8.5,18.4.1.3-.2.3L210,362.6l-9,18.7v-.1c-2,5-3.9,9.9-6,14.9-1,2.5-2,4.9-3.1,7.4l-.9,1.8a9.29,9.29,0,0,0-.5,1c0,.1-.1.1-.1.2l-.2.2a.35.35,0,0,1-.2.1c-.2,0-.2.1-.5,0a1.54,1.54,0,0,1-.6-.4c-.1-.1-.1-.3-.2-.3v-.6c0-.2.1-.4.1-.6s.2-.7.3-1l.1-.3.1-.2c.1-.1,0-.1.2-.3a.94.94,0,0,1,1.2-.1c.2.1.3.2.3.4s.1.1.1.2.1.2.1.3v.3c0,.8-.1,1.4-.1,2.1-.6,5.4-1.4,10.6-2.3,15.9s-1.7,10.5-2.7,15.8l-.1.5-.4-.3Zm.2-.1,7.1,4.1-.5.2,2-15.9c.6-5.3,1.4-10.6,1.8-15.9,0-.6.1-1.3.1-1.9v0c.1.1.1.2.3.3a.75.75,0,0,0,.5.1.37.37,0,0,0,.3-.1c.3-.1.2-.1.3-.2s.1-.1.1-.1v.1l-.1.2-.3.9c0,.1-.1.3-.1.4v.1h0v-.2a1,1,0,0,1-.1-.3,1.13,1.13,0,0,0-.5-.4h-.5l-.2.1c-.1.1-.1.1-.2.1h0a5.94,5.94,0,0,0,.4-.8c.3-.6.5-1.2.8-1.8,1-2.4,2-4.9,3-7.4l5.9-14.9h0l9.2-18.6,9.3-18.5v.6L209.6,325h.7c-3.9,8.7-7.8,17.4-11.4,26.3l-10.8,26.5L182.7,391c-.4,1.1-.9,2.2-1.3,3.3l-.6,1.6-.4,1.7c-.4,2.3-.6,4.7-.8,7-.4,4.7-.5,9.5-.6,14.3l-.1,7.2Z" transform="translate(-96.2 -82.5)"/><path d="M136,145.2c1.3.5,2.5,1.1,3.8,1.6s2.4,1.2,3.6,1.9a62,62,0,0,1,6.9,4.4l3.2,2.6c1,.9,2.1,1.8,3.1,2.6s2.1,1.7,3.2,2.5l3.3,2.4c1.1.8,2.2,1.6,3.3,2.5s2.1,1.7,3.1,2.6l3.1,2.7a39.67,39.67,0,0,1,2.9,2.9,84.91,84.91,0,0,1,10.3,12.8l-.2.1c-3.9-3.8-7.7-7.6-11.6-11.4l-5.8-5.7c-1-.9-2-1.9-2.9-2.8s-1.9-1.9-2.9-2.8l-3-2.7a39.19,39.19,0,0,0-3.2-2.5c-2.2-1.6-4.6-2.9-6.9-4.3a39.56,39.56,0,0,1-3.4-2.2c-1.1-.7-2.3-1.5-3.4-2.3s-2.2-1.5-3.4-2.3-2.2-1.5-3.3-2.4Z" transform="translate(-96.2 -82.5)"/><path d="M117.4,172.7a13,13,0,0,1,3.4.8,14.84,14.84,0,0,1,3.1,1.5c1,.7,1.8,1.5,2.7,2.2a14.59,14.59,0,0,0,3,1.7c.5.3,1,.5,1.5.8a7.1,7.1,0,0,1,1.4,1,28.77,28.77,0,0,1,2.7,2.2,21.24,21.24,0,0,1,4.1,5.7l-.2.1a59.32,59.32,0,0,1-5.4-4.2c-.4-.4-.8-.7-1.2-1.1l-1.2-1.2c-.8-.7-1.6-1.6-2.4-2.4a14,14,0,0,0-2.7-2.1,7.74,7.74,0,0,0-1.6-.7c-.5-.2-1.1-.4-1.6-.6a10.09,10.09,0,0,1-1.5-.7c-.5-.3-1-.5-1.5-.8s-1-.6-1.4-.9a7.55,7.55,0,0,1-1.4-1.1Z" transform="translate(-96.2 -82.5)"/><path d="M112.1,192.2c5.3-.5,10.7-.9,16-1.1s10.7-.3,16-.1,10.7.8,16,1.3,10.6,1,16,1.8a108.22,108.22,0,0,1,15.8,3.3,114.7,114.7,0,0,1,15.2,5.5,78.49,78.49,0,0,1,26,18.8l-.1.1a104.28,104.28,0,0,0-26.7-17,132.83,132.83,0,0,0-14.8-5.7c-5.1-1.6-10.2-2.9-15.4-4a105.38,105.38,0,0,0-15.8-2.2c-5.3-.4-10.7-.3-16-.3h-16c-5.3,0-10.7,0-16-.2Z" transform="translate(-96.2 -82.5)"/><path d="M154.3,235.2c.1-1,.2-2,.4-3a24.54,24.54,0,0,1,.8-2.9,23.29,23.29,0,0,1,1.1-2.8c.4-.9.9-1.8,1.4-2.7s1.2-1.6,1.8-2.5,1.3-1.5,1.9-2.3,1.3-1.6,1.8-2.4l1.8-2.4,2-2.3c.7-.7,1.5-1.4,2.2-2.1l2.4-1.9c.8-.6,1.7-1.1,2.5-1.7a29.36,29.36,0,0,1,11.4-4l.1.2a84.55,84.55,0,0,0-10.3,5.6c-.8.5-1.6,1.1-2.4,1.6l-2.4,1.7c-.8.6-1.5,1.2-2.3,1.8s-1.5,1.2-2.3,1.9-1.4,1.3-2.1,2.1a20.28,20.28,0,0,0-1.8,2.3c-.5.8-1,1.7-1.5,2.6s-.8,1.8-1.3,2.7a21,21,0,0,1-1.3,2.6c-.4.9-.8,1.8-1.2,2.6l-1.2,2.7c-.4.9-.7,1.8-1.2,2.7Z" transform="translate(-96.2 -82.5)"/><path d="M177.9,146.5a3.43,3.43,0,0,1,2.8-.5,6.38,6.38,0,0,1,2.6,1.3,9.48,9.48,0,0,1,2,2c.6.7,1.2,1.4,1.7,2.1q3.45,4.2,6.6,8.7l3,4.5,3,4.5c2.1,3,4.3,5.9,6.5,8.7s4.4,5.8,6.5,8.7,4.2,5.9,6.2,9a186.23,186.23,0,0,1,10.8,19l-.2.1c-4.3-5.9-8.4-11.9-12.4-17.9l-5.9-9.1c-2-3-4-6.1-5.9-9.2s-4-6.1-6.2-9-4.6-5.6-6.9-8.5-4.4-5.8-6.5-8.7L184,150a16.32,16.32,0,0,0-1.7-2,8,8,0,0,0-2.1-1.5,3.11,3.11,0,0,0-2.5,0Z" transform="translate(-96.2 -82.5)"/><path d="M235.7,194.1c.4-1.8.9-3.6,1.4-5.4s1.2-3.5,1.8-5.3,1.3-3.5,2-5.2a45.9,45.9,0,0,1,2.4-5l2.7-4.9c1-1.6,1.9-3.2,2.8-4.8l2.7-4.8c.9-1.6,1.8-3.2,2.7-4.9s1.8-3.2,2.8-4.8,2-3.1,3-4.7l3.2-4.6c1.1-1.5,2.3-3,3.4-4.4a117.22,117.22,0,0,1,15.6-15.9l.1.1c-4.8,5.6-9.6,11.3-14.1,17.1-1.1,1.5-2.2,2.9-3.4,4.3l-3.3,4.4c-1.1,1.5-2.2,3-3.2,4.5s-2.1,3-3.2,4.5-2.1,3.1-3,4.6-1.9,3.2-2.7,4.8-1.6,3.3-2.4,5l-2.2,5.1L235.9,194Z" transform="translate(-96.2 -82.5)"/><path d="M237,179.2c-.3-1.5-.5-3-.7-4.5s-.6-3-.8-4.5c-.4-1.5-.7-3-1-4.4s-.8-2.9-1.2-4.4L232,157c-.5-1.4-1-2.9-1.6-4.3s-1.4-2.7-2.1-4.1-1.7-2.5-2.5-3.8-1.9-2.4-2.8-3.6-2-2.3-2.9-3.5l-3.1-3.3c-1.1-1-2.2-2.1-3.3-3.1a92.45,92.45,0,0,0-14.6-10.9l.1-.2a49.2,49.2,0,0,1,16,9.5c1.1,1.1,2.3,2.1,3.4,3.2l3.1,3.5c.9,1.2,1.9,2.5,2.8,3.7s1.6,2.6,2.4,4,1.4,2.7,2.2,4.1,1.4,2.8,2.1,4.1,1.3,2.8,2,4.2l1.8,4.3c.5,1.5.9,3,1.3,4.5s.6,3.1.8,4.6.3,3.1.4,4.6-.1,3.1-.2,4.6Z" transform="translate(-96.2 -82.5)"/><path d="M194.5,176.6a17.38,17.38,0,0,0-1.3,1.5l-.6.7-.3.3c-.1.1-.2.3-.1.1s0,0,.1.1.1.2.2.3a3,3,0,0,0,.5.7,7.55,7.55,0,0,0,1.1,1.4c1.5,1.9,3.2,3.7,4.7,5.7a51.81,51.81,0,0,0,4.7,5.8,33.15,33.15,0,0,0,2.7,2.6,28.33,28.33,0,0,0,2.8,2.3l-1,.3a2.63,2.63,0,0,0-.1-1.2,8.43,8.43,0,0,0-.6-1.4,20.07,20.07,0,0,0-1.7-2.7c-1.2-1.8-2.6-3.5-3.9-5.3s-2.6-3.6-3.8-5.4c-.6-.9-1.2-1.9-1.8-2.8a10.93,10.93,0,0,1-.8-1.5A3.68,3.68,0,0,1,194.5,176.6Zm0-.2a15,15,0,0,0,1.1,1.3l1.1,1.2,2.2,2.5c1.5,1.7,2.9,3.3,4.3,5.1A41.39,41.39,0,0,1,207,192a30.13,30.13,0,0,1,1.6,3.1,8.45,8.45,0,0,1,.5,1.7,3.83,3.83,0,0,1-.1,2.1l-.4.8-.6-.5a18.48,18.48,0,0,1-1.4-1.4l-1.2-1.4-2.5-2.8c-1.7-1.8-3.6-3.4-5.4-5.2a44.81,44.81,0,0,1-4.8-5.8,14,14,0,0,1-1-1.6,3.55,3.55,0,0,1-.4-.9c-.1-.2-.1-.3-.2-.5a2.08,2.08,0,0,1,0-.8c0-.2.3-.4.3-.4l.2-.2.4-.3.8-.5Z" transform="translate(-96.2 -82.5)"/><path d="M241.3,192.7a25.74,25.74,0,0,1,5.4-8.4,30.16,30.16,0,0,1,8-6.2,62.58,62.58,0,0,1,9.3-3.8c3.2-1.1,6.3-2,9.6-2.8a65.89,65.89,0,0,1,9.9-1.6,66.77,66.77,0,0,1,10-.1,71.22,71.22,0,0,1,19.5,4v.2a164.81,164.81,0,0,0-19.6-2c-3.3-.1-6.5-.2-9.8-.1s-6.5.4-9.8.8a39.74,39.74,0,0,0-9.6,2.4,44.31,44.31,0,0,0-8.6,4.6,62.83,62.83,0,0,0-7.7,5.9,45.37,45.37,0,0,0-6.4,7.4Z" transform="translate(-96.2 -82.5)"/><path d="M256.3,171.5c.7-1.3,1.4-2.5,2.2-3.7s1.7-2.3,2.5-3.5a49.26,49.26,0,0,1,5.9-6.2c1.1-.9,2.3-1.8,3.4-2.6.6-.4,1.2-.8,1.7-1.2l1.7-1.2c1.1-.8,2.3-1.6,3.4-2.5l3.4-2.5c1.2-.8,2.3-1.6,3.5-2.4s2.4-1.5,3.7-2.2l3.7-2.1c1.3-.7,2.5-1.3,3.8-1.9a144.41,144.41,0,0,1,15.8-6.3l.1.2c-4.9,2.9-9.9,5.5-14.9,8l-7.6,3.7-7.5,3.9c-1.2.7-2.5,1.4-3.6,2.1s-2.3,1.6-3.4,2.5a67.22,67.22,0,0,0-6.1,5.8c-1,1-2,2-2.9,3l-1.4,1.5-1.5,1.5-2.8,3.1a41.21,41.21,0,0,1-2.8,3.1Z" transform="translate(-96.2 -82.5)"/><path d="M328.6,172.1c.4-1,.9-1.9,1.4-2.9s1.1-1.8,1.7-2.7,1.3-1.7,1.9-2.6,1.4-1.6,2.2-2.4l2.4-2.1c.8-.6,1.7-1.3,2.5-2s1.6-1.3,2.4-2.1l2.4-2.1a24.33,24.33,0,0,1,2.5-2c.9-.6,1.7-1.2,2.6-1.8l2.7-1.7c.9-.5,1.9-1,2.9-1.5a40.18,40.18,0,0,1,12.3-3.4v.2q-5.85,2.4-11.4,5.1c-.9.5-1.8.9-2.8,1.4l-2.8,1.4-2.7,1.5c-.9.5-1.8,1-2.7,1.6s-1.8,1.1-2.6,1.7-1.6,1.3-2.4,2-1.4,1.5-2.1,2.3-1.3,1.6-2,2.4l-8.1,9.5Z" transform="translate(-96.2 -82.5)"/><path d="M354.3,188.9a17,17,0,0,1,3-2.3,14.68,14.68,0,0,1,3.4-1.5c1.2-.3,2.5-.4,3.7-.8a24.81,24.81,0,0,0,3.5-1.3c.6-.2,1.2-.5,1.7-.7a12.09,12.09,0,0,1,1.8-.5c1.2-.3,2.4-.6,3.7-.8a21.05,21.05,0,0,1,7.5.3v.2a62,62,0,0,1-7.2,1.6l-1.8.3-1.8.2c-1.2.2-2.4.3-3.6.4a15.53,15.53,0,0,0-3.6.8,32.39,32.39,0,0,0-3.2,1.7,8.65,8.65,0,0,1-1.7.7c-.6.2-1.1.4-1.7.6s-1.1.4-1.7.6-1.2.3-1.8.5Z" transform="translate(-96.2 -82.5)"/><path d="M350.9,207.1c1.6-.2,3.3-.3,4.9-.4l4.8-.6c1.6-.3,3.2-.5,4.8-.8l4.8-.9,4.8-.8c1.6-.3,3.2-.6,4.8-1s3.1-.9,4.7-1.4,3.1-1.1,4.6-1.6,3.1-1.1,4.6-1.6,3.1-1,4.7-1.4l4.8-1.3c1.6-.4,3.2-.7,4.8-1a54.36,54.36,0,0,1,19.7-.1v.2a88.43,88.43,0,0,0-19.3,2l-4.8,1-4.8,1.1c-3.2.8-6.3,1.5-9.5,2.3s-6.4,1.5-9.5,2.5c-1.6.5-3.1,1-4.7,1.5l-4.7,1.4c-1.6.4-3.2.7-4.8,1l-4.9.6c-1.7.1-3.3.1-5,.1s-3.3-.2-4.9-.4Z" transform="translate(-96.2 -82.5)"/><path d="M384.8,195a17.37,17.37,0,0,1,2.4-3.6,21.3,21.3,0,0,1,2.9-3.1c1.1-.9,2.4-1.7,3.4-2.6a21.27,21.27,0,0,0,3-3c.5-.5,1-1.1,1.5-1.6s1-1,1.6-1.5a27.82,27.82,0,0,1,3.3-2.7,32.61,32.61,0,0,1,7.6-4.1l.1.2a55.78,55.78,0,0,1-6.4,5.6c-1.1.9-2.3,1.7-3.4,2.5s-2.3,1.6-3.5,2.4a21.58,21.58,0,0,0-3.3,2.7c-1,1-1.8,2.2-2.7,3.3-.5.5-.9,1.1-1.4,1.5l-1.5,1.5a29.73,29.73,0,0,1-3.3,2.7Z" transform="translate(-96.2 -82.5)"/><path d="M388,212.7a18.89,18.89,0,0,1,2.5,1.1l2.4,1.5c.7.6,1.5,1.1,2.2,1.7s1.3,1.3,2,2,1.1,1.5,1.7,2.2,1,1.5,1.6,2.3,1.1,1.5,1.6,2.2a18.39,18.39,0,0,0,1.7,2.2c.5.8,1.1,1.5,1.6,2.3s.9,1.6,1.3,2.4l1.2,2.5c.3.9.6,1.7.9,2.6a29.3,29.3,0,0,1,1.1,11h-.2c-.9-3.6-1.8-7-2.9-10.4-.3-.8-.6-1.7-.9-2.5l-.9-2.5a18.61,18.61,0,0,1-1-2.5c-.4-.8-.7-1.6-1.1-2.5s-.8-1.6-1.3-2.4a17.68,17.68,0,0,0-1.6-2.2,17,17,0,0,0-1.9-1.9c-.7-.6-1.4-1.2-2-1.8s-1.3-1.2-2-1.8-1.3-1.2-2-1.8-1.3-1.2-2-1.8-1.4-1.2-2-1.8Z" transform="translate(-96.2 -82.5)"/><path d="M341,226.5c9-.9,17.9-1.5,26.9-2.1l13.5-.8,6.7-.4a26.69,26.69,0,0,1,6.9.1,7.81,7.81,0,0,1,3.4,1.7,4.69,4.69,0,0,1,1.5,3.5,7.63,7.63,0,0,1-3.3,6.2,29.63,29.63,0,0,1-6.1,3.2c-2.1.9-4.2,1.7-6.3,2.5a113.81,113.81,0,0,1-12.9,4.1,120.5,120.5,0,0,1-13.3,2.7l.3-1.1c4,2.7,8,5.5,12,8.3l11.9,8.4a30,30,0,0,1,3,2.3,6.91,6.91,0,0,1,2.2,3.6,4.54,4.54,0,0,1-1.5,4.2,7.75,7.75,0,0,1-3.9,1.6,13.46,13.46,0,0,1-4-.2c-1.3-.3-2.4-.6-3.5-.9-2.2-.5-4.6-.6-5.9.8l.2-1.1,7.8,19.3.6,1.6-1.6-.6a50,50,0,0,1-18.8-13.3l.1-.1a51.48,51.48,0,0,0,19.2,12l-.9,1L367,274l-.3-.6.5-.5a5.94,5.94,0,0,1,1.8-1.3,8,8,0,0,1,2.1-.5,16.26,16.26,0,0,1,3.9.3c1.2.2,2.5.6,3.5.8a9.16,9.16,0,0,0,3.3.1,5,5,0,0,0,2.8-1.1,2.29,2.29,0,0,0,.7-1,2.77,2.77,0,0,0,.1-1.3,4.66,4.66,0,0,0-1.6-2.5c-.8-.8-1.8-1.4-2.7-2.2l-11.7-8.6-11.7-8.7-1.2-.9,1.5-.2a117.22,117.22,0,0,0,13.2-2.2,94.92,94.92,0,0,0,12.8-4c2.1-.8,4.1-1.7,6.2-2.6a26.55,26.55,0,0,0,5.7-3.3,9.14,9.14,0,0,0,2-2.4,5.08,5.08,0,0,0,.6-2.9,3.72,3.72,0,0,0-1.2-2.5,5.68,5.68,0,0,0-2.6-1.2,28.25,28.25,0,0,0-6.5,0l-6.7.4L368,226c-9,.3-18,.7-27,.8Z" transform="translate(-96.2 -82.5)"/><path d="M310.3,277.8a59.19,59.19,0,0,1,9.4,5.5c1.5,1.1,2.9,2.1,4.3,3.3s2.7,2.5,4,3.7c2.6,2.6,5.3,4.9,8,7.3,1.4,1.2,2.7,2.4,4,3.6s2.5,2.6,3.8,3.9l-1-.3a6.58,6.58,0,0,0,3.7-2.9,11.51,11.51,0,0,0,1.7-4.8,16.64,16.64,0,0,0-.4-5.4c-.4-1.8-.9-3.6-1.3-5.5l.2-.1a34.29,34.29,0,0,1,2.3,5.2,16.09,16.09,0,0,1,1,5.8,10.9,10.9,0,0,1-1.7,5.8,9.3,9.3,0,0,1-2.1,2.3,11.08,11.08,0,0,1-2.9,1.4l-.6.1-.4-.4c-1.2-1.4-2.3-2.7-3.5-4l-3.5-4.1a49.59,49.59,0,0,0-7.9-7.3l-2.2-1.6c-.7-.5-1.5-1-2.2-1.6-1.5-1-2.9-2.2-4.3-3.3-2.8-2.2-5.7-4.4-8.4-6.7Z" transform="translate(-96.2 -82.5)"/><path d="M265,260.2c1.6,1.6,3.3,3.2,4.9,4.9s3,3.5,4.5,5.3,2.7,3.7,4.1,5.6,2.5,3.9,3.7,5.9l3.2,6.2c.9,2.1,1.9,4.2,2.9,6.3s1.8,4.2,2.8,6.3c.8,2.1,1.8,4.2,2.7,6.4s1.6,4.3,2.4,6.5,1.3,4.4,2,6.6l1.6,6.7c.4,2.3.8,4.6,1.2,6.8a106.29,106.29,0,0,1,.2,27.6H301a190.79,190.79,0,0,0-2.1-27.3c-.4-2.2-.8-4.5-1.1-6.7l-1.4-6.7c-.6-2.2-1.1-4.4-1.7-6.6s-1.3-4.4-1.9-6.6c-.8-2.2-1.5-4.3-2.3-6.5s-1.8-4.2-2.8-6.3l-3.3-6-3.6-5.8c-1.3-1.9-2.5-3.8-3.7-5.8l-3.9-5.7c-1.4-1.8-2.7-3.7-4-5.5s-2.8-3.6-4.2-5.5Z" transform="translate(-96.2 -82.5)"/><path d="M304.1,325.7a27.55,27.55,0,0,1,2.9,1.7c.9.6,1.8,1.3,2.7,2a40.8,40.8,0,0,1,4.8,4.8c.7.9,1.4,1.8,2,2.7s1.3,1.9,1.9,2.8,1.3,1.8,2,2.7,1.4,1.8,2,2.7,1.3,1.8,2,2.8,1.2,1.9,1.7,2.9l1.6,3c.5,1,.9,2.1,1.4,3.1a46,46,0,0,1,3,13.2h-.2c-1.5-4.2-3-8.4-4.7-12.4-.4-1-.9-2-1.3-3l-1.4-3-1.5-3-1.5-3c-.6-1-1.1-1.9-1.7-2.9s-1.3-1.8-2-2.7-1.5-1.7-2.3-2.5-1.6-1.5-2.4-2.3l-9.4-9.5Z" transform="translate(-96.2 -82.5)"/><path d="M291.6,283.5c1.8,1,3.7,2.1,5.5,3.2s3.6,2.1,5.4,3.2l5.4,3.3,5.4,3.3c3.5,2.3,7,4.6,10.7,6.7,1.8,1,3.7,2,5.6,3l5.7,2.7,11.5,5.2,11.5,5,23.1,10.1-.1.2a204.75,204.75,0,0,1-23.9-8.3c-1.9-.8-3.9-1.7-5.8-2.6l-5.7-2.7c-1.9-.9-3.8-1.9-5.6-2.9s-3.7-2-5.5-3-3.7-2.1-5.5-3.1-3.7-2-5.5-3-3.7-1.9-5.6-2.9l-5.6-2.9c-1.8-1-3.6-2.1-5.4-3.2s-3.5-2.3-5.3-3.5-3.5-2.4-5.2-3.6-3.4-2.6-5-3.9Z" transform="translate(-96.2 -82.5)"/><path d="M344.1,318.6a31.91,31.91,0,0,1,2.3,4.5,38,38,0,0,1,1.8,4.7c.5,1.6.7,3.3,1.3,4.9a27.17,27.17,0,0,0,2.1,4.6c.9,1.4,1.7,2.9,2.6,4.3s1.8,2.7,2.8,4a36.85,36.85,0,0,0,3.2,3.7,29.24,29.24,0,0,0,3.8,3.2l-.1.2a13.51,13.51,0,0,1-4.7-2.2,18.48,18.48,0,0,1-3.8-3.6,25.22,25.22,0,0,1-2.8-4.4,24,24,0,0,1-1.1-2.3l-.9-2.4c-.5-1.6-1.1-3.2-1.7-4.8s-1.5-3-2.2-4.6a33.89,33.89,0,0,1-1.7-4.8,27.84,27.84,0,0,1-1.1-5Z" transform="translate(-96.2 -82.5)"/><path d="M191.9,316.9c.9-1.6,1.9-3.2,2.8-4.7,1.1-1.5,2.2-3,3.3-4.4s2.4-2.8,3.6-4.1,2.6-2.6,4-3.8,2.8-2.3,4.3-3.5,2.9-2.2,4.4-3.3,2.9-2.2,4.3-3.4,2.9-2.3,4.3-3.4c2.9-2.3,5.8-4.5,8.8-6.6s6-4.2,9-6.2c6.1-4,12.2-7.9,18.4-11.8l.1.2a160.73,160.73,0,0,1-17.3,13.5c-3,2.1-6.1,4-9.1,6-1.5,1-3,2-4.6,3s-3.1,2-4.6,2.9-3,2-4.5,3.1-2.9,2.2-4.3,3.3-2.7,2.4-4,3.7l-3.9,3.8c-1.3,1.3-2.5,2.6-3.8,3.8s-2.5,2.6-3.7,3.9-2.4,2.7-3.6,4.1-2.3,2.8-3.5,4.2Z" transform="translate(-96.2 -82.5)"/><path d="M164.8,293.8a38.17,38.17,0,0,1,5.5-2.4,40.5,40.5,0,0,1,5.7-1.6c1-.2,2-.3,3-.4s2-.2,3-.4a37.72,37.72,0,0,0,5.8-1.4c1-.2,1.9-.5,2.9-.7s2-.4,2.9-.6l2.9-.5c1-.1,2-.2,3-.4a59.05,59.05,0,0,1,11.9.2v.2c-3.9.8-7.8,1.2-11.7,1.7l-5.9.6c-2,.2-3.9.4-5.9.5l-2.9.3-2.9.6c-1.9.5-3.8,1.2-5.6,1.8-.9.3-1.9.6-2.8.8s-1.9.5-2.9.7l-2.9.6a26.8,26.8,0,0,1-3,.5Z" transform="translate(-96.2 -82.5)"/><path d="M174.3,254.7c1.5.1,2.9.2,4.3.4s2.9.3,4.3.5l4.3.6c1.4.2,2.8.4,4.2.7,2.8.6,5.6,1.3,8.5,1.7,1.4.2,2.8.4,4.3.5l4.3.3c2.9.1,5.7.2,8.6.4s5.7.3,8.6.5c5.7.4,11.4.9,17.2,1.6v.2a124.91,124.91,0,0,1-17.3.3l-4.3-.3-4.3-.4c-1.4-.2-2.9-.3-4.3-.5s-2.9-.5-4.3-.7c-2.8-.5-5.7-.9-8.6-1.2a31.08,31.08,0,0,0-4.3-.3l-4.3-.4a79.27,79.27,0,0,1-8.5-1.4,86.65,86.65,0,0,1-8.4-2.2Z" transform="translate(-96.2 -82.5)"/><path d="M268.5,256.8c2.3-.6,4.6-1.2,6.8-1.8s4.6-.9,7-1.3l7-.9c2.4-.2,4.7-.3,7.1-.4l7.1.1c2.4.1,4.7.3,7.1.3,2.4.2,4.7.3,7.1.4s4.7.3,7.1.5,4.7.4,7.1.7,4.7.7,7,1.1l6.9,1.5,6.9,1.8a119.77,119.77,0,0,1,26,11.1l-.1.2a232.33,232.33,0,0,0-26.6-9.2l-6.8-1.8-6.8-1.6c-2.3-.4-4.6-.9-6.9-1.4l-6.9-1.2-7-.9c-2.3-.2-4.7-.3-7-.4s-4.7.1-7,.1l-7,.5c-2.3.2-4.7.4-7,.5s-4.7.5-7,.7-4.6.6-7,.8-4.6.7-7,1Z" transform="translate(-96.2 -82.5)"/><path d="M310.8,258.9a35.68,35.68,0,0,1,4.6,4,59.25,59.25,0,0,1,4.1,4.5c1.2,1.6,2.3,3.4,3.6,5a57.24,57.24,0,0,0,4,4.6c.7.7,1.4,1.5,2.1,2.2l2,2.3,1.9,2.4,1.8,2.4a61.49,61.49,0,0,1,6,10.6l-.2.1a117.08,117.08,0,0,1-7.6-9.5c-1.2-1.6-2.3-3.3-3.5-4.9s-2.3-3.3-3.4-5c-.6-.8-1.1-1.7-1.7-2.5a21.1,21.1,0,0,0-1.9-2.3c-1.3-1.5-2.9-2.8-4.3-4.3-.7-.7-1.4-1.5-2-2.2s-1.3-1.5-1.9-2.3c-1.3-1.6-2.5-3.1-3.7-4.9Z" transform="translate(-96.2 -82.5)"/><path d="M282.3,247.5l3.3-3c1.1-1,2.2-2,3.4-2.9s2.3-1.9,3.4-2.8,2.3-1.9,3.5-2.8c2.4-1.8,4.8-3.5,7.1-5.4l3.3-3c1.1-1,2.1-2.1,3.1-3.2,2-2.2,4.1-4.3,6.2-6.4s4.1-4.3,6.2-6.4c4.2-4.2,8.3-8.4,12.7-12.5l.2.1a124.75,124.75,0,0,1-11.3,13.9c-1,1.1-2.1,2.1-3.1,3.2l-3.2,3.1-3.3,3c-1.1,1-2.3,1.9-3.4,2.9-2.3,1.9-4.6,3.8-6.8,5.8-1.1,1-2.2,2-3.2,3.1l-3.2,3.1c-2.2,2-4.6,3.8-7,5.6s-4.9,3.4-7.5,4.9Z" transform="translate(-96.2 -82.5)"/><path class="a" d="M304.6,180.7c1.4-3.2,5.1-5,8.7-5s6.9,1.2,10.2,2.4a29.51,29.51,0,0,0-24.3-19c5.7-1.1,10.7-5.1,15.5-8.3a127.63,127.63,0,0,0,17-13.3c.6-.5,1.2-1.2,1-1.9a2.11,2.11,0,0,0-1.4-1.2c-3-1.3-6.7-3.7-9.9-4.2-2.6-.5-5.7,1.4-8.5,1.5-.7,0-3.4.2-3.8-.7-.6-1.3,2.5-2,3.5-2.2a14.68,14.68,0,0,1,5.8-.7c2,.2,4.5-.1,5.9-1.7-8.3-5.5-21.4-5.2-30.5-2.1" transform="translate(-96.2 -82.5)"/><path class="a" d="M290.7,228.4c8.1-9.5,15.4-19.7,24.6-28.2s20.5-15.3,32.9-16.2c1-.1,2.2-.1,2.8.7.8,1,.2,2.5-.4,3.6L335,218" transform="translate(-96.2 -82.5)"/><path d="M207.4,246.1q6.75.75,13.5,1.8c4.5.6,9,1.4,13.5,2,4.5.8,9,1.5,13.5,2.3,2.2.4,4.5.9,6.7,1.2a5.82,5.82,0,0,0,3.2-.4,3.25,3.25,0,0,0,1.9-2.6,3.09,3.09,0,0,1-1.7,2.8,5.75,5.75,0,0,1-3.4.6c-2.3-.2-4.5-.6-6.8-.9-4.5-.6-9-1.4-13.5-2-4.5-.8-9-1.5-13.5-2.3S211.9,247,207.4,246.1Z" transform="translate(-96.2 -82.5)"/><path d="M154.7,176.5a36.52,36.52,0,0,1-3.4-1.8,11.75,11.75,0,0,1-3-2.5c-.8-1-1.6-2.1-2.4-3a11.56,11.56,0,0,0-2.8-2.6l.3-.4c3.1,2,6.3,3.7,9.6,5.4s6.6,3.2,10,4.6l2.5,1.1c.8.4,1.7.5,2.6.9a2.65,2.65,0,0,1,.6.5,1,1,0,0,1,.2.9,1.16,1.16,0,0,1-.5.7,1.08,1.08,0,0,1-.7.3,6.58,6.58,0,0,1-2.8-.4A56.82,56.82,0,0,1,154.7,176.5Zm0,0a43,43,0,0,0,10.5,3.4,5.86,5.86,0,0,0,2.6.2,1,1,0,0,0,.8-.7c.1-.3-.2-.6-.6-.7-.8-.4-1.7-.4-2.6-.8s-1.7-.6-2.6-.9a91.3,91.3,0,0,1-10.1-4.5,92.76,92.76,0,0,1-9.5-5.8l.3-.4a11.89,11.89,0,0,1,2.7,2.8,36.17,36.17,0,0,1,2.2,3.2,9.89,9.89,0,0,0,2.9,2.5A35.92,35.92,0,0,0,154.7,176.5Z" transform="translate(-96.2 -82.5)"/><path d="M375.3,167.1a61.53,61.53,0,0,1,11.3-1.6,62.27,62.27,0,0,1,11.4.6,60.17,60.17,0,0,1,11.1,2.8l2.7,1,2.6,1.1,2.5,1.3c.8.5,1.6.9,2.5,1.4-.9-.4-1.7-.8-2.6-1.2l-2.6-1.1-2.6-1-2.7-.9a67.51,67.51,0,0,0-11-2.5,84.53,84.53,0,0,0-11.2-.9C382.8,166.3,379.1,166.6,375.3,167.1Z" transform="translate(-96.2 -82.5)"/></svg>