<svg xmlns="http://www.w3.org/2000/svg" xmlns:xlink="http://www.w3.org/1999/xlink" viewBox="0 0 479 378.08"><defs><style>.a{isolation:isolate;}.b{mix-blend-mode:multiply;}.c{fill:#fff;}.d{fill:#f8f8f8;}.e{fill:#f2f2f2;}.f{fill:#ebebeb;}.g{fill:#e5e5e5;}.h{fill:#dedede;}.i{fill:#d8d8d8;}.j{fill:#d1d1d1;}.k{fill:#cacaca;}.l{fill:#c4c4c4;}.m{fill:#bdbdbd;}.n{fill:#b7b7b7;}.o{fill:#b0b0b0;}.p{fill:#a9a9a9;}.q{fill:#a3a3a3;}.r{fill:#9c9c9c;}.s{fill:#969696;}.t{fill:#8f8f8f;}.u{fill:#898989;}.v{fill:#828282;}.w{fill:#7b7b7b;}.x{fill:#757575;}.y{fill:#6e6e6e;}.z{fill:#686868;}.aa{fill:#616161;}.ab{fill:#5a5a5a;}.ac{fill:#545454;}.ad{fill:#4d4d4d;}.ae{fill:#474747;}.af{fill:#404040;}.ag{fill:#3a3a3a;}.ah{fill:#333;}.ai{opacity:0.9;}.aj{fill:url(#a);}</style><linearGradient id="a" x1="239.5" y1="348.6" x2="239.5" gradientUnits="userSpaceOnUse"><stop offset="0" stop-color="#f2f2f2"/><stop offset="1" stop-color="#e6e6e6"/></linearGradient></defs><title>tornpaper02</title><g class="a"><g class="b"><path class="c" d="M479,366h-3.47a63.12,63.12,0,0,0-8.36.07c-24.53,11.5-44.34,10.38-68.13,2-32.86-19.71-53,2.74-77.45,10-15.26-1.19-26.73-16.53-41.47-18.38-39.26-1.45-77.62,18.38-121.75,9.35-34.32-20.57-67.28-18-98.27-1.27a101.17,101.17,0,0,1-14.53,2.07A123.83,123.83,0,0,1,16,367.7c-4.51-.8-8.62-1.29-12.4-1.64L0,366,0,11H479Z"/><path class="d" d="M479,365.65s-1.2.06-3.47,0a77.85,77.85,0,0,0-8.36.07c-24.48,11.35-44.33,10-68.1,1.74-32.73-19.29-53.07,3-77.66,10-15.28-1.19-26.71-17-41.59-18.14-39-2.9-77.33,18.3-121.17,9.21-34.54-20.33-67.82-17.71-99.15-1.14a102.47,102.47,0,0,1-14.36,2,124.3,124.3,0,0,1-29.21-2.06,106.36,106.36,0,0,0-12.33-1.6A35.72,35.72,0,0,0,0,365.65l0-355H479Z"/><path class="e" d="M479,365.29s-1.2.07-3.47,0a83.41,83.41,0,0,0-8.36.07c-24.44,11.21-44.33,9.64-68.07,1.49C366.49,348,346,370,321.23,376.78c-15.3-1.18-26.76-16.89-41.7-17.9-38.91-2.63-77.06,18.22-120.6,9.07-34.76-20.08-68.36-17.38-100-1a103.78,103.78,0,0,1-14.19,2,124.62,124.62,0,0,1-28.84-2,108.58,108.58,0,0,0-12.28-1.56A33.12,33.12,0,0,0,0,365.3l0-355H479Z"/><path class="f" d="M479,364.94s-1.2.06-3.47,0a80.51,80.51,0,0,0-8.36.06c-24.4,11.07-44.32,9.27-68,1.23-32.48-18.47-53.2,3.35-78.08,9.9-15.33-1.17-26.81-16.74-41.82-17.66-38.78-2.37-76.78,18.15-120,8.93-35-19.84-68.89-17.06-100.91-.89a103.11,103.11,0,0,1-14,1.91,125.15,125.15,0,0,1-28.48-1.91A113.73,113.73,0,0,0,3.59,365c-2.35-.12-3.57-.05-3.57-.05l0-355H479Z"/><path class="g" d="M479,364.58s-1.2.07-3.47,0a83.19,83.19,0,0,0-8.35.07c-24.36,10.91-44.33,8.9-68,1-32.36-18.07-53.26,3.55-78.29,9.87-15.35-1.17-26.85-16.61-41.93-17.43-38.66-2.1-76.5,18.07-119.46,8.79-35.18-19.59-69.43-16.74-101.79-.77A104.58,104.58,0,0,1,43.85,368a126.39,126.39,0,0,1-28.12-1.83,113.37,113.37,0,0,0-12.15-1.48A33,33,0,0,0,0,364.59l0-355H479Z"/><path class="h" d="M479,364.23s-1.2.06-3.47,0a80.32,80.32,0,0,0-8.35.06c-24.32,10.77-44.32,8.54-68,.71-32.23-17.65-53.33,3.75-78.5,9.84-15.38-1.16-26.9-16.46-42-17.19-38.54-1.84-76.23,18-118.89,8.65-35.4-19.35-70-16.41-102.67-.64a106.31,106.31,0,0,1-13.67,1.81,127.05,127.05,0,0,1-27.76-1.75,116.48,116.48,0,0,0-12.08-1.44c-2.34-.12-3.56,0-3.56,0l0-355H479Z"/><path class="i" d="M479,363.87s-1.2.07-3.47,0c-2.76-.08-5.53-.13-8.35.06-24.27,10.63-44.32,8.17-68,.45-32.11-17.24-53.39,4-78.71,9.81-15.4-1.15-26.95-16.32-42.16-16.95-38.4-1.59-75.94,17.92-118.31,8.51-35.61-19.11-70.51-16.09-103.55-.52A106.31,106.31,0,0,1,43,367a127.84,127.84,0,0,1-27.4-1.67c-4.31-.66-8.29-1.21-12-1.4-2.35-.11-3.56,0-3.56,0l0-355H479Z"/><path class="j" d="M479,363.52s-1.2.06-3.47,0a80.32,80.32,0,0,0-8.35.06c-24.23,10.48-44.31,7.8-67.93.19-32-16.84-53.45,4.16-78.92,9.77-15.43-1.14-27-16.18-42.27-16.71-38.28-1.33-75.67,17.84-117.74,8.37-35.83-18.86-71-15.77-104.43-.39a110.19,110.19,0,0,1-13.33,1.71,129.25,129.25,0,0,1-27-1.59c-4.28-.64-8.24-1.18-12-1.36-2.34-.12-3.56-.05-3.56-.05V8.52H479Z"/><path class="k" d="M479,363.16s-1.2.07-3.47,0c-2.76-.08-5.53-.13-8.35.06-24.19,10.33-44.3,7.43-67.9-.07-31.86-16.42-53.52,4.36-79.13,9.74-15.45-1.14-27-16-42.39-16.47-38.14-1.08-75.39,17.77-117.16,8.23-36-18.62-71.59-15.44-105.32-.27A107.9,107.9,0,0,1,42.13,366a130.31,130.31,0,0,1-26.67-1.51c-4.25-.62-8.19-1.14-11.89-1.32-2.34-.11-3.56,0-3.56,0V8.16H479Z"/><path class="l" d="M479,362.81s-1.2.07-3.47,0a83,83,0,0,0-8.34.05c-24.15,10.19-44.31,7.07-67.87-.32-31.74-16-53.59,4.56-79.35,9.71-15.48-1.14-27.09-15.9-42.5-16.24-38-.83-75.11,17.69-116.6,8.09C124.62,345.73,88.74,349,54.68,364a109.83,109.83,0,0,1-13,1.61,131.41,131.41,0,0,1-26.31-1.44c-4.21-.59-8.13-1.1-11.83-1.28-2.33-.11-3.55,0-3.55,0V7.81H479Z"/><path class="m" d="M479,362.45s-1.2.07-3.47,0c-2.76-.08-5.53-.13-8.34.05-24.11,10.05-44.3,6.71-67.84-.58-31.61-15.6-53.65,4.77-79.56,9.68-15.5-1.13-27.13-15.76-42.61-16-37.89-.58-74.84,17.61-116,7.95-36.47-18.13-72.67-14.8-107.07,0a112.4,112.4,0,0,1-12.8,1.55,133.53,133.53,0,0,1-26-1.35c-4.18-.57-8.08-1.08-11.76-1.25-2.33-.1-3.55,0-3.55,0V7.45H479Z"/><path class="n" d="M479,362.1s-1.2.07-3.47,0a83,83,0,0,0-8.34,0c-24.07,9.9-44.3,6.33-67.81-.84-31.49-15.2-53.72,5-79.77,9.64-15.52-1.12-27.18-15.62-42.73-15.76-37.75-.34-74.56,17.54-115.45,7.81-36.69-17.88-73.21-14.47-108,.11a115,115,0,0,1-12.63,1.51,135,135,0,0,1-25.6-1.28c-4.14-.55-8-1-11.69-1.2-2.33-.11-3.55,0-3.55,0V7.1H479Z"/><path class="o" d="M479,361.74s-1.2.07-3.47,0c-2.76-.08-5.53-.13-8.34.05-24,9.75-44.29,6-67.78-1.1-31.36-14.78-53.78,5.17-80,9.61-15.55-1.11-27.22-15.47-42.84-15.52-37.62-.1-74.28,17.46-114.88,7.67C124.8,344.81,88,348.3,52.87,362.69a117.62,117.62,0,0,1-12.45,1.45,135.54,135.54,0,0,1-25.23-1.2c-4.12-.52-8-1-11.64-1.16-2.32-.1-3.54,0-3.54,0V6.74H479Z"/><path class="p" d="M479,361.39s-1.2.07-3.47,0c-2.76-.09-5.53-.14-8.34,0-24,9.61-44.29,5.6-67.75-1.35-31.24-14.38-53.84,5.36-80.19,9.58-15.57-1.11-27.26-15.34-43-15.29-37.48.14-74,17.38-114.3,7.53-37.12-17.4-74.29-13.82-109.72.36A118.13,118.13,0,0,1,40,363.67a139.11,139.11,0,0,1-24.87-1.12c-4.08-.5-7.92-1-11.57-1.13-2.33-.1-3.54,0-3.54,0V6.39H479Z"/><path class="q" d="M479,361s-1.2.07-3.47,0c-2.76-.08-5.53-.13-8.34.05-23.93,9.46-44.28,5.23-67.72-1.62-31.11-14-53.91,5.57-80.4,9.55-15.6-1.1-27.31-15.2-43.07-15.05-37.35.38-73.72,17.31-113.73,7.39-37.34-17.15-74.83-13.5-110.6.49a121.41,121.41,0,0,1-12.11,1.35,141.16,141.16,0,0,1-24.51-1c-4.05-.48-7.86-.93-11.51-1.08C1.22,361,0,361,0,361V6H479Z"/><path class="r" d="M479,360.68s-1.2.07-3.47,0c-2.76-.09-5.53-.14-8.33,0-23.9,9.32-44.29,4.86-67.7-1.87-31-13.56-54,5.77-80.61,9.51-15.62-1.1-27.35-15.07-43.18-14.81-37.22.62-73.45,17.23-113.16,7.25-37.56-16.91-75.37-13.18-111.48.61-3.77.58-7.75,1.07-11.94,1.3a142.45,142.45,0,0,1-24.15-1c-4-.45-7.81-.89-11.44-1-2.32-.1-3.53,0-3.53,0V5.68H479Z"/><path class="s" d="M479,360.32s-1.2.07-3.47,0c-2.76-.08-5.53-.13-8.33,0-23.86,9.18-44.28,4.5-67.67-2.13-30.86-13.15-54,6-80.82,9.48-15.65-1.09-27.39-14.93-43.3-14.57-37.08.85-73.17,17.16-112.59,7.11-37.76-16.66-75.9-12.85-112.36.74-3.72.55-7.64,1-11.76,1.25a147.19,147.19,0,0,1-23.79-.88c-4-.43-7.75-.86-11.37-1-2.32-.09-3.53,0-3.53,0V5.32H479Z"/><path class="t" d="M479,360s-1.2.07-3.47,0c-2.76-.09-5.53-.14-8.33,0-23.81,9-44.28,4.14-67.64-2.38-30.74-12.74-54.09,6.17-81,9.45-15.67-1.09-27.43-14.8-43.41-14.33-36.94,1.07-72.89,17.07-112,7-38-16.42-76.44-12.53-113.24.86-3.68.53-7.54,1-11.59,1.2a148.94,148.94,0,0,1-23.43-.8c-3.94-.41-7.69-.82-11.31-1C1.22,359.9,0,360,0,360V5H479Z"/><path class="u" d="M479,359.61s-1.2.07-3.47,0c-2.76-.08-5.53-.13-8.33,0-23.77,8.88-44.27,3.76-67.6-2.65-30.62-12.33-54.17,6.38-81.25,9.42-15.69-1.08-27.48-14.66-43.53-14.09-36.8,1.3-72.61,17-111.44,6.82-38.2-16.17-77-12.21-114.12,1-3.64.51-7.44.94-11.42,1.15a153.29,153.29,0,0,1-23.06-.73c-3.91-.38-7.65-.78-11.25-.92-2.31-.09-3.52,0-3.52,0V4.61H479Z"/><path class="v" d="M479,359.26s-1.2.07-3.47,0c-2.76-.09-5.53-.14-8.33,0-23.73,8.74-44.26,3.4-67.57-2.91-30.5-11.91-54.23,6.58-81.46,9.39-15.72-1.07-27.52-14.53-43.64-13.85-36.67,1.52-72.34,16.92-110.87,6.68-38.42-15.93-77.53-11.88-115,1.11-3.6.49-7.34.9-11.25,1.1a158.58,158.58,0,0,1-22.7-.64c-3.88-.36-7.59-.75-11.19-.89-2.3-.09-3.51,0-3.51,0V4.26H479Z"/><path class="w" d="M479,358.9s-1.2.07-3.47,0c-2.76-.08-5.53-.13-8.32,0-23.69,8.6-44.27,3-67.55-3.16-30.37-11.51-54.29,6.78-81.68,9.35-15.73-1.06-27.55-14.39-43.75-13.61-36.52,1.75-72.05,16.84-110.29,6.54-38.63-15.69-78.07-11.56-115.88,1.24-3.55.46-7.24.85-11.08,1a161.35,161.35,0,0,1-22.34-.57c-3.84-.34-7.54-.71-11.12-.85-2.31-.08-3.51,0-3.51,0V3.9H479Z"/><path class="x" d="M479,358.55s-1.2.07-3.47,0c-2.76-.08-5.53-.14-8.32,0-23.65,8.44-44.26,2.66-67.52-3.43-30.24-11.09-54.36,7-81.89,9.33-15.76-1.07-27.59-14.26-43.86-13.38-36.39,2-71.78,16.76-109.72,6.4-38.85-15.44-78.61-11.24-116.77,1.37-3.5.43-7.13.8-10.9,1a166.25,166.25,0,0,1-22-.49c-3.81-.31-7.48-.67-11-.8-2.31-.09-3.51,0-3.51,0V3.55H479Z"/><path class="y" d="M479,358.19s-1.2.07-3.47,0c-2.76-.08-5.53-.13-8.32,0-23.6,8.3-44.26,2.3-67.49-3.68-30.12-10.69-54.42,7.18-82.1,9.29-15.78-1.06-27.63-14.13-44-13.14-36.25,2.19-71.5,16.69-109.16,6.26-39.06-15.2-79.14-10.91-117.64,1.49-3.46.41-7,.76-10.73.95A173.82,173.82,0,0,1,14.5,359c-3.77-.29-7.42-.64-11-.77-2.3-.08-3.5,0-3.5,0V3.19H479Z"/><path class="z" d="M479,357.84s-1.2.07-3.47,0c-2.76-.08-5.53-.14-8.32,0-23.56,8.16-44.25,1.93-67.46-3.94-30-10.28-54.48,7.39-82.31,9.26-15.81-1.05-27.67-14-44.09-12.9-36.11,2.4-71.22,16.61-108.58,6.12C125.5,341.45,85.09,345.81,46.25,358c-3.42.39-6.93.71-10.56.89a180.33,180.33,0,0,1-21.25-.33c-3.75-.27-7.38-.61-10.93-.73-2.3-.08-3.51,0-3.51,0V2.84H479Z"/><path class="aa" d="M479,357.48s-1.2.07-3.47,0c-2.76-.08-5.53-.13-8.32,0-23.52,8-44.25,1.56-67.43-4.2-29.87-9.87-54.55,7.59-82.52,9.22-15.83-1-27.72-13.86-44.2-12.66-36,2.62-70.95,16.53-108,6-39.49-14.71-80.22-10.27-119.4,1.74-3.38.37-6.83.67-10.38.85a190.75,190.75,0,0,1-20.9-.26c-3.71-.24-7.32-.57-10.87-.68-2.29-.08-3.5,0-3.5,0V2.48H479Z"/><path class="ab" d="M479,357.13s-1.2.07-3.47,0c-2.76-.08-5.53-.14-8.31,0-23.48,7.86-44.25,1.19-67.41-4.46-29.74-9.46-54.61,7.79-82.73,9.2-15.85-1-27.76-13.74-44.32-12.43-35.83,2.83-70.66,16.46-107.43,5.84-39.71-14.47-80.76-9.94-120.29,1.87-3.32.34-6.72.62-10.2.79a200.4,200.4,0,0,1-20.54-.17c-3.68-.22-7.27-.54-10.8-.65-2.29-.07-3.5,0-3.5,0V2.13H479Z"/><path class="ac" d="M479,356.77s-1.2.07-3.47,0c-2.76-.08-5.53-.13-8.31,0-23.44,7.72-44.25.83-67.38-4.71-29.62-9.05-54.67,8-82.94,9.16-15.88-1-27.8-13.61-44.43-12.19-35.69,3-70.39,16.38-106.86,5.7-39.92-14.22-81.3-9.62-121.17,2-3.28.32-6.62.58-10,.74-6.82.32-13.57.25-20.18-.09-3.64-.19-7.21-.5-10.73-.61-2.29-.07-3.5,0-3.5,0V1.77H479Z"/><path class="ad" d="M479,356.42s-1.2.07-3.47,0c-2.76-.08-5.53-.14-8.31,0-23.4,7.58-44.24.47-67.34-5-29.5-8.64-54.75,8.19-83.16,9.13-15.9-1-27.83-13.45-44.54-11.95-35.55,3.3-70.12,16.31-106.29,5.56-40.14-14-81.85-9.29-122,2.12-3.24.29-6.52.54-9.86.69-6.68.3-13.31.27-19.82,0-3.6-.16-7.15-.46-10.67-.56-2.29-.07-3.49,0-3.49,0V1.42H479Z"/><path class="ae" d="M479,356.06s-1.2.07-3.47,0c-2.76-.08-5.53-.13-8.31,0-23.35,7.43-44.24.09-67.31-5.23-29.38-8.23-54.81,8.39-83.37,9.09-15.93-1-27.88-13.34-44.66-11.71-35.41,3.47-69.83,16.23-105.72,5.42-40.35-13.73-82.38-9-122.92,2.24-3.2.28-6.42.5-9.69.64-6.54.29-13,.31-19.45.07-3.58-.14-7.11-.43-10.61-.53-2.29-.07-3.49,0-3.49,0V1.06H479Z"/><path class="af" d="M479,355.71s-1.2.07-3.47,0c-2.76-.08-5.53-.14-8.31,0-23.31,7.28-44.23-.27-67.28-5.49-29.25-7.82-54.87,8.6-83.58,9.07-15.95-1-27.92-13.23-44.77-11.48C236.31,351.47,202,364,166.44,353.1c-40.57-13.49-82.92-8.65-123.8,2.37-3.16.25-6.32.45-9.52.59-6.39.28-12.77.34-19.09.14-3.54-.11-7-.39-10.55-.49-2.28-.06-3.48,0-3.48,0V.71H479Z"/><path class="ag" d="M479,355.35s-1.2.07-3.47,0c-2.76-.08-5.53-.13-8.31,0C444,362.5,423,354.72,400,349.62c-29.13-7.41-54.94,8.79-83.79,9-16-1-28-13.12-44.89-11.24-35.13,3.82-69.27,16.08-104.57,5.14-40.78-13.24-83.46-8.32-124.69,2.5-3.11.22-6.21.4-9.34.53-6.25.27-12.5.37-18.73.22-3.51-.08-7-.35-10.48-.45-2.28-.06-3.48,0-3.48,0V.35H479Z"/><path class="ah" d="M479,355h-3.47a71.83,71.83,0,0,0-8.3,0C444,362,423,354,400,349c-29-7-55,9-84,9-16-1-28-13-45-11-35,4-69,16-104,5-41-13-84-8-125.57,2.62q-4.59.3-9.17.49c-6.11.25-12.23.37-18.37.3-3.47-.08-6.94-.23-10.41-.41H0V0H479Z"/></g><g class="ai"><path class="c" d="M479,355c0-1.14-.3-1-.88,0-.59.56-1.46-.11-2.59,0a1.66,1.66,0,0,1-2.07-.09c-.69-2.72-1.38,1.49-2.07,0-.7-2.81-1.39,1.58-2.08,0-.7,1.34-1.39,0-2.08.09-1,.83-1.94-3.73-2.9.79a2.1,2.1,0,0,0-2.87.65c-.95,2.61-1.9,3.07-2.85.51-.94-2.1-1.89-.44-2.83.38s-1.88,0-2.82.25-1.87,1.21-2.8.13c-.93-.66-1.86-1-2.79,0-.93-2.58-1.86.61-2.78-.08-.93.32-1.85,2.29-2.78-.17-.92,1.18-1.84-.46-2.76-.26-.92-1.33-1.84-2.48-2.76-.33-.92-4.28-1.84-.91-2.76-.41-.92-1.7-1.84.85-2.76-.47-.92-.47-1.84-1.23-2.76-.52-.92.55-1.84-1.11-2.76-.57-.92-.23-1.84-1.66-2.76-.61-.92-.42-1.85,2.92-2.77-.64-.93.39-1.85,2-2.78-.66a5.24,5.24,0,0,0-2.79-.68c-.93,2.82-1.86,0-2.8-.68-.93,2.11-1.87-.22-2.81-.69-.94.62-1.88-.23-2.83-.68-.94-.67-1.89,1.48-2.85-.66-.95-.09-1.9-1.93-2.86-.64a14.67,14.67,0,0,0-3-.64c-1-1.31-2,.35-3-.49a9.65,9.65,0,0,0-3-.35c-1-.48-2,1.57-2.93-.21-1,1-2,.47-2.92-.08-1,1.14-1.94-1-2.91,0-1,.83-1.93-1.17-2.89.14-1-1.84-1.92,1.08-2.88.24-1,1.54-1.92,2.55-2.87.32-1,0-1.91.43-2.87.4-.95-.18-1.9-2-2.85.47-1,0-1.9,2.27-2.85.53-.95,1.38-1.9,2.07-2.85.58-.95-.65-1.9,1.2-2.85.62s-1.89-.51-2.84.64c-.95,1.38-1.9-1.59-2.85.67-1,.17-1.9,1.48-2.85.67-.95.28-1.9,3.2-2.85.68-.95,4.74-1.9.31-2.85.67-1,1.44-1.91,0-2.87.65-.95-.16-1.91,4.13-2.87.63-1,1-1.92.62-2.88.58-1-2.13-1.93.37-2.89.54-1-.33-1.94-1.4-2.91.48-1-.08-1.94,1-2.92.42-1,1.71-1.95-1-2.93.34-1,1.55-2-2.2-3,.25s-2,1.22-3,.16c-1,1.72-2,.38-3,.06-.94,1.45-1.87,1.06-2.78-.29-.92,2.7-1.82.51-2.72-.48-.89.71-1.77-2.31-2.65-.65-.87-2.13-1.74,3.62-2.6-.79-.86-1.61-1.71-.74-2.56-.89-.85-1-1.69-1.54-2.53-1-.84-1.74-1.68.3-2.52-1-.84,1-1.67,0-2.51-1-.84-.56-1.67.29-2.51-1-.84.55-1.69-2.48-2.53-1-.85.66-1.7-1.53-2.56-.89-.86-1.6-1.73-1.19-2.6-.79-.87.84-1.75-2-2.64-.64-.89.83-1.79,1.08-2.71-.48-.91.17-1.83-1.54-2.77-.28s-1.89-.42-2.86,0c-1,.16-1.95-.42-2.95.21-1-2.71-1.94.56-2.91.35-1-1.06-1.94,1.12-2.9.39s-1.91,0-2.86.41c-1-.42-1.82,1.9-2.83.37-1-1.12-1.82,1-2.81.37-.93.14-1.79.92-2.81.43-.85.81-1.59,2.21-2.86.52-1-.31-2.2-2.46-3,.58-1.08-.65-2,.62-3,.58-1-.63-2,.84-3,.52a3.91,3.91,0,0,0-2.91.5c-1,.16-1.92,2.5-2.88.5-1-1.25-1.92-.35-2.88.48-1,1-1.92-2.11-2.88.47-1,.61-1.92-2.64-2.87.45s-1.92,1.32-2.88.43c-1,1.26-1.92,3.15-2.87.4-1,1.45-1.92,1-2.88.38-1,2.13-1.92-.11-2.88.33-1-.39-1.91-.88-2.87.3-1,.38-1.92,2.7-2.88.26-1-.16-1.94,2-2.92.45-1,.16-1.93.88-2.87.64-.94,2.82-1.86-.74-2.78.56-.92-1.46-1.83,1.76-2.74.38-.92-1.72-1.83,1.29-2.75.1-.92.35-1.86,1.88-2.8-.31a2.69,2.69,0,0,0-2.88-.65c-1,.95-2-.3-2.95-.74-1,.58-2-.31-3-.67-1-1.18-2,.07-3-.45-1,1.45-2-2-3-.47-1-2-1.93-1-2.9-.57-1-.85-1.94,1.2-2.91-.66-1,.24-1.93-1.17-2.91-.77-1-.84-1.94,1.07-2.91-.86-.95.84-1.91-.62-2.86-.88-1-2.92-1.92.39-2.87-.82-1,1.63-1.92.52-2.88-.76s-1.92-.53-2.88-.71c-1-.69-1.92-2-2.89-.65-1-4.21-1.93-1.55-2.89-.6a16.45,16.45,0,0,0-2.9-.55c-1-1.94-1.93,1.1-2.9-.5-1,.45-1.94-1.51-2.91-.44-1,1.8-1.94,1.48-2.91-.39-1-1.12-1.94-1.27-2.91-.35-1,1.3-1.95.72-2.92-.3-1,.63-1.95-2.21-2.92-.25-1,1-2-1-2.92-.2-1-.93-2,1.07-2.93-.16-1-.55-2,5-2.93-.11-1,1-2-2.64-2.93-.07-1,.82-2,1.27-2.94,0-1-2-2,.12-2.93,0-1-1.06-2-1.68-2.94.06-1-.85-2,.34-2.94.09-1,2.49-2,1.43-2.94.13-1,.61-2-1.95-2.94.17-1-1.95-2,0-2.94.21-1,1.36-2,.5-3,.25-1,1.31-2-.39-2.94.27-1,1.4-2,1.95-2.94.32-1-1.21-2,3.61-2.94.34-1,.55-2,2.37-2.94.38-1,1.41-2-2.12-2.94.41-1-1.82-2,.4-2.94.44-1,1.63-2-.84-2.93.47s-2-.23-2.94.5c-1-.78-2,1.91-2.93.52-1,2.26-2,2.86-2.93.56-1,1.34-2,1.68-2.93.57-1,.43-1.95-.11-2.92.61-1-.76-1.95-.36-2.93.62-1-1.94-1.94,1-2.91.65-1,.58-2-2.41-2.92.67-1,.29-1.94-1.62-2.91.7-1,1.63-1.94.14-2.91.71-1-.29-1.93,1.59-2.9.73a1.61,1.61,0,0,1-2.3.14c-.76-2.44-1.52-.1-2.29.13-.76.52-1.53-.58-2.29.12-.76,3.25-1.53,1.31-2.29.1-.87,3.75-1.75.73-2.62.1-.87,2.52-1.75,1.58-2.62.08-.87-.19-1.75,1.21-2.62.06s-1.75-.38-2.63,0c-.87,1.53-1.75-.26-2.62,0-.88,0-1.75,1.79-2.63,0-.88,1.49-1.75-1.62-2.63,0a3,3,0,0,0-2.6-.07c-.87-1.19-1.74-.47-2.61-.1s-1.73-.94-2.6-.11a2.23,2.23,0,0,1-2.6-.13,24.42,24.42,0,0,1-2.6,0c-.58-.46-.88-.61-.88,0V0H479V355Z"/></g><path class="aj" d="M479,343c0,.48-.3-.17-.88,0-.3-.4-.66-.16-1.09.07s-.93,1.35-1.5-.07c-.35-2.84-.69-1-1,.28-.34-2.47-.69-2.09-1-.37-.35,3.06-.69-1.49-1-1.43-.34-1.17-.69,0-1,1.41-.35,4.15-.7-1.94-1-.59-.35-3.25-.7-.35-1,.62-.23,6.89-.46,3.58-.7,2.29-.23,1.87-.46,1.93-.69-1.3-.23.7-.46-4.87-.69-.9-.49.88-1,2.6-1.45-.46-.48.56-1-3.65-1.45,1.25-.48-2.42-1-2.38-1.43,1.07-.48.26-1-3.51-1.44-.42-.47-2.07-.95-6.18-1.42-.07-.48,1.42-1,8.39-1.43.58-.47,1.54-.94-2-1.42-.26-.47-.32-.94.8-1.41.64-.47-.79-.94-4-1.41-.95-.47-4-.94,2.64-1.41,1.2-.47,3.47-.93-2.27-1.4.35-.47,1.59-.94,3.91-1.4-.22-.47.81-.93-.36-1.4,1.11-.46.84-.93-6.34-1.39-1.08-.47,2.63-.93.1-1.4.05-.46-.84-.92-1.31-1.38-.13-.31-4.62-.62-4.52-.93-1.61-.31-1.39-.62,2.12-.92-.58-.31,3.49-.62-.6-.93,2-.46.95-.92,1.26-1.38-.25-.46-.07-.92-1.48-1.38,0a9.19,9.19,0,0,1-1.38-.44c-.46,3.17-.92.54-1.38.11-.46.54-.92.79-1.38-.22-.46.56-.92-4-1.38-.19-.31-2.33-.61,4.4-.92,1.91-.31-2-.61,1.08-.92-.83-.31-3.38-.61-.67-.92-1.55-.46-2.2-.92.69-1.38-.52-.46-.5-.92,1.8-1.38,0-.46,2.75-.92-3.82-1.38.74-.46-2.13-.92.46-1.38-1.31-.46-1.15-.92-.58-1.38-.84-.46-.76-.92,3.23-1.38.23-.46-2.41-.92-.7-1.38.69-.47,2.71-.93-3.28-1.39-1.33-.46.73-.93,1.31-1.39.73-.46.79-.93-2.15-1.39-1.39-.46-1-.93.35-1.39-.34-.47-.44-.93.34-1.4-.34-.46.08-.93-1.76-1.4-.9-.46-1.32-.93,4.68-1.4.22-.46.8-.93.21-1.4-.31-.47-.19-.94,1.78-1.41-.38-.47-1.91-.94-3-1.41-1.07-.47-.29-.95,1.18-1.42.39-.47,1.4-.95-3.54-1.42.06-.47,1.2-1-2.53-1.43-.72-.47-1.88-.95.33-1.43-.95-.47,1.13-.95-.59-1.43.31-.5-1.69-1-.36-1.5-.89-.5-.7-1-.49-1.49.25-.5-1.22-1,.16-1.49-.38-.49-1.67-1,.35-1.48-.11-.49-1.79-1,.08-1.48-.39-.49,1.38-1-.8-1.47,0-.49,2.81-1,.88-1.47-.71-.49,1.37-1-.05-1.46.5s-1-1.75-1.47-.06c-.48-1.81-1,.79-1.45,0-.49,1.45-1-.24-1.46-.61-.48,1.39-1-.39-1.45.64s-1-3.69-1.45-.38c-.48-1.4-1-.72-1.44.52-.48.63-1-.23-1.44.3-.48,0-1,1.73-1.44-.06-.48.88-1,.33-1.44-.18-.48-2.26-.95.51-1.43.5-.48-4.69-1-1.08-1.44.58-.47-.14-.95-.63-1.43-.18-.47-2.26-.95-4.06-1.42-.58-.48,0-1-3.46-1.43,1.05-.48-.45-1,.18-1.43-.33-.47.38-1,1.41-1.42.86-.48.69-.95,2.38-1.43,1.15-.47,1.24-.95,2.63-1.42-.57-.48,3.59-.95-.57-1.42-.05-.48,3.19-1-.51-1.43.67-.47.55-.95.26-1.42-.74-.47.1-.95.28-1.42,1.38-.48-.82-.95,1.24-1.43.38-.47-1.45-.94.22-1.42.29-.47,1.64-1-.12-1.42.84-.48,1.55-.95-.4-1.43-.17-.47.82-.95-.63-1.42-.05-.48,3.82-.95,3.46-1.43.73-.47,2.15-.95,1.66-1.43,1.26-.47.74-1-2.11-1.42-.59-.48-.9-1-.55-1.43.56-.48-4.7-1-2-1.44.09-.48-.11-.95,3.34-1.43,1.43-.48-1.66-1,.3-1.44-.8-.48.71-1,2.54-1.44-.3-.48-1-1,.62-1.44.88-.48,1.76-1,.42-1.44.11-.49,1.27-1,2.13-1.45.43-.49,1.42-1,.6-1.45,0-.49.08-1,1.77-1.46.43-.48,2.6-1,2-1.45,1.19-.49-.29-1-1.33-1.47-.77-.32-3-.65,1.41-1-1.71-.33,2.32-.65-.82-1-.12-.33-1.26-.65-.95-1,2.17-.49,1.54-1,2.94-1.47,1.34-.49,1.86-1-1.12-1.48-1.09s-1,.34-1.48-.32c-.5-.5-1,2-1.49.48s-1-.28-1.49-.36c-.5.55-1-.61-1.5.42-.47,0-.94-.43-1.4.63-.47-1.64-.93-2.63-1.38-.92-.46-.39-.92-.06-1.37-1-.45-4-.9,1.51-1.35.56s-.89,2.57-1.33.37c-.44,0-.88-.58-1.32-1s-.87.23-1.3.93c-.44-.63-.87-2.25-1.3-1.72-.43-1.42-.86-.09-1.28-1.33-.43-.08-.85,2.68-1.28.44-.42-1.66-.85-1.7-1.27-1.48-.42,2.19-.84,1.5-1.26.51-.42-4.7-.84-2.8-1.26-.68-.42-.82-.84-1.06-1.26-.34-.42,1.62-.84-2.56-1.25.71-.42.95-.84-1.92-1.26-1.73-.42,1.74-.84-1.61-1.25-.22-.42.14-.84-2.85-1.26-.8-.42-2.08-.84.94-1.27.17s-.84.22-1.26-1.13c-.43,2.74-.85,1.59-1.28,1-.43,3.73-.85-.26-1.28-1.9-.43.07-.86,3.12-1.3.5-.43.45-.86.09-1.3-1.29s-.87-.78-1.31-.41c-.44.92-.89.43-1.33-.23-.45-1.49-.9,1-1.35.2-.45,1.49-.9-.8-1.36-.68-.45-.71-.91-3.21-1.38-.36-.46,3.11-.92-1.43-1.39.08-.47-1-.94-1.84-1.42-.12-.48,2.63-1,.48-1.44.08-.48,1.58-1-.26-1.46.32-.49-.32-1,.7-1.49-.11-.49-2.18-1-.77-1.46.55-.48,2-1,1.72-1.45-.2-.49.83-1-1.45-1.46.95-.48.55-1-1.37-1.45-.56-.49.6-1-.11-1.46-.89-.48-2.4-1-.77-1.45,1.3-.48-2.09-1-.29-1.45-.25-.49-2.56-1,.59-1.45.69-.49-.89-1,.38-1.45.4-.49.26-1-1.31-1.45.06-.48-1.35-1,.87-1.45-.23-.48-.34-1-.7-1.45.7-.48,2.07-1,.44-1.44.3-.48-.58-1,1.5-1.45.19-.48-.83-1-1.64-1.44-.4-.48-1.74-1-.84-1.45.9-.48-.89-1,3.7-1.44.85-.48.83-1-3-1.44-.34-.48,0-1-.26-1.45,0-.48.52-1-2.25-1.44.49a1.48,1.48,0,0,1-1.44-.19c-.48-2.62-1,1.09-1.44.69-.48.2-1,2.71-1.44,1-.48.38-1,1.27-1.44-.51-.48.51-1,1.87-1.44.23-.48,1.59-1,.08-1.44.25-.48,1.27-1,2.3-1.44.59-.48-.09-1,.3-1.44-.12-.48-.85-1,2.54-1.44.81-.48.73-.95.65-1.43-.36-.48-1.37-1,.53-1.44-.65-.48-2-1,1-1.44,1.08-.48.29-1-.27-1.44.66-.48,0-1,1.05-1.43-.26-.48-2.4-1-.84-1.44-.58-.48-.54-1,1.62-1.44,1-.48-1.11-1,0-1.44-.75-.48,1.2-1-1.36-1.44,1.08-.47-.93-1-2-1.43.22-.48-2.94-1,2.41-1.44.08-.48,1.19-1,1-1.44-.06-.48,1-1-.36-1.44.31-.48,2.4-1,2.42-1.43-.75-.48,2.2-1,1.34-1.44,1-.48,1.57-1,.47-1.44.42-.48.54-1,.35-1.44-.26-.48-1.29-1,.39-1.44-.14-.48,3.78-1,1.95-1.44.24-.48.52-1,3.39-1.44.32-.48,1.42-1-1.23-1.44-.27a2.21,2.21,0,0,1-1.44,1c-.48-2.4-1,.15-1.44-1.06-.48.31-1,1.85-1.44,1.2-.48.86-1,.67-1.45-1.29-.48-1.06-1,1.11-1.44.48-.48-.38-1,.18-1.44-.63-.48.37-1-2.38-1.45.06-.48.13-1,2.76-1.44-.29-.48-1.5-1-.15-1.45-.39-.48.16-1-1.44-1.44.08-.49.93-1-.24-1.45.34-.48-2.28-1,.14-1.45-.73-.48-2-1-3.19-1.45-.59-.48-.35-1,1.52-1.45.11s-1,3-1.45.67c-.48.23-1,1-1.45-1.24-.48-.1-1,1.49-1.45-.47-.49-.17-1,.57-1.46-.19-.48,1.52-1,.59-1.45,0-.49.34-1-1.78-1.46-.79-.48-1.67-1-2.43-1.45-2-.49-1.32-1,1-1.46,1.11-.48-.21-.95-.79-1.43.1-.48-1-1,.37-1.43-1-.48,1.18-1,.47-1.44-.78-.48.54-.95-1.29-1.43,0-.48.28-1-.29-1.44.27-.48-.84-1,.3-1.44-1-.48-3.27-1-2.11-1.44-1.79-.48-.26-1,1.32-1.44,1.08-.48,2.28-1,2-1.44.23-.49.57-1-.59-1.45-.88-.48-1-1,.23-1.44.11-.49,1-1-.78-1.45-.71-.48-1.29-1-.4-1.45-.92s-1,.76-1.45.37c-.48-1.3-1-2.12-1.45-1.62-.48-1-1,.52-1.45,1.12-.48,1.93-1-.44-1.45,0-.49.72-1,.84-1.46-.44s-1-2.56-1.45-1.14c-.49-1.11-1,.47-1.46.75-.48.85-1,.47-1.45.27-.49-1.42-1-1.23-1.46-.62-.49-2.11-1-3.2-1.46.22-.49,1.81-1,.16-1.46-.52-.48.77-1,2.17-1.46,1.25-.49.08-1-1.66-1.46-1.5-.49,1.65-1,1-1.46-.65-.49,1.43-1,.68-1.46.45-.49-.6-1-.66-1.47-.11-.49-1.13-1-1.62-1.46-.05-.49-.37-1-.78-1.47-.35-.48-.32-1,.52-1.46.24-.49-2.89-1-.66-1.47-.49-.49-2.23-1-1.76-1.46.42-.49-.88-1-.25-1.47.56-.49-.86-1-.91-1.47-.59a1,1,0,0,1-1.47.56c-.49-.34-1-.06-1.46-.55-.49.19-1,1-1.47.31-.49-1.37-1,.36-1.47-.25-.49-.36-1-1.18-1.47.39-.49-.58-1,1.22-1.47-.3-.49-1.1-1-.16-1.47.83-.49-1.57-1-.29-1.47-.7-.49,1.53-1-.77-1.47-.7-.49-2.21-1,1.93-1.47.87-.49.35-1,.75-1.47.1-.49-1.65-1,.29-1.47.11-.49-1.39-1-1.42-1.47-.37-.49-.2-1,2.15-1.48.62-.49-.64-1-.64-1.47.06-.49-.5-1,2.2-1.47.21-.49.51-1,1.63-1.47-.63-.49-.12-1-.35-1.47.95-.49.92-1,1.72-1.47.14-.49.17-1,2.09-1.47.2-.49.1-1-.17-1.47.4-.49,1.4-1-2.23-1.47,0-.49.17-1,.86-1.47-.08-.49-1.6-1-.82-1.47.49-.49-1.47-1,0-1.47-.21-.49,2.12-1,4.09-1.47.65-.49.08-1,2.42-1.47-.84-.49-1.09-1,.17-1.46,1.31-.49-.87-1,4.09-1.47,1.34-.49-1.71-1-2.82-1.47-.84-.49-1.2-1,2-1.47-.14-.48.09-1,4.18-1.46.66-.49-2.45-1,.44-1.47-.8-.48-5.41-1,.79-1.46,1.36-.49-.29-1-1-1.47-.32-.48,2.56-1,2.08-1.46.89-.49-1-1-1-1.46-.3-.49.13-1,3.84-1.46.91-.49-1.2-1-.18-1.47-.34-.48-1.93-1,1.53-1.46,1-.48,1.11-1,3.89-1.46,1.13-.48,1.23-1-1.56-1.45-.48-.49,1.71-1,2.6-1.46,0-.49-.67-1-2.18-1.46.7-.48-.46-1,0-1.46,1.23-.48-.7-1,.55-1.45-.53-.48.8-1-1.13-1.45.75-.49,1.32-1-.45-1.46,0-.48-1.63-1-3.48-1.45.49-.48-1.06-1-2.59-1.45.24-.38.9-.77-.27-1.15.57-.38-1.43-.76-1.33-1.15-.43-.38,2.91-.76,1.48-1.14-.88-.38,1.21-.77,1.17-1.15,1a3.81,3.81,0,0,1-1.14-1.27c-.39,1-.77,1.26-1.15,1.39-.38.75-.76,1-1.14.2-.39-1.48-.77-1.68-1.15-.1-.44.88-.87,1.77-1.31,1.38s-.87,1.11-1.31-1.28c-.44-1.24-.87.53-1.31.27-.44,1.13-.87-1.28-1.31-.19a1.55,1.55,0,0,1-1.31.71c-.44.28-.87-.66-1.31-.65s-.88-1.09-1.31-.12c-.44-.16-.88,1.16-1.32.17-.43-1.9-.87,2.86-1.31.66-.44-1.63-.87-.62-1.31-.64-.44,1.57-.88.22-1.31.41-.44-1.61-.88-.92-1.32-.4-.44-1.08-.88-1.15-1.31.19-.44-.89-.88-1.07-1.32-.21-.43-.37-.87-.78-1.3-.52-.44-.32-.87.15-1.3.45-.44-.37-.87-.7-1.31-.52a2.28,2.28,0,0,1-1.3.42c-.87-.31-1.73-1-2.6-.11a3.2,3.2,0,0,0-2.6-.13c-1.14,1.3-2,1.83-2.6,0S0,343,0,343V0H479V343Z"/></g></svg>